<svg xmlns="http://www.w3.org/2000/svg" xmlns:xlink="http://www.w3.org/1999/xlink" xmlns:lucid="lucid" width="2502" height="922"><g transform="translate(1139 3995)" lucid:page-tab-id="0_0"><path d="M-1500-4000h4500v9500h-4500z" fill="#fff"/><path d="M-1102.78-3957.33h40v840h-40zM-1061.78-3957.33h39v520h-39M-1061.78-3437.33h39v320h-39" stroke="#000" stroke-width="2" fill="#fff"/><path d="M-1022.78-3957.33h2360v520h-2360zM-1022.78-3437.33h2360v320h-2360z" stroke="#000" stroke-width="2" fill="none"/><use xlink:href="#a" transform="matrix(-1.8369701987210297e-16,-1,1,-1.8369701987210297e-16,-1102.779296875,-3117.333333333334) translate(195.931640625 26.5478515625)"/><use xlink:href="#b" transform="matrix(-1.8369701987210297e-16,-1,1,-1.8369701987210297e-16,-1102.779296875,-3117.333333333334) translate(312.861328125 26.5478515625)"/><use xlink:href="#c" transform="matrix(-1.8369701987210297e-16,-1,1,-1.8369701987210297e-16,-1102.779296875,-3117.333333333334) translate(339.439453125 26.5478515625)"/><use xlink:href="#d" transform="matrix(-1.8369701987210297e-16,-1,1,-1.8369701987210297e-16,-1102.779296875,-3117.333333333334) translate(402.10546875 26.5478515625)"/><use xlink:href="#e" transform="matrix(-1.8369701987210297e-16,-1,1,-1.8369701987210297e-16,-1102.779296875,-3117.333333333334) translate(417.2841796875 26.5478515625)"/><use xlink:href="#f" transform="matrix(-1.8369701987210297e-16,-1,1,-1.8369701987210297e-16,-1102.779296875,-3117.333333333334) translate(520.0546875 26.5478515625)"/><use xlink:href="#g" transform="matrix(-1.8369701987210297e-16,-1,1,-1.8369701987210297e-16,-1102.779296875,-3117.333333333334) translate(563.3056640625 26.5478515625)"/><use xlink:href="#h" transform="matrix(-1.8369701987210297e-16,-1,1,-1.8369701987210297e-16,-1062.779296875,-3437.333333333334) translate(183.6142578125 26.5478515625)"/><use xlink:href="#i" transform="matrix(-1.8369701987210297e-16,-1,1,-1.8369701987210297e-16,-1062.779296875,-3437.333333333334) translate(251.7822265625 26.5478515625)"/><use xlink:href="#j" transform="matrix(-1.8369701987210297e-16,-1,1,-1.8369701987210297e-16,-1062.779296875,-3437.333333333334) translate(265.1240234375 26.5478515625)"/><use xlink:href="#k" transform="matrix(-1.8369701987210297e-16,-1,1,-1.8369701987210297e-16,-1062.7792968750005,-3117.333333333334) translate(127.2783203125 26.5478515625)"/><path d="M-882.78-3700.83c0 16.57-13.43 30-30 30s-30-13.43-30-30 13.43-30 30-30 30 13.43 30 30z" stroke="#000" stroke-width="2" fill="#fff"/><use xlink:href="#l" transform="matrix(1,0,0,1,-942.779296875,-3668.8333333333335) translate(1.2295658416961253 15.23569768319095)"/><use xlink:href="#m" transform="matrix(1,0,0,1,-942.779296875,-3668.8333333333335) translate(7.372992326853762 38.0708139285219)"/><use xlink:href="#n" transform="matrix(1,0,0,1,-942.779296875,-3668.8333333333335) translate(-0.6057828207447216 60.90593017385285)"/><use xlink:href="#o" transform="matrix(1,0,0,1,-942.779296875,-3668.8333333333335) translate(4.8349892601730105 83.7410464191838)"/><use xlink:href="#p" transform="matrix(1,0,0,1,-942.779296875,-3668.8333333333335) translate(25.580572572239724 106.57616266451475)"/><use xlink:href="#q" transform="matrix(1,0,0,1,-942.779296875,-3668.8333333333335) translate(-12.685295147185933 129.4112789098457)"/><path d="M-802.78-3740.83h160v80h-160z" stroke="#000" stroke-width="2" fill="#fff"/><use xlink:href="#r" transform="matrix(1,0,0,1,-802.779296875,-3740.8333333333335) translate(21.272089843749995 46.5)"/><use xlink:href="#s" transform="matrix(1,0,0,1,-802.779296875,-3740.8333333333335) translate(89.42248046875 46.5)"/><path d="M-881.28-3700.83h61.12" stroke="#333" fill="none"/><path d="M-881.27-3700.36h-.55l.04-.45v-.5h.5z" stroke="#333" stroke-width=".05" fill="#333"/><path d="M-805.4-3700.83l-14.26 4.63v-9.27z" stroke="#333" fill="#333"/><path d="M-842.78-3377.33h200v80h-200z" stroke="#000" stroke-width="2" fill="#fff"/><use xlink:href="#t" transform="matrix(1,0,0,1,-842.779296875,-3377.3333333333335) translate(12.782343750000004 33.375)"/><use xlink:href="#u" transform="matrix(1,0,0,1,-842.779296875,-3377.3333333333335) translate(75.50109375000001 33.375)"/><use xlink:href="#v" transform="matrix(1,0,0,1,-842.779296875,-3377.3333333333335) translate(136.6817578125 33.375)"/><use xlink:href="#w" transform="matrix(1,0,0,1,-842.779296875,-3377.3333333333335) translate(163.2598828125 33.375)"/><use xlink:href="#x" transform="matrix(1,0,0,1,-842.779296875,-3377.3333333333335) translate(12.228632812500004 59.510156249999994)"/><use xlink:href="#y" transform="matrix(1,0,0,1,-842.779296875,-3377.3333333333335) translate(74.89464843750001 59.510156249999994)"/><use xlink:href="#z" transform="matrix(1,0,0,1,-842.779296875,-3377.3333333333335) translate(90.07335937500001 59.510156249999994)"/><path d="M-242.78-3700.83l37.5-37.5 37.5 37.5-37.5 37.5z" stroke="#000" stroke-width="2" fill="#fff"/><use xlink:href="#A" transform="matrix(1,0,0,1,-242.779296875,-3663.3333333333335) translate(17.126953125 17.4375)"/><use xlink:href="#B" transform="matrix(1,0,0,1,-242.779296875,-3663.3333333333335) translate(8.5576171875 43.572656249999994)"/><path d="M157.22-3357.33h180v100h-180z" stroke="#000" stroke-width="2" fill="#fff"/><use xlink:href="#C" transform="matrix(1,0,0,1,157.220703125,-3357.3333333333335) translate(15.614375000000004 30.328125)"/><use xlink:href="#D" transform="matrix(1,0,0,1,157.220703125,-3357.3333333333335) translate(90.68175781250001 30.328125)"/><use xlink:href="#E" transform="matrix(1,0,0,1,157.220703125,-3357.3333333333335) translate(142.88 30.328125)"/><use xlink:href="#F" transform="matrix(1,0,0,1,157.220703125,-3357.3333333333335) translate(29.966914062500003 56.463281249999994)"/><use xlink:href="#v" transform="matrix(1,0,0,1,157.220703125,-3357.3333333333335) translate(76.32921875 56.463281249999994)"/><use xlink:href="#G" transform="matrix(1,0,0,1,157.220703125,-3357.3333333333335) translate(102.90734375 56.463281249999994)"/><use xlink:href="#H" transform="matrix(1,0,0,1,157.220703125,-3357.3333333333335) translate(42.653925781249995 82.59843749999999)"/><path d="M-641.28-3700.83h71.12" stroke="#333" fill="none"/><path d="M-641.27-3700.36h-.5v-.95h.5z" stroke="#333" stroke-width=".05" fill="#333"/><path d="M-555.4-3700.83l-14.26 4.63v-9.27z" stroke="#333" fill="#333"/><path d="M-371.28-3700.83h110.7" stroke="#333" fill="none"/><path d="M-371.27-3700.36h-.5v-.95h.5z" stroke="#333" stroke-width=".05" fill="#333"/><path d="M-245.8-3700.83l-14.28 4.63v-9.27z" stroke="#333" fill="#333"/><path d="M-165.87-3700.83h700.84a1.25 1.25 0 0 0 1.25-1.25 1.25 1.25 0 0 1 1.25-1.25h22.37" stroke="#333" fill="none"/><path d="M-165.85-3700.36h-1l.48-.47-.47-.48h1z" stroke="#333" stroke-width=".05" fill="#333"/><path d="M574.6-3703.33l-14.26 4.63v-9.27z" stroke="#333" fill="#333"/><use xlink:href="#I" transform="matrix(1,0,0,1,104.01968698390414,-3696.8333333333335) translate(0.009999999999990905 17.4375)"/><use xlink:href="#J" transform="matrix(1,0,0,1,104.01968698390414,-3696.8333333333335) translate(96.38207031249999 17.4375)"/><use xlink:href="#K" transform="matrix(1,0,0,1,104.01968698390414,-3696.8333333333335) translate(159.3293359375 17.4375)"/><path d="M338.72-3307.33h61.12" stroke="#333" fill="none"/><path d="M338.73-3306.86h-.5v-.95h.5z" stroke="#333" stroke-width=".05" fill="#333"/><path d="M414.6-3307.33l-14.26 4.63v-9.27z" stroke="#333" fill="#333"/><path d="M577.22-3743.33h160v80h-160z" stroke="#000" stroke-width="2" fill="#fff"/><use xlink:href="#L" transform="matrix(1,0,0,1,577.220703125,-3743.3333333333335) translate(34.350214843749995 33.375)"/><use xlink:href="#M" transform="matrix(1,0,0,1,577.220703125,-3743.3333333333335) translate(17.690546875000003 59.510156249999994)"/><use xlink:href="#v" transform="matrix(1,0,0,1,577.220703125,-3743.3333333333335) translate(80.63781250000001 59.510156249999994)"/><use xlink:href="#K" transform="matrix(1,0,0,1,577.220703125,-3743.3333333333335) translate(107.21593750000001 59.510156249999994)"/><path d="M1217.22-3307.33c0 16.57-13.43 30-30 30s-30-13.43-30-30 13.43-30 30-30 30 13.43 30 30z" stroke="#000" stroke-width="6" fill="#fff"/><use xlink:href="#N" transform="matrix(1,0,0,1,1157.220703125,-3275.3333333333335) translate(17.18994140625 17.4375)"/><path d="M738.72-3703.33h36.5a12 12 0 0 1 12 12v372a12 12 0 0 0 12 12h20.62" stroke="#333" fill="none"/><path d="M738.73-3702.86h-.5v-.95h.5z" stroke="#333" stroke-width=".05" fill="#333"/><path d="M834.6-3307.33l-14.26 4.63v-9.27z" stroke="#333" fill="#333"/><path d="M-722.78-3659.33v130.25a10 10 0 0 1-10 10 10 10 0 0 0-10 10v114.36" stroke="#333" fill="none"/><path d="M-722.3-3659.32h-.95v-.5h.95z" stroke="#333" stroke-width=".05" fill="#333"/><path d="M-742.78-3379.95l-4.63-14.27h9.26z" stroke="#333" fill="#333"/><path d="M837.22-3357.33h233.2v100h-233.2z" stroke="#000" stroke-width="2" fill="#fff"/><use xlink:href="#O" transform="matrix(1,0,0,1,837.220703125,-3357.3333333333335) translate(40.7344921875 56.5)"/><use xlink:href="#P" transform="matrix(1,0,0,1,837.220703125,-3357.3333333333335) translate(109.93078125000001 56.5)"/><path d="M1071.92-3307.33h68.92" stroke="#333" fill="none"/><path d="M1071.93-3306.86h-.5v-.95h.5z" stroke="#333" stroke-width=".05" fill="#333"/><path d="M1155.6-3307.33l-14.26 4.63v-9.27z" stroke="#333" fill="#333"/><path d="M417.22-3357.33h180v100h-180z" stroke="#000" stroke-width="2" fill="#fff"/><g><use xlink:href="#Q" transform="matrix(1,0,0,1,417.220703125,-3357.3333333333335) translate(17.205195312500003 30.328125)"/><use xlink:href="#R" transform="matrix(1,0,0,1,417.220703125,-3357.3333333333335) translate(91.44640625000001 30.328125)"/><use xlink:href="#v" transform="matrix(1,0,0,1,417.220703125,-3357.3333333333335) translate(13.263300781250004 56.463281249999994)"/><use xlink:href="#S" transform="matrix(1,0,0,1,417.220703125,-3357.3333333333335) translate(39.84142578125 56.463281249999994)"/><use xlink:href="#T" transform="matrix(1,0,0,1,417.220703125,-3357.3333333333335) translate(156.63927734375 56.463281249999994)"/><use xlink:href="#U" transform="matrix(1,0,0,1,417.220703125,-3357.3333333333335) translate(61.8360546875 82.59843749999999)"/></g><path d="M293.93-3868.66l1.9.46 1.8.75 1.68 1.02 1.5 1.27 1.27 1.5 1.03 1.66.75 1.8.45 1.9.15 1.95v481.63h-.95v-481.6l-.14-1.82-.42-1.75-.7-1.66-.94-1.55-1.17-1.38-1.38-1.18-1.54-.94-1.66-.7-1.76-.4-1.82-.16h-485.22l-1.82.14-1.76.43-1.67.7-1.55.94-1.38 1.18-1.17 1.37-.95 1.53-.7 1.68-.4 1.76-.15 1.82v116.07h-.95v-116.1l.15-1.93.45-1.9.75-1.82 1.03-1.67 1.27-1.5 1.5-1.26 1.66-1.02 1.8-.75 1.9-.46 1.94-.15H292z" stroke="#333" stroke-width=".05" fill="#333"/><path d="M-204.8-3739.27l-.48-.48-.47.48v-1h.95z" fill="#333"/><path stroke="#333" stroke-width=".05" fill="#333"/><path d="M303.98-3359.95l-4.64-14.27h9.27z" fill="#333"/><path d="M303.98-3358.4l-5.3-16.3h10.6zm-3.98-15.34l3.98 12.25 3.98-12.24z" stroke="#333" stroke-width=".05" fill="#333"/><g><use xlink:href="#I" transform="matrix(1,0,0,1,-76.17718024397257,-3864.3333333333344) translate(0.009999999999990905 17.4375)"/><use xlink:href="#J" transform="matrix(1,0,0,1,-76.17718024397257,-3864.3333333333344) translate(96.38207031249999 17.4375)"/><use xlink:href="#V" transform="matrix(1,0,0,1,-76.17718024397257,-3864.3333333333344) translate(159.3293359375 17.4375)"/></g><path d="M-100.16-3517.8v.94h-51.05v-.95zm-104.64-35.03h-.95v-108.6h.95z" stroke="#333" stroke-width=".05" fill="#333"/><path d="M-204.8-3661.4h-.95v-1l.47.48.48-.47z" fill="#333"/><path stroke="#333" stroke-width=".05" fill="#333"/><path d="M-85.4-3517.33l-14.26 4.63v-9.27z" fill="#333"/><path d="M-83.86-3517.33l-16.28 5.3v-10.6zm-15.33 3.98l12.27-3.98-12.26-4z" stroke="#333" stroke-width=".05" fill="#333"/><g><use xlink:href="#W" transform="matrix(1,0,0,1,-259.349609375,-3552.8334531146475) translate(16.841054687500005 17.4375)"/><use xlink:href="#X" transform="matrix(1,0,0,1,-259.349609375,-3552.8334531146475) translate(0.010000000000005116 43.572656249999994)"/><use xlink:href="#Y" transform="matrix(1,0,0,1,-259.349609375,-3552.8334531146475) translate(62.957265625000005 43.572656249999994)"/></g><path d="M-407.24-3309.35l.14 1.82.42 1.76.7 1.67.94 1.54 1.17 1.38 1.38 1.17 1.55.93 1.67.7 1.76.42 1.82.14h251.42v.94h-251.46l-1.93-.15-1.9-.47-1.8-.75-1.68-1.02-1.5-1.27-1.26-1.5-1.03-1.67-.75-1.8-.46-1.9-.15-1.95v-326.63h.96z" stroke="#333" stroke-width=".05" fill="#333"/><path d="M-143.78-3296.86h-.5v-.95h.5z" fill="#333"/><path stroke="#333" stroke-width=".05" fill="#333"/><path d="M-403.08-3636.45h-9.27l4.63-14.27z" fill="#333"/><path d="M-402.43-3635.97H-413l5.28-16.28zm-9.27-.95h7.96l-3.98-12.26z" stroke="#333" stroke-width=".05" fill="#333"/><path d="M-552.78-3748.33h180v95h-180z" stroke="#000" stroke-width="2" fill="#fff"/><g><use xlink:href="#Z" transform="matrix(1,0,0,1,-552.779296875,-3748.3333333333335) translate(15.715449218750004 40.81640625)"/><use xlink:href="#aa" transform="matrix(1,0,0,1,-552.779296875,-3748.3333333333335) translate(96.57482421875001 40.81640625)"/><use xlink:href="#ab" transform="matrix(1,0,0,1,-552.779296875,-3748.3333333333335) translate(53.315058593749995 66.9515625)"/></g><path d="M-2.78-3475.83v121.1" stroke="#333" fill="none"/><path d="M-2.3-3475.82h-.95v-.5h.95z" stroke="#333" stroke-width=".05" fill="#333"/><path d="M-2.78-3339.95l-4.63-14.27h9.26z" stroke="#333" fill="#333"/><path d="M-467.4-3228.35l.16 1.82.42 1.76.7 1.67.94 1.54 1.17 1.38 1.36 1.17 1.55.93 1.68.7 1.75.42 1.83.14H495.2l1.82-.15 1.76-.42 1.67-.7 1.54-.94 1.37-1.18 1.17-1.38.95-1.54.68-1.67.42-1.76.15-1.82v-27.48h.95v27.5l-.16 1.95-.45 1.9-.76 1.8-1.03 1.68-1.26 1.5-1.5 1.26-1.66 1.02-1.8.75-1.9.46-1.94.14h-951.12l-1.93-.15-1.92-.47-1.8-.75-1.68-1.02-1.48-1.27-1.28-1.5-1.02-1.67-.75-1.8-.45-1.9-.16-1.95v-407.63h.95z" stroke="#333" stroke-width=".05" fill="#333"/><path d="M507.7-3255.82h-.95v-.5h.95z" fill="#333"/><path stroke="#333" stroke-width=".05" fill="#333"/><path d="M-463.23-3636.45h-9.27l4.64-14.27z" fill="#333"/><path d="M-462.57-3635.97h-10.58l5.3-16.28zm-9.27-.95h7.96l-3.98-12.26z" stroke="#333" stroke-width=".05" fill="#333"/><path d="M-142.78-3337.33h200v80h-200z" stroke="#000" stroke-width="2" fill="#fff"/><g><use xlink:href="#ac" transform="matrix(1,0,0,1,-142.779296875,-3337.3333333333335) translate(36.6094921875 33.375)"/><use xlink:href="#ad" transform="matrix(1,0,0,1,-142.779296875,-3337.3333333333335) translate(107.28234375000001 33.375)"/><use xlink:href="#ae" transform="matrix(1,0,0,1,-142.779296875,-3337.3333333333335) translate(69.88927734375001 59.510156249999994)"/></g><path d="M-82.78-3557.33h160v80h-160z" stroke="#000" stroke-width="2" fill="#fff"/><g><use xlink:href="#af" transform="matrix(1,0,0,1,-82.779296875,-3557.3333333333335) translate(30.113886718750003 33.375)"/><use xlink:href="#ag" transform="matrix(1,0,0,1,-82.779296875,-3557.3333333333335) translate(75.92248046875 33.375)"/><use xlink:href="#T" transform="matrix(1,0,0,1,-82.779296875,-3557.3333333333335) translate(119.78869140625 33.375)"/><use xlink:href="#ah" transform="matrix(1,0,0,1,-82.779296875,-3557.3333333333335) translate(51.40978515625 59.510156249999994)"/></g><defs><path d="M600 0L52-1490h200c166 485 304 806 458 1336 156-533 285-846 449-1336h202L819 0H600" id="ai"/><path d="M158 0v-1118h180V0H158zm91-1301c-68 0-125-53-125-119s57-119 125-119c69 0 126 53 126 119s-57 119-126 119" id="aj"/><path d="M538 24C308 24 148-78 108-271l171-41c32 123 123 178 257 178 156 0 256-77 256-169 0-77-54-128-164-154l-186-44c-203-48-300-148-300-305 0-192 176-326 414-326 230 0 351 112 402 269l-163 42c-31-80-94-158-238-158-133 0-233 69-233 162 0 83 57 129 188 160l169 40c203 48 298 149 298 302 0 196-179 339-441 339" id="ak"/><path d="M537 14c-226 0-379-139-379-422v-710h180v695c0 172 97 275 253 275 160 0 281-109 281-300v-670h181V0H879v-209C806-46 684 14 537 14" id="al"/><path d="M471 26C259 26 90-98 90-318c0-256 228-303 435-329 202-27 287-16 287-108 0-139-79-219-234-219-161 0-248 86-283 164l-173-57c86-203 278-265 451-265 150 0 419 46 419 395V0H815v-152h-12C765-73 660 26 471 26zm31-159c199 0 310-134 310-271v-155c-30 35-226 55-295 64-131 17-246 59-246 186 0 116 97 176 231 176" id="am"/><path d="M338-1490V0H158v-1490h180" id="an"/><path d="M126 0v-134l627-806v-11H146v-167h839v143L376-178v11h629V0H126" id="ao"/><path d="M613 24c-304 0-509-231-509-576 0-350 205-580 509-580 216 0 392 114 453 309l-173 49c-33-115-133-197-280-197-223 0-326 196-326 419 0 220 103 415 326 415 150 0 252-85 285-206l172 49C1010-95 832 24 613 24" id="ap"/><path d="M613 24c-304 0-509-231-509-576 0-350 205-580 509-580 305 0 511 230 511 580 0 345-206 576-511 576zm0-161c226 0 329-195 329-415 0-222-103-419-329-419-223 0-326 196-326 419 0 220 103 415 326 415zm-79-1127l140-294h201l-194 294H534" id="aq"/><path d="M338-670V0H158v-1118h173l1 207c72-158 192-221 342-221 226 0 378 139 378 422V0H872v-695c0-172-96-275-252-275-161 0-282 109-282 300" id="ar"/><g id="a"><use transform="matrix(0.0087890625,0,0,0.0087890625,0,0)" xlink:href="#ai"/><use transform="matrix(0.0087890625,0,0,0.0087890625,12.4189453125,0)" xlink:href="#aj"/><use transform="matrix(0.0087890625,0,0,0.0087890625,16.7783203125,0)" xlink:href="#ak"/><use transform="matrix(0.0087890625,0,0,0.0087890625,26.279296875,0)" xlink:href="#al"/><use transform="matrix(0.0087890625,0,0,0.0087890625,36.9228515625,0)" xlink:href="#am"/><use transform="matrix(0.0087890625,0,0,0.0087890625,47.0302734375,0)" xlink:href="#an"/><use transform="matrix(0.0087890625,0,0,0.0087890625,51.3896484375,0)" xlink:href="#aj"/><use transform="matrix(0.0087890625,0,0,0.0087890625,55.7490234375,0)" xlink:href="#ao"/><use transform="matrix(0.0087890625,0,0,0.0087890625,65.689453125,0)" xlink:href="#am"/><use transform="matrix(0.0087890625,0,0,0.0087890625,75.796875,0)" xlink:href="#ap"/><use transform="matrix(0.0087890625,0,0,0.0087890625,86.080078125,0)" xlink:href="#aj"/><use transform="matrix(0.0087890625,0,0,0.0087890625,90.439453125,0)" xlink:href="#aq"/><use transform="matrix(0.0087890625,0,0,0.0087890625,101.232421875,0)" xlink:href="#ar"/></g><path d="M577 24c-279 0-473-224-473-580 0-354 195-576 474-576 218 0 287 134 324 193h14v-551h180V0H922v-173h-20C865-111 790 24 577 24zm27-161c203 0 314-172 314-421 0-247-108-413-314-413-212 0-317 181-317 413 0 235 108 421 317 421" id="as"/><path d="M628 24c-324 0-524-230-524-574 0-343 198-582 503-582 237 0 487 146 487 559v75H286c9 234 145 362 343 362 132 0 231-58 273-172l174 48C1024-91 857 24 628 24zM287-650h624c-17-190-120-322-304-322-192 0-309 151-320 322" id="at"/><g id="b"><use transform="matrix(0.0087890625,0,0,0.0087890625,0,0)" xlink:href="#as"/><use transform="matrix(0.0087890625,0,0,0.0087890625,11.021484375,0)" xlink:href="#at"/></g><path d="M158 0v-1118h174v172h12c41-113 157-188 290-188 26 0 70 2 91 3v181c-11-2-60-10-108-10-161 0-279 109-279 260V0H158" id="au"/><path d="M598-1118v154H368v674c0 100 37 144 132 144 23 0 62-6 92-12L629-6c-37 13-88 20-134 20-193 0-307-107-307-290v-688H20v-154h168v-266h180v266h230" id="av"/><g id="c"><use transform="matrix(0.0087890625,0,0,0.0087890625,0,0)" xlink:href="#am"/><use transform="matrix(0.0087890625,0,0,0.0087890625,10.107421875,0)" xlink:href="#an"/><use transform="matrix(0.0087890625,0,0,0.0087890625,14.466796875,0)" xlink:href="#at"/><use transform="matrix(0.0087890625,0,0,0.0087890625,24.9609375,0)" xlink:href="#au"/><use transform="matrix(0.0087890625,0,0,0.0087890625,32.0185546875,0)" xlink:href="#av"/><use transform="matrix(0.0087890625,0,0,0.0087890625,37.9951171875,0)" xlink:href="#am"/><use transform="matrix(0.0087890625,0,0,0.0087890625,48.1025390625,0)" xlink:href="#ak"/></g><path d="M140 405l46-156c120 36 205 19 263-150l32-93L54-1118h197c107 313 237 620 324 950 87-331 219-637 326-950h196L606 167c-68 178-176 259-334 259-64 0-113-12-132-21" id="aw"/><use transform="matrix(0.0087890625,0,0,0.0087890625,0,0)" xlink:href="#aw" id="d"/><path d="M158 0v-1118h175l1 205c55-151 181-225 313-225 147 0 245 90 285 228 53-141 190-228 352-228 194 0 352 125 352 384V0h-181v-749c0-161-105-225-225-225-151 0-243 103-243 244V0H807v-767c0-124-93-207-219-207-131 0-250 92-250 270V0H158" id="ax"/><path d="M613 24c-304 0-509-231-509-576 0-350 205-580 509-580 305 0 511 230 511 580 0 345-206 576-511 576zm0-161c226 0 329-195 329-415 0-222-103-419-329-419-223 0-326 196-326 419 0 220 103 415 326 415" id="ay"/><g id="e"><use transform="matrix(0.0087890625,0,0,0.0087890625,0,0)" xlink:href="#ax"/><use transform="matrix(0.0087890625,0,0,0.0087890625,15.767578125,0)" xlink:href="#at"/><use transform="matrix(0.0087890625,0,0,0.0087890625,26.26171875,0)" xlink:href="#as"/><use transform="matrix(0.0087890625,0,0,0.0087890625,37.283203125,0)" xlink:href="#aj"/><use transform="matrix(0.0087890625,0,0,0.0087890625,41.642578125,0)" xlink:href="#ap"/><use transform="matrix(0.0087890625,0,0,0.0087890625,51.92578125,0)" xlink:href="#aj"/><use transform="matrix(0.0087890625,0,0,0.0087890625,56.28515625,0)" xlink:href="#ay"/><use transform="matrix(0.0087890625,0,0,0.0087890625,67.078125,0)" xlink:href="#ar"/><use transform="matrix(0.0087890625,0,0,0.0087890625,77.712890625,0)" xlink:href="#at"/><use transform="matrix(0.0087890625,0,0,0.0087890625,88.20703125,0)" xlink:href="#ak"/></g><path d="M158 418v-1536h174v179h20c37-59 106-193 324-193 279 0 474 222 474 576 0 356-194 580-473 580-213 0-288-135-325-197h-14v591H158zm492-555c209 0 317-186 317-421 0-232-105-413-317-413-206 0-314 166-314 413 0 249 111 421 314 421" id="az"/><g id="f"><use transform="matrix(0.0087890625,0,0,0.0087890625,0,0)" xlink:href="#az"/><use transform="matrix(0.0087890625,0,0,0.0087890625,11.197265625,0)" xlink:href="#am"/><use transform="matrix(0.0087890625,0,0,0.0087890625,21.3046875,0)" xlink:href="#au"/><use transform="matrix(0.0087890625,0,0,0.0087890625,28.0810546875,0)" xlink:href="#am"/></g><path d="M481 0L54-1118h197c107 314 236 620 325 951 87-331 217-637 324-951h197L670 0H481" id="aA"/><g id="g"><use transform="matrix(0.0087890625,0,0,0.0087890625,0,0)" xlink:href="#aA"/><use transform="matrix(0.0087890625,0,0,0.0087890625,10.1162109375,0)" xlink:href="#aj"/><use transform="matrix(0.0087890625,0,0,0.0087890625,14.4755859375,0)" xlink:href="#ak"/><use transform="matrix(0.0087890625,0,0,0.0087890625,23.9765625,0)" xlink:href="#aj"/><use transform="matrix(0.0087890625,0,0,0.0087890625,28.3359375,0)" xlink:href="#av"/><use transform="matrix(0.0087890625,0,0,0.0087890625,34.3125,0)" xlink:href="#am"/><use transform="matrix(0.0087890625,0,0,0.0087890625,44.419921875,0)" xlink:href="#ar"/><use transform="matrix(0.0087890625,0,0,0.0087890625,55.0546875,0)" xlink:href="#av"/><use transform="matrix(0.0087890625,0,0,0.0087890625,60.767578125,0)" xlink:href="#at"/><use transform="matrix(0.0087890625,0,0,0.0087890625,71.26171875,0)" xlink:href="#ak"/></g><g id="h"><use transform="matrix(0.0087890625,0,0,0.0087890625,0,0)" xlink:href="#al"/><use transform="matrix(0.0087890625,0,0,0.0087890625,10.6435546875,0)" xlink:href="#ak"/><use transform="matrix(0.0087890625,0,0,0.0087890625,20.14453125,0)" xlink:href="#al"/><use transform="matrix(0.0087890625,0,0,0.0087890625,30.7880859375,0)" xlink:href="#am"/><use transform="matrix(0.0087890625,0,0,0.0087890625,40.8955078125,0)" xlink:href="#au"/><use transform="matrix(0.0087890625,0,0,0.0087890625,47.953125,0)" xlink:href="#aj"/><use transform="matrix(0.0087890625,0,0,0.0087890625,52.3125,0)" xlink:href="#ay"/></g><path d="M798-719v166H144v-166h654" id="aB"/><use transform="matrix(0.0087890625,0,0,0.0087890625,0,0)" xlink:href="#aB" id="i"/><g id="j"><use transform="matrix(0.0087890625,0,0,0.0087890625,0,0)" xlink:href="#aA"/><use transform="matrix(0.0087890625,0,0,0.0087890625,10.1162109375,0)" xlink:href="#aj"/><use transform="matrix(0.0087890625,0,0,0.0087890625,14.4755859375,0)" xlink:href="#ak"/><use transform="matrix(0.0087890625,0,0,0.0087890625,23.9765625,0)" xlink:href="#aj"/><use transform="matrix(0.0087890625,0,0,0.0087890625,28.3359375,0)" xlink:href="#av"/><use transform="matrix(0.0087890625,0,0,0.0087890625,34.3125,0)" xlink:href="#am"/><use transform="matrix(0.0087890625,0,0,0.0087890625,44.419921875,0)" xlink:href="#ar"/><use transform="matrix(0.0087890625,0,0,0.0087890625,55.0546875,0)" xlink:href="#av"/><use transform="matrix(0.0087890625,0,0,0.0087890625,60.767578125,0)" xlink:href="#at"/></g><g id="k"><use transform="matrix(0.0087890625,0,0,0.0087890625,0,0)" xlink:href="#ak"/><use transform="matrix(0.0087890625,0,0,0.0087890625,9.5009765625,0)" xlink:href="#aj"/><use transform="matrix(0.0087890625,0,0,0.0087890625,13.8603515625,0)" xlink:href="#ak"/><use transform="matrix(0.0087890625,0,0,0.0087890625,23.361328125,0)" xlink:href="#av"/><use transform="matrix(0.0087890625,0,0,0.0087890625,29.07421875,0)" xlink:href="#at"/><use transform="matrix(0.0087890625,0,0,0.0087890625,39.568359375,0)" xlink:href="#ax"/><use transform="matrix(0.0087890625,0,0,0.0087890625,55.3359375,0)" xlink:href="#am"/></g><path d="M763 24c-353 0-583-224-583-531v-983h190v968c0 214 149 370 393 370 243 0 391-156 391-370v-968h190v983c0 307-230 531-581 531" id="aC"/><g id="l"><use transform="matrix(0.007679283106447051,0,0,0.007679283106447051,0,0)" xlink:href="#aC"/><use transform="matrix(0.007679283106447051,0,0,0.007679283106447051,11.703227454225306,0)" xlink:href="#ak"/><use transform="matrix(0.007679283106447051,0,0,0.007679283106447051,20.00453249229457,0)" xlink:href="#al"/><use transform="matrix(0.007679283106447051,0,0,0.007679283106447051,29.304144334201947,0)" xlink:href="#am"/><use transform="matrix(0.007679283106447051,0,0,0.007679283106447051,38.135319906616054,0)" xlink:href="#au"/><use transform="matrix(0.007679283106447051,0,0,0.007679283106447051,44.30178424109303,0)" xlink:href="#aj"/><use transform="matrix(0.007679283106447051,0,0,0.007679283106447051,48.11070866189077,0)" xlink:href="#ay"/></g><g id="m"><use transform="matrix(0.007679283106447051,0,0,0.007679283106447051,0,0)" xlink:href="#as"/><use transform="matrix(0.007679283106447051,0,0,0.007679283106447051,9.629821015484602,0)" xlink:href="#at"/><use transform="matrix(0.007679283106447051,0,0,0.007679283106447051,18.79888504458238,0)" xlink:href="#ak"/><use transform="matrix(0.007679283106447051,0,0,0.007679283106447051,27.100190082651643,0)" xlink:href="#at"/><use transform="matrix(0.007679283106447051,0,0,0.007679283106447051,36.422839773878366,0)" xlink:href="#am"/></g><g id="n"><use transform="matrix(0.007679283106447051,0,0,0.007679283106447051,0,0)" xlink:href="#ap"/><use transform="matrix(0.007679283106447051,0,0,0.007679283106447051,8.98476123454305,0)" xlink:href="#ay"/><use transform="matrix(0.007679283106447051,0,0,0.007679283106447051,18.41492088926003,0)" xlink:href="#ar"/><use transform="matrix(0.007679283106447051,0,0,0.007679283106447051,27.70685344806096,0)" xlink:href="#ay"/><use transform="matrix(0.007679283106447051,0,0,0.007679283106447051,37.13701310277794,0)" xlink:href="#ap"/><use transform="matrix(0.007679283106447051,0,0,0.007679283106447051,46.12177433732099,0)" xlink:href="#at"/><use transform="matrix(0.007679283106447051,0,0,0.007679283106447051,55.29083836641877,0)" xlink:href="#au"/></g><g id="o"><use transform="matrix(0.007679283106447051,0,0,0.007679283106447051,0,0)" xlink:href="#am"/><use transform="matrix(0.007679283106447051,0,0,0.007679283106447051,8.831175572414109,0)" xlink:href="#an"/><use transform="matrix(0.007679283106447051,0,0,0.007679283106447051,12.640099993211846,0)" xlink:href="#at"/><use transform="matrix(0.007679283106447051,0,0,0.007679283106447051,21.809164022309623,0)" xlink:href="#au"/><use transform="matrix(0.007679283106447051,0,0,0.007679283106447051,27.975628356786608,0)" xlink:href="#av"/><use transform="matrix(0.007679283106447051,0,0,0.007679283106447051,33.1975408691706,0)" xlink:href="#am"/><use transform="matrix(0.007679283106447051,0,0,0.007679283106447051,42.02871644158471,0)" xlink:href="#ak"/></g><use transform="matrix(0.007679283106447051,0,0,0.007679283106447051,0,0)" xlink:href="#aw" id="p"/><g id="q"><use transform="matrix(0.007679283106447051,0,0,0.007679283106447051,0,0)" xlink:href="#ax"/><use transform="matrix(0.007679283106447051,0,0,0.007679283106447051,13.776633892966009,0)" xlink:href="#at"/><use transform="matrix(0.007679283106447051,0,0,0.007679283106447051,22.945697922063786,0)" xlink:href="#as"/><use transform="matrix(0.007679283106447051,0,0,0.007679283106447051,32.57551893754839,0)" xlink:href="#aj"/><use transform="matrix(0.007679283106447051,0,0,0.007679283106447051,36.384443358346125,0)" xlink:href="#ap"/><use transform="matrix(0.007679283106447051,0,0,0.007679283106447051,45.369204592889176,0)" xlink:href="#aj"/><use transform="matrix(0.007679283106447051,0,0,0.007679283106447051,49.17812901368691,0)" xlink:href="#ay"/><use transform="matrix(0.007679283106447051,0,0,0.007679283106447051,58.608288668403894,0)" xlink:href="#ar"/><use transform="matrix(0.007679283106447051,0,0,0.007679283106447051,67.90022122720482,0)" xlink:href="#at"/><use transform="matrix(0.007679283106447051,0,0,0.007679283106447051,77.0692852563026,0)" xlink:href="#ak"/></g><path d="M370-1490V0H180v-1490h190" id="aD"/><path d="M611 442c-248 0-391-105-460-228l146-94c47 65 117 165 314 165 178 0 307-82 307-266v-224h-17C863-141 792-18 576-18c-268 0-472-195-472-546 0-346 197-568 476-568 216 0 288 133 326 193h17v-179h175V29c0 289-215 413-487 413zm-5-620c203 0 314-146 314-390 0-237-108-403-314-403-213 0-319 180-319 403 0 230 109 390 319 390" id="aE"/><g id="r"><use transform="matrix(0.0087890625,0,0,0.0087890625,0,0)" xlink:href="#aD"/><use transform="matrix(0.0087890625,0,0,0.0087890625,4.833984375,0)" xlink:href="#ar"/><use transform="matrix(0.0087890625,0,0,0.0087890625,15.46875,0)" xlink:href="#aE"/><use transform="matrix(0.0087890625,0,0,0.0087890625,26.5078125,0)" xlink:href="#au"/><use transform="matrix(0.0087890625,0,0,0.0087890625,32.9853515625,0)" xlink:href="#at"/><use transform="matrix(0.0087890625,0,0,0.0087890625,43.4794921875,0)" xlink:href="#ak"/><use transform="matrix(0.0087890625,0,0,0.0087890625,52.98046875,0)" xlink:href="#am"/></g><g id="s"><use transform="matrix(0.0087890625,0,0,0.0087890625,0,0)" xlink:href="#az"/><use transform="matrix(0.0087890625,0,0,0.0087890625,11.021484375,0)" xlink:href="#ay"/><use transform="matrix(0.0087890625,0,0,0.0087890625,21.814453125,0)" xlink:href="#au"/><use transform="matrix(0.0087890625,0,0,0.0087890625,28.8720703125,0)" xlink:href="#av"/><use transform="matrix(0.0087890625,0,0,0.0087890625,34.8486328125,0)" xlink:href="#am"/><use transform="matrix(0.0087890625,0,0,0.0087890625,44.9560546875,0)" xlink:href="#an"/></g><path d="M783 20c-382 0-661-292-661-764 0-473 279-766 661-766 302 0 548 182 601 489h-190c-42-204-217-313-411-313-268 0-476 208-476 590 0 381 209 588 476 588 195 0 369-110 411-313h190c-52 303-296 489-601 489" id="aF"/><g id="t"><use transform="matrix(0.0087890625,0,0,0.0087890625,0,0)" xlink:href="#aF"/><use transform="matrix(0.0087890625,0,0,0.0087890625,13.1484375,0)" xlink:href="#am"/><use transform="matrix(0.0087890625,0,0,0.0087890625,23.255859375,0)" xlink:href="#au"/><use transform="matrix(0.0087890625,0,0,0.0087890625,29.7333984375,0)" xlink:href="#aE"/><use transform="matrix(0.0087890625,0,0,0.0087890625,40.7724609375,0)" xlink:href="#am"/><use transform="matrix(0.0087890625,0,0,0.0087890625,50.8798828125,0)" xlink:href="#au"/></g><g id="u"><use transform="matrix(0.0087890625,0,0,0.0087890625,0,0)" xlink:href="#an"/><use transform="matrix(0.0087890625,0,0,0.0087890625,4.359375,0)" xlink:href="#aj"/><use transform="matrix(0.0087890625,0,0,0.0087890625,8.71875,0)" xlink:href="#ak"/><use transform="matrix(0.0087890625,0,0,0.0087890625,18.2197265625,0)" xlink:href="#av"/><use transform="matrix(0.0087890625,0,0,0.0087890625,24.1962890625,0)" xlink:href="#am"/><use transform="matrix(0.0087890625,0,0,0.0087890625,34.3037109375,0)" xlink:href="#as"/><use transform="matrix(0.0087890625,0,0,0.0087890625,45.3251953125,0)" xlink:href="#ay"/></g><g id="v"><use transform="matrix(0.0087890625,0,0,0.0087890625,0,0)" xlink:href="#as"/><use transform="matrix(0.0087890625,0,0,0.0087890625,11.021484375,0)" xlink:href="#at"/></g><g id="w"><use transform="matrix(0.0087890625,0,0,0.0087890625,0,0)" xlink:href="#an"/><use transform="matrix(0.0087890625,0,0,0.0087890625,4.359375,0)" xlink:href="#am"/><use transform="matrix(0.0087890625,0,0,0.0087890625,14.466796875,0)" xlink:href="#ak"/></g><g id="x"><use transform="matrix(0.0087890625,0,0,0.0087890625,0,0)" xlink:href="#am"/><use transform="matrix(0.0087890625,0,0,0.0087890625,10.107421875,0)" xlink:href="#an"/><use transform="matrix(0.0087890625,0,0,0.0087890625,14.466796875,0)" xlink:href="#at"/><use transform="matrix(0.0087890625,0,0,0.0087890625,24.9609375,0)" xlink:href="#au"/><use transform="matrix(0.0087890625,0,0,0.0087890625,32.0185546875,0)" xlink:href="#av"/><use transform="matrix(0.0087890625,0,0,0.0087890625,37.9951171875,0)" xlink:href="#am"/><use transform="matrix(0.0087890625,0,0,0.0087890625,48.1025390625,0)" xlink:href="#ak"/></g><use transform="matrix(0.0087890625,0,0,0.0087890625,0,0)" xlink:href="#aw" id="y"/><g id="z"><use transform="matrix(0.0087890625,0,0,0.0087890625,0,0)" xlink:href="#ax"/><use transform="matrix(0.0087890625,0,0,0.0087890625,15.767578125,0)" xlink:href="#at"/><use transform="matrix(0.0087890625,0,0,0.0087890625,26.26171875,0)" xlink:href="#as"/><use transform="matrix(0.0087890625,0,0,0.0087890625,37.283203125,0)" xlink:href="#aj"/><use transform="matrix(0.0087890625,0,0,0.0087890625,41.642578125,0)" xlink:href="#ap"/><use transform="matrix(0.0087890625,0,0,0.0087890625,51.92578125,0)" xlink:href="#aj"/><use transform="matrix(0.0087890625,0,0,0.0087890625,56.28515625,0)" xlink:href="#ay"/><use transform="matrix(0.0087890625,0,0,0.0087890625,67.078125,0)" xlink:href="#ar"/><use transform="matrix(0.0087890625,0,0,0.0087890625,77.712890625,0)" xlink:href="#at"/><use transform="matrix(0.0087890625,0,0,0.0087890625,88.20703125,0)" xlink:href="#ak"/></g><g id="A"><use transform="matrix(0.0087890625,0,0,0.0087890625,0,0)" xlink:href="#at"/><use transform="matrix(0.0087890625,0,0,0.0087890625,10.494140625,0)" xlink:href="#an"/><use transform="matrix(0.0087890625,0,0,0.0087890625,14.853515625,0)" xlink:href="#aj"/><use transform="matrix(0.0087890625,0,0,0.0087890625,19.212890625,0)" xlink:href="#aE"/><use transform="matrix(0.0087890625,0,0,0.0087890625,30.251953125,0)" xlink:href="#at"/></g><g id="B"><use transform="matrix(0.0087890625,0,0,0.0087890625,0,0)" xlink:href="#ay"/><use transform="matrix(0.0087890625,0,0,0.0087890625,10.79296875,0)" xlink:href="#az"/><use transform="matrix(0.0087890625,0,0,0.0087890625,21.814453125,0)" xlink:href="#ap"/><use transform="matrix(0.0087890625,0,0,0.0087890625,32.09765625,0)" xlink:href="#aj"/><use transform="matrix(0.0087890625,0,0,0.0087890625,36.45703125,0)" xlink:href="#aq"/><use transform="matrix(0.0087890625,0,0,0.0087890625,47.25,0)" xlink:href="#ar"/></g><path d="M180 0v-1490h510c348 0 508 194 508 460 0 198-88 351-276 417L1256 0h-220L726-579c-117 2-238 0-356 1V0H180zm190-747h312c235 0 327-108 327-283 0-177-92-293-329-293H370v576" id="aG"/><g id="C"><use transform="matrix(0.0087890625,0,0,0.0087890625,0,0)" xlink:href="#aG"/><use transform="matrix(0.0087890625,0,0,0.0087890625,11.3203125,0)" xlink:href="#at"/><use transform="matrix(0.0087890625,0,0,0.0087890625,21.814453125,0)" xlink:href="#ap"/><use transform="matrix(0.0087890625,0,0,0.0087890625,32.2734375,0)" xlink:href="#am"/><use transform="matrix(0.0087890625,0,0,0.0087890625,42.380859375,0)" xlink:href="#au"/><use transform="matrix(0.0087890625,0,0,0.0087890625,48.8583984375,0)" xlink:href="#aE"/><use transform="matrix(0.0087890625,0,0,0.0087890625,59.8974609375,0)" xlink:href="#am"/></g><g id="D"><use transform="matrix(0.0087890625,0,0,0.0087890625,0,0)" xlink:href="#as"/><use transform="matrix(0.0087890625,0,0,0.0087890625,11.021484375,0)" xlink:href="#am"/><use transform="matrix(0.0087890625,0,0,0.0087890625,21.12890625,0)" xlink:href="#av"/><use transform="matrix(0.0087890625,0,0,0.0087890625,26.841796875,0)" xlink:href="#ay"/><use transform="matrix(0.0087890625,0,0,0.0087890625,37.634765625,0)" xlink:href="#ak"/></g><g id="E"><use transform="matrix(0.0087890625,0,0,0.0087890625,0,0)" xlink:href="#as"/><use transform="matrix(0.0087890625,0,0,0.0087890625,11.021484375,0)" xlink:href="#at"/></g><path d="M677 24c-213 0-288-135-325-197h-20V0H158v-1490h180v551h14c37-59 106-193 324-193 279 0 474 222 474 576 0 356-194 580-473 580zm-27-161c209 0 317-186 317-421 0-232-105-413-317-413-206 0-314 166-314 413 0 249 111 421 314 421" id="aH"/><g id="F"><use transform="matrix(0.0087890625,0,0,0.0087890625,0,0)" xlink:href="#aH"/><use transform="matrix(0.0087890625,0,0,0.0087890625,11.197265625,0)" xlink:href="#am"/><use transform="matrix(0.0087890625,0,0,0.0087890625,21.3046875,0)" xlink:href="#ak"/><use transform="matrix(0.0087890625,0,0,0.0087890625,30.8056640625,0)" xlink:href="#at"/></g><g id="G"><use transform="matrix(0.0087890625,0,0,0.0087890625,0,0)" xlink:href="#as"/><use transform="matrix(0.0087890625,0,0,0.0087890625,11.021484375,0)" xlink:href="#am"/><use transform="matrix(0.0087890625,0,0,0.0087890625,21.12890625,0)" xlink:href="#av"/><use transform="matrix(0.0087890625,0,0,0.0087890625,26.841796875,0)" xlink:href="#ay"/><use transform="matrix(0.0087890625,0,0,0.0087890625,37.634765625,0)" xlink:href="#ak"/></g><g id="H"><use transform="matrix(0.0087890625,0,0,0.0087890625,0,0)" xlink:href="#az"/><use transform="matrix(0.0087890625,0,0,0.0087890625,11.021484375,0)" xlink:href="#at"/><use transform="matrix(0.0087890625,0,0,0.0087890625,21.515625,0)" xlink:href="#au"/><use transform="matrix(0.0087890625,0,0,0.0087890625,28.2919921875,0)" xlink:href="#ak"/><use transform="matrix(0.0087890625,0,0,0.0087890625,37.79296875,0)" xlink:href="#aj"/><use transform="matrix(0.0087890625,0,0,0.0087890625,42.15234375,0)" xlink:href="#ak"/><use transform="matrix(0.0087890625,0,0,0.0087890625,51.6533203125,0)" xlink:href="#av"/><use transform="matrix(0.0087890625,0,0,0.0087890625,57.3662109375,0)" xlink:href="#at"/><use transform="matrix(0.0087890625,0,0,0.0087890625,67.8603515625,0)" xlink:href="#ar"/><use transform="matrix(0.0087890625,0,0,0.0087890625,78.4951171875,0)" xlink:href="#av"/><use transform="matrix(0.0087890625,0,0,0.0087890625,84.2080078125,0)" xlink:href="#at"/></g><g id="I"><use transform="matrix(0.0087890625,0,0,0.0087890625,0,0)" xlink:href="#ak"/><use transform="matrix(0.0087890625,0,0,0.0087890625,9.5009765625,0)" xlink:href="#at"/><use transform="matrix(0.0087890625,0,0,0.0087890625,19.9951171875,0)" xlink:href="#an"/><use transform="matrix(0.0087890625,0,0,0.0087890625,24.3544921875,0)" xlink:href="#at"/><use transform="matrix(0.0087890625,0,0,0.0087890625,34.8486328125,0)" xlink:href="#ap"/><use transform="matrix(0.0087890625,0,0,0.0087890625,45.1318359375,0)" xlink:href="#ap"/><use transform="matrix(0.0087890625,0,0,0.0087890625,55.4150390625,0)" xlink:href="#aj"/><use transform="matrix(0.0087890625,0,0,0.0087890625,59.7744140625,0)" xlink:href="#ay"/><use transform="matrix(0.0087890625,0,0,0.0087890625,70.5673828125,0)" xlink:href="#ar"/><use transform="matrix(0.0087890625,0,0,0.0087890625,81.2021484375,0)" xlink:href="#am"/></g><g id="J"><use transform="matrix(0.0087890625,0,0,0.0087890625,0,0)" xlink:href="#ay"/><use transform="matrix(0.0087890625,0,0,0.0087890625,10.79296875,0)" xlink:href="#az"/><use transform="matrix(0.0087890625,0,0,0.0087890625,21.814453125,0)" xlink:href="#ap"/><use transform="matrix(0.0087890625,0,0,0.0087890625,32.09765625,0)" xlink:href="#aj"/><use transform="matrix(0.0087890625,0,0,0.0087890625,36.45703125,0)" xlink:href="#ay"/><use transform="matrix(0.0087890625,0,0,0.0087890625,47.25,0)" xlink:href="#ar"/></g><g id="K"><use transform="matrix(0.0087890625,0,0,0.0087890625,0,0)" xlink:href="#ak"/><use transform="matrix(0.0087890625,0,0,0.0087890625,9.5009765625,0)" xlink:href="#am"/><use transform="matrix(0.0087890625,0,0,0.0087890625,19.6083984375,0)" xlink:href="#an"/><use transform="matrix(0.0087890625,0,0,0.0087890625,23.9677734375,0)" xlink:href="#aj"/><use transform="matrix(0.0087890625,0,0,0.0087890625,28.3271484375,0)" xlink:href="#au"/></g><g id="L"><use transform="matrix(0.0087890625,0,0,0.0087890625,0,0)" xlink:href="#ak"/><use transform="matrix(0.0087890625,0,0,0.0087890625,9.5009765625,0)" xlink:href="#at"/><use transform="matrix(0.0087890625,0,0,0.0087890625,19.9951171875,0)" xlink:href="#an"/><use transform="matrix(0.0087890625,0,0,0.0087890625,24.3544921875,0)" xlink:href="#at"/><use transform="matrix(0.0087890625,0,0,0.0087890625,34.8486328125,0)" xlink:href="#ap"/><use transform="matrix(0.0087890625,0,0,0.0087890625,45.1318359375,0)" xlink:href="#ap"/><use transform="matrix(0.0087890625,0,0,0.0087890625,55.4150390625,0)" xlink:href="#aj"/><use transform="matrix(0.0087890625,0,0,0.0087890625,59.7744140625,0)" xlink:href="#ay"/><use transform="matrix(0.0087890625,0,0,0.0087890625,70.5673828125,0)" xlink:href="#ar"/><use transform="matrix(0.0087890625,0,0,0.0087890625,81.2021484375,0)" xlink:href="#am"/></g><g id="M"><use transform="matrix(0.0087890625,0,0,0.0087890625,0,0)" xlink:href="#ay"/><use transform="matrix(0.0087890625,0,0,0.0087890625,10.79296875,0)" xlink:href="#az"/><use transform="matrix(0.0087890625,0,0,0.0087890625,21.814453125,0)" xlink:href="#ap"/><use transform="matrix(0.0087890625,0,0,0.0087890625,32.09765625,0)" xlink:href="#aj"/><use transform="matrix(0.0087890625,0,0,0.0087890625,36.45703125,0)" xlink:href="#aq"/><use transform="matrix(0.0087890625,0,0,0.0087890625,47.25,0)" xlink:href="#ar"/></g><path d="M180 0v-1490h901v168H370v510h643v168H370V0H180" id="aI"/><g id="N"><use transform="matrix(0.0087890625,0,0,0.0087890625,0,0)" xlink:href="#aI"/><use transform="matrix(0.0087890625,0,0,0.0087890625,10.6259765625,0)" xlink:href="#aj"/><use transform="matrix(0.0087890625,0,0,0.0087890625,14.9853515625,0)" xlink:href="#ar"/></g><g id="O"><use transform="matrix(0.0087890625,0,0,0.0087890625,0,0)" xlink:href="#av"/><use transform="matrix(0.0087890625,0,0,0.0087890625,5.712890625,0)" xlink:href="#at"/><use transform="matrix(0.0087890625,0,0,0.0087890625,16.20703125,0)" xlink:href="#au"/><use transform="matrix(0.0087890625,0,0,0.0087890625,23.2646484375,0)" xlink:href="#ax"/><use transform="matrix(0.0087890625,0,0,0.0087890625,39.0322265625,0)" xlink:href="#aj"/><use transform="matrix(0.0087890625,0,0,0.0087890625,43.3916015625,0)" xlink:href="#ar"/><use transform="matrix(0.0087890625,0,0,0.0087890625,54.0263671875,0)" xlink:href="#am"/></g><path d="M157-1118h181V80c1 225-123 350-364 338V252c126 9 184-48 183-172v-1198zm91-183c-68 0-125-53-125-119s57-119 125-119c69 0 126 53 126 119s-57 119-126 119" id="aJ"/><g id="P"><use transform="matrix(0.0087890625,0,0,0.0087890625,0,0)" xlink:href="#at"/><use transform="matrix(0.0087890625,0,0,0.0087890625,10.494140625,0)" xlink:href="#aJ"/><use transform="matrix(0.0087890625,0,0,0.0087890625,14.853515625,0)" xlink:href="#at"/><use transform="matrix(0.0087890625,0,0,0.0087890625,25.34765625,0)" xlink:href="#ap"/><use transform="matrix(0.0087890625,0,0,0.0087890625,35.630859375,0)" xlink:href="#al"/><use transform="matrix(0.0087890625,0,0,0.0087890625,46.2744140625,0)" xlink:href="#ap"/><use transform="matrix(0.0087890625,0,0,0.0087890625,56.5576171875,0)" xlink:href="#aj"/><use transform="matrix(0.0087890625,0,0,0.0087890625,60.9169921875,0)" xlink:href="#aq"/><use transform="matrix(0.0087890625,0,0,0.0087890625,71.7099609375,0)" xlink:href="#ar"/></g><g id="Q"><use transform="matrix(0.0087890625,0,0,0.0087890625,0,0)" xlink:href="#ax"/><use transform="matrix(0.0087890625,0,0,0.0087890625,15.767578125,0)" xlink:href="#al"/><use transform="matrix(0.0087890625,0,0,0.0087890625,26.4111328125,0)" xlink:href="#at"/><use transform="matrix(0.0087890625,0,0,0.0087890625,36.9052734375,0)" xlink:href="#ak"/><use transform="matrix(0.0087890625,0,0,0.0087890625,46.40625,0)" xlink:href="#av"/><use transform="matrix(0.0087890625,0,0,0.0087890625,52.294921875,0)" xlink:href="#au"/><use transform="matrix(0.0087890625,0,0,0.0087890625,59.0712890625,0)" xlink:href="#am"/></g><g id="R"><use transform="matrix(0.0087890625,0,0,0.0087890625,0,0)" xlink:href="#ax"/><use transform="matrix(0.0087890625,0,0,0.0087890625,15.767578125,0)" xlink:href="#at"/><use transform="matrix(0.0087890625,0,0,0.0087890625,26.26171875,0)" xlink:href="#ar"/><use transform="matrix(0.0087890625,0,0,0.0087890625,36.896484375,0)" xlink:href="#ak"/><use transform="matrix(0.0087890625,0,0,0.0087890625,46.3974609375,0)" xlink:href="#am"/><use transform="matrix(0.0087890625,0,0,0.0087890625,56.5048828125,0)" xlink:href="#aJ"/><use transform="matrix(0.0087890625,0,0,0.0087890625,60.8642578125,0)" xlink:href="#at"/></g><path d="M678-1118v154H420V0H240v-964H20v-154h220v-149c0-194 155-293 318-293 85 0 141 18 168 30l-50 154c-19-6-47-17-97-17-111 0-159 58-159 166v109h258" id="aK"/><g id="S"><use transform="matrix(0.0087890625,0,0,0.0087890625,0,0)" xlink:href="#ap"/><use transform="matrix(0.0087890625,0,0,0.0087890625,10.283203125,0)" xlink:href="#ay"/><use transform="matrix(0.0087890625,0,0,0.0087890625,21.076171875,0)" xlink:href="#ar"/><use transform="matrix(0.0087890625,0,0,0.0087890625,31.7109375,0)" xlink:href="#aK"/><use transform="matrix(0.0087890625,0,0,0.0087890625,38.373046875,0)" xlink:href="#aj"/><use transform="matrix(0.0087890625,0,0,0.0087890625,42.732421875,0)" xlink:href="#au"/><use transform="matrix(0.0087890625,0,0,0.0087890625,49.7900390625,0)" xlink:href="#ax"/><use transform="matrix(0.0087890625,0,0,0.0087890625,65.5576171875,0)" xlink:href="#am"/><use transform="matrix(0.0087890625,0,0,0.0087890625,75.6650390625,0)" xlink:href="#ap"/><use transform="matrix(0.0087890625,0,0,0.0087890625,85.9482421875,0)" xlink:href="#aj"/><use transform="matrix(0.0087890625,0,0,0.0087890625,90.3076171875,0)" xlink:href="#aq"/><use transform="matrix(0.0087890625,0,0,0.0087890625,101.1005859375,0)" xlink:href="#ar"/></g><use transform="matrix(0.0087890625,0,0,0.0087890625,0,0)" xlink:href="#am" id="T"/><g id="U"><use transform="matrix(0.0087890625,0,0,0.0087890625,0,0)" xlink:href="#ap"/><use transform="matrix(0.0087890625,0,0,0.0087890625,10.283203125,0)" xlink:href="#an"/><use transform="matrix(0.0087890625,0,0,0.0087890625,14.642578125,0)" xlink:href="#aj"/><use transform="matrix(0.0087890625,0,0,0.0087890625,19.001953125,0)" xlink:href="#at"/><use transform="matrix(0.0087890625,0,0,0.0087890625,29.49609375,0)" xlink:href="#ar"/><use transform="matrix(0.0087890625,0,0,0.0087890625,40.130859375,0)" xlink:href="#av"/><use transform="matrix(0.0087890625,0,0,0.0087890625,45.84375,0)" xlink:href="#at"/></g><g id="V"><use transform="matrix(0.0087890625,0,0,0.0087890625,0,0)" xlink:href="#am"/><use transform="matrix(0.0087890625,0,0,0.0087890625,10.107421875,0)" xlink:href="#ap"/><use transform="matrix(0.0087890625,0,0,0.0087890625,20.390625,0)" xlink:href="#av"/><use transform="matrix(0.0087890625,0,0,0.0087890625,26.279296875,0)" xlink:href="#al"/><use transform="matrix(0.0087890625,0,0,0.0087890625,36.9228515625,0)" xlink:href="#am"/><use transform="matrix(0.0087890625,0,0,0.0087890625,47.0302734375,0)" xlink:href="#an"/><use transform="matrix(0.0087890625,0,0,0.0087890625,51.3896484375,0)" xlink:href="#aj"/><use transform="matrix(0.0087890625,0,0,0.0087890625,55.7490234375,0)" xlink:href="#ao"/><use transform="matrix(0.0087890625,0,0,0.0087890625,65.689453125,0)" xlink:href="#am"/><use transform="matrix(0.0087890625,0,0,0.0087890625,75.796875,0)" xlink:href="#au"/></g><g id="W"><use transform="matrix(0.0087890625,0,0,0.0087890625,0,0)" xlink:href="#ak"/><use transform="matrix(0.0087890625,0,0,0.0087890625,9.5009765625,0)" xlink:href="#at"/><use transform="matrix(0.0087890625,0,0,0.0087890625,19.9951171875,0)" xlink:href="#an"/><use transform="matrix(0.0087890625,0,0,0.0087890625,24.3544921875,0)" xlink:href="#at"/><use transform="matrix(0.0087890625,0,0,0.0087890625,34.8486328125,0)" xlink:href="#ap"/><use transform="matrix(0.0087890625,0,0,0.0087890625,45.1318359375,0)" xlink:href="#ap"/><use transform="matrix(0.0087890625,0,0,0.0087890625,55.4150390625,0)" xlink:href="#aj"/><use transform="matrix(0.0087890625,0,0,0.0087890625,59.7744140625,0)" xlink:href="#ay"/><use transform="matrix(0.0087890625,0,0,0.0087890625,70.5673828125,0)" xlink:href="#ar"/><use transform="matrix(0.0087890625,0,0,0.0087890625,81.2021484375,0)" xlink:href="#am"/></g><g id="X"><use transform="matrix(0.0087890625,0,0,0.0087890625,0,0)" xlink:href="#ay"/><use transform="matrix(0.0087890625,0,0,0.0087890625,10.79296875,0)" xlink:href="#az"/><use transform="matrix(0.0087890625,0,0,0.0087890625,21.814453125,0)" xlink:href="#ap"/><use transform="matrix(0.0087890625,0,0,0.0087890625,32.09765625,0)" xlink:href="#aj"/><use transform="matrix(0.0087890625,0,0,0.0087890625,36.45703125,0)" xlink:href="#ay"/><use transform="matrix(0.0087890625,0,0,0.0087890625,47.25,0)" xlink:href="#ar"/></g><g id="Y"><use transform="matrix(0.0087890625,0,0,0.0087890625,0,0)" xlink:href="#aK"/><use transform="matrix(0.0087890625,0,0,0.0087890625,6.662109375,0)" xlink:href="#aj"/><use transform="matrix(0.0087890625,0,0,0.0087890625,11.021484375,0)" xlink:href="#an"/><use transform="matrix(0.0087890625,0,0,0.0087890625,15.64453125,0)" xlink:href="#av"/><use transform="matrix(0.0087890625,0,0,0.0087890625,21.533203125,0)" xlink:href="#au"/><use transform="matrix(0.0087890625,0,0,0.0087890625,28.3095703125,0)" xlink:href="#am"/><use transform="matrix(0.0087890625,0,0,0.0087890625,38.4169921875,0)" xlink:href="#au"/></g><g id="Z"><use transform="matrix(0.0087890625,0,0,0.0087890625,0,0)" xlink:href="#ai"/><use transform="matrix(0.0087890625,0,0,0.0087890625,12.4189453125,0)" xlink:href="#aj"/><use transform="matrix(0.0087890625,0,0,0.0087890625,16.7783203125,0)" xlink:href="#ak"/><use transform="matrix(0.0087890625,0,0,0.0087890625,26.279296875,0)" xlink:href="#al"/><use transform="matrix(0.0087890625,0,0,0.0087890625,36.9228515625,0)" xlink:href="#am"/><use transform="matrix(0.0087890625,0,0,0.0087890625,47.0302734375,0)" xlink:href="#an"/><use transform="matrix(0.0087890625,0,0,0.0087890625,51.3896484375,0)" xlink:href="#aj"/><use transform="matrix(0.0087890625,0,0,0.0087890625,55.7490234375,0)" xlink:href="#ao"/><use transform="matrix(0.0087890625,0,0,0.0087890625,65.689453125,0)" xlink:href="#am"/></g><g id="aa"><use transform="matrix(0.0087890625,0,0,0.0087890625,0,0)" xlink:href="#aA"/><use transform="matrix(0.0087890625,0,0,0.0087890625,9.7646484375,0)" xlink:href="#at"/><use transform="matrix(0.0087890625,0,0,0.0087890625,20.2587890625,0)" xlink:href="#ar"/><use transform="matrix(0.0087890625,0,0,0.0087890625,30.8935546875,0)" xlink:href="#av"/><use transform="matrix(0.0087890625,0,0,0.0087890625,36.8701171875,0)" xlink:href="#am"/><use transform="matrix(0.0087890625,0,0,0.0087890625,46.9775390625,0)" xlink:href="#ar"/><use transform="matrix(0.0087890625,0,0,0.0087890625,57.6123046875,0)" xlink:href="#am"/></g><g id="ab"><use transform="matrix(0.0087890625,0,0,0.0087890625,0,0)" xlink:href="#az"/><use transform="matrix(0.0087890625,0,0,0.0087890625,11.021484375,0)" xlink:href="#au"/><use transform="matrix(0.0087890625,0,0,0.0087890625,18.0791015625,0)" xlink:href="#aj"/><use transform="matrix(0.0087890625,0,0,0.0087890625,22.4384765625,0)" xlink:href="#ar"/><use transform="matrix(0.0087890625,0,0,0.0087890625,33.0732421875,0)" xlink:href="#ap"/><use transform="matrix(0.0087890625,0,0,0.0087890625,43.3564453125,0)" xlink:href="#aj"/><use transform="matrix(0.0087890625,0,0,0.0087890625,47.7158203125,0)" xlink:href="#az"/><use transform="matrix(0.0087890625,0,0,0.0087890625,58.9130859375,0)" xlink:href="#am"/><use transform="matrix(0.0087890625,0,0,0.0087890625,69.0205078125,0)" xlink:href="#an"/></g><g id="ac"><use transform="matrix(0.0087890625,0,0,0.0087890625,0,0)" xlink:href="#ax"/><use transform="matrix(0.0087890625,0,0,0.0087890625,15.767578125,0)" xlink:href="#ay"/><use transform="matrix(0.0087890625,0,0,0.0087890625,26.560546875,0)" xlink:href="#ak"/><use transform="matrix(0.0087890625,0,0,0.0087890625,36.0615234375,0)" xlink:href="#av"/><use transform="matrix(0.0087890625,0,0,0.0087890625,41.9501953125,0)" xlink:href="#au"/><use transform="matrix(0.0087890625,0,0,0.0087890625,48.7265625,0)" xlink:href="#am"/><use transform="matrix(0.0087890625,0,0,0.0087890625,58.833984375,0)" xlink:href="#au"/></g><g id="ad"><use transform="matrix(0.0087890625,0,0,0.0087890625,0,0)" xlink:href="#an"/><use transform="matrix(0.0087890625,0,0,0.0087890625,4.359375,0)" xlink:href="#aj"/><use transform="matrix(0.0087890625,0,0,0.0087890625,8.71875,0)" xlink:href="#ak"/><use transform="matrix(0.0087890625,0,0,0.0087890625,18.2197265625,0)" xlink:href="#av"/><use transform="matrix(0.0087890625,0,0,0.0087890625,24.1962890625,0)" xlink:href="#am"/><use transform="matrix(0.0087890625,0,0,0.0087890625,34.3037109375,0)" xlink:href="#as"/><use transform="matrix(0.0087890625,0,0,0.0087890625,45.3251953125,0)" xlink:href="#ay"/></g><g id="ae"><use transform="matrix(0.0087890625,0,0,0.0087890625,0,0)" xlink:href="#aK"/><use transform="matrix(0.0087890625,0,0,0.0087890625,6.662109375,0)" xlink:href="#aj"/><use transform="matrix(0.0087890625,0,0,0.0087890625,11.021484375,0)" xlink:href="#an"/><use transform="matrix(0.0087890625,0,0,0.0087890625,15.64453125,0)" xlink:href="#av"/><use transform="matrix(0.0087890625,0,0,0.0087890625,21.533203125,0)" xlink:href="#au"/><use transform="matrix(0.0087890625,0,0,0.0087890625,28.3095703125,0)" xlink:href="#am"/><use transform="matrix(0.0087890625,0,0,0.0087890625,38.4169921875,0)" xlink:href="#as"/><use transform="matrix(0.0087890625,0,0,0.0087890625,49.4384765625,0)" xlink:href="#ay"/></g><g id="af"><use transform="matrix(0.0087890625,0,0,0.0087890625,0,0)" xlink:href="#at"/><use transform="matrix(0.0087890625,0,0,0.0087890625,10.494140625,0)" xlink:href="#an"/><use transform="matrix(0.0087890625,0,0,0.0087890625,14.853515625,0)" xlink:href="#aj"/><use transform="matrix(0.0087890625,0,0,0.0087890625,19.212890625,0)" xlink:href="#aE"/><use transform="matrix(0.0087890625,0,0,0.0087890625,30.251953125,0)" xlink:href="#at"/></g><g id="ag"><use transform="matrix(0.0087890625,0,0,0.0087890625,0,0)" xlink:href="#aK"/><use transform="matrix(0.0087890625,0,0,0.0087890625,6.662109375,0)" xlink:href="#aj"/><use transform="matrix(0.0087890625,0,0,0.0087890625,11.021484375,0)" xlink:href="#an"/><use transform="matrix(0.0087890625,0,0,0.0087890625,15.64453125,0)" xlink:href="#av"/><use transform="matrix(0.0087890625,0,0,0.0087890625,21.533203125,0)" xlink:href="#au"/><use transform="matrix(0.0087890625,0,0,0.0087890625,28.0107421875,0)" xlink:href="#ay"/></g><g id="ah"><use transform="matrix(0.0087890625,0,0,0.0087890625,0,0)" xlink:href="#am"/><use transform="matrix(0.0087890625,0,0,0.0087890625,10.107421875,0)" xlink:href="#az"/><use transform="matrix(0.0087890625,0,0,0.0087890625,21.12890625,0)" xlink:href="#an"/><use transform="matrix(0.0087890625,0,0,0.0087890625,25.48828125,0)" xlink:href="#aj"/><use transform="matrix(0.0087890625,0,0,0.0087890625,29.84765625,0)" xlink:href="#ap"/><use transform="matrix(0.0087890625,0,0,0.0087890625,40.306640625,0)" xlink:href="#am"/><use transform="matrix(0.0087890625,0,0,0.0087890625,50.4140625,0)" xlink:href="#au"/></g></defs></g></svg>