<svg xmlns="http://www.w3.org/2000/svg" xmlns:xlink="http://www.w3.org/1999/xlink" xmlns:lucid="lucid" width="2306" height="825"><g transform="translate(1139 3068)" lucid:page-tab-id="0_0"><path d="M-1500-4000h4500v9500h-4500z" fill="#fff"/><path d="M-1102.78-3037.33h40v757.5h-40zM-1061.78-3037.33h35.78v380h-35.78M-1061.78-2657.33h35.78v377.5h-35.78" stroke="#000" stroke-width="2" fill="#fff"/><path d="M-1026-3037.33h2163.22v380H-1026zM-1026-2657.33h2163.22v377.5H-1026z" stroke="#000" stroke-width="2" fill="none"/><use xlink:href="#a" transform="matrix(-1.8369701987210297e-16,-1,1,-1.8369701987210297e-16,-1102.7792968749998,-2279.8333333333335) translate(228.583984375 26.5478515625)"/><use xlink:href="#b" transform="matrix(-1.8369701987210297e-16,-1,1,-1.8369701987210297e-16,-1102.7792968749998,-2279.8333333333335) translate(350.435546875 26.5478515625)"/><use xlink:href="#c" transform="matrix(-1.8369701987210297e-16,-1,1,-1.8369701987210297e-16,-1102.7792968749998,-2279.8333333333335) translate(377.013671875 26.5478515625)"/><use xlink:href="#d" transform="matrix(-1.8369701987210297e-16,-1,1,-1.8369701987210297e-16,-1102.7792968749998,-2279.8333333333335) translate(445.181640625 26.5478515625)"/><use xlink:href="#e" transform="matrix(-1.8369701987210297e-16,-1,1,-1.8369701987210297e-16,-1062.7792968750002,-2657.3333333333335) translate(112.2255859375 25.0478515625)"/><use xlink:href="#f" transform="matrix(-1.8369701987210297e-16,-1,1,-1.8369701987210297e-16,-1062.7792968750002,-2279.8333333333335) translate(156.2783203125 25.0478515625)"/><path d="M-862.78-2857.33c0 16.57-13.43 30-30 30s-30-13.43-30-30 13.43-30 30-30 30 13.43 30 30z" stroke="#000" stroke-width="2" fill="#fff"/><use xlink:href="#g" transform="matrix(1,0,0,1,-922.779296875,-2825.3333333333335) translate(-2.92822265625 17.4375)"/><use xlink:href="#h" transform="matrix(1,0,0,1,-922.779296875,-2825.3333333333335) translate(-12.1171875 43.572656249999994)"/><use xlink:href="#i" transform="matrix(1,0,0,1,-922.779296875,-2825.3333333333335) translate(4.10302734375 69.70781249999999)"/><use xlink:href="#j" transform="matrix(1,0,0,1,-922.779296875,-2825.3333333333335) translate(4.56005859375 95.84296875)"/><use xlink:href="#k" transform="matrix(1,0,0,1,-922.779296875,-2825.3333333333335) translate(2.3583984375 121.97812499999999)"/><path d="M-502.78-2897.33h160v80h-160z" stroke="#000" stroke-width="2" fill="#fff"/><use xlink:href="#l" transform="matrix(1,0,0,1,-502.779296875,-2897.3333333333335) translate(48.461054687499995 33.375)"/><use xlink:href="#m" transform="matrix(1,0,0,1,-502.779296875,-2897.3333333333335) translate(25.750117187499995 59.510156249999994)"/><path d="M-243.78-2546.08l37.5-37.5 37.5 37.5-37.5 37.5z" stroke="#000" stroke-width="2" fill="#fff"/><path d="M-341.28-2857.33h35.8a12 12 0 0 1 12 12v287.25a12 12 0 0 0 12 12h19.9" stroke="#333" fill="none"/><path d="M-341.27-2856.86h-.5v-.95h.5z" stroke="#333" stroke-width=".05" fill="#333"/><path d="M-246.8-2546.08l-14.28 4.63v-9.27z" stroke="#333" fill="#333"/><path d="M-861.28-2857.33h91.12" stroke="#333" fill="none"/><path d="M-861.27-2856.86h-.55l.04-.45v-.5h.5z" stroke="#333" stroke-width=".05" fill="#333"/><path d="M-755.4-2857.33l-14.26 4.63v-9.27z" stroke="#333" fill="#333"/><path d="M56.22-2594.83h200v97.5h-200z" stroke="#000" stroke-width="2" fill="#fff"/><use xlink:href="#n" transform="matrix(1,0,0,1,56.220703125,-2594.8333333333335) translate(24.990351562500003 42.3203125)"/><use xlink:href="#o" transform="matrix(1,0,0,1,56.220703125,-2594.8333333333335) translate(111.91417968750001 42.3203125)"/><use xlink:href="#p" transform="matrix(1,0,0,1,56.220703125,-2594.8333333333335) translate(56.775996093749995 68.45546875)"/><path d="M-752.78-2897.33h160v80h-160z" stroke="#000" stroke-width="2" fill="#fff"/><use xlink:href="#q" transform="matrix(1,0,0,1,-752.779296875,-2897.3333333333335) translate(13.687128906250004 33.375)"/><use xlink:href="#r" transform="matrix(1,0,0,1,-752.779296875,-2897.3333333333335) translate(81.83751953125001 33.375)"/><use xlink:href="#s" transform="matrix(1,0,0,1,-752.779296875,-2897.3333333333335) translate(97.00744140625001 33.375)"/><use xlink:href="#t" transform="matrix(1,0,0,1,-752.779296875,-2897.3333333333335) translate(24.598750000000003 59.510156249999994)"/><use xlink:href="#u" transform="matrix(1,0,0,1,-752.779296875,-2897.3333333333335) translate(51.176875 59.510156249999994)"/><path d="M-672.78-2815.83v301.1" stroke="#333" fill="none"/><path d="M-672.3-2815.82h-.95v-.5h.95z" stroke="#333" stroke-width=".05" fill="#333"/><path d="M-672.78-2499.95l-4.63-14.27h9.26z" stroke="#333" fill="#333"/><path d="M-752.78-2497.33h160v80h-160z" stroke="#000" stroke-width="2" fill="#fff"/><use xlink:href="#v" transform="matrix(1,0,0,1,-752.779296875,-2497.3333333333335) translate(50.135371093749995 24.625)"/><use xlink:href="#w" transform="matrix(1,0,0,1,-752.779296875,-2497.3333333333335) translate(18.165156250000003 46.404296875)"/><use xlink:href="#x" transform="matrix(1,0,0,1,-752.779296875,-2497.3333333333335) translate(131.737421875 46.404296875)"/><use xlink:href="#y" transform="matrix(1,0,0,1,-752.779296875,-2497.3333333333335) translate(48.452265624999995 68.18359375)"/><path d="M-591.28-2457.33h171.17a12 12 0 0 0 12-12v-330.62" stroke="#333" fill="none"/><path d="M-591.27-2456.86h-.5v-.95h.5z" stroke="#333" stroke-width=".05" fill="#333"/><path d="M-408.1-2814.72l4.62 14.27h-9.27z" stroke="#333" fill="#333"/><path d="M257.72-2546.08h61.12" stroke="#333" fill="none"/><path d="M257.73-2545.6h-.5v-.96h.5z" stroke="#333" stroke-width=".05" fill="#333"/><path d="M333.6-2546.08l-14.26 4.63v-9.27z" stroke="#333" fill="#333"/><path d="M336.22-2594.83h200v97.5h-200z" stroke="#000" stroke-width="2" fill="#fff"/><use xlink:href="#z" transform="matrix(1,0,0,1,336.220703125,-2594.8333333333335) translate(10.387324218750004 55.71875)"/><use xlink:href="#A" transform="matrix(1,0,0,1,336.220703125,-2594.8333333333335) translate(63.64025390625 55.71875)"/><use xlink:href="#B" transform="matrix(1,0,0,1,336.220703125,-2594.8333333333335) translate(116.24279296875 55.71875)"/><path d="M-204.8-2414.72h-.95v-36.6h.95zm-1-58.4h-.95v-33.55h.95z" stroke="#333" stroke-width=".05" fill="#333"/><path d="M-205.8-2506.66h-.95v-.98l.47.47.48-.47z" fill="#333"/><path stroke="#333" stroke-width=".05" fill="#333"/><path d="M-205.28-2399.95l-4.63-14.27h9.26z" fill="#333"/><path d="M-205.28-2398.4l-5.3-16.3h10.6zm-3.98-15.34l3.98 12.25 3.98-12.24z" stroke="#333" stroke-width=".05" fill="#333"/><use xlink:href="#C" transform="matrix(1,0,0,1,-296.30126953125,-2473.1115024432233) translate(0.009999999999990905 17.4375)"/><use xlink:href="#D" transform="matrix(1,0,0,1,-296.30126953125,-2473.1115024432233) translate(93.58714843749999 17.4375)"/><path d="M-306.53-2397.33h202.5v60h-202.5z" stroke="#000" stroke-width="2" fill="#fff"/><use xlink:href="#E" transform="matrix(1,0,0,1,-306.529296875,-2397.3333333333335) translate(15.416132812500004 23.53125)"/><use xlink:href="#F" transform="matrix(1,0,0,1,-306.529296875,-2397.3333333333335) translate(89.65734375000001 23.53125)"/><use xlink:href="#G" transform="matrix(1,0,0,1,-306.529296875,-2397.3333333333335) translate(166.0782421875 23.53125)"/><use xlink:href="#H" transform="matrix(1,0,0,1,-306.529296875,-2397.3333333333335) translate(80.70568359375001 49.666406249999994)"/><path d="M-308.03-2367.33h-352.75a12 12 0 0 1-12-12v-20.62" stroke="#333" fill="none"/><path d="M-307.53-2366.86h-.5v-.95h.5z" stroke="#333" stroke-width=".05" fill="#333"/><path d="M-672.78-2414.72l4.64 14.27h-9.27z" stroke="#333" fill="#333"/><path d="M-126.64-2545.6h-40.23v-.96h40.23zm165.48 0h-76.97v-.96h76.97z" stroke="#333" stroke-width=".05" fill="#333"/><path d="M-166.85-2545.6h-1l.48-.48-.47-.48h1z" fill="#333"/><path stroke="#333" stroke-width=".05" fill="#333"/><path d="M53.6-2546.08l-14.26 4.63v-9.27z" fill="#333"/><path d="M55.14-2546.08l-16.28 5.3v-10.6zm-15.33 3.98l12.27-3.98-12.26-4z" stroke="#333" stroke-width=".05" fill="#333"/><g><use xlink:href="#I" transform="matrix(1,0,0,1,-126.64116605289519,-2570.0405598958337) translate(0.005000000000002558 17.4375)"/><use xlink:href="#J" transform="matrix(1,0,0,1,-126.64116605289519,-2570.0405598958337) translate(8.525996093750003 43.572656249999994)"/></g><path d="M1018.22-2927.33c0 16.57-13.43 30-30 30s-30-13.43-30-30 13.43-30 30-30 30 13.43 30 30z" stroke="#000" stroke-width="2" fill="#fff"/><path d="M1015.22-2927.33c0 14.9-12.1 27-27 27s-27-12.1-27-27 12.1-27 27-27 27 12.1 27 27z" stroke="#000" stroke-width="2" fill="#fff"/><path d="M968.22-2934.83h28v-7.5l12 15-12 15v-7.5h-28z" stroke="#000" stroke-width="2" fill="#fff"/><g><use xlink:href="#K" transform="matrix(1,0,0,1,958.220703125,-2895.3333333333335) translate(11.9677734375 17.4375)"/><use xlink:href="#L" transform="matrix(1,0,0,1,958.220703125,-2895.3333333333335) translate(-6.68994140625 43.572656249999994)"/></g><path d="M337.22-2976.08h200v97.5h-200z" stroke="#000" stroke-width="2" fill="#fff"/><g><use xlink:href="#M" transform="matrix(1,0,0,1,337.220703125,-2976.0833333333335) translate(36.95666015625 44.6171875)"/><use xlink:href="#N" transform="matrix(1,0,0,1,337.220703125,-2976.0833333333335) translate(115.51330078125001 44.6171875)"/><use xlink:href="#L" transform="matrix(1,0,0,1,337.220703125,-2976.0833333333335) translate(63.315058593749995 66.396484375)"/></g><path d="M436.22-2596.33v-139.88a.5.5 0 0 1 .5-.5.5.5 0 0 0 .5-.5v-124" stroke="#333" fill="none"/><path d="M436.7-2595.83h-.95v-.52h.95z" stroke="#333" stroke-width=".05" fill="#333"/><path d="M437.22-2875.97l4.64 14.27h-9.28z" stroke="#333" fill="#333"/><path d="M538.72-2927.33h402.12" stroke="#333" fill="none"/><path d="M538.73-2926.86h-.5v-.95h.5z" stroke="#333" stroke-width=".05" fill="#333"/><path d="M955.6-2927.33l-14.26 4.63v-9.27z" stroke="#333" fill="#333"/><defs><path d="M52 0l541-1490h220L1361 0h-200l-149-416H398L254 0H52zm404-582h497c-103-290-145-390-251-756-108 377-145 460-246 756" id="O"/><path d="M537 14c-226 0-379-139-379-422v-710h180v695c0 172 97 275 253 275 160 0 281-109 281-300v-670h181V0H879v-209C806-46 684 14 537 14" id="P"/><path d="M598-1118v154H368v674c0 100 37 144 132 144 23 0 62-6 92-12L629-6c-37 13-88 20-134 20-193 0-307-107-307-290v-688H20v-154h168v-266h180v266h230" id="Q"/><path d="M628 24c-324 0-524-230-524-574 0-343 198-582 503-582 237 0 487 146 487 559v75H286c9 234 145 362 343 362 132 0 231-58 273-172l174 48C1024-91 857 24 628 24zM287-650h624c-17-190-120-322-304-322-192 0-309 151-320 322" id="R"/><path d="M338-670V0H158v-1118h173l1 207c72-158 192-221 342-221 226 0 378 139 378 422V0H872v-695c0-172-96-275-252-275-161 0-282 109-282 300" id="S"/><path d="M158 0v-1118h180V0H158zm91-1301c-68 0-125-53-125-119s57-119 125-119c69 0 126 53 126 119s-57 119-126 119" id="T"/><path d="M613 24c-304 0-509-231-509-576 0-350 205-580 509-580 216 0 392 114 453 309l-173 49c-33-115-133-197-280-197-223 0-326 196-326 419 0 220 103 415 326 415 150 0 252-85 285-206l172 49C1010-95 832 24 613 24" id="U"/><path d="M471 26C259 26 90-98 90-318c0-256 228-303 435-329 202-27 287-16 287-108 0-139-79-219-234-219-161 0-248 86-283 164l-173-57c86-203 278-265 451-265 150 0 419 46 419 395V0H815v-152h-12C765-73 660 26 471 26zm31-159c199 0 310-134 310-271v-155c-30 35-226 55-295 64-131 17-246 59-246 186 0 116 97 176 231 176" id="V"/><path d="M613 24c-304 0-509-231-509-576 0-350 205-580 509-580 305 0 511 230 511 580 0 345-206 576-511 576zm0-161c226 0 329-195 329-415 0-222-103-419-329-419-223 0-326 196-326 419 0 220 103 415 326 415zm-79-1127l140-294h201l-194 294H534" id="W"/><g id="a"><use transform="matrix(0.0087890625,0,0,0.0087890625,0,0)" xlink:href="#O"/><use transform="matrix(0.0087890625,0,0,0.0087890625,12.4189453125,0)" xlink:href="#P"/><use transform="matrix(0.0087890625,0,0,0.0087890625,23.0625,0)" xlink:href="#Q"/><use transform="matrix(0.0087890625,0,0,0.0087890625,28.775390625,0)" xlink:href="#R"/><use transform="matrix(0.0087890625,0,0,0.0087890625,39.26953125,0)" xlink:href="#S"/><use transform="matrix(0.0087890625,0,0,0.0087890625,49.904296875,0)" xlink:href="#Q"/><use transform="matrix(0.0087890625,0,0,0.0087890625,55.79296875,0)" xlink:href="#T"/><use transform="matrix(0.0087890625,0,0,0.0087890625,60.15234375,0)" xlink:href="#U"/><use transform="matrix(0.0087890625,0,0,0.0087890625,70.611328125,0)" xlink:href="#V"/><use transform="matrix(0.0087890625,0,0,0.0087890625,80.71875,0)" xlink:href="#U"/><use transform="matrix(0.0087890625,0,0,0.0087890625,91.001953125,0)" xlink:href="#T"/><use transform="matrix(0.0087890625,0,0,0.0087890625,95.361328125,0)" xlink:href="#W"/><use transform="matrix(0.0087890625,0,0,0.0087890625,106.154296875,0)" xlink:href="#S"/></g><path d="M577 24c-279 0-473-224-473-580 0-354 195-576 474-576 218 0 287 134 324 193h14v-551h180V0H922v-173h-20C865-111 790 24 577 24zm27-161c203 0 314-172 314-421 0-247-108-413-314-413-212 0-317 181-317 413 0 235 108 421 317 421" id="X"/><g id="b"><use transform="matrix(0.0087890625,0,0,0.0087890625,0,0)" xlink:href="#X"/><use transform="matrix(0.0087890625,0,0,0.0087890625,11.021484375,0)" xlink:href="#R"/></g><path d="M538 24C308 24 148-78 108-271l171-41c32 123 123 178 257 178 156 0 256-77 256-169 0-77-54-128-164-154l-186-44c-203-48-300-148-300-305 0-192 176-326 414-326 230 0 351 112 402 269l-163 42c-31-80-94-158-238-158-133 0-233 69-233 162 0 83 57 129 188 160l169 40c203 48 298 149 298 302 0 196-179 339-441 339" id="Y"/><path d="M158 0v-1118h174v172h12c41-113 157-188 290-188 26 0 70 2 91 3v181c-11-2-60-10-108-10-161 0-279 109-279 260V0H158" id="Z"/><path d="M613 24c-304 0-509-231-509-576 0-350 205-580 509-580 305 0 511 230 511 580 0 345-206 576-511 576zm0-161c226 0 329-195 329-415 0-222-103-419-329-419-223 0-326 196-326 419 0 220 103 415 326 415" id="aa"/><g id="c"><use transform="matrix(0.0087890625,0,0,0.0087890625,0,0)" xlink:href="#P"/><use transform="matrix(0.0087890625,0,0,0.0087890625,10.6435546875,0)" xlink:href="#Y"/><use transform="matrix(0.0087890625,0,0,0.0087890625,20.14453125,0)" xlink:href="#P"/><use transform="matrix(0.0087890625,0,0,0.0087890625,30.7880859375,0)" xlink:href="#V"/><use transform="matrix(0.0087890625,0,0,0.0087890625,40.8955078125,0)" xlink:href="#Z"/><use transform="matrix(0.0087890625,0,0,0.0087890625,47.953125,0)" xlink:href="#T"/><use transform="matrix(0.0087890625,0,0,0.0087890625,52.3125,0)" xlink:href="#aa"/></g><path d="M158 0v-1118h175l1 205c55-151 181-225 313-225 147 0 245 90 285 228 53-141 190-228 352-228 194 0 352 125 352 384V0h-181v-749c0-161-105-225-225-225-151 0-243 103-243 244V0H807v-767c0-124-93-207-219-207-131 0-250 92-250 270V0H158" id="ab"/><path d="M158 418v-1536h174v179h20c37-59 106-193 324-193 279 0 474 222 474 576 0 356-194 580-473 580-213 0-288-135-325-197h-14v591H158zm492-555c209 0 317-186 317-421 0-232-105-413-317-413-206 0-314 166-314 413 0 249 111 421 314 421" id="ac"/><path d="M338-1490V0H158v-1490h180" id="ad"/><g id="d"><use transform="matrix(0.0087890625,0,0,0.0087890625,0,0)" xlink:href="#R"/><use transform="matrix(0.0087890625,0,0,0.0087890625,10.494140625,0)" xlink:href="#ab"/><use transform="matrix(0.0087890625,0,0,0.0087890625,26.26171875,0)" xlink:href="#ac"/><use transform="matrix(0.0087890625,0,0,0.0087890625,37.283203125,0)" xlink:href="#ad"/><use transform="matrix(0.0087890625,0,0,0.0087890625,41.642578125,0)" xlink:href="#R"/><use transform="matrix(0.0087890625,0,0,0.0087890625,52.3125,0)" xlink:href="#V"/><use transform="matrix(0.0087890625,0,0,0.0087890625,62.419921875,0)" xlink:href="#X"/><use transform="matrix(0.0087890625,0,0,0.0087890625,73.44140625,0)" xlink:href="#aa"/></g><path d="M934 0v166H0V0h934" id="ae"/><g id="e"><use transform="matrix(0.0087890625,0,0,0.0087890625,0,0)" xlink:href="#P"/><use transform="matrix(0.0087890625,0,0,0.0087890625,10.6435546875,0)" xlink:href="#Y"/><use transform="matrix(0.0087890625,0,0,0.0087890625,20.14453125,0)" xlink:href="#P"/><use transform="matrix(0.0087890625,0,0,0.0087890625,30.7880859375,0)" xlink:href="#V"/><use transform="matrix(0.0087890625,0,0,0.0087890625,40.8955078125,0)" xlink:href="#Z"/><use transform="matrix(0.0087890625,0,0,0.0087890625,47.953125,0)" xlink:href="#T"/><use transform="matrix(0.0087890625,0,0,0.0087890625,52.3125,0)" xlink:href="#aa"/><use transform="matrix(0.0087890625,0,0,0.0087890625,63.10546875,0)" xlink:href="#ae"/><use transform="matrix(0.0087890625,0,0,0.0087890625,71.314453125,0)" xlink:href="#R"/><use transform="matrix(0.0087890625,0,0,0.0087890625,81.80859375,0)" xlink:href="#ab"/><use transform="matrix(0.0087890625,0,0,0.0087890625,97.576171875,0)" xlink:href="#ac"/><use transform="matrix(0.0087890625,0,0,0.0087890625,108.59765625,0)" xlink:href="#ad"/><use transform="matrix(0.0087890625,0,0,0.0087890625,112.95703125,0)" xlink:href="#R"/><use transform="matrix(0.0087890625,0,0,0.0087890625,123.626953125,0)" xlink:href="#V"/><use transform="matrix(0.0087890625,0,0,0.0087890625,133.734375,0)" xlink:href="#X"/><use transform="matrix(0.0087890625,0,0,0.0087890625,144.755859375,0)" xlink:href="#aa"/></g><g id="f"><use transform="matrix(0.0087890625,0,0,0.0087890625,0,0)" xlink:href="#Y"/><use transform="matrix(0.0087890625,0,0,0.0087890625,9.5009765625,0)" xlink:href="#T"/><use transform="matrix(0.0087890625,0,0,0.0087890625,13.8603515625,0)" xlink:href="#Y"/><use transform="matrix(0.0087890625,0,0,0.0087890625,23.361328125,0)" xlink:href="#Q"/><use transform="matrix(0.0087890625,0,0,0.0087890625,29.07421875,0)" xlink:href="#R"/><use transform="matrix(0.0087890625,0,0,0.0087890625,39.568359375,0)" xlink:href="#ab"/><use transform="matrix(0.0087890625,0,0,0.0087890625,55.3359375,0)" xlink:href="#V"/></g><path d="M763 24c-353 0-583-224-583-531v-983h190v968c0 214 149 370 393 370 243 0 391-156 391-370v-968h190v983c0 307-230 531-581 531" id="af"/><g id="g"><use transform="matrix(0.0087890625,0,0,0.0087890625,0,0)" xlink:href="#af"/><use transform="matrix(0.0087890625,0,0,0.0087890625,13.39453125,0)" xlink:href="#Y"/><use transform="matrix(0.0087890625,0,0,0.0087890625,22.8955078125,0)" xlink:href="#P"/><use transform="matrix(0.0087890625,0,0,0.0087890625,33.5390625,0)" xlink:href="#V"/><use transform="matrix(0.0087890625,0,0,0.0087890625,43.646484375,0)" xlink:href="#Z"/><use transform="matrix(0.0087890625,0,0,0.0087890625,50.7041015625,0)" xlink:href="#T"/><use transform="matrix(0.0087890625,0,0,0.0087890625,55.0634765625,0)" xlink:href="#aa"/></g><g id="h"><use transform="matrix(0.0087890625,0,0,0.0087890625,0,0)" xlink:href="#R"/><use transform="matrix(0.0087890625,0,0,0.0087890625,10.494140625,0)" xlink:href="#ab"/><use transform="matrix(0.0087890625,0,0,0.0087890625,26.26171875,0)" xlink:href="#ac"/><use transform="matrix(0.0087890625,0,0,0.0087890625,37.283203125,0)" xlink:href="#ad"/><use transform="matrix(0.0087890625,0,0,0.0087890625,41.642578125,0)" xlink:href="#R"/><use transform="matrix(0.0087890625,0,0,0.0087890625,52.3125,0)" xlink:href="#V"/><use transform="matrix(0.0087890625,0,0,0.0087890625,62.419921875,0)" xlink:href="#X"/><use transform="matrix(0.0087890625,0,0,0.0087890625,73.44140625,0)" xlink:href="#aa"/></g><g id="i"><use transform="matrix(0.0087890625,0,0,0.0087890625,0,0)" xlink:href="#X"/><use transform="matrix(0.0087890625,0,0,0.0087890625,11.021484375,0)" xlink:href="#R"/><use transform="matrix(0.0087890625,0,0,0.0087890625,21.515625,0)" xlink:href="#Y"/><use transform="matrix(0.0087890625,0,0,0.0087890625,31.0166015625,0)" xlink:href="#R"/><use transform="matrix(0.0087890625,0,0,0.0087890625,41.6865234375,0)" xlink:href="#V"/></g><g id="j"><use transform="matrix(0.0087890625,0,0,0.0087890625,0,0)" xlink:href="#T"/><use transform="matrix(0.0087890625,0,0,0.0087890625,4.359375,0)" xlink:href="#S"/><use transform="matrix(0.0087890625,0,0,0.0087890625,14.994140625,0)" xlink:href="#T"/><use transform="matrix(0.0087890625,0,0,0.0087890625,19.353515625,0)" xlink:href="#U"/><use transform="matrix(0.0087890625,0,0,0.0087890625,29.63671875,0)" xlink:href="#T"/><use transform="matrix(0.0087890625,0,0,0.0087890625,33.99609375,0)" xlink:href="#V"/><use transform="matrix(0.0087890625,0,0,0.0087890625,44.103515625,0)" xlink:href="#Z"/></g><g id="k"><use transform="matrix(0.0087890625,0,0,0.0087890625,0,0)" xlink:href="#Y"/><use transform="matrix(0.0087890625,0,0,0.0087890625,9.5009765625,0)" xlink:href="#R"/><use transform="matrix(0.0087890625,0,0,0.0087890625,19.9951171875,0)" xlink:href="#Y"/><use transform="matrix(0.0087890625,0,0,0.0087890625,29.49609375,0)" xlink:href="#T"/><use transform="matrix(0.0087890625,0,0,0.0087890625,33.85546875,0)" xlink:href="#W"/><use transform="matrix(0.0087890625,0,0,0.0087890625,44.6484375,0)" xlink:href="#S"/></g><path d="M370-1490V0H180v-1490h190" id="ag"/><path d="M611 442c-248 0-391-105-460-228l146-94c47 65 117 165 314 165 178 0 307-82 307-266v-224h-17C863-141 792-18 576-18c-268 0-472-195-472-546 0-346 197-568 476-568 216 0 288 133 326 193h17v-179h175V29c0 289-215 413-487 413zm-5-620c203 0 314-146 314-390 0-237-108-403-314-403-213 0-319 180-319 403 0 230 109 390 319 390" id="ah"/><g id="l"><use transform="matrix(0.0087890625,0,0,0.0087890625,0,0)" xlink:href="#ag"/><use transform="matrix(0.0087890625,0,0,0.0087890625,4.833984375,0)" xlink:href="#S"/><use transform="matrix(0.0087890625,0,0,0.0087890625,15.46875,0)" xlink:href="#ah"/><use transform="matrix(0.0087890625,0,0,0.0087890625,26.5078125,0)" xlink:href="#Z"/><use transform="matrix(0.0087890625,0,0,0.0087890625,32.9853515625,0)" xlink:href="#R"/><use transform="matrix(0.0087890625,0,0,0.0087890625,43.4794921875,0)" xlink:href="#Y"/><use transform="matrix(0.0087890625,0,0,0.0087890625,52.98046875,0)" xlink:href="#V"/></g><g id="m"><use transform="matrix(0.0087890625,0,0,0.0087890625,0,0)" xlink:href="#U"/><use transform="matrix(0.0087890625,0,0,0.0087890625,10.283203125,0)" xlink:href="#Z"/><use transform="matrix(0.0087890625,0,0,0.0087890625,16.7607421875,0)" xlink:href="#R"/><use transform="matrix(0.0087890625,0,0,0.0087890625,27.2548828125,0)" xlink:href="#X"/><use transform="matrix(0.0087890625,0,0,0.0087890625,38.2763671875,0)" xlink:href="#R"/><use transform="matrix(0.0087890625,0,0,0.0087890625,48.7705078125,0)" xlink:href="#S"/><use transform="matrix(0.0087890625,0,0,0.0087890625,59.4052734375,0)" xlink:href="#U"/><use transform="matrix(0.0087890625,0,0,0.0087890625,69.6884765625,0)" xlink:href="#T"/><use transform="matrix(0.0087890625,0,0,0.0087890625,74.0478515625,0)" xlink:href="#V"/><use transform="matrix(0.0087890625,0,0,0.0087890625,84.1552734375,0)" xlink:href="#ad"/><use transform="matrix(0.0087890625,0,0,0.0087890625,88.5146484375,0)" xlink:href="#R"/><use transform="matrix(0.0087890625,0,0,0.0087890625,99.0087890625,0)" xlink:href="#Y"/></g><g id="n"><use transform="matrix(0.0087890625,0,0,0.0087890625,0,0)" xlink:href="#V"/><use transform="matrix(0.0087890625,0,0,0.0087890625,10.107421875,0)" xlink:href="#ad"/><use transform="matrix(0.0087890625,0,0,0.0087890625,14.466796875,0)" xlink:href="#ab"/><use transform="matrix(0.0087890625,0,0,0.0087890625,30.234375,0)" xlink:href="#V"/><use transform="matrix(0.0087890625,0,0,0.0087890625,40.341796875,0)" xlink:href="#U"/><use transform="matrix(0.0087890625,0,0,0.0087890625,50.625,0)" xlink:href="#R"/><use transform="matrix(0.0087890625,0,0,0.0087890625,61.119140625,0)" xlink:href="#S"/><use transform="matrix(0.0087890625,0,0,0.0087890625,71.75390625,0)" xlink:href="#V"/></g><g id="o"><use transform="matrix(0.0087890625,0,0,0.0087890625,0,0)" xlink:href="#P"/><use transform="matrix(0.0087890625,0,0,0.0087890625,10.6435546875,0)" xlink:href="#Y"/><use transform="matrix(0.0087890625,0,0,0.0087890625,20.14453125,0)" xlink:href="#P"/><use transform="matrix(0.0087890625,0,0,0.0087890625,30.7880859375,0)" xlink:href="#V"/><use transform="matrix(0.0087890625,0,0,0.0087890625,40.8955078125,0)" xlink:href="#Z"/><use transform="matrix(0.0087890625,0,0,0.0087890625,47.953125,0)" xlink:href="#T"/><use transform="matrix(0.0087890625,0,0,0.0087890625,52.3125,0)" xlink:href="#aa"/></g><g id="p"><use transform="matrix(0.0087890625,0,0,0.0087890625,0,0)" xlink:href="#Z"/><use transform="matrix(0.0087890625,0,0,0.0087890625,6.4775390625,0)" xlink:href="#R"/><use transform="matrix(0.0087890625,0,0,0.0087890625,16.9716796875,0)" xlink:href="#ah"/><use transform="matrix(0.0087890625,0,0,0.0087890625,28.0107421875,0)" xlink:href="#T"/><use transform="matrix(0.0087890625,0,0,0.0087890625,32.3701171875,0)" xlink:href="#Y"/><use transform="matrix(0.0087890625,0,0,0.0087890625,41.87109375,0)" xlink:href="#Q"/><use transform="matrix(0.0087890625,0,0,0.0087890625,47.759765625,0)" xlink:href="#Z"/><use transform="matrix(0.0087890625,0,0,0.0087890625,54.5361328125,0)" xlink:href="#V"/><use transform="matrix(0.0087890625,0,0,0.0087890625,64.6435546875,0)" xlink:href="#X"/><use transform="matrix(0.0087890625,0,0,0.0087890625,75.6650390625,0)" xlink:href="#aa"/></g><g id="q"><use transform="matrix(0.0087890625,0,0,0.0087890625,0,0)" xlink:href="#ag"/><use transform="matrix(0.0087890625,0,0,0.0087890625,4.833984375,0)" xlink:href="#S"/><use transform="matrix(0.0087890625,0,0,0.0087890625,15.46875,0)" xlink:href="#ah"/><use transform="matrix(0.0087890625,0,0,0.0087890625,26.5078125,0)" xlink:href="#Z"/><use transform="matrix(0.0087890625,0,0,0.0087890625,32.9853515625,0)" xlink:href="#R"/><use transform="matrix(0.0087890625,0,0,0.0087890625,43.4794921875,0)" xlink:href="#Y"/><use transform="matrix(0.0087890625,0,0,0.0087890625,52.98046875,0)" xlink:href="#V"/></g><use transform="matrix(0.0087890625,0,0,0.0087890625,0,0)" xlink:href="#V" id="r"/><g id="s"><use transform="matrix(0.0087890625,0,0,0.0087890625,0,0)" xlink:href="#ac"/><use transform="matrix(0.0087890625,0,0,0.0087890625,11.021484375,0)" xlink:href="#aa"/><use transform="matrix(0.0087890625,0,0,0.0087890625,21.814453125,0)" xlink:href="#Z"/><use transform="matrix(0.0087890625,0,0,0.0087890625,28.8720703125,0)" xlink:href="#Q"/><use transform="matrix(0.0087890625,0,0,0.0087890625,34.8486328125,0)" xlink:href="#V"/><use transform="matrix(0.0087890625,0,0,0.0087890625,44.9560546875,0)" xlink:href="#ad"/></g><g id="t"><use transform="matrix(0.0087890625,0,0,0.0087890625,0,0)" xlink:href="#X"/><use transform="matrix(0.0087890625,0,0,0.0087890625,11.021484375,0)" xlink:href="#R"/></g><g id="u"><use transform="matrix(0.0087890625,0,0,0.0087890625,0,0)" xlink:href="#R"/><use transform="matrix(0.0087890625,0,0,0.0087890625,10.494140625,0)" xlink:href="#ab"/><use transform="matrix(0.0087890625,0,0,0.0087890625,26.26171875,0)" xlink:href="#ac"/><use transform="matrix(0.0087890625,0,0,0.0087890625,37.283203125,0)" xlink:href="#ad"/><use transform="matrix(0.0087890625,0,0,0.0087890625,41.642578125,0)" xlink:href="#R"/><use transform="matrix(0.0087890625,0,0,0.0087890625,52.3125,0)" xlink:href="#V"/><use transform="matrix(0.0087890625,0,0,0.0087890625,62.419921875,0)" xlink:href="#X"/><use transform="matrix(0.0087890625,0,0,0.0087890625,73.44140625,0)" xlink:href="#aa"/></g><g id="v"><use transform="matrix(0.0087890625,0,0,0.0087890625,0,0)" xlink:href="#Y"/><use transform="matrix(0.0087890625,0,0,0.0087890625,9.5009765625,0)" xlink:href="#aa"/><use transform="matrix(0.0087890625,0,0,0.0087890625,20.2939453125,0)" xlink:href="#ad"/><use transform="matrix(0.0087890625,0,0,0.0087890625,24.6533203125,0)" xlink:href="#T"/><use transform="matrix(0.0087890625,0,0,0.0087890625,29.0126953125,0)" xlink:href="#U"/><use transform="matrix(0.0087890625,0,0,0.0087890625,39.2958984375,0)" xlink:href="#T"/><use transform="matrix(0.0087890625,0,0,0.0087890625,43.6552734375,0)" xlink:href="#Q"/><use transform="matrix(0.0087890625,0,0,0.0087890625,49.6318359375,0)" xlink:href="#V"/></g><g id="w"><use transform="matrix(0.0087890625,0,0,0.0087890625,0,0)" xlink:href="#U"/><use transform="matrix(0.0087890625,0,0,0.0087890625,10.283203125,0)" xlink:href="#Z"/><use transform="matrix(0.0087890625,0,0,0.0087890625,16.7607421875,0)" xlink:href="#R"/><use transform="matrix(0.0087890625,0,0,0.0087890625,27.2548828125,0)" xlink:href="#X"/><use transform="matrix(0.0087890625,0,0,0.0087890625,38.2763671875,0)" xlink:href="#R"/><use transform="matrix(0.0087890625,0,0,0.0087890625,48.7705078125,0)" xlink:href="#S"/><use transform="matrix(0.0087890625,0,0,0.0087890625,59.4052734375,0)" xlink:href="#U"/><use transform="matrix(0.0087890625,0,0,0.0087890625,69.6884765625,0)" xlink:href="#T"/><use transform="matrix(0.0087890625,0,0,0.0087890625,74.0478515625,0)" xlink:href="#V"/><use transform="matrix(0.0087890625,0,0,0.0087890625,84.1552734375,0)" xlink:href="#ad"/><use transform="matrix(0.0087890625,0,0,0.0087890625,88.5146484375,0)" xlink:href="#R"/><use transform="matrix(0.0087890625,0,0,0.0087890625,99.0087890625,0)" xlink:href="#Y"/></g><use transform="matrix(0.0087890625,0,0,0.0087890625,0,0)" xlink:href="#V" id="x"/><g id="y"><use transform="matrix(0.0087890625,0,0,0.0087890625,0,0)" xlink:href="#P"/><use transform="matrix(0.0087890625,0,0,0.0087890625,10.6435546875,0)" xlink:href="#Y"/><use transform="matrix(0.0087890625,0,0,0.0087890625,20.14453125,0)" xlink:href="#P"/><use transform="matrix(0.0087890625,0,0,0.0087890625,30.7880859375,0)" xlink:href="#V"/><use transform="matrix(0.0087890625,0,0,0.0087890625,40.8955078125,0)" xlink:href="#Z"/><use transform="matrix(0.0087890625,0,0,0.0087890625,47.953125,0)" xlink:href="#T"/><use transform="matrix(0.0087890625,0,0,0.0087890625,52.3125,0)" xlink:href="#aa"/></g><g id="z"><use transform="matrix(0.0087890625,0,0,0.0087890625,0,0)" xlink:href="#U"/><use transform="matrix(0.0087890625,0,0,0.0087890625,10.458984375,0)" xlink:href="#V"/><use transform="matrix(0.0087890625,0,0,0.0087890625,20.56640625,0)" xlink:href="#Z"/><use transform="matrix(0.0087890625,0,0,0.0087890625,27.0439453125,0)" xlink:href="#ah"/><use transform="matrix(0.0087890625,0,0,0.0087890625,38.0830078125,0)" xlink:href="#V"/></g><g id="A"><use transform="matrix(0.0087890625,0,0,0.0087890625,0,0)" xlink:href="#ab"/><use transform="matrix(0.0087890625,0,0,0.0087890625,15.767578125,0)" xlink:href="#R"/><use transform="matrix(0.0087890625,0,0,0.0087890625,26.26171875,0)" xlink:href="#S"/><use transform="matrix(0.0087890625,0,0,0.0087890625,36.896484375,0)" xlink:href="#P"/></g><g id="B"><use transform="matrix(0.0087890625,0,0,0.0087890625,0,0)" xlink:href="#ac"/><use transform="matrix(0.0087890625,0,0,0.0087890625,11.021484375,0)" xlink:href="#Z"/><use transform="matrix(0.0087890625,0,0,0.0087890625,18.0791015625,0)" xlink:href="#T"/><use transform="matrix(0.0087890625,0,0,0.0087890625,22.4384765625,0)" xlink:href="#S"/><use transform="matrix(0.0087890625,0,0,0.0087890625,33.0732421875,0)" xlink:href="#U"/><use transform="matrix(0.0087890625,0,0,0.0087890625,43.3564453125,0)" xlink:href="#T"/><use transform="matrix(0.0087890625,0,0,0.0087890625,47.7158203125,0)" xlink:href="#ac"/><use transform="matrix(0.0087890625,0,0,0.0087890625,58.9130859375,0)" xlink:href="#V"/><use transform="matrix(0.0087890625,0,0,0.0087890625,69.0205078125,0)" xlink:href="#ad"/></g><g id="C"><use transform="matrix(0.0087890625,0,0,0.0087890625,0,0)" xlink:href="#U"/><use transform="matrix(0.0087890625,0,0,0.0087890625,10.283203125,0)" xlink:href="#Z"/><use transform="matrix(0.0087890625,0,0,0.0087890625,16.7607421875,0)" xlink:href="#R"/><use transform="matrix(0.0087890625,0,0,0.0087890625,27.2548828125,0)" xlink:href="#X"/><use transform="matrix(0.0087890625,0,0,0.0087890625,38.2763671875,0)" xlink:href="#R"/><use transform="matrix(0.0087890625,0,0,0.0087890625,48.7705078125,0)" xlink:href="#S"/><use transform="matrix(0.0087890625,0,0,0.0087890625,59.4052734375,0)" xlink:href="#U"/><use transform="matrix(0.0087890625,0,0,0.0087890625,69.6884765625,0)" xlink:href="#T"/><use transform="matrix(0.0087890625,0,0,0.0087890625,74.0478515625,0)" xlink:href="#V"/><use transform="matrix(0.0087890625,0,0,0.0087890625,84.1552734375,0)" xlink:href="#ad"/></g><g id="D"><use transform="matrix(0.0087890625,0,0,0.0087890625,0,0)" xlink:href="#T"/><use transform="matrix(0.0087890625,0,0,0.0087890625,4.359375,0)" xlink:href="#S"/><use transform="matrix(0.0087890625,0,0,0.0087890625,14.994140625,0)" xlink:href="#U"/><use transform="matrix(0.0087890625,0,0,0.0087890625,25.27734375,0)" xlink:href="#aa"/><use transform="matrix(0.0087890625,0,0,0.0087890625,36.0703125,0)" xlink:href="#Z"/><use transform="matrix(0.0087890625,0,0,0.0087890625,43.1279296875,0)" xlink:href="#Z"/><use transform="matrix(0.0087890625,0,0,0.0087890625,49.60546875,0)" xlink:href="#R"/><use transform="matrix(0.0087890625,0,0,0.0087890625,60.099609375,0)" xlink:href="#U"/><use transform="matrix(0.0087890625,0,0,0.0087890625,70.3828125,0)" xlink:href="#Q"/><use transform="matrix(0.0087890625,0,0,0.0087890625,76.359375,0)" xlink:href="#V"/></g><g id="E"><use transform="matrix(0.0087890625,0,0,0.0087890625,0,0)" xlink:href="#ab"/><use transform="matrix(0.0087890625,0,0,0.0087890625,15.767578125,0)" xlink:href="#P"/><use transform="matrix(0.0087890625,0,0,0.0087890625,26.4111328125,0)" xlink:href="#R"/><use transform="matrix(0.0087890625,0,0,0.0087890625,36.9052734375,0)" xlink:href="#Y"/><use transform="matrix(0.0087890625,0,0,0.0087890625,46.40625,0)" xlink:href="#Q"/><use transform="matrix(0.0087890625,0,0,0.0087890625,52.294921875,0)" xlink:href="#Z"/><use transform="matrix(0.0087890625,0,0,0.0087890625,59.0712890625,0)" xlink:href="#V"/></g><path d="M157-1118h181V80c1 225-123 350-364 338V252c126 9 184-48 183-172v-1198zm91-183c-68 0-125-53-125-119s57-119 125-119c69 0 126 53 126 119s-57 119-126 119" id="ai"/><g id="F"><use transform="matrix(0.0087890625,0,0,0.0087890625,0,0)" xlink:href="#ab"/><use transform="matrix(0.0087890625,0,0,0.0087890625,15.767578125,0)" xlink:href="#R"/><use transform="matrix(0.0087890625,0,0,0.0087890625,26.26171875,0)" xlink:href="#S"/><use transform="matrix(0.0087890625,0,0,0.0087890625,36.896484375,0)" xlink:href="#Y"/><use transform="matrix(0.0087890625,0,0,0.0087890625,46.3974609375,0)" xlink:href="#V"/><use transform="matrix(0.0087890625,0,0,0.0087890625,56.5048828125,0)" xlink:href="#ai"/><use transform="matrix(0.0087890625,0,0,0.0087890625,60.8642578125,0)" xlink:href="#R"/></g><g id="G"><use transform="matrix(0.0087890625,0,0,0.0087890625,0,0)" xlink:href="#X"/><use transform="matrix(0.0087890625,0,0,0.0087890625,11.021484375,0)" xlink:href="#R"/></g><g id="H"><use transform="matrix(0.0087890625,0,0,0.0087890625,0,0)" xlink:href="#R"/><use transform="matrix(0.0087890625,0,0,0.0087890625,10.494140625,0)" xlink:href="#Z"/><use transform="matrix(0.0087890625,0,0,0.0087890625,17.5517578125,0)" xlink:href="#Z"/><use transform="matrix(0.0087890625,0,0,0.0087890625,24.029296875,0)" xlink:href="#aa"/><use transform="matrix(0.0087890625,0,0,0.0087890625,34.822265625,0)" xlink:href="#Z"/></g><g id="I"><use transform="matrix(0.0087890625,0,0,0.0087890625,0,0)" xlink:href="#U"/><use transform="matrix(0.0087890625,0,0,0.0087890625,10.283203125,0)" xlink:href="#Z"/><use transform="matrix(0.0087890625,0,0,0.0087890625,16.7607421875,0)" xlink:href="#R"/><use transform="matrix(0.0087890625,0,0,0.0087890625,27.2548828125,0)" xlink:href="#X"/><use transform="matrix(0.0087890625,0,0,0.0087890625,38.2763671875,0)" xlink:href="#R"/><use transform="matrix(0.0087890625,0,0,0.0087890625,48.7705078125,0)" xlink:href="#S"/><use transform="matrix(0.0087890625,0,0,0.0087890625,59.4052734375,0)" xlink:href="#U"/><use transform="matrix(0.0087890625,0,0,0.0087890625,69.6884765625,0)" xlink:href="#T"/><use transform="matrix(0.0087890625,0,0,0.0087890625,74.0478515625,0)" xlink:href="#V"/><use transform="matrix(0.0087890625,0,0,0.0087890625,84.1552734375,0)" xlink:href="#ad"/></g><g id="J"><use transform="matrix(0.0087890625,0,0,0.0087890625,0,0)" xlink:href="#U"/><use transform="matrix(0.0087890625,0,0,0.0087890625,10.283203125,0)" xlink:href="#aa"/><use transform="matrix(0.0087890625,0,0,0.0087890625,21.076171875,0)" xlink:href="#Z"/><use transform="matrix(0.0087890625,0,0,0.0087890625,28.1337890625,0)" xlink:href="#Z"/><use transform="matrix(0.0087890625,0,0,0.0087890625,34.611328125,0)" xlink:href="#R"/><use transform="matrix(0.0087890625,0,0,0.0087890625,45.10546875,0)" xlink:href="#U"/><use transform="matrix(0.0087890625,0,0,0.0087890625,55.388671875,0)" xlink:href="#Q"/><use transform="matrix(0.0087890625,0,0,0.0087890625,61.365234375,0)" xlink:href="#V"/></g><path d="M180 0v-1490h270l367 940c28 72 75 218 110 339 35-117 81-264 110-339l362-940h271V0h-187c2-448-5-837 7-1287-157 497-311 829-483 1287H842C666-458 514-784 354-1284c12 438 5 843 7 1284H180" id="aj"/><g id="K"><use transform="matrix(0.0087890625,0,0,0.0087890625,0,0)" xlink:href="#aj"/><use transform="matrix(0.0087890625,0,0,0.0087890625,16.259765625,0)" xlink:href="#R"/><use transform="matrix(0.0087890625,0,0,0.0087890625,26.75390625,0)" xlink:href="#S"/><use transform="matrix(0.0087890625,0,0,0.0087890625,37.388671875,0)" xlink:href="#P"/></g><g id="L"><use transform="matrix(0.0087890625,0,0,0.0087890625,0,0)" xlink:href="#ac"/><use transform="matrix(0.0087890625,0,0,0.0087890625,11.021484375,0)" xlink:href="#Z"/><use transform="matrix(0.0087890625,0,0,0.0087890625,18.0791015625,0)" xlink:href="#T"/><use transform="matrix(0.0087890625,0,0,0.0087890625,22.4384765625,0)" xlink:href="#S"/><use transform="matrix(0.0087890625,0,0,0.0087890625,33.0732421875,0)" xlink:href="#U"/><use transform="matrix(0.0087890625,0,0,0.0087890625,43.3564453125,0)" xlink:href="#T"/><use transform="matrix(0.0087890625,0,0,0.0087890625,47.7158203125,0)" xlink:href="#ac"/><use transform="matrix(0.0087890625,0,0,0.0087890625,58.9130859375,0)" xlink:href="#V"/><use transform="matrix(0.0087890625,0,0,0.0087890625,69.0205078125,0)" xlink:href="#ad"/></g><path d="M481 0L54-1118h197c107 314 236 620 325 951 87-331 217-637 324-951h197L670 0H481" id="ak"/><path d="M126 0v-134l627-806v-11H146v-167h839v143L376-178v11h629V0H126" id="al"/><g id="M"><use transform="matrix(0.0087890625,0,0,0.0087890625,0,0)" xlink:href="#ak"/><use transform="matrix(0.0087890625,0,0,0.0087890625,10.1162109375,0)" xlink:href="#T"/><use transform="matrix(0.0087890625,0,0,0.0087890625,14.4755859375,0)" xlink:href="#Y"/><use transform="matrix(0.0087890625,0,0,0.0087890625,23.9765625,0)" xlink:href="#P"/><use transform="matrix(0.0087890625,0,0,0.0087890625,34.6201171875,0)" xlink:href="#V"/><use transform="matrix(0.0087890625,0,0,0.0087890625,44.7275390625,0)" xlink:href="#ad"/><use transform="matrix(0.0087890625,0,0,0.0087890625,49.0869140625,0)" xlink:href="#T"/><use transform="matrix(0.0087890625,0,0,0.0087890625,53.4462890625,0)" xlink:href="#al"/><use transform="matrix(0.0087890625,0,0,0.0087890625,63.38671875,0)" xlink:href="#V"/></g><g id="N"><use transform="matrix(0.0087890625,0,0,0.0087890625,0,0)" xlink:href="#ab"/><use transform="matrix(0.0087890625,0,0,0.0087890625,15.767578125,0)" xlink:href="#R"/><use transform="matrix(0.0087890625,0,0,0.0087890625,26.26171875,0)" xlink:href="#S"/><use transform="matrix(0.0087890625,0,0,0.0087890625,36.896484375,0)" xlink:href="#P"/></g></defs></g></svg>