<svg xmlns="http://www.w3.org/2000/svg" xmlns:xlink="http://www.w3.org/1999/xlink" xmlns:lucid="lucid" width="3705" height="1851"><g transform="translate(1145 2214)" lucid:page-tab-id="0_0"><path d="M-1500-4000h4500v9500h-4500z" fill="#fff"/><path d="M-1102.78-2177.33h36.78v1760h-36.78zM-1065-2177.33h35.78v540H-1065M-1065-1637.33h35.78v1220H-1065" stroke="#000" stroke-width="2" fill="#fff"/><path d="M-1029.22-2177.33h3540v540h-3540zM-1029.22-1637.33h3540v1220h-3540z" stroke="#000" stroke-width="2" fill="none"/><use xlink:href="#a" transform="matrix(-1.8369701987210297e-16,-1,1,-1.8369701987210297e-16,-1102.7792968749998,-417.3333333333337) translate(652.10400390625 25.0478515625)"/><use xlink:href="#b" transform="matrix(-1.8369701987210297e-16,-1,1,-1.8369701987210297e-16,-1102.7792968749998,-417.3333333333337) translate(722.26708984375 25.0478515625)"/><use xlink:href="#c" transform="matrix(-1.8369701987210297e-16,-1,1,-1.8369701987210297e-16,-1102.7792968749998,-417.3333333333337) translate(748.84521484375 25.0478515625)"/><use xlink:href="#d" transform="matrix(-1.8369701987210297e-16,-1,1,-1.8369701987210297e-16,-1102.7792968749998,-417.3333333333337) translate(845.63037109375 25.0478515625)"/><use xlink:href="#e" transform="matrix(-1.8369701987210297e-16,-1,1,-1.8369701987210297e-16,-1102.7792968749998,-417.3333333333337) translate(879.28369140625 25.0478515625)"/><use xlink:href="#b" transform="matrix(-1.8369701987210297e-16,-1,1,-1.8369701987210297e-16,-1102.7792968749998,-417.3333333333337) translate(928.91552734375 25.0478515625)"/><use xlink:href="#f" transform="matrix(-1.8369701987210297e-16,-1,1,-1.8369701987210297e-16,-1102.7792968749998,-417.3333333333337) translate(955.49365234375 25.0478515625)"/><use xlink:href="#g" transform="matrix(-1.8369701987210297e-16,-1,1,-1.8369701987210297e-16,-1102.7792968749998,-417.3333333333337) translate(1023.66162109375 25.0478515625)"/><use xlink:href="#h" transform="matrix(-1.8369701987210297e-16,-1,1,-1.8369701987210297e-16,-1066,-1637.3333333333335) translate(192.2255859375 25.0478515625)"/><use xlink:href="#i" transform="matrix(-1.8369701987210297e-16,-1,1,-1.8369701987210297e-16,-1066,-417.33333333333326) translate(577.2783203125 25.0478515625)"/><path d="M-908.77-1912.33c0 16.56-13.43 30-30 30s-30-13.44-30-30c0-16.57 13.43-30 30-30s30 13.43 30 30z" stroke="#000" stroke-width="2" fill="#fff"/><path d="M-911.77-1912.33c0 14.9-12.08 27-27 27-14.9 0-27-12.1-27-27s12.1-27 27-27c14.92 0 27 12.1 27 27z" stroke="#000" stroke-width="2" fill="#fff"/><path d="M-958.77-1919.83h28v-7.5l12 15-12 15v-7.5h-28z" stroke="#000" stroke-width="2" fill="#fff"/><use xlink:href="#j" transform="matrix(1,0,0,1,-968.76597473947,-1880.3333333333335) translate(11.9677734375 17.4375)"/><use xlink:href="#k" transform="matrix(1,0,0,1,-968.76597473947,-1880.3333333333335) translate(-6.68994140625 43.572656249999994)"/><path d="M-768.77-1942.33h220v80h-220z" stroke="#000" stroke-width="2" fill="#fff"/><use xlink:href="#l" transform="matrix(1,0,0,1,-768.76597473947,-1942.3333333333335) translate(36.89318359375 33.375)"/><use xlink:href="#m" transform="matrix(1,0,0,1,-768.76597473947,-1942.3333333333335) translate(104.56896484375001 33.375)"/><use xlink:href="#n" transform="matrix(1,0,0,1,-768.76597473947,-1942.3333333333335) translate(119.73888671875001 33.375)"/><use xlink:href="#o" transform="matrix(1,0,0,1,-768.76597473947,-1942.3333333333335) translate(68.89416015625 59.510156249999994)"/><path d="M-458.77-1902.33l37.5-37.5 37.5 37.5-37.5 37.5z" stroke="#000" stroke-width="2" fill="#fff"/><use xlink:href="#p" transform="matrix(1,0,0,1,-458.76597473947004,-1864.8333333333335) translate(17.126953125 17.4375)"/><use xlink:href="#q" transform="matrix(1,0,0,1,-458.76597473947004,-1864.8333333333335) translate(9.26953125 43.572656249999994)"/><path d="M-907.26-1912.33h121.1" stroke="#333" fill="none"/><path d="M-907.25-1911.86h-.55l.03-.45v-.5h.52z" stroke="#333" stroke-width=".05" fill="#333"/><path d="M-771.38-1912.33l-14.27 4.63v-9.27z" stroke="#333" fill="#333"/><path d="M-421.27-1862.92v353.6a12 12 0 0 0 12 12h1737.13" stroke="#333" fill="none"/><path d="M-421.27-1863.42l.48-.47v1h-.94v-1z" stroke="#333" stroke-width=".05" fill="#333"/><path d="M1342.63-1497.33l-14.27 4.63v-9.27z" stroke="#333" fill="#333"/><use xlink:href="#r" transform="matrix(1,0,0,1,-379.95718319679577,-1493.3333333333335) translate(0.0049999999999954525 17.4375)"/><use xlink:href="#o" transform="matrix(1,0,0,1,-379.95718319679577,-1493.3333333333335) translate(63.136835937499995 17.4375)"/><path d="M-421.27-1941.75v-73.58a12 12 0 0 1 12-12h563.12" stroke="#333" fill="none"/><path d="M-420.8-1940.77l-.47-.48-.47.48v-1h.95z" stroke="#333" stroke-width=".05" fill="#333"/><path d="M168.62-2027.33l-14.27 4.63v-9.27z" stroke="#333" fill="#333"/><use xlink:href="#s" transform="matrix(1,0,0,1,-225.7853398508098,-2053.1126302083335) translate(0.009999999999990905 17.4375)"/><use xlink:href="#m" transform="matrix(1,0,0,1,-225.7853398508098,-2053.1126302083335) translate(57.11253906249999 17.4375)"/><use xlink:href="#t" transform="matrix(1,0,0,1,-225.7853398508098,-2053.1126302083335) translate(72.28246093749999 17.4375)"/><use xlink:href="#u" transform="matrix(1,0,0,1,-225.7853398508098,-2053.1126302083335) translate(124.88499999999999 17.4375)"/><path d="M231.23-2027.33c0 16.56-13.43 30-30 30-16.56 0-30-13.44-30-30 0-16.57 13.44-30 30-30 16.57 0 30 13.43 30 30z" stroke="#000" stroke-width="2" fill="#fff"/><path d="M228.23-2027.33c0 14.9-12.08 27-27 27-14.9 0-27-12.1-27-27s12.1-27 27-27c14.92 0 27 12.1 27 27z" stroke="#000" stroke-width="2" fill="#fff"/><path d="M181.23-2034.83h28v-7.5l12 15-12 15v-7.5h-28z" stroke="#000" stroke-width="2" fill="#fff"/><use xlink:href="#j" transform="matrix(1,0,0,1,171.23402526052996,-1995.3333333333335) translate(11.9677734375 17.4375)"/><use xlink:href="#k" transform="matrix(1,0,0,1,171.23402526052996,-1995.3333333333335) translate(-6.68994140625 43.572656249999994)"/><path d="M1345.25-1537.33h220v80h-220z" stroke="#000" stroke-width="2" fill="#fff"/><use xlink:href="#v" transform="matrix(1,0,0,1,1345.24734739606,-1537.3333333333335) translate(16.058710937500003 33.375)"/><use xlink:href="#w" transform="matrix(1,0,0,1,1345.24734739606,-1537.3333333333335) translate(90.29992187500001 33.375)"/><use xlink:href="#x" transform="matrix(1,0,0,1,1345.24734739606,-1537.3333333333335) translate(182.4356640625 33.375)"/><use xlink:href="#y" transform="matrix(1,0,0,1,1345.24734739606,-1537.3333333333335) translate(77.48986328125001 59.510156249999994)"/><path d="M1975.42-1291.82l-.15 1.94-.46 1.9-.74 1.8-1.02 1.68-1.27 1.5-1.5 1.26-1.66 1.02-1.8.75-1.9.46-1.93.14h-80.8v-.95h80.76l1.82-.15 1.76-.42 1.68-.7 1.54-.94 1.38-1.18 1.17-1.38.94-1.54.7-1.67.43-1.76.14-1.82v-82.78h.95zm76.43-225.04h-64.88l-1.83.14-1.75.43-1.68.7-1.55.94-1.37 1.18-1.17 1.37-.95 1.53-.7 1.68-.4 1.76-.16 1.83v82.76h-.95v-82.8l.15-1.95.46-1.9.75-1.8 1.02-1.67 1.28-1.5 1.48-1.26 1.68-1.02 1.8-.75 1.92-.46 1.93-.15h64.92z" stroke="#333" stroke-width=".05" fill="#333"/><path d="M1882.17-1279.36h-.98l.46-.47-.47-.48h.97z" fill="#333"/><path stroke="#333" stroke-width=".05" fill="#333"/><path d="M2066.62-1517.33l-14.27 4.63v-9.27z" fill="#333"/><path d="M2068.15-1517.33l-16.28 5.3v-10.6zm-15.33 3.98l12.26-3.98-12.26-4z" stroke="#333" stroke-width=".05" fill="#333"/><use xlink:href="#z" transform="matrix(1,0,0,1,1944.8628321719816,-1422.5405598958334) translate(6.522089843749999 17.4375)"/><use xlink:href="#A" transform="matrix(1,0,0,1,1944.8628321719816,-1422.5405598958334) translate(0.004999999999999005 43.572656249999994)"/><path d="M-658.3-549.35l.15 1.82.42 1.76.7 1.67.94 1.54 1.2 1.38 1.36 1.17 1.54.93 1.67.7 1.76.42 1.82.14H689.73v.94h-1336.5l-1.95-.15-1.9-.47-1.8-.75-1.68-1.02-1.5-1.27-1.26-1.5-1.02-1.67-.75-1.8-.46-1.9-.14-1.95v-834.38h.95z" stroke="#333" stroke-width=".05" fill="#333"/><path d="M690.23-536.86h-.5v-.95h.5z" fill="#333"/><path stroke="#333" stroke-width=".05" fill="#333"/><path d="M-654.13-1384.2h-9.27l4.63-14.26z" fill="#333"/><path d="M-653.48-1383.72h-10.57l5.28-16.28zm-9.27-.95h7.97l-4-12.26z" stroke="#333" stroke-width=".05" fill="#333"/><path d="M2069.23-1577.33h160v120h-160z" stroke="#000" stroke-width="2" fill="#fff"/><use xlink:href="#B" transform="matrix(1,0,0,1,2069.23402526053,-1577.3333333333335) translate(50.306757812499995 40.40625)"/><use xlink:href="#C" transform="matrix(1,0,0,1,2069.23402526053,-1577.3333333333335) translate(16.446894531250003 66.54140625)"/><use xlink:href="#D" transform="matrix(1,0,0,1,2069.23402526053,-1577.3333333333335) translate(122.43419921875001 66.54140625)"/><use xlink:href="#E" transform="matrix(1,0,0,1,2069.23402526053,-1577.3333333333335) translate(19.966914062500003 92.67656249999999)"/><use xlink:href="#b" transform="matrix(1,0,0,1,2069.23402526053,-1577.3333333333335) translate(66.32921875 92.67656249999999)"/><use xlink:href="#F" transform="matrix(1,0,0,1,2069.23402526053,-1577.3333333333335) translate(92.90734375 92.67656249999999)"/><path d="M-768.77-1481.08h220v80h-220z" stroke="#000" stroke-width="2" fill="#fff"/><use xlink:href="#G" transform="matrix(1,0,0,1,-768.76597473947,-1481.0833333333335) translate(26.921992187500003 33.375)"/><use xlink:href="#H" transform="matrix(1,0,0,1,-768.76597473947,-1481.0833333333335) translate(114.38195312500001 33.375)"/><use xlink:href="#I" transform="matrix(1,0,0,1,-768.76597473947,-1481.0833333333335) translate(64.143671875 59.510156249999994)"/><path d="M1732.52-1291.85l.14 1.82.43 1.76.68 1.67.94 1.54 1.18 1.38 1.37 1.17 1.55.93 1.67.7 1.74.42 1.83.14h59.26v.94h-59.3l-1.93-.15-1.9-.47-1.82-.75-1.67-1.02-1.48-1.27-1.27-1.5-1.02-1.67-.75-1.8-.46-1.9-.15-1.95v-22.5h.95zm-55.88-65v-.96h31.84v.94z" stroke="#333" stroke-width=".05" fill="#333"/><path d="M1803.83-1279.83l.48.47h-.98v-.95h1z" fill="#333"/><path stroke="#333" stroke-width=".05" fill="#333"/><path d="M1676.14-1352.7l-14.26-4.63 14.26-4.64z" fill="#333"/><path d="M1676.62-1352.04l-16.28-5.3 16.28-5.28zm-13.2-5.3l12.25 4v-7.98z" stroke="#333" stroke-width=".05" fill="#333"/><use xlink:href="#J" transform="matrix(1,0,0,1,1708.4790305888882,-1362.2432957859805) translate(0.004999999999999005 17.4375)"/><use xlink:href="#K" transform="matrix(1,0,0,1,1708.4790305888882,-1362.2432957859805) translate(8.244746093749999 43.572656249999994)"/><path d="M691.23-577.33h220v80h-220z" stroke="#000" stroke-width="2" fill="#fff"/><use xlink:href="#v" transform="matrix(1,0,0,1,691.23402526053,-577.3333333333334) translate(23.916132812500003 33.375)"/><use xlink:href="#L" transform="matrix(1,0,0,1,691.23402526053,-577.3333333333334) translate(98.15734375000001 33.375)"/><use xlink:href="#x" transform="matrix(1,0,0,1,691.23402526053,-577.3333333333334) translate(174.5782421875 33.375)"/><use xlink:href="#M" transform="matrix(1,0,0,1,691.23402526053,-577.3333333333334) translate(34.647578125 59.510156249999994)"/><use xlink:href="#N" transform="matrix(1,0,0,1,691.23402526053,-577.3333333333334) translate(124.97277343750001 59.510156249999994)"/><path d="M-421.27-1862.92v532.1a12 12 0 0 0 12 12h980.63" stroke="#333" fill="none"/><path d="M-421.27-1863.42l.48-.47v1h-.94v-1z" stroke="#333" stroke-width=".05" fill="#333"/><path d="M586.12-1318.83l-14.26 4.64v-9.26z" stroke="#333" fill="#333"/><use xlink:href="#O" transform="matrix(1,0,0,1,-391.4335777568262,-1314.8259740204535) translate(0.0049999999999954525 17.4375)"/><use xlink:href="#o" transform="matrix(1,0,0,1,-391.4335777568262,-1314.8259740204535) translate(92.7032421875 17.4375)"/><path d="M698.74-1370.33v-373.6a12 12 0 0 1 12-12h160.62" stroke="#333" fill="none"/><path d="M699.22-1369.83h-.95v-.5h.95z" stroke="#333" stroke-width=".05" fill="#333"/><path d="M886.12-1755.92l-14.26 4.64v-9.27z" stroke="#333" fill="#333"/><path d="M-547.27-1902.33h70.7" stroke="#333" fill="none"/><path d="M-547.25-1901.86h-.52v-.95h.52z" stroke="#333" stroke-width=".05" fill="#333"/><path d="M-461.8-1902.33l-14.26 4.63v-9.27z" stroke="#333" fill="#333"/><path d="M-658.77-1482.58v-362.37" stroke="#333" fill="none"/><path d="M-658.3-1482.08h-.94v-.52h.95z" stroke="#333" stroke-width=".05" fill="#333"/><path d="M-658.77-1859.7l4.64 14.25h-9.27z" stroke="#333" fill="#333"/><path d="M2230.73-1517.33h82.12" stroke="#333" fill="none"/><path d="M2230.75-1516.86h-.52v-.95h.52z" stroke="#333" stroke-width=".05" fill="#333"/><path d="M2327.62-1517.33l-14.27 4.63v-9.27z" stroke="#333" fill="#333"/><path d="M2330.23-1577.33h160v120h-160z" stroke="#000" stroke-width="2" fill="#fff"/><use xlink:href="#P" transform="matrix(1,0,0,1,2330.23402526053,-1577.3333333333335) translate(18.916621093750003 55.875)"/><use xlink:href="#Q" transform="matrix(1,0,0,1,2330.23402526053,-1577.3333333333335) translate(69.42736328125 55.875)"/><use xlink:href="#R" transform="matrix(1,0,0,1,2330.23402526053,-1577.3333333333335) translate(119.57775390625 55.875)"/><use xlink:href="#S" transform="matrix(1,0,0,1,2330.23402526053,-1577.3333333333335) translate(24.137324218749995 77.654296875)"/><path d="M2410.7-549.32l-.14 1.94-.46 1.9-.75 1.8-1.02 1.68-1.27 1.5-1.5 1.26-1.66 1.02-1.8.75-1.9.46-1.95.14H928.62v-.95h1469.6l1.82-.15 1.76-.42 1.67-.7 1.54-.94 1.38-1.18 1.18-1.38.94-1.54.7-1.67.42-1.76.14-1.82v-906.48h.95z" stroke="#333" stroke-width=".05" fill="#333"/><path d="M2410.7-1455.82h-.94v-.5h.95z" fill="#333"/><path stroke="#333" stroke-width=".05" fill="#333"/><path d="M928.12-532.7l-14.27-4.63 14.27-4.64z" fill="#333"/><path d="M928.6-532.04l-16.28-5.3 16.27-5.28zm-13.2-5.3l12.24 4v-7.98z" stroke="#333" stroke-width=".05" fill="#333"/><path d="M1732.75-1809.67h220v80h-220z" stroke="#000" stroke-width="2" fill="#fff"/><use xlink:href="#l" transform="matrix(1,0,0,1,1732.74734739606,-1809.6691197709606) translate(25.704707031250003 33.375)"/><use xlink:href="#T" transform="matrix(1,0,0,1,1732.74734739606,-1809.6691197709606) translate(93.38048828125001 33.375)"/><use xlink:href="#U" transform="matrix(1,0,0,1,1732.74734739606,-1809.6691197709606) translate(42.21935546875 59.510156249999994)"/><use xlink:href="#o" transform="matrix(1,0,0,1,1732.74734739606,-1809.6691197709606) translate(95.56896484375 59.510156249999994)"/><path d="M888.74-1795.92h220v80h-220z" stroke="#000" stroke-width="2" fill="#fff"/><use xlink:href="#l" transform="matrix(1,0,0,1,888.7406863282949,-1795.9191197709606) translate(39.31017578125 33.375)"/><use xlink:href="#V" transform="matrix(1,0,0,1,888.7406863282949,-1795.9191197709606) translate(106.98595703125001 33.375)"/><use xlink:href="#x" transform="matrix(1,0,0,1,888.7406863282949,-1795.9191197709606) translate(159.18419921875 33.375)"/><use xlink:href="#W" transform="matrix(1,0,0,1,888.7406863282949,-1795.9191197709606) translate(34.4102734375 59.510156249999994)"/><use xlink:href="#m" transform="matrix(1,0,0,1,888.7406863282949,-1795.9191197709606) translate(121.69445312500001 59.510156249999994)"/><use xlink:href="#X" transform="matrix(1,0,0,1,888.7406863282949,-1795.9191197709606) translate(136.864375 59.510156249999994)"/><path d="M-421.27-1862.92v773.6a12 12 0 0 0 12 12H33.85" stroke="#333" fill="none"/><path d="M-421.27-1863.42l.48-.47v1h-.94v-1z" stroke="#333" stroke-width=".05" fill="#333"/><path d="M48.62-1077.33l-14.27 4.63v-9.27z" stroke="#333" fill="#333"/><use xlink:href="#Y" transform="matrix(1,0,0,1,-392.6187358592193,-1073.3333333333335) translate(0.0049999999999954525 17.4375)"/><use xlink:href="#o" transform="matrix(1,0,0,1,-392.6187358592193,-1073.3333333333335) translate(71.9258984375 17.4375)"/><path d="M-128.77-817.33h160v100h-160z" stroke="#000" stroke-width="2" fill="#fff"/><use xlink:href="#Z" transform="matrix(1,0,0,1,-128.76597473947004,-817.3333333333334) translate(22.937617187500003 30.328125)"/><use xlink:href="#aa" transform="matrix(1,0,0,1,-128.76597473947004,-817.3333333333334) translate(76.190546875 30.328125)"/><use xlink:href="#x" transform="matrix(1,0,0,1,-128.76597473947004,-817.3333333333334) translate(115.5567578125 30.328125)"/><use xlink:href="#ab" transform="matrix(1,0,0,1,-128.76597473947004,-817.3333333333334) translate(34.143671874999995 56.463281249999994)"/><use xlink:href="#ac" transform="matrix(1,0,0,1,-128.76597473947004,-817.3333333333334) translate(36.841914062499995 82.59843749999999)"/><path d="M51.23-1137.33h250v120h-250z" stroke="#000" stroke-width="2" fill="#fff"/><use xlink:href="#v" transform="matrix(1,0,0,1,51.23402526052996,-1137.3333333333335) translate(31.058710937500003 53.53125)"/><use xlink:href="#w" transform="matrix(1,0,0,1,51.23402526052996,-1137.3333333333335) translate(105.29992187500001 53.53125)"/><use xlink:href="#x" transform="matrix(1,0,0,1,51.23402526052996,-1137.3333333333335) translate(197.4356640625 53.53125)"/><use xlink:href="#ad" transform="matrix(1,0,0,1,51.23402526052996,-1137.3333333333335) translate(19.997675781250003 79.66640625)"/><use xlink:href="#ae" transform="matrix(1,0,0,1,51.23402526052996,-1137.3333333333335) translate(121.21251953125001 79.66640625)"/><use xlink:href="#o" transform="matrix(1,0,0,1,51.23402526052996,-1137.3333333333335) translate(147.79064453125 79.66640625)"/><path d="M231.23-1791.08h220v80h-220z" stroke="#000" stroke-width="2" fill="#fff"/><use xlink:href="#l" transform="matrix(1,0,0,1,231.23402526052996,-1791.0833333333335) translate(11.545527343750004 33.375)"/><use xlink:href="#af" transform="matrix(1,0,0,1,231.23402526052996,-1791.0833333333335) translate(79.22130859375001 33.375)"/><use xlink:href="#ae" transform="matrix(1,0,0,1,231.23402526052996,-1791.0833333333335) translate(99.66466796875001 33.375)"/><use xlink:href="#ag" transform="matrix(1,0,0,1,231.23402526052996,-1791.0833333333335) translate(126.24279296875001 33.375)"/><use xlink:href="#m" transform="matrix(1,0,0,1,231.23402526052996,-1791.0833333333335) translate(68.99083984375001 59.510156249999994)"/><use xlink:href="#ah" transform="matrix(1,0,0,1,231.23402526052996,-1791.0833333333335) translate(84.16076171875 59.510156249999994)"/><path d="M1197.43-928.84H548.15v-.95h649.28zm952.28-12.46l-.14 1.93-.46 1.9-.75 1.82-1.02 1.66-1.27 1.5-1.5 1.27-1.66 1.03-1.8.75-1.9.45-1.95.16H1375.5v-.95h761.72l1.82-.14 1.76-.42 1.67-.7 1.54-.94 1.38-1.17 1.18-1.38.94-1.54.7-1.66.42-1.76.14-1.82v-498.6h.95z" stroke="#333" stroke-width=".05" fill="#333"/><path d="M548.16-928.84h-1l.5-.48-.5-.47h1z" fill="#333"/><path stroke="#333" stroke-width=".05" fill="#333"/><path d="M2153.87-1440.45h-9.27l4.63-14.26z" fill="#333"/><path d="M2154.52-1439.97h-10.57l5.28-16.28zm-9.27-.95h7.97l-4-12.26z" stroke="#333" stroke-width=".05" fill="#333"/><use xlink:href="#ai" transform="matrix(1,0,0,1,1197.4266188624276,-940.2082631450734) translate(0.0049999999999954525 17.4375)"/><use xlink:href="#V" transform="matrix(1,0,0,1,1197.4266188624276,-940.2082631450734) translate(29.720820312499995 17.4375)"/><use xlink:href="#aj" transform="matrix(1,0,0,1,1197.4266188624276,-940.2082631450734) translate(81.9190625 17.4375)"/><use xlink:href="#ak" transform="matrix(1,0,0,1,1197.4266188624276,-940.2082631450734) translate(117.9102734375 17.4375)"/><path d="M588.74-1368.83h220v100h-220z" stroke="#000" stroke-width="2" fill="#fff"/><use xlink:href="#v" transform="matrix(1,0,0,1,588.7406863282949,-1368.8259740204535) translate(16.058710937500003 30.328125)"/><use xlink:href="#w" transform="matrix(1,0,0,1,588.7406863282949,-1368.8259740204535) translate(90.29992187500001 30.328125)"/><use xlink:href="#x" transform="matrix(1,0,0,1,588.7406863282949,-1368.8259740204535) translate(182.4356640625 30.328125)"/><use xlink:href="#al" transform="matrix(1,0,0,1,588.7406863282949,-1368.8259740204535) translate(40.78234375 56.463281249999994)"/><use xlink:href="#x" transform="matrix(1,0,0,1,588.7406863282949,-1368.8259740204535) translate(157.71203125 56.463281249999994)"/><use xlink:href="#o" transform="matrix(1,0,0,1,588.7406863282949,-1368.8259740204535) translate(68.89416015625 82.59843749999999)"/><path d="M1460.08-1145.6h-394.42v-.96h394.4zm689.63-12.47l-.14 1.94-.46 1.9-.75 1.8-1.02 1.68-1.27 1.5-1.5 1.26-1.66 1.03-1.8.75-1.9.46-1.95.15h-499.1v-.96h499.07l1.82-.14 1.76-.42 1.67-.7 1.54-.94 1.38-1.17 1.18-1.38.94-1.55.7-1.67.42-1.76.14-1.82v-281.85h.95z" stroke="#333" stroke-width=".05" fill="#333"/><path d="M1065.67-1145.6h-1l.48-.48-.47-.48h1z" fill="#333"/><path stroke="#333" stroke-width=".05" fill="#333"/><path d="M2153.87-1440.45h-9.27l4.63-14.26z" fill="#333"/><path d="M2154.52-1439.97h-10.57l5.28-16.28zm-9.27-.95h7.97l-4-12.26z" stroke="#333" stroke-width=".05" fill="#333"/><g><use xlink:href="#ai" transform="matrix(1,0,0,1,1460.075016957948,-1156.9729817708335) translate(0.0049999999999954525 17.4375)"/><use xlink:href="#V" transform="matrix(1,0,0,1,1460.075016957948,-1156.9729817708335) translate(29.720820312499995 17.4375)"/><use xlink:href="#aj" transform="matrix(1,0,0,1,1460.075016957948,-1156.9729817708335) translate(81.9190625 17.4375)"/><use xlink:href="#ak" transform="matrix(1,0,0,1,1460.075016957948,-1156.9729817708335) translate(117.9102734375 17.4375)"/></g><path d="M1805.25-1279.83l37.5-37.5 37.5 37.5-37.5 37.5z" stroke="#000" stroke-width="2" fill="#fff"/><g><use xlink:href="#am" transform="matrix(1,0,0,1,1805.24734739606,-1242.3333333333335) translate(12.50830078125 17.4375)"/></g><path d="M1455.25-1538.83v-218.84a12 12 0 0 1 12-12h248.1" stroke="#333" fill="none"/><path d="M1455.72-1538.33h-.95v-.52h.95z" stroke="#333" stroke-width=".05" fill="#333"/><path d="M1730.13-1769.67l-14.27 4.64v-9.27z" stroke="#333" fill="#333"/><path d="M1499.26-1397.33h160v80h-160z" stroke="#000" stroke-width="2" fill="#fff"/><g><use xlink:href="#an" transform="matrix(1,0,0,1,1499.2606695315899,-1397.3333333333335) translate(7.205195312500004 33.375)"/><use xlink:href="#ao" transform="matrix(1,0,0,1,1499.2606695315899,-1397.3333333333335) translate(81.44640625000001 33.375)"/><use xlink:href="#b" transform="matrix(1,0,0,1,1499.2606695315899,-1397.3333333333335) translate(45.91662109375 59.510156249999994)"/><use xlink:href="#ap" transform="matrix(1,0,0,1,1499.2606695315899,-1397.3333333333335) translate(72.49474609375 59.510156249999994)"/></g><path d="M988.74-1146.08l37.5-37.5 37.5 37.5-37.5 37.5z" stroke="#000" stroke-width="2" fill="#fff"/><g><use xlink:href="#am" transform="matrix(1,0,0,1,988.7406863282949,-1108.5833333333335) translate(12.50830078125 17.4375)"/></g><path d="M728.74-1223.58h160v80h-160z" stroke="#000" stroke-width="2" fill="#fff"/><g><use xlink:href="#an" transform="matrix(1,0,0,1,728.7406863282949,-1223.5833333333335) translate(7.205195312500004 33.375)"/><use xlink:href="#ao" transform="matrix(1,0,0,1,728.7406863282949,-1223.5833333333335) translate(81.44640625000001 33.375)"/><use xlink:href="#b" transform="matrix(1,0,0,1,728.7406863282949,-1223.5833333333335) translate(45.91662109375 59.510156249999994)"/><use xlink:href="#ap" transform="matrix(1,0,0,1,728.7406863282949,-1223.5833333333335) translate(72.49474609375 59.510156249999994)"/></g><path d="M1026.24-1106.67v27.5a12 12 0 0 1-12 12h-199.3a12 12 0 0 1-12-12v-47.03" stroke="#333" fill="none"/><path d="M1026.24-1107.17l.48-.47v.98h-.95v-.98z" stroke="#333" stroke-width=".05" fill="#333"/><path d="M802.93-1140.96l4.63 14.26h-9.27z" stroke="#333" fill="#333"/><g><use xlink:href="#z" transform="matrix(1,0,0,1,859.4262174059465,-1063.1691197709602) translate(13.887324218750003 17.4375)"/><use xlink:href="#aq" transform="matrix(1,0,0,1,859.4262174059465,-1063.1691197709602) translate(0.005000000000002558 43.572656249999994)"/></g><path d="M471.23-929.32l37.5-37.5 37.5 37.5-37.5 37.5z" stroke="#000" stroke-width="2" fill="#fff"/><g><use xlink:href="#am" transform="matrix(1,0,0,1,471.23402526052996,-891.8186147075734) translate(12.50830078125 17.4375)"/></g><path d="M96.23-969.32h160v80h-160z" stroke="#000" stroke-width="2" fill="#fff"/><g><use xlink:href="#an" transform="matrix(1,0,0,1,96.23402526052996,-969.3186147075734) translate(7.205195312500004 33.375)"/><use xlink:href="#ao" transform="matrix(1,0,0,1,96.23402526052996,-969.3186147075734) translate(81.44640625000001 33.375)"/><use xlink:href="#b" transform="matrix(1,0,0,1,96.23402526052996,-969.3186147075734) translate(45.91662109375 59.510156249999994)"/><use xlink:href="#ap" transform="matrix(1,0,0,1,96.23402526052996,-969.3186147075734) translate(72.49474609375 59.510156249999994)"/></g><path d="M326.08-928.84h-52.46v-.95h52.46zm143.24 0h-68.34v-.95h68.34z" stroke="#333" stroke-width=".05" fill="#333"/><path d="M469.82-929.32l.48.48h-1v-.95h1z" fill="#333"/><path stroke="#333" stroke-width=".05" fill="#333"/><path d="M273.12-924.68l-14.27-4.64 14.27-4.63z" fill="#333"/><path d="M273.6-924.03l-16.3-5.3 16.3-5.28zm-13.2-5.3l12.24 4v-7.97z" stroke="#333" stroke-width=".05" fill="#333"/><g><use xlink:href="#z" transform="matrix(1,0,0,1,326.0767231668434,-953.2758412700733) translate(13.887324218750003 17.4375)"/><use xlink:href="#aq" transform="matrix(1,0,0,1,326.0767231668434,-953.2758412700733) translate(0.005000000000002558 43.572656249999994)"/></g><path d="M452.73-1751.08h44a12 12 0 0 1 12 12v754.46" stroke="#333" fill="none"/><path d="M452.75-1750.6h-.52v-.96h.52z" stroke="#333" stroke-width=".05" fill="#333"/><path d="M508.73-969.85l-4.63-14.27h9.27z" stroke="#333" fill="#333"/><path d="M176.23-970.82v-29.13" stroke="#333" fill="none"/><path d="M176.7-970.32h-.94v-.5h.95z" stroke="#333" stroke-width=".05" fill="#333"/><path d="M176.23-1014.7l4.64 14.25h-9.27z" stroke="#333" fill="#333"/><path d="M1110.24-1755.92h49a12 12 0 0 1 12 12V-1237a12 12 0 0 1-12 12h-121a12 12 0 0 0-12 12v11.62" stroke="#333" fill="none"/><path d="M1110.25-1755.44h-.5v-.95h.5z" stroke="#333" stroke-width=".05" fill="#333"/><path d="M1026.24-1186.62l-4.63-14.26h9.28z" stroke="#333" fill="#333"/><path d="M1497.76-1357.33h-48.83a12 12 0 0 1-12-12v-70.62" stroke="#333" fill="none"/><path d="M1498.26-1356.86h-.5v-.95h.5z" stroke="#333" stroke-width=".05" fill="#333"/><path d="M1436.93-1454.7l4.63 14.25h-9.27z" stroke="#333" fill="#333"/><path d="M1842.75-1728.17v393.04" stroke="#333" fill="none"/><path d="M1843.22-1728.16h-.95v-.5h.95z" stroke="#333" stroke-width=".05" fill="#333"/><path d="M1842.75-1320.37l-4.64-14.26h9.28z" stroke="#333" fill="#333"/><path d="M727.24-1183.58h-34.5a12 12 0 0 1-12-12v-55.86" stroke="#333" fill="none"/><path d="M727.74-1183.1h-.5v-.96h.5z" stroke="#333" stroke-width=".05" fill="#333"/><path d="M680.74-1266.2l4.64 14.26h-9.27z" stroke="#333" fill="#333"/><path d="M176.23-1138.83v-600.25a12 12 0 0 1 12-12h25.62" stroke="#333" fill="none"/><path d="M176.7-1138.33h-.94v-.52h.95z" stroke="#333" stroke-width=".05" fill="#333"/><path d="M228.62-1751.08l-14.27 4.63v-9.27z" stroke="#333" fill="#333"/><path d="M-420.8-779.35l.15 1.82.42 1.76.7 1.67.94 1.54 1.2 1.38 1.36 1.17 1.54.93 1.67.7 1.76.42 1.82.14h30.3v.94h-30.34l-1.92-.15-1.9-.47-1.8-.75-1.68-1.02-1.5-1.27-1.26-1.5-1.02-1.67-.75-1.8-.46-1.9-.14-1.95v-1083.6h.95zm274.65 11.54v.94h-72.94v-.95z" stroke="#333" stroke-width=".05" fill="#333"/><path d="M-420.8-1862.9h-.94v-1l.47.48.48-.47z" fill="#333"/><path stroke="#333" stroke-width=".05" fill="#333"/><path d="M-131.38-767.33l-14.27 4.63v-9.27z" fill="#333"/><path d="M-129.85-767.33l-16.28 5.3v-10.6zm-15.33 3.98l12.26-3.98-12.26-4z" stroke="#333" stroke-width=".05" fill="#333"/><g><use xlink:href="#ar" transform="matrix(1,0,0,1,-378.9367438156221,-778.2229817708333) translate(0.0049999999999954525 17.4375)"/><use xlink:href="#o" transform="matrix(1,0,0,1,-378.9367438156221,-778.2229817708333) translate(77.63 17.4375)"/></g><path d="M-599.46-688.35l.14 1.82.43 1.76.7 1.67.94 1.54 1.18 1.38 1.37 1.17 1.54.93 1.67.7 1.76.42 1.83.14h527.1l1.84-.15 1.76-.42 1.67-.7L-54-679l1.38-1.18 1.18-1.38.94-1.54.7-1.67.42-1.76.14-1.82v-27.48h.95v27.5l-.14 1.95-.46 1.9-.75 1.8-1.02 1.68-1.27 1.5-1.5 1.26-1.66 1.02-1.8.75-1.9.46-1.95.14h-527.2l-1.93-.15-1.9-.47-1.82-.75-1.67-1.02-1.5-1.27-1.26-1.5-1.02-1.67-.75-1.8-.46-1.9-.15-1.95v-695.38h.94z" stroke="#333" stroke-width=".05" fill="#333"/><path d="M-48.3-715.82h-.94v-.5h.95z" fill="#333"/><path stroke="#333" stroke-width=".05" fill="#333"/><path d="M-595.3-1384.2h-9.27l4.64-14.26z" fill="#333"/><path d="M-594.64-1383.72h-10.58l5.3-16.28zm-9.27-.95h7.95l-3.98-12.26z" stroke="#333" stroke-width=".05" fill="#333"/><defs><path d="M789 20c-398 0-667-293-667-764 0-473 273-766 655-766 315 0 558 198 612 487h-196c-61-191-204-311-415-311-262 0-471 207-471 590 0 380 208 588 482 588 249 0 420-165 425-427H828v-166h572v163c0 370-256 606-611 606" id="as"/><path d="M628 24c-324 0-524-230-524-574 0-343 198-582 503-582 237 0 487 146 487 559v75H286c9 234 145 362 343 362 132 0 231-58 273-172l174 48C1024-91 857 24 628 24zM287-650h624c-17-190-120-322-304-322-192 0-309 151-320 322" id="at"/><path d="M538 24C308 24 148-78 108-271l171-41c32 123 123 178 257 178 156 0 256-77 256-169 0-77-54-128-164-154l-186-44c-203-48-300-148-300-305 0-192 176-326 414-326 230 0 351 112 402 269l-163 42c-31-80-94-158-238-158-133 0-233 69-233 162 0 83 57 129 188 160l169 40c203 48 298 149 298 302 0 196-179 339-441 339" id="au"/><path d="M598-1118v154H368v674c0 100 37 144 132 144 23 0 62-6 92-12L629-6c-37 13-88 20-134 20-193 0-307-107-307-290v-688H20v-154h168v-266h180v266h230" id="av"/><path d="M158 0v-1118h180V0H158zm91-1301c-68 0-125-53-125-119s57-119 125-119c69 0 126 53 126 119s-57 119-126 119" id="aw"/><path d="M613 24c-304 0-509-231-509-576 0-350 205-580 509-580 305 0 511 230 511 580 0 345-206 576-511 576zm0-161c226 0 329-195 329-415 0-222-103-419-329-419-223 0-326 196-326 419 0 220 103 415 326 415zm-79-1127l140-294h201l-194 294H534" id="ax"/><path d="M338-670V0H158v-1118h173l1 207c72-158 192-221 342-221 226 0 378 139 378 422V0H872v-695c0-172-96-275-252-275-161 0-282 109-282 300" id="ay"/><g id="a"><use transform="matrix(0.0087890625,0,0,0.0087890625,0,0)" xlink:href="#as"/><use transform="matrix(0.0087890625,0,0,0.0087890625,13.4296875,0)" xlink:href="#at"/><use transform="matrix(0.0087890625,0,0,0.0087890625,23.923828125,0)" xlink:href="#au"/><use transform="matrix(0.0087890625,0,0,0.0087890625,33.4248046875,0)" xlink:href="#av"/><use transform="matrix(0.0087890625,0,0,0.0087890625,39.3134765625,0)" xlink:href="#aw"/><use transform="matrix(0.0087890625,0,0,0.0087890625,43.6728515625,0)" xlink:href="#ax"/><use transform="matrix(0.0087890625,0,0,0.0087890625,54.4658203125,0)" xlink:href="#ay"/></g><path d="M577 24c-279 0-473-224-473-580 0-354 195-576 474-576 218 0 287 134 324 193h14v-551h180V0H922v-173h-20C865-111 790 24 577 24zm27-161c203 0 314-172 314-421 0-247-108-413-314-413-212 0-317 181-317 413 0 235 108 421 317 421" id="az"/><g id="b"><use transform="matrix(0.0087890625,0,0,0.0087890625,0,0)" xlink:href="#az"/><use transform="matrix(0.0087890625,0,0,0.0087890625,11.021484375,0)" xlink:href="#at"/></g><path d="M158 0v-1118h175l1 205c55-151 181-225 313-225 147 0 245 90 285 228 53-141 190-228 352-228 194 0 352 125 352 384V0h-181v-749c0-161-105-225-225-225-151 0-243 103-243 244V0H807v-767c0-124-93-207-219-207-131 0-250 92-250 270V0H158" id="aA"/><path d="M537 14c-226 0-379-139-379-422v-710h180v695c0 172 97 275 253 275 160 0 281-109 281-300v-670h181V0H879v-209C806-46 684 14 537 14" id="aB"/><path d="M613 24c-304 0-509-231-509-576 0-350 205-580 509-580 216 0 392 114 453 309l-173 49c-33-115-133-197-280-197-223 0-326 196-326 419 0 220 103 415 326 415 150 0 252-85 285-206l172 49C1010-95 832 24 613 24" id="aC"/><path d="M158 418v-1536h174v179h20c37-59 106-193 324-193 279 0 474 222 474 576 0 356-194 580-473 580-213 0-288-135-325-197h-14v591H158zm492-555c209 0 317-186 317-421 0-232-105-413-317-413-206 0-314 166-314 413 0 249 111 421 314 421" id="aD"/><path d="M613 24c-304 0-509-231-509-576 0-350 205-580 509-580 305 0 511 230 511 580 0 345-206 576-511 576zm0-161c226 0 329-195 329-415 0-222-103-419-329-419-223 0-326 196-326 419 0 220 103 415 326 415" id="aE"/><g id="c"><use transform="matrix(0.0087890625,0,0,0.0087890625,0,0)" xlink:href="#aA"/><use transform="matrix(0.0087890625,0,0,0.0087890625,15.767578125,0)" xlink:href="#aB"/><use transform="matrix(0.0087890625,0,0,0.0087890625,26.4111328125,0)" xlink:href="#ay"/><use transform="matrix(0.0087890625,0,0,0.0087890625,37.0458984375,0)" xlink:href="#aw"/><use transform="matrix(0.0087890625,0,0,0.0087890625,41.4052734375,0)" xlink:href="#aC"/><use transform="matrix(0.0087890625,0,0,0.0087890625,51.6884765625,0)" xlink:href="#aw"/><use transform="matrix(0.0087890625,0,0,0.0087890625,56.0478515625,0)" xlink:href="#aD"/><use transform="matrix(0.0087890625,0,0,0.0087890625,67.0693359375,0)" xlink:href="#aw"/><use transform="matrix(0.0087890625,0,0,0.0087890625,71.4287109375,0)" xlink:href="#aE"/><use transform="matrix(0.0087890625,0,0,0.0087890625,82.2216796875,0)" xlink:href="#au"/></g><path d="M158 0v-1118h174v172h12c41-113 157-188 290-188 26 0 70 2 91 3v181c-11-2-60-10-108-10-161 0-279 109-279 260V0H158" id="aF"/><g id="d"><use transform="matrix(0.0087890625,0,0,0.0087890625,0,0)" xlink:href="#aD"/><use transform="matrix(0.0087890625,0,0,0.0087890625,11.021484375,0)" xlink:href="#aE"/><use transform="matrix(0.0087890625,0,0,0.0087890625,21.814453125,0)" xlink:href="#aF"/></g><path d="M471 26C259 26 90-98 90-318c0-256 228-303 435-329 202-27 287-16 287-108 0-139-79-219-234-219-161 0-248 86-283 164l-173-57c86-203 278-265 451-265 150 0 419 46 419 395V0H815v-152h-12C765-73 660 26 471 26zm31-159c199 0 310-134 310-271v-155c-30 35-226 55-295 64-131 17-246 59-246 186 0 116 97 176 231 176" id="aG"/><g id="e"><use transform="matrix(0.0087890625,0,0,0.0087890625,0,0)" xlink:href="#aD"/><use transform="matrix(0.0087890625,0,0,0.0087890625,11.197265625,0)" xlink:href="#aG"/><use transform="matrix(0.0087890625,0,0,0.0087890625,21.3046875,0)" xlink:href="#aF"/><use transform="matrix(0.0087890625,0,0,0.0087890625,28.3623046875,0)" xlink:href="#av"/><use transform="matrix(0.0087890625,0,0,0.0087890625,34.0751953125,0)" xlink:href="#at"/></g><g id="f"><use transform="matrix(0.0087890625,0,0,0.0087890625,0,0)" xlink:href="#aB"/><use transform="matrix(0.0087890625,0,0,0.0087890625,10.6435546875,0)" xlink:href="#au"/><use transform="matrix(0.0087890625,0,0,0.0087890625,20.14453125,0)" xlink:href="#aB"/><use transform="matrix(0.0087890625,0,0,0.0087890625,30.7880859375,0)" xlink:href="#aG"/><use transform="matrix(0.0087890625,0,0,0.0087890625,40.8955078125,0)" xlink:href="#aF"/><use transform="matrix(0.0087890625,0,0,0.0087890625,47.953125,0)" xlink:href="#aw"/><use transform="matrix(0.0087890625,0,0,0.0087890625,52.3125,0)" xlink:href="#aE"/></g><path d="M338-1490V0H158v-1490h180" id="aH"/><g id="g"><use transform="matrix(0.0087890625,0,0,0.0087890625,0,0)" xlink:href="#at"/><use transform="matrix(0.0087890625,0,0,0.0087890625,10.494140625,0)" xlink:href="#aA"/><use transform="matrix(0.0087890625,0,0,0.0087890625,26.26171875,0)" xlink:href="#aD"/><use transform="matrix(0.0087890625,0,0,0.0087890625,37.283203125,0)" xlink:href="#aH"/><use transform="matrix(0.0087890625,0,0,0.0087890625,41.642578125,0)" xlink:href="#at"/><use transform="matrix(0.0087890625,0,0,0.0087890625,52.3125,0)" xlink:href="#aG"/><use transform="matrix(0.0087890625,0,0,0.0087890625,62.419921875,0)" xlink:href="#az"/><use transform="matrix(0.0087890625,0,0,0.0087890625,73.44140625,0)" xlink:href="#aE"/></g><path d="M934 0v166H0V0h934" id="aI"/><g id="h"><use transform="matrix(0.0087890625,0,0,0.0087890625,0,0)" xlink:href="#aB"/><use transform="matrix(0.0087890625,0,0,0.0087890625,10.6435546875,0)" xlink:href="#au"/><use transform="matrix(0.0087890625,0,0,0.0087890625,20.14453125,0)" xlink:href="#aB"/><use transform="matrix(0.0087890625,0,0,0.0087890625,30.7880859375,0)" xlink:href="#aG"/><use transform="matrix(0.0087890625,0,0,0.0087890625,40.8955078125,0)" xlink:href="#aF"/><use transform="matrix(0.0087890625,0,0,0.0087890625,47.953125,0)" xlink:href="#aw"/><use transform="matrix(0.0087890625,0,0,0.0087890625,52.3125,0)" xlink:href="#aE"/><use transform="matrix(0.0087890625,0,0,0.0087890625,63.10546875,0)" xlink:href="#aI"/><use transform="matrix(0.0087890625,0,0,0.0087890625,71.314453125,0)" xlink:href="#at"/><use transform="matrix(0.0087890625,0,0,0.0087890625,81.80859375,0)" xlink:href="#aA"/><use transform="matrix(0.0087890625,0,0,0.0087890625,97.576171875,0)" xlink:href="#aD"/><use transform="matrix(0.0087890625,0,0,0.0087890625,108.59765625,0)" xlink:href="#aH"/><use transform="matrix(0.0087890625,0,0,0.0087890625,112.95703125,0)" xlink:href="#at"/><use transform="matrix(0.0087890625,0,0,0.0087890625,123.626953125,0)" xlink:href="#aG"/><use transform="matrix(0.0087890625,0,0,0.0087890625,133.734375,0)" xlink:href="#az"/><use transform="matrix(0.0087890625,0,0,0.0087890625,144.755859375,0)" xlink:href="#aE"/></g><g id="i"><use transform="matrix(0.0087890625,0,0,0.0087890625,0,0)" xlink:href="#au"/><use transform="matrix(0.0087890625,0,0,0.0087890625,9.5009765625,0)" xlink:href="#aw"/><use transform="matrix(0.0087890625,0,0,0.0087890625,13.8603515625,0)" xlink:href="#au"/><use transform="matrix(0.0087890625,0,0,0.0087890625,23.361328125,0)" xlink:href="#av"/><use transform="matrix(0.0087890625,0,0,0.0087890625,29.07421875,0)" xlink:href="#at"/><use transform="matrix(0.0087890625,0,0,0.0087890625,39.568359375,0)" xlink:href="#aA"/><use transform="matrix(0.0087890625,0,0,0.0087890625,55.3359375,0)" xlink:href="#aG"/></g><path d="M180 0v-1490h270l367 940c28 72 75 218 110 339 35-117 81-264 110-339l362-940h271V0h-187c2-448-5-837 7-1287-157 497-311 829-483 1287H842C666-458 514-784 354-1284c12 438 5 843 7 1284H180" id="aJ"/><g id="j"><use transform="matrix(0.0087890625,0,0,0.0087890625,0,0)" xlink:href="#aJ"/><use transform="matrix(0.0087890625,0,0,0.0087890625,16.259765625,0)" xlink:href="#at"/><use transform="matrix(0.0087890625,0,0,0.0087890625,26.75390625,0)" xlink:href="#ay"/><use transform="matrix(0.0087890625,0,0,0.0087890625,37.388671875,0)" xlink:href="#aB"/></g><g id="k"><use transform="matrix(0.0087890625,0,0,0.0087890625,0,0)" xlink:href="#aD"/><use transform="matrix(0.0087890625,0,0,0.0087890625,11.021484375,0)" xlink:href="#aF"/><use transform="matrix(0.0087890625,0,0,0.0087890625,18.0791015625,0)" xlink:href="#aw"/><use transform="matrix(0.0087890625,0,0,0.0087890625,22.4384765625,0)" xlink:href="#ay"/><use transform="matrix(0.0087890625,0,0,0.0087890625,33.0732421875,0)" xlink:href="#aC"/><use transform="matrix(0.0087890625,0,0,0.0087890625,43.3564453125,0)" xlink:href="#aw"/><use transform="matrix(0.0087890625,0,0,0.0087890625,47.7158203125,0)" xlink:href="#aD"/><use transform="matrix(0.0087890625,0,0,0.0087890625,58.9130859375,0)" xlink:href="#aG"/><use transform="matrix(0.0087890625,0,0,0.0087890625,69.0205078125,0)" xlink:href="#aH"/></g><path d="M611 442c-248 0-391-105-460-228l146-94c47 65 117 165 314 165 178 0 307-82 307-266v-224h-17C863-141 792-18 576-18c-268 0-472-195-472-546 0-346 197-568 476-568 216 0 288 133 326 193h17v-179h175V29c0 289-215 413-487 413zm-5-620c203 0 314-146 314-390 0-237-108-403-314-403-213 0-319 180-319 403 0 230 109 390 319 390" id="aK"/><g id="l"><use transform="matrix(0.0087890625,0,0,0.0087890625,0,0)" xlink:href="#aw"/><use transform="matrix(0.0087890625,0,0,0.0087890625,4.359375,0)" xlink:href="#ay"/><use transform="matrix(0.0087890625,0,0,0.0087890625,14.994140625,0)" xlink:href="#aK"/><use transform="matrix(0.0087890625,0,0,0.0087890625,26.033203125,0)" xlink:href="#aF"/><use transform="matrix(0.0087890625,0,0,0.0087890625,32.5107421875,0)" xlink:href="#at"/><use transform="matrix(0.0087890625,0,0,0.0087890625,43.0048828125,0)" xlink:href="#au"/><use transform="matrix(0.0087890625,0,0,0.0087890625,52.505859375,0)" xlink:href="#aG"/></g><use transform="matrix(0.0087890625,0,0,0.0087890625,0,0)" xlink:href="#aG" id="m"/><g id="n"><use transform="matrix(0.0087890625,0,0,0.0087890625,0,0)" xlink:href="#aA"/><use transform="matrix(0.0087890625,0,0,0.0087890625,15.767578125,0)" xlink:href="#aE"/><use transform="matrix(0.0087890625,0,0,0.0087890625,26.560546875,0)" xlink:href="#az"/><use transform="matrix(0.0087890625,0,0,0.0087890625,37.58203125,0)" xlink:href="#aB"/><use transform="matrix(0.0087890625,0,0,0.0087890625,48.2255859375,0)" xlink:href="#aH"/><use transform="matrix(0.0087890625,0,0,0.0087890625,52.5849609375,0)" xlink:href="#aE"/></g><g id="o"><use transform="matrix(0.0087890625,0,0,0.0087890625,0,0)" xlink:href="#aA"/><use transform="matrix(0.0087890625,0,0,0.0087890625,15.767578125,0)" xlink:href="#aB"/><use transform="matrix(0.0087890625,0,0,0.0087890625,26.4111328125,0)" xlink:href="#ay"/><use transform="matrix(0.0087890625,0,0,0.0087890625,37.0458984375,0)" xlink:href="#aw"/><use transform="matrix(0.0087890625,0,0,0.0087890625,41.4052734375,0)" xlink:href="#aC"/><use transform="matrix(0.0087890625,0,0,0.0087890625,51.6884765625,0)" xlink:href="#aw"/><use transform="matrix(0.0087890625,0,0,0.0087890625,56.0478515625,0)" xlink:href="#aD"/><use transform="matrix(0.0087890625,0,0,0.0087890625,67.0693359375,0)" xlink:href="#aw"/><use transform="matrix(0.0087890625,0,0,0.0087890625,71.4287109375,0)" xlink:href="#aE"/></g><g id="p"><use transform="matrix(0.0087890625,0,0,0.0087890625,0,0)" xlink:href="#at"/><use transform="matrix(0.0087890625,0,0,0.0087890625,10.494140625,0)" xlink:href="#aH"/><use transform="matrix(0.0087890625,0,0,0.0087890625,14.853515625,0)" xlink:href="#aw"/><use transform="matrix(0.0087890625,0,0,0.0087890625,19.212890625,0)" xlink:href="#aK"/><use transform="matrix(0.0087890625,0,0,0.0087890625,30.251953125,0)" xlink:href="#at"/></g><g id="q"><use transform="matrix(0.0087890625,0,0,0.0087890625,0,0)" xlink:href="#aG"/><use transform="matrix(0.0087890625,0,0,0.0087890625,10.107421875,0)" xlink:href="#aC"/><use transform="matrix(0.0087890625,0,0,0.0087890625,20.390625,0)" xlink:href="#aC"/><use transform="matrix(0.0087890625,0,0,0.0087890625,30.673828125,0)" xlink:href="#aw"/><use transform="matrix(0.0087890625,0,0,0.0087890625,35.033203125,0)" xlink:href="#ax"/><use transform="matrix(0.0087890625,0,0,0.0087890625,45.826171875,0)" xlink:href="#ay"/></g><path d="M338-670V0H158v-1118h173l1 207c72-158 192-221 342-221 226 0 378 139 378 422V0H872v-695c0-172-96-275-252-275-161 0-282 109-282 300zm398-643c-99 0-192-83-243-83-35 0-51 40-53 79H314c4-120 55-208 162-208 104 0 174 85 241 85 33 0 49-23 56-81h123c-4 126-62 208-160 208" id="aL"/><g id="r"><use transform="matrix(0.0087890625,0,0,0.0087890625,0,0)" xlink:href="#aG"/><use transform="matrix(0.0087890625,0,0,0.0087890625,10.107421875,0)" xlink:href="#aL"/><use transform="matrix(0.0087890625,0,0,0.0087890625,20.7421875,0)" xlink:href="#aG"/><use transform="matrix(0.0087890625,0,0,0.0087890625,30.849609375,0)" xlink:href="#az"/><use transform="matrix(0.0087890625,0,0,0.0087890625,41.87109375,0)" xlink:href="#aw"/><use transform="matrix(0.0087890625,0,0,0.0087890625,46.23046875,0)" xlink:href="#aF"/></g><path d="M481 0L54-1118h197c107 314 236 620 325 951 87-331 217-637 324-951h197L670 0H481" id="aM"/><g id="s"><use transform="matrix(0.0087890625,0,0,0.0087890625,0,0)" xlink:href="#aM"/><use transform="matrix(0.0087890625,0,0,0.0087890625,9.7646484375,0)" xlink:href="#aE"/><use transform="matrix(0.0087890625,0,0,0.0087890625,20.5576171875,0)" xlink:href="#aH"/><use transform="matrix(0.0087890625,0,0,0.0087890625,25.0048828125,0)" xlink:href="#aM"/><use transform="matrix(0.0087890625,0,0,0.0087890625,34.76953125,0)" xlink:href="#at"/><use transform="matrix(0.0087890625,0,0,0.0087890625,45.263671875,0)" xlink:href="#aF"/></g><g id="t"><use transform="matrix(0.0087890625,0,0,0.0087890625,0,0)" xlink:href="#aA"/><use transform="matrix(0.0087890625,0,0,0.0087890625,15.767578125,0)" xlink:href="#at"/><use transform="matrix(0.0087890625,0,0,0.0087890625,26.26171875,0)" xlink:href="#ay"/><use transform="matrix(0.0087890625,0,0,0.0087890625,36.896484375,0)" xlink:href="#aB"/></g><g id="u"><use transform="matrix(0.0087890625,0,0,0.0087890625,0,0)" xlink:href="#aD"/><use transform="matrix(0.0087890625,0,0,0.0087890625,11.021484375,0)" xlink:href="#aF"/><use transform="matrix(0.0087890625,0,0,0.0087890625,18.0791015625,0)" xlink:href="#aw"/><use transform="matrix(0.0087890625,0,0,0.0087890625,22.4384765625,0)" xlink:href="#ay"/><use transform="matrix(0.0087890625,0,0,0.0087890625,33.0732421875,0)" xlink:href="#aC"/><use transform="matrix(0.0087890625,0,0,0.0087890625,43.3564453125,0)" xlink:href="#aw"/><use transform="matrix(0.0087890625,0,0,0.0087890625,47.7158203125,0)" xlink:href="#aD"/><use transform="matrix(0.0087890625,0,0,0.0087890625,58.9130859375,0)" xlink:href="#aG"/><use transform="matrix(0.0087890625,0,0,0.0087890625,69.0205078125,0)" xlink:href="#aH"/></g><g id="v"><use transform="matrix(0.0087890625,0,0,0.0087890625,0,0)" xlink:href="#aA"/><use transform="matrix(0.0087890625,0,0,0.0087890625,15.767578125,0)" xlink:href="#aB"/><use transform="matrix(0.0087890625,0,0,0.0087890625,26.4111328125,0)" xlink:href="#at"/><use transform="matrix(0.0087890625,0,0,0.0087890625,36.9052734375,0)" xlink:href="#au"/><use transform="matrix(0.0087890625,0,0,0.0087890625,46.40625,0)" xlink:href="#av"/><use transform="matrix(0.0087890625,0,0,0.0087890625,52.294921875,0)" xlink:href="#aF"/><use transform="matrix(0.0087890625,0,0,0.0087890625,59.0712890625,0)" xlink:href="#aG"/></g><path d="M678-1118v154H420V0H240v-964H20v-154h220v-149c0-194 155-293 318-293 85 0 141 18 168 30l-50 154c-19-6-47-17-97-17-111 0-159 58-159 166v109h258" id="aN"/><g id="w"><use transform="matrix(0.0087890625,0,0,0.0087890625,0,0)" xlink:href="#aN"/><use transform="matrix(0.0087890625,0,0,0.0087890625,6.134765625,0)" xlink:href="#aE"/><use transform="matrix(0.0087890625,0,0,0.0087890625,16.927734375,0)" xlink:href="#aF"/><use transform="matrix(0.0087890625,0,0,0.0087890625,23.9853515625,0)" xlink:href="#aA"/><use transform="matrix(0.0087890625,0,0,0.0087890625,39.7529296875,0)" xlink:href="#aB"/><use transform="matrix(0.0087890625,0,0,0.0087890625,50.396484375,0)" xlink:href="#aH"/><use transform="matrix(0.0087890625,0,0,0.0087890625,54.755859375,0)" xlink:href="#aG"/><use transform="matrix(0.0087890625,0,0,0.0087890625,64.86328125,0)" xlink:href="#aF"/><use transform="matrix(0.0087890625,0,0,0.0087890625,71.9208984375,0)" xlink:href="#aw"/><use transform="matrix(0.0087890625,0,0,0.0087890625,76.2802734375,0)" xlink:href="#aE"/></g><g id="x"><use transform="matrix(0.0087890625,0,0,0.0087890625,0,0)" xlink:href="#az"/><use transform="matrix(0.0087890625,0,0,0.0087890625,11.021484375,0)" xlink:href="#at"/></g><g id="y"><use transform="matrix(0.0087890625,0,0,0.0087890625,0,0)" xlink:href="#aF"/><use transform="matrix(0.0087890625,0,0,0.0087890625,6.4775390625,0)" xlink:href="#at"/><use transform="matrix(0.0087890625,0,0,0.0087890625,16.9716796875,0)" xlink:href="#aK"/><use transform="matrix(0.0087890625,0,0,0.0087890625,28.0107421875,0)" xlink:href="#aw"/><use transform="matrix(0.0087890625,0,0,0.0087890625,32.3701171875,0)" xlink:href="#au"/><use transform="matrix(0.0087890625,0,0,0.0087890625,41.87109375,0)" xlink:href="#av"/><use transform="matrix(0.0087890625,0,0,0.0087890625,47.759765625,0)" xlink:href="#aF"/><use transform="matrix(0.0087890625,0,0,0.0087890625,54.2373046875,0)" xlink:href="#aE"/></g><g id="z"><use transform="matrix(0.0087890625,0,0,0.0087890625,0,0)" xlink:href="#az"/><use transform="matrix(0.0087890625,0,0,0.0087890625,11.021484375,0)" xlink:href="#aG"/><use transform="matrix(0.0087890625,0,0,0.0087890625,21.12890625,0)" xlink:href="#av"/><use transform="matrix(0.0087890625,0,0,0.0087890625,26.841796875,0)" xlink:href="#aE"/><use transform="matrix(0.0087890625,0,0,0.0087890625,37.634765625,0)" xlink:href="#au"/></g><g id="A"><use transform="matrix(0.0087890625,0,0,0.0087890625,0,0)" xlink:href="#aM"/><use transform="matrix(0.0087890625,0,0,0.0087890625,10.0283203125,0)" xlink:href="#aG"/><use transform="matrix(0.0087890625,0,0,0.0087890625,20.1357421875,0)" xlink:href="#aH"/><use transform="matrix(0.0087890625,0,0,0.0087890625,24.4951171875,0)" xlink:href="#aw"/><use transform="matrix(0.0087890625,0,0,0.0087890625,28.8544921875,0)" xlink:href="#az"/><use transform="matrix(0.0087890625,0,0,0.0087890625,39.8759765625,0)" xlink:href="#aE"/><use transform="matrix(0.0087890625,0,0,0.0087890625,50.6689453125,0)" xlink:href="#au"/></g><g id="B"><use transform="matrix(0.0087890625,0,0,0.0087890625,0,0)" xlink:href="#aK"/><use transform="matrix(0.0087890625,0,0,0.0087890625,11.0390625,0)" xlink:href="#aB"/><use transform="matrix(0.0087890625,0,0,0.0087890625,21.6826171875,0)" xlink:href="#aG"/><use transform="matrix(0.0087890625,0,0,0.0087890625,31.7900390625,0)" xlink:href="#aF"/><use transform="matrix(0.0087890625,0,0,0.0087890625,38.267578125,0)" xlink:href="#az"/><use transform="matrix(0.0087890625,0,0,0.0087890625,49.2890625,0)" xlink:href="#aG"/></g><g id="C"><use transform="matrix(0.0087890625,0,0,0.0087890625,0,0)" xlink:href="#aw"/><use transform="matrix(0.0087890625,0,0,0.0087890625,4.359375,0)" xlink:href="#ay"/><use transform="matrix(0.0087890625,0,0,0.0087890625,14.994140625,0)" xlink:href="#aN"/><use transform="matrix(0.0087890625,0,0,0.0087890625,21.12890625,0)" xlink:href="#aE"/><use transform="matrix(0.0087890625,0,0,0.0087890625,31.921875,0)" xlink:href="#aF"/><use transform="matrix(0.0087890625,0,0,0.0087890625,38.9794921875,0)" xlink:href="#aA"/><use transform="matrix(0.0087890625,0,0,0.0087890625,54.7470703125,0)" xlink:href="#aG"/><use transform="matrix(0.0087890625,0,0,0.0087890625,64.8544921875,0)" xlink:href="#aC"/><use transform="matrix(0.0087890625,0,0,0.0087890625,75.1376953125,0)" xlink:href="#aw"/><use transform="matrix(0.0087890625,0,0,0.0087890625,79.4970703125,0)" xlink:href="#ax"/><use transform="matrix(0.0087890625,0,0,0.0087890625,90.2900390625,0)" xlink:href="#ay"/></g><g id="D"><use transform="matrix(0.0087890625,0,0,0.0087890625,0,0)" xlink:href="#at"/><use transform="matrix(0.0087890625,0,0,0.0087890625,10.494140625,0)" xlink:href="#ay"/></g><path d="M677 24c-213 0-288-135-325-197h-20V0H158v-1490h180v551h14c37-59 106-193 324-193 279 0 474 222 474 576 0 356-194 580-473 580zm-27-161c209 0 317-186 317-421 0-232-105-413-317-413-206 0-314 166-314 413 0 249 111 421 314 421" id="aO"/><g id="E"><use transform="matrix(0.0087890625,0,0,0.0087890625,0,0)" xlink:href="#aO"/><use transform="matrix(0.0087890625,0,0,0.0087890625,11.197265625,0)" xlink:href="#aG"/><use transform="matrix(0.0087890625,0,0,0.0087890625,21.3046875,0)" xlink:href="#au"/><use transform="matrix(0.0087890625,0,0,0.0087890625,30.8056640625,0)" xlink:href="#at"/></g><g id="F"><use transform="matrix(0.0087890625,0,0,0.0087890625,0,0)" xlink:href="#az"/><use transform="matrix(0.0087890625,0,0,0.0087890625,11.021484375,0)" xlink:href="#aG"/><use transform="matrix(0.0087890625,0,0,0.0087890625,21.12890625,0)" xlink:href="#av"/><use transform="matrix(0.0087890625,0,0,0.0087890625,26.841796875,0)" xlink:href="#aE"/><use transform="matrix(0.0087890625,0,0,0.0087890625,37.634765625,0)" xlink:href="#au"/></g><g id="G"><use transform="matrix(0.0087890625,0,0,0.0087890625,0,0)" xlink:href="#az"/><use transform="matrix(0.0087890625,0,0,0.0087890625,11.021484375,0)" xlink:href="#at"/><use transform="matrix(0.0087890625,0,0,0.0087890625,21.515625,0)" xlink:href="#au"/><use transform="matrix(0.0087890625,0,0,0.0087890625,31.0166015625,0)" xlink:href="#aD"/><use transform="matrix(0.0087890625,0,0,0.0087890625,42.0380859375,0)" xlink:href="#aH"/><use transform="matrix(0.0087890625,0,0,0.0087890625,46.3974609375,0)" xlink:href="#aw"/><use transform="matrix(0.0087890625,0,0,0.0087890625,50.7568359375,0)" xlink:href="#at"/><use transform="matrix(0.0087890625,0,0,0.0087890625,61.2509765625,0)" xlink:href="#aK"/><use transform="matrix(0.0087890625,0,0,0.0087890625,72.2900390625,0)" xlink:href="#aG"/></g><g id="H"><use transform="matrix(0.0087890625,0,0,0.0087890625,0,0)" xlink:href="#au"/><use transform="matrix(0.0087890625,0,0,0.0087890625,9.5009765625,0)" xlink:href="#aB"/><use transform="matrix(0.0087890625,0,0,0.0087890625,20.14453125,0)" xlink:href="#aO"/><use transform="matrix(0.0087890625,0,0,0.0087890625,31.166015625,0)" xlink:href="#aA"/><use transform="matrix(0.0087890625,0,0,0.0087890625,46.93359375,0)" xlink:href="#at"/><use transform="matrix(0.0087890625,0,0,0.0087890625,57.427734375,0)" xlink:href="#ay"/><use transform="matrix(0.0087890625,0,0,0.0087890625,68.0625,0)" xlink:href="#aB"/></g><g id="I"><use transform="matrix(0.0087890625,0,0,0.0087890625,0,0)" xlink:href="#aA"/><use transform="matrix(0.0087890625,0,0,0.0087890625,15.767578125,0)" xlink:href="#aB"/><use transform="matrix(0.0087890625,0,0,0.0087890625,26.4111328125,0)" xlink:href="#ay"/><use transform="matrix(0.0087890625,0,0,0.0087890625,37.0458984375,0)" xlink:href="#aw"/><use transform="matrix(0.0087890625,0,0,0.0087890625,41.4052734375,0)" xlink:href="#aC"/><use transform="matrix(0.0087890625,0,0,0.0087890625,51.6884765625,0)" xlink:href="#aw"/><use transform="matrix(0.0087890625,0,0,0.0087890625,56.0478515625,0)" xlink:href="#aD"/><use transform="matrix(0.0087890625,0,0,0.0087890625,67.0693359375,0)" xlink:href="#aw"/><use transform="matrix(0.0087890625,0,0,0.0087890625,71.4287109375,0)" xlink:href="#aE"/><use transform="matrix(0.0087890625,0,0,0.0087890625,82.2216796875,0)" xlink:href="#au"/></g><g id="J"><use transform="matrix(0.0087890625,0,0,0.0087890625,0,0)" xlink:href="#az"/><use transform="matrix(0.0087890625,0,0,0.0087890625,11.021484375,0)" xlink:href="#aG"/><use transform="matrix(0.0087890625,0,0,0.0087890625,21.12890625,0)" xlink:href="#av"/><use transform="matrix(0.0087890625,0,0,0.0087890625,26.841796875,0)" xlink:href="#aE"/><use transform="matrix(0.0087890625,0,0,0.0087890625,37.634765625,0)" xlink:href="#au"/></g><path d="M168-1264l140-294h201l-194 294H168" id="aP"/><g id="K"><use transform="matrix(0.0087890625,0,0,0.0087890625,0,0)" xlink:href="#aw"/><use transform="matrix(0.0087890625,0,0,0.0087890625,4.359375,0)" xlink:href="#ay"/><use transform="matrix(0.0087890625,0,0,0.0087890625,14.73046875,0)" xlink:href="#aM"/><use transform="matrix(0.0087890625,0,0,0.0087890625,24.8466796875,0)" xlink:href="#aP"/></g><path d="M157-1118h181V80c1 225-123 350-364 338V252c126 9 184-48 183-172v-1198zm91-183c-68 0-125-53-125-119s57-119 125-119c69 0 126 53 126 119s-57 119-126 119" id="aQ"/><g id="L"><use transform="matrix(0.0087890625,0,0,0.0087890625,0,0)" xlink:href="#aA"/><use transform="matrix(0.0087890625,0,0,0.0087890625,15.767578125,0)" xlink:href="#at"/><use transform="matrix(0.0087890625,0,0,0.0087890625,26.26171875,0)" xlink:href="#ay"/><use transform="matrix(0.0087890625,0,0,0.0087890625,36.896484375,0)" xlink:href="#au"/><use transform="matrix(0.0087890625,0,0,0.0087890625,46.3974609375,0)" xlink:href="#aG"/><use transform="matrix(0.0087890625,0,0,0.0087890625,56.5048828125,0)" xlink:href="#aQ"/><use transform="matrix(0.0087890625,0,0,0.0087890625,60.8642578125,0)" xlink:href="#at"/></g><g id="M"><use transform="matrix(0.0087890625,0,0,0.0087890625,0,0)" xlink:href="#aE"/><use transform="matrix(0.0087890625,0,0,0.0087890625,10.79296875,0)" xlink:href="#aD"/><use transform="matrix(0.0087890625,0,0,0.0087890625,21.814453125,0)" xlink:href="#at"/><use transform="matrix(0.0087890625,0,0,0.0087890625,32.30859375,0)" xlink:href="#aF"/><use transform="matrix(0.0087890625,0,0,0.0087890625,39.0849609375,0)" xlink:href="#aG"/><use transform="matrix(0.0087890625,0,0,0.0087890625,49.1923828125,0)" xlink:href="#aC"/><use transform="matrix(0.0087890625,0,0,0.0087890625,59.4755859375,0)" xlink:href="#aw"/><use transform="matrix(0.0087890625,0,0,0.0087890625,63.8349609375,0)" xlink:href="#ax"/><use transform="matrix(0.0087890625,0,0,0.0087890625,74.6279296875,0)" xlink:href="#ay"/></g><path d="M65 0l393-574-370-544h210c88 136 192 297 267 435 67-142 176-302 264-435h206L661-564 1053 0H844c-94-144-206-310-287-458C484-308 366-142 273 0H65" id="aR"/><g id="N"><use transform="matrix(0.0087890625,0,0,0.0087890625,0,0)" xlink:href="#at"/><use transform="matrix(0.0087890625,0,0,0.0087890625,10.08984375,0)" xlink:href="#aR"/><use transform="matrix(0.0087890625,0,0,0.0087890625,19.916015625,0)" xlink:href="#aw"/><use transform="matrix(0.0087890625,0,0,0.0087890625,24.275390625,0)" xlink:href="#av"/><use transform="matrix(0.0087890625,0,0,0.0087890625,29.98828125,0)" xlink:href="#aE"/><use transform="matrix(0.0087890625,0,0,0.0087890625,40.78125,0)" xlink:href="#au"/><use transform="matrix(0.0087890625,0,0,0.0087890625,50.2822265625,0)" xlink:href="#aG"/></g><path d="M126 0v-134l627-806v-11H146v-167h839v143L376-178v11h629V0H126" id="aS"/><g id="O"><use transform="matrix(0.0087890625,0,0,0.0087890625,0,0)" xlink:href="#aG"/><use transform="matrix(0.0087890625,0,0,0.0087890625,10.107421875,0)" xlink:href="#aC"/><use transform="matrix(0.0087890625,0,0,0.0087890625,20.390625,0)" xlink:href="#av"/><use transform="matrix(0.0087890625,0,0,0.0087890625,26.279296875,0)" xlink:href="#aB"/><use transform="matrix(0.0087890625,0,0,0.0087890625,36.9228515625,0)" xlink:href="#aG"/><use transform="matrix(0.0087890625,0,0,0.0087890625,47.0302734375,0)" xlink:href="#aH"/><use transform="matrix(0.0087890625,0,0,0.0087890625,51.3896484375,0)" xlink:href="#aw"/><use transform="matrix(0.0087890625,0,0,0.0087890625,55.7490234375,0)" xlink:href="#aS"/><use transform="matrix(0.0087890625,0,0,0.0087890625,65.689453125,0)" xlink:href="#aG"/><use transform="matrix(0.0087890625,0,0,0.0087890625,75.796875,0)" xlink:href="#aF"/></g><g id="P"><use transform="matrix(0.0087890625,0,0,0.0087890625,0,0)" xlink:href="#at"/><use transform="matrix(0.0087890625,0,0,0.0087890625,10.494140625,0)" xlink:href="#ay"/><use transform="matrix(0.0087890625,0,0,0.0087890625,20.865234375,0)" xlink:href="#aM"/><use transform="matrix(0.0087890625,0,0,0.0087890625,30.9814453125,0)" xlink:href="#aw"/><use transform="matrix(0.0087890625,0,0,0.0087890625,35.3408203125,0)" xlink:href="#aG"/></g><g id="Q"><use transform="matrix(0.0087890625,0,0,0.0087890625,0,0)" xlink:href="#at"/><use transform="matrix(0.0087890625,0,0,0.0087890625,10.494140625,0)" xlink:href="#aA"/><use transform="matrix(0.0087890625,0,0,0.0087890625,26.26171875,0)" xlink:href="#aG"/><use transform="matrix(0.0087890625,0,0,0.0087890625,36.369140625,0)" xlink:href="#aw"/><use transform="matrix(0.0087890625,0,0,0.0087890625,40.728515625,0)" xlink:href="#aH"/></g><g id="R"><use transform="matrix(0.0087890625,0,0,0.0087890625,0,0)" xlink:href="#az"/><use transform="matrix(0.0087890625,0,0,0.0087890625,11.021484375,0)" xlink:href="#at"/></g><g id="S"><use transform="matrix(0.0087890625,0,0,0.0087890625,0,0)" xlink:href="#aC"/><use transform="matrix(0.0087890625,0,0,0.0087890625,10.283203125,0)" xlink:href="#aE"/><use transform="matrix(0.0087890625,0,0,0.0087890625,21.076171875,0)" xlink:href="#ay"/><use transform="matrix(0.0087890625,0,0,0.0087890625,31.7109375,0)" xlink:href="#aN"/><use transform="matrix(0.0087890625,0,0,0.0087890625,38.373046875,0)" xlink:href="#aw"/><use transform="matrix(0.0087890625,0,0,0.0087890625,42.732421875,0)" xlink:href="#aF"/><use transform="matrix(0.0087890625,0,0,0.0087890625,49.7900390625,0)" xlink:href="#aA"/><use transform="matrix(0.0087890625,0,0,0.0087890625,65.5576171875,0)" xlink:href="#aG"/><use transform="matrix(0.0087890625,0,0,0.0087890625,75.6650390625,0)" xlink:href="#aC"/><use transform="matrix(0.0087890625,0,0,0.0087890625,85.9482421875,0)" xlink:href="#aw"/><use transform="matrix(0.0087890625,0,0,0.0087890625,90.3076171875,0)" xlink:href="#ax"/><use transform="matrix(0.0087890625,0,0,0.0087890625,101.1005859375,0)" xlink:href="#ay"/></g><g id="T"><use transform="matrix(0.0087890625,0,0,0.0087890625,0,0)" xlink:href="#aw"/><use transform="matrix(0.0087890625,0,0,0.0087890625,4.359375,0)" xlink:href="#ay"/><use transform="matrix(0.0087890625,0,0,0.0087890625,14.994140625,0)" xlink:href="#aN"/><use transform="matrix(0.0087890625,0,0,0.0087890625,21.12890625,0)" xlink:href="#aE"/><use transform="matrix(0.0087890625,0,0,0.0087890625,31.921875,0)" xlink:href="#aF"/><use transform="matrix(0.0087890625,0,0,0.0087890625,38.9794921875,0)" xlink:href="#aA"/><use transform="matrix(0.0087890625,0,0,0.0087890625,54.7470703125,0)" xlink:href="#aG"/><use transform="matrix(0.0087890625,0,0,0.0087890625,64.8544921875,0)" xlink:href="#aC"/><use transform="matrix(0.0087890625,0,0,0.0087890625,75.1376953125,0)" xlink:href="#aw"/><use transform="matrix(0.0087890625,0,0,0.0087890625,79.4970703125,0)" xlink:href="#ax"/><use transform="matrix(0.0087890625,0,0,0.0087890625,90.2900390625,0)" xlink:href="#ay"/></g><g id="U"><use transform="matrix(0.0087890625,0,0,0.0087890625,0,0)" xlink:href="#au"/><use transform="matrix(0.0087890625,0,0,0.0087890625,9.5009765625,0)" xlink:href="#aE"/><use transform="matrix(0.0087890625,0,0,0.0087890625,20.2939453125,0)" xlink:href="#aO"/><use transform="matrix(0.0087890625,0,0,0.0087890625,31.3154296875,0)" xlink:href="#aF"/><use transform="matrix(0.0087890625,0,0,0.0087890625,37.79296875,0)" xlink:href="#at"/></g><g id="V"><use transform="matrix(0.0087890625,0,0,0.0087890625,0,0)" xlink:href="#az"/><use transform="matrix(0.0087890625,0,0,0.0087890625,11.021484375,0)" xlink:href="#aG"/><use transform="matrix(0.0087890625,0,0,0.0087890625,21.12890625,0)" xlink:href="#av"/><use transform="matrix(0.0087890625,0,0,0.0087890625,26.841796875,0)" xlink:href="#aE"/><use transform="matrix(0.0087890625,0,0,0.0087890625,37.634765625,0)" xlink:href="#au"/></g><g id="W"><use transform="matrix(0.0087890625,0,0,0.0087890625,0,0)" xlink:href="#aA"/><use transform="matrix(0.0087890625,0,0,0.0087890625,15.767578125,0)" xlink:href="#aB"/><use transform="matrix(0.0087890625,0,0,0.0087890625,26.4111328125,0)" xlink:href="#ay"/><use transform="matrix(0.0087890625,0,0,0.0087890625,37.0458984375,0)" xlink:href="#aw"/><use transform="matrix(0.0087890625,0,0,0.0087890625,41.4052734375,0)" xlink:href="#aC"/><use transform="matrix(0.0087890625,0,0,0.0087890625,51.6884765625,0)" xlink:href="#aw"/><use transform="matrix(0.0087890625,0,0,0.0087890625,56.0478515625,0)" xlink:href="#aD"/><use transform="matrix(0.0087890625,0,0,0.0087890625,67.0693359375,0)" xlink:href="#aw"/><use transform="matrix(0.0087890625,0,0,0.0087890625,71.4287109375,0)" xlink:href="#aE"/></g><g id="X"><use transform="matrix(0.0087890625,0,0,0.0087890625,0,0)" xlink:href="#at"/><use transform="matrix(0.0087890625,0,0,0.0087890625,10.494140625,0)" xlink:href="#az"/><use transform="matrix(0.0087890625,0,0,0.0087890625,21.515625,0)" xlink:href="#aw"/><use transform="matrix(0.0087890625,0,0,0.0087890625,25.875,0)" xlink:href="#av"/><use transform="matrix(0.0087890625,0,0,0.0087890625,31.8515625,0)" xlink:href="#aG"/><use transform="matrix(0.0087890625,0,0,0.0087890625,41.958984375,0)" xlink:href="#aF"/></g><g id="Y"><use transform="matrix(0.0087890625,0,0,0.0087890625,0,0)" xlink:href="#at"/><use transform="matrix(0.0087890625,0,0,0.0087890625,10.494140625,0)" xlink:href="#aH"/><use transform="matrix(0.0087890625,0,0,0.0087890625,14.853515625,0)" xlink:href="#aw"/><use transform="matrix(0.0087890625,0,0,0.0087890625,19.212890625,0)" xlink:href="#aA"/><use transform="matrix(0.0087890625,0,0,0.0087890625,34.98046875,0)" xlink:href="#aw"/><use transform="matrix(0.0087890625,0,0,0.0087890625,39.33984375,0)" xlink:href="#ay"/><use transform="matrix(0.0087890625,0,0,0.0087890625,49.974609375,0)" xlink:href="#aG"/><use transform="matrix(0.0087890625,0,0,0.0087890625,60.08203125,0)" xlink:href="#aF"/></g><g id="Z"><use transform="matrix(0.0087890625,0,0,0.0087890625,0,0)" xlink:href="#aC"/><use transform="matrix(0.0087890625,0,0,0.0087890625,10.458984375,0)" xlink:href="#aG"/><use transform="matrix(0.0087890625,0,0,0.0087890625,20.56640625,0)" xlink:href="#aF"/><use transform="matrix(0.0087890625,0,0,0.0087890625,27.0439453125,0)" xlink:href="#aK"/><use transform="matrix(0.0087890625,0,0,0.0087890625,38.0830078125,0)" xlink:href="#aG"/></g><g id="aa"><use transform="matrix(0.0087890625,0,0,0.0087890625,0,0)" xlink:href="#aH"/><use transform="matrix(0.0087890625,0,0,0.0087890625,4.359375,0)" xlink:href="#aw"/><use transform="matrix(0.0087890625,0,0,0.0087890625,8.71875,0)" xlink:href="#au"/><use transform="matrix(0.0087890625,0,0,0.0087890625,18.2197265625,0)" xlink:href="#av"/><use transform="matrix(0.0087890625,0,0,0.0087890625,24.1962890625,0)" xlink:href="#aG"/></g><g id="ab"><use transform="matrix(0.0087890625,0,0,0.0087890625,0,0)" xlink:href="#aA"/><use transform="matrix(0.0087890625,0,0,0.0087890625,15.767578125,0)" xlink:href="#aB"/><use transform="matrix(0.0087890625,0,0,0.0087890625,26.4111328125,0)" xlink:href="#ay"/><use transform="matrix(0.0087890625,0,0,0.0087890625,37.0458984375,0)" xlink:href="#aw"/><use transform="matrix(0.0087890625,0,0,0.0087890625,41.4052734375,0)" xlink:href="#aC"/><use transform="matrix(0.0087890625,0,0,0.0087890625,51.6884765625,0)" xlink:href="#aw"/><use transform="matrix(0.0087890625,0,0,0.0087890625,56.0478515625,0)" xlink:href="#aD"/><use transform="matrix(0.0087890625,0,0,0.0087890625,67.0693359375,0)" xlink:href="#aw"/><use transform="matrix(0.0087890625,0,0,0.0087890625,71.4287109375,0)" xlink:href="#aE"/><use transform="matrix(0.0087890625,0,0,0.0087890625,82.2216796875,0)" xlink:href="#au"/></g><g id="ac"><use transform="matrix(0.0087890625,0,0,0.0087890625,0,0)" xlink:href="#at"/><use transform="matrix(0.0087890625,0,0,0.0087890625,10.08984375,0)" xlink:href="#aR"/><use transform="matrix(0.0087890625,0,0,0.0087890625,19.916015625,0)" xlink:href="#aw"/><use transform="matrix(0.0087890625,0,0,0.0087890625,24.275390625,0)" xlink:href="#au"/><use transform="matrix(0.0087890625,0,0,0.0087890625,33.7763671875,0)" xlink:href="#av"/><use transform="matrix(0.0087890625,0,0,0.0087890625,39.4892578125,0)" xlink:href="#at"/><use transform="matrix(0.0087890625,0,0,0.0087890625,49.9833984375,0)" xlink:href="#ay"/><use transform="matrix(0.0087890625,0,0,0.0087890625,60.6181640625,0)" xlink:href="#av"/><use transform="matrix(0.0087890625,0,0,0.0087890625,66.3310546875,0)" xlink:href="#at"/><use transform="matrix(0.0087890625,0,0,0.0087890625,76.8251953125,0)" xlink:href="#au"/></g><g id="ad"><use transform="matrix(0.0087890625,0,0,0.0087890625,0,0)" xlink:href="#at"/><use transform="matrix(0.0087890625,0,0,0.0087890625,10.494140625,0)" xlink:href="#aH"/><use transform="matrix(0.0087890625,0,0,0.0087890625,14.853515625,0)" xlink:href="#aw"/><use transform="matrix(0.0087890625,0,0,0.0087890625,19.212890625,0)" xlink:href="#aA"/><use transform="matrix(0.0087890625,0,0,0.0087890625,34.98046875,0)" xlink:href="#aw"/><use transform="matrix(0.0087890625,0,0,0.0087890625,39.33984375,0)" xlink:href="#ay"/><use transform="matrix(0.0087890625,0,0,0.0087890625,49.974609375,0)" xlink:href="#aG"/><use transform="matrix(0.0087890625,0,0,0.0087890625,60.08203125,0)" xlink:href="#aC"/><use transform="matrix(0.0087890625,0,0,0.0087890625,70.365234375,0)" xlink:href="#aw"/><use transform="matrix(0.0087890625,0,0,0.0087890625,74.724609375,0)" xlink:href="#ax"/><use transform="matrix(0.0087890625,0,0,0.0087890625,85.517578125,0)" xlink:href="#ay"/></g><g id="ae"><use transform="matrix(0.0087890625,0,0,0.0087890625,0,0)" xlink:href="#az"/><use transform="matrix(0.0087890625,0,0,0.0087890625,11.021484375,0)" xlink:href="#at"/></g><g id="af"><use transform="matrix(0.0087890625,0,0,0.0087890625,0,0)" xlink:href="#aw"/><use transform="matrix(0.0087890625,0,0,0.0087890625,4.359375,0)" xlink:href="#az"/></g><g id="ag"><use transform="matrix(0.0087890625,0,0,0.0087890625,0,0)" xlink:href="#aA"/><use transform="matrix(0.0087890625,0,0,0.0087890625,15.767578125,0)" xlink:href="#aB"/><use transform="matrix(0.0087890625,0,0,0.0087890625,26.4111328125,0)" xlink:href="#ay"/><use transform="matrix(0.0087890625,0,0,0.0087890625,37.0458984375,0)" xlink:href="#aw"/><use transform="matrix(0.0087890625,0,0,0.0087890625,41.4052734375,0)" xlink:href="#aC"/><use transform="matrix(0.0087890625,0,0,0.0087890625,51.6884765625,0)" xlink:href="#aw"/><use transform="matrix(0.0087890625,0,0,0.0087890625,56.0478515625,0)" xlink:href="#aD"/><use transform="matrix(0.0087890625,0,0,0.0087890625,67.0693359375,0)" xlink:href="#aw"/><use transform="matrix(0.0087890625,0,0,0.0087890625,71.4287109375,0)" xlink:href="#aE"/></g><g id="ah"><use transform="matrix(0.0087890625,0,0,0.0087890625,0,0)" xlink:href="#at"/><use transform="matrix(0.0087890625,0,0,0.0087890625,10.494140625,0)" xlink:href="#aH"/><use transform="matrix(0.0087890625,0,0,0.0087890625,14.853515625,0)" xlink:href="#aw"/><use transform="matrix(0.0087890625,0,0,0.0087890625,19.212890625,0)" xlink:href="#aA"/><use transform="matrix(0.0087890625,0,0,0.0087890625,34.98046875,0)" xlink:href="#aw"/><use transform="matrix(0.0087890625,0,0,0.0087890625,39.33984375,0)" xlink:href="#ay"/><use transform="matrix(0.0087890625,0,0,0.0087890625,49.974609375,0)" xlink:href="#aG"/><use transform="matrix(0.0087890625,0,0,0.0087890625,60.08203125,0)" xlink:href="#aF"/></g><g id="ai"><use transform="matrix(0.0087890625,0,0,0.0087890625,0,0)" xlink:href="#aH"/><use transform="matrix(0.0087890625,0,0,0.0087890625,4.359375,0)" xlink:href="#aE"/><use transform="matrix(0.0087890625,0,0,0.0087890625,15.15234375,0)" xlink:href="#au"/></g><g id="aj"><use transform="matrix(0.0087890625,0,0,0.0087890625,0,0)" xlink:href="#au"/><use transform="matrix(0.0087890625,0,0,0.0087890625,9.5009765625,0)" xlink:href="#aE"/><use transform="matrix(0.0087890625,0,0,0.0087890625,20.2939453125,0)" xlink:href="#ay"/></g><path d="M471 26C259 26 90-98 90-318c0-256 228-303 435-329 202-27 287-16 287-108 0-139-79-219-234-219-161 0-248 86-283 164l-173-57c86-203 278-265 451-265 150 0 419 46 419 395V0H815v-152h-12C765-73 660 26 471 26zm31-159c199 0 310-134 310-271v-155c-30 35-226 55-295 64-131 17-246 59-246 186 0 116 97 176 231 176zm-23-1131l140-294h201l-194 294H479" id="aT"/><g id="ak"><use transform="matrix(0.0087890625,0,0,0.0087890625,0,0)" xlink:href="#aM"/><use transform="matrix(0.0087890625,0,0,0.0087890625,10.0283203125,0)" xlink:href="#aT"/><use transform="matrix(0.0087890625,0,0,0.0087890625,20.1357421875,0)" xlink:href="#aH"/><use transform="matrix(0.0087890625,0,0,0.0087890625,24.4951171875,0)" xlink:href="#aw"/><use transform="matrix(0.0087890625,0,0,0.0087890625,28.8544921875,0)" xlink:href="#az"/><use transform="matrix(0.0087890625,0,0,0.0087890625,39.8759765625,0)" xlink:href="#aE"/><use transform="matrix(0.0087890625,0,0,0.0087890625,50.6689453125,0)" xlink:href="#au"/></g><g id="al"><use transform="matrix(0.0087890625,0,0,0.0087890625,0,0)" xlink:href="#aG"/><use transform="matrix(0.0087890625,0,0,0.0087890625,10.107421875,0)" xlink:href="#aC"/><use transform="matrix(0.0087890625,0,0,0.0087890625,20.390625,0)" xlink:href="#av"/><use transform="matrix(0.0087890625,0,0,0.0087890625,26.279296875,0)" xlink:href="#aB"/><use transform="matrix(0.0087890625,0,0,0.0087890625,36.9228515625,0)" xlink:href="#aG"/><use transform="matrix(0.0087890625,0,0,0.0087890625,47.0302734375,0)" xlink:href="#aH"/><use transform="matrix(0.0087890625,0,0,0.0087890625,51.3896484375,0)" xlink:href="#aw"/><use transform="matrix(0.0087890625,0,0,0.0087890625,55.7490234375,0)" xlink:href="#aS"/><use transform="matrix(0.0087890625,0,0,0.0087890625,65.689453125,0)" xlink:href="#aG"/><use transform="matrix(0.0087890625,0,0,0.0087890625,75.796875,0)" xlink:href="#aC"/><use transform="matrix(0.0087890625,0,0,0.0087890625,86.080078125,0)" xlink:href="#aw"/><use transform="matrix(0.0087890625,0,0,0.0087890625,90.439453125,0)" xlink:href="#ax"/><use transform="matrix(0.0087890625,0,0,0.0087890625,101.232421875,0)" xlink:href="#ay"/></g><g id="am"><use transform="matrix(0.0087890625,0,0,0.0087890625,0,0)" xlink:href="#aM"/><use transform="matrix(0.0087890625,0,0,0.0087890625,10.0283203125,0)" xlink:href="#aG"/><use transform="matrix(0.0087890625,0,0,0.0087890625,20.1357421875,0)" xlink:href="#aH"/><use transform="matrix(0.0087890625,0,0,0.0087890625,24.4951171875,0)" xlink:href="#aw"/><use transform="matrix(0.0087890625,0,0,0.0087890625,28.8544921875,0)" xlink:href="#az"/><use transform="matrix(0.0087890625,0,0,0.0087890625,39.8759765625,0)" xlink:href="#aG"/></g><g id="an"><use transform="matrix(0.0087890625,0,0,0.0087890625,0,0)" xlink:href="#aA"/><use transform="matrix(0.0087890625,0,0,0.0087890625,15.767578125,0)" xlink:href="#aB"/><use transform="matrix(0.0087890625,0,0,0.0087890625,26.4111328125,0)" xlink:href="#at"/><use transform="matrix(0.0087890625,0,0,0.0087890625,36.9052734375,0)" xlink:href="#au"/><use transform="matrix(0.0087890625,0,0,0.0087890625,46.40625,0)" xlink:href="#av"/><use transform="matrix(0.0087890625,0,0,0.0087890625,52.294921875,0)" xlink:href="#aF"/><use transform="matrix(0.0087890625,0,0,0.0087890625,59.0712890625,0)" xlink:href="#aG"/></g><g id="ao"><use transform="matrix(0.0087890625,0,0,0.0087890625,0,0)" xlink:href="#aA"/><use transform="matrix(0.0087890625,0,0,0.0087890625,15.767578125,0)" xlink:href="#at"/><use transform="matrix(0.0087890625,0,0,0.0087890625,26.26171875,0)" xlink:href="#ay"/><use transform="matrix(0.0087890625,0,0,0.0087890625,36.896484375,0)" xlink:href="#au"/><use transform="matrix(0.0087890625,0,0,0.0087890625,46.3974609375,0)" xlink:href="#aG"/><use transform="matrix(0.0087890625,0,0,0.0087890625,56.5048828125,0)" xlink:href="#aQ"/><use transform="matrix(0.0087890625,0,0,0.0087890625,60.8642578125,0)" xlink:href="#at"/></g><g id="ap"><use transform="matrix(0.0087890625,0,0,0.0087890625,0,0)" xlink:href="#at"/><use transform="matrix(0.0087890625,0,0,0.0087890625,10.494140625,0)" xlink:href="#aF"/><use transform="matrix(0.0087890625,0,0,0.0087890625,17.5517578125,0)" xlink:href="#aF"/><use transform="matrix(0.0087890625,0,0,0.0087890625,24.029296875,0)" xlink:href="#aE"/><use transform="matrix(0.0087890625,0,0,0.0087890625,34.822265625,0)" xlink:href="#aF"/></g><g id="aq"><use transform="matrix(0.0087890625,0,0,0.0087890625,0,0)" xlink:href="#aw"/><use transform="matrix(0.0087890625,0,0,0.0087890625,4.359375,0)" xlink:href="#ay"/><use transform="matrix(0.0087890625,0,0,0.0087890625,14.73046875,0)" xlink:href="#aM"/><use transform="matrix(0.0087890625,0,0,0.0087890625,24.7587890625,0)" xlink:href="#aG"/><use transform="matrix(0.0087890625,0,0,0.0087890625,34.8662109375,0)" xlink:href="#aH"/><use transform="matrix(0.0087890625,0,0,0.0087890625,39.2255859375,0)" xlink:href="#aw"/><use transform="matrix(0.0087890625,0,0,0.0087890625,43.5849609375,0)" xlink:href="#az"/><use transform="matrix(0.0087890625,0,0,0.0087890625,54.6064453125,0)" xlink:href="#aE"/><use transform="matrix(0.0087890625,0,0,0.0087890625,65.3994140625,0)" xlink:href="#au"/></g><g id="ar"><use transform="matrix(0.0087890625,0,0,0.0087890625,0,0)" xlink:href="#aC"/><use transform="matrix(0.0087890625,0,0,0.0087890625,10.283203125,0)" xlink:href="#aE"/><use transform="matrix(0.0087890625,0,0,0.0087890625,21.076171875,0)" xlink:href="#ay"/><use transform="matrix(0.0087890625,0,0,0.0087890625,31.7109375,0)" xlink:href="#au"/><use transform="matrix(0.0087890625,0,0,0.0087890625,41.2119140625,0)" xlink:href="#aB"/><use transform="matrix(0.0087890625,0,0,0.0087890625,51.85546875,0)" xlink:href="#aH"/><use transform="matrix(0.0087890625,0,0,0.0087890625,56.478515625,0)" xlink:href="#av"/><use transform="matrix(0.0087890625,0,0,0.0087890625,62.455078125,0)" xlink:href="#aG"/></g></defs></g></svg>