<svg xmlns="http://www.w3.org/2000/svg" xmlns:xlink="http://www.w3.org/1999/xlink" xmlns:lucid="lucid" width="3743" height="1885"><g transform="translate(1158 -1571)" lucid:page-tab-id="0_0"><path d="M-1500-4000h4500v9500h-4500z" fill="#fff"/><path d="M-1102.78 1642.67h36.78v1760h-36.78zM-1065 1642.67h35.78v540H-1065M-1065 2182.67h35.78v1220H-1065" stroke="#000" stroke-width="2" fill="#fff"/><path d="M-1029.22 1642.67h3540v540h-3540zM-1029.22 2182.67h3540v1220h-3540z" stroke="#000" stroke-width="2" fill="none"/><use xlink:href="#a" transform="matrix(-1.8369701987210297e-16,-1,1,-1.8369701987210297e-16,-1102.779296875,3402.6666666666665) translate(649.111328125 25.0478515625)"/><use xlink:href="#b" transform="matrix(-1.8369701987210297e-16,-1,1,-1.8369701987210297e-16,-1102.779296875,3402.6666666666665) translate(719.2744140625 25.0478515625)"/><use xlink:href="#c" transform="matrix(-1.8369701987210297e-16,-1,1,-1.8369701987210297e-16,-1102.779296875,3402.6666666666665) translate(745.8525390625 25.0478515625)"/><use xlink:href="#d" transform="matrix(-1.8369701987210297e-16,-1,1,-1.8369701987210297e-16,-1102.779296875,3402.6666666666665) translate(848.623046875 25.0478515625)"/><use xlink:href="#e" transform="matrix(-1.8369701987210297e-16,-1,1,-1.8369701987210297e-16,-1102.779296875,3402.6666666666665) translate(882.2763671875 25.0478515625)"/><use xlink:href="#b" transform="matrix(-1.8369701987210297e-16,-1,1,-1.8369701987210297e-16,-1102.779296875,3402.6666666666665) translate(931.908203125 25.0478515625)"/><use xlink:href="#f" transform="matrix(-1.8369701987210297e-16,-1,1,-1.8369701987210297e-16,-1102.779296875,3402.6666666666665) translate(958.486328125 25.0478515625)"/><use xlink:href="#g" transform="matrix(-1.8369701987210297e-16,-1,1,-1.8369701987210297e-16,-1102.779296875,3402.6666666666665) translate(1026.654296875 25.0478515625)"/><use xlink:href="#h" transform="matrix(-1.8369701987210297e-16,-1,1,-1.8369701987210297e-16,-1066.0000000000002,2182.6666666666665) translate(192.2255859375 25.0478515625)"/><use xlink:href="#i" transform="matrix(-1.8369701987210297e-16,-1,1,-1.8369701987210297e-16,-1066,3402.6666666666665) translate(577.2783203125 25.0478515625)"/><path d="M-908.77 1908.9c0 16.63-13.43 30.13-30 30.13s-30-13.5-30-30.14c0-16.66 13.43-30.15 30-30.15s30 13.5 30 30.14z" stroke="#000" stroke-width="2" fill="#fff"/><path d="M-911.77 1908.9c0 14.98-12.08 27.13-27 27.13-14.9 0-27-12.15-27-27.14 0-15 12.1-27.15 27-27.15 14.92 0 27 12.15 27 27.14z" stroke="#000" stroke-width="2" fill="#fff"/><path d="M-958.77 1901.35h28v-7.54l12 15.1-12 15.07v-7.54h-28z" stroke="#000" stroke-width="2" fill="#fff"/><use xlink:href="#j" transform="matrix(1,0,0,1,-968.76597473947,1941.0268805806422) translate(11.9677734375 17.4375)"/><use xlink:href="#k" transform="matrix(1,0,0,1,-968.76597473947,1941.0268805806422) translate(-6.68994140625 43.572656249999994)"/><path d="M-768.77 1878.75h220v80.37h-220z" stroke="#000" stroke-width="2" fill="#fff"/><use xlink:href="#l" transform="matrix(1,0,0,1,-768.76597473947,1878.7502269032234) translate(36.89318359375 33.890625)"/><use xlink:href="#m" transform="matrix(1,0,0,1,-768.76597473947,1878.7502269032234) translate(104.56896484375001 33.890625)"/><use xlink:href="#n" transform="matrix(1,0,0,1,-768.76597473947,1878.7502269032234) translate(119.73888671875001 33.890625)"/><use xlink:href="#o" transform="matrix(1,0,0,1,-768.76597473947,1878.7502269032234) translate(61.150996093749995 60.025781249999994)"/><path d="M-458.77 1918.93l37.5-37.67 37.5 37.67-37.5 37.68z" stroke="#000" stroke-width="2" fill="#fff"/><use xlink:href="#p" transform="matrix(1,0,0,1,-458.76597473947004,1956.6075712365562) translate(17.126953125 17.4375)"/><use xlink:href="#q" transform="matrix(1,0,0,1,-458.76597473947004,1956.6075712365562) translate(9.26953125 43.572656249999994)"/><path d="M-907.26 1908.9h121.1" stroke="#333" fill="none"/><path d="M-907.25 1909.36h-.55l.04-.45-.02-.5h.53z" stroke="#333" stroke-width=".05" fill="#333"/><path d="M-771.38 1908.9l-14.27 4.62v-9.27z" stroke="#333" fill="#333"/><path d="M-421.27 1958.53v354.27a12 12 0 0 0 12 12h1609.1" stroke="#333" fill="none"/><path d="M-420.8 1958.54h-.94v-1l.47.5.48-.5z" stroke="#333" stroke-width=".05" fill="#333"/><path d="M1214.6 2324.8l-14.26 4.64v-9.27z" stroke="#333" fill="#333"/><use xlink:href="#r" transform="matrix(1,0,0,1,-365.0681919931933,2328.8020745806375) translate(0.0049999999999954525 17.4375)"/><use xlink:href="#s" transform="matrix(1,0,0,1,-365.0681919931933,2328.8020745806375) translate(5.0674999999999955 17.4375)"/><use xlink:href="#t" transform="matrix(1,0,0,1,-365.0681919931933,2328.8020745806375) translate(68.1993359375 17.4375)"/><path d="M-421.27 1879.34v-73.98a12 12 0 0 1 12-12h563.12" stroke="#333" fill="none"/><path d="M-420.8 1880.32l-.47-.48-.47.48v-1h.95z" stroke="#333" stroke-width=".05" fill="#333"/><path d="M168.62 1793.36l-14.27 4.63v-9.28z" stroke="#333" fill="#333"/><use xlink:href="#u" transform="matrix(1,0,0,1,-225.9364729654215,1767.5790039852136) translate(0.009999999999990905 17.4375)"/><use xlink:href="#m" transform="matrix(1,0,0,1,-225.9364729654215,1767.5790039852136) translate(57.11253906249999 17.4375)"/><use xlink:href="#v" transform="matrix(1,0,0,1,-225.9364729654215,1767.5790039852136) translate(72.28246093749999 17.4375)"/><use xlink:href="#w" transform="matrix(1,0,0,1,-225.9364729654215,1767.5790039852136) translate(124.88499999999999 17.4375)"/><path d="M231.23 1793.36c0 16.64-13.43 30.14-30 30.14-16.56 0-30-13.5-30-30.14 0-16.65 13.44-30.14 30-30.14 16.57 0 30 13.5 30 30.14z" stroke="#000" stroke-width="2" fill="#fff"/><path d="M228.23 1793.36c0 15-12.08 27.14-27 27.14-14.9 0-27-12.15-27-27.14 0-15 12.1-27.14 27-27.14 14.92 0 27 12.15 27 27.14z" stroke="#000" stroke-width="2" fill="#fff"/><path d="M181.23 1785.82h28v-7.54l12 15.08-12 15.08v-7.54h-28z" stroke="#000" stroke-width="2" fill="#fff"/><use xlink:href="#j" transform="matrix(1,0,0,1,171.23402526052996,1825.496627698923) translate(11.9677734375 17.4375)"/><use xlink:href="#k" transform="matrix(1,0,0,1,171.23402526052996,1825.496627698923) translate(-6.68994140625 43.572656249999994)"/><path d="M1217.22 2284.62h220V2365h-220z" stroke="#000" stroke-width="2" fill="#fff"/><use xlink:href="#x" transform="matrix(1,0,0,1,1217.220703125,2284.6176387956916) translate(16.058710937500003 33.890625)"/><use xlink:href="#y" transform="matrix(1,0,0,1,1217.220703125,2284.6176387956916) translate(90.29992187500001 33.890625)"/><use xlink:href="#z" transform="matrix(1,0,0,1,1217.220703125,2284.6176387956916) translate(182.4356640625 33.890625)"/><use xlink:href="#A" transform="matrix(1,0,0,1,1217.220703125,2284.6176387956916) translate(77.48986328125001 60.025781249999994)"/><path d="M1978.72 2305.7h73.13" stroke="#333" fill="none"/><path d="M1978.73 2306.2h-.5v-.96h.5z" stroke="#333" stroke-width=".05" fill="#333"/><path d="M2066.62 2305.7l-14.27 4.64v-9.27z" stroke="#333" fill="#333"/><path d="M1754.13 2543.3h131.1a12 12 0 0 0 12-12v-147.93" stroke="#333" fill="none"/><path d="M1754.14 2543.78h-.98l.47-.48-.47-.47h.98z" stroke="#333" stroke-width=".05" fill="#333"/><path d="M1897.22 2368.6l4.64 14.27h-9.27z" stroke="#333" fill="#333"/><use xlink:href="#B" transform="matrix(1,0,0,1,1749.189535140384,2491.3904910362808) translate(6.522089843749999 17.4375)"/><use xlink:href="#C" transform="matrix(1,0,0,1,1749.189535140384,2491.3904910362808) translate(0.004999999999999005 43.572656249999994)"/><path d="M-658.3 3278.2l.15 1.83.42 1.76.7 1.66.94 1.54 1.2 1.38 1.36 1.17 1.54.95 1.67.7 1.76.4 1.82.15H689.73v.95h-1336.5l-1.95-.15-1.9-.46-1.8-.76-1.68-1.02-1.5-1.27-1.26-1.5-1.02-1.66-.75-1.82-.46-1.9-.14-1.93v-838.37h.95z" stroke="#333" stroke-width=".05" fill="#333"/><path d="M690.23 3290.7h-.5v-.95h.5z" fill="#333"/><path stroke="#333" stroke-width=".05" fill="#333"/><path d="M-654.13 2439.38h-9.27l4.63-14.27z" fill="#333"/><path d="M-653.48 2439.86h-10.57l5.28-16.28zm-9.27-.95h7.97l-4-12.25z" stroke="#333" stroke-width=".05" fill="#333"/><path d="M2069.23 2245.43h160V2366h-160z" stroke="#000" stroke-width="2" fill="#fff"/><use xlink:href="#D" transform="matrix(1,0,0,1,2069.23402526053,2245.433203440854) translate(50.306757812499995 41.0703125)"/><use xlink:href="#E" transform="matrix(1,0,0,1,2069.23402526053,2245.433203440854) translate(16.446894531250003 67.20546875)"/><use xlink:href="#F" transform="matrix(1,0,0,1,2069.23402526053,2245.433203440854) translate(122.43419921875001 67.20546875)"/><use xlink:href="#G" transform="matrix(1,0,0,1,2069.23402526053,2245.433203440854) translate(19.966914062500003 93.34062499999999)"/><use xlink:href="#b" transform="matrix(1,0,0,1,2069.23402526053,2245.433203440854) translate(66.32921875 93.34062499999999)"/><use xlink:href="#H" transform="matrix(1,0,0,1,2069.23402526053,2245.433203440854) translate(92.90734375 93.34062499999999)"/><path d="M-768.77 2342.13h220v80.37h-220z" stroke="#000" stroke-width="2" fill="#fff"/><use xlink:href="#I" transform="matrix(1,0,0,1,-768.76597473947,2342.1270020483803) translate(26.921992187500003 33.890625)"/><use xlink:href="#J" transform="matrix(1,0,0,1,-768.76597473947,2342.1270020483803) translate(114.38195312500001 33.890625)"/><use xlink:href="#o" transform="matrix(1,0,0,1,-768.76597473947,2342.1270020483803) translate(61.150996093749995 60.025781249999994)"/><path d="M1604.5 2531.3l.14 1.8.42 1.77.7 1.67.94 1.54 1.17 1.37 1.38 1.18 1.54.94 1.66.7 1.76.42 1.82.13h59.27v.95H1616l-1.93-.15-1.9-.46-1.8-.75-1.68-1.02-1.5-1.27-1.27-1.5-1.03-1.66-.74-1.8-.46-1.9-.15-1.95v-22.72h.95zm-55.88-65.38v-.95h31.83v.95z" stroke="#333" stroke-width=".05" fill="#333"/><path d="M1675.8 2543.3l.48.48h-.98v-.95h.98z" fill="#333"/><path stroke="#333" stroke-width=".05" fill="#333"/><path d="M1548.12 2470.08l-14.27-4.63 14.27-4.64z" fill="#333"/><path d="M1548.6 2470.74l-16.28-5.3 16.27-5.28zm-13.2-5.3l12.24 4v-7.97z" stroke="#333" stroke-width=".05" fill="#333"/><use xlink:href="#K" transform="matrix(1,0,0,1,1580.4540073958292,2460.6841728378895) translate(0.004999999999999005 17.4375)"/><use xlink:href="#L" transform="matrix(1,0,0,1,1580.4540073958292,2460.6841728378895) translate(8.244746093749999 43.572656249999994)"/><path d="M691.23 3250.04h220v80.37h-220z" stroke="#000" stroke-width="2" fill="#fff"/><use xlink:href="#x" transform="matrix(1,0,0,1,691.23402526053,3250.0440980645003) translate(23.916132812500003 33.890625)"/><use xlink:href="#M" transform="matrix(1,0,0,1,691.23402526053,3250.0440980645003) translate(98.15734375000001 33.890625)"/><use xlink:href="#z" transform="matrix(1,0,0,1,691.23402526053,3250.0440980645003) translate(174.5782421875 33.890625)"/><use xlink:href="#N" transform="matrix(1,0,0,1,691.23402526053,3250.0440980645003) translate(34.647578125 60.025781249999994)"/><use xlink:href="#O" transform="matrix(1,0,0,1,691.23402526053,3250.0440980645003) translate(124.97277343750001 60.025781249999994)"/><path d="M-421.27 1958.53v534.6a12 12 0 0 0 12 12h980.63" stroke="#333" fill="none"/><path d="M-420.8 1958.54h-.94v-1l.47.5.48-.5z" stroke="#333" stroke-width=".05" fill="#333"/><path d="M586.12 2505.13l-14.26 4.64v-9.27z" stroke="#333" fill="#333"/><use xlink:href="#P" transform="matrix(1,0,0,1,-389.3447709450753,2509.1325129469633) translate(0.0049999999999954525 17.4375)"/><use xlink:href="#t" transform="matrix(1,0,0,1,-389.3447709450753,2509.1325129469633) translate(92.7032421875 17.4375)"/><path d="M698.74 2453.4v-369.26a12 12 0 0 1 12-12h89.1" stroke="#333" fill="none"/><path d="M699.22 2453.9h-.95v-.5h.95z" stroke="#333" stroke-width=".05" fill="#333"/><path d="M814.6 2072.14l-14.26 4.63v-9.27z" stroke="#333" fill="#333"/><path d="M-547.27 1918.93h70.7" stroke="#333" fill="none"/><path d="M-547.25 1919.4h-.52v-.94h.52z" stroke="#333" stroke-width=".05" fill="#333"/><path d="M-461.8 1918.93l-14.26 4.64v-9.27z" stroke="#333" fill="#333"/><path d="M-658.77 2340.63V1976.5" stroke="#333" fill="none"/><path d="M-658.3 2341.13h-.94v-.52h.95z" stroke="#333" stroke-width=".05" fill="#333"/><path d="M-658.77 1961.74l4.64 14.26h-9.27z" stroke="#333" fill="#333"/><path d="M2230.73 2305.7h82.12" stroke="#333" fill="none"/><path d="M2230.75 2306.2h-.52v-.96h.52z" stroke="#333" stroke-width=".05" fill="#333"/><path d="M2327.62 2305.7l-14.27 4.64v-9.27z" stroke="#333" fill="#333"/><path d="M2330.23 2245.43h160V2366h-160z" stroke="#000" stroke-width="2" fill="#fff"/><use xlink:href="#Q" transform="matrix(1,0,0,1,2330.23402526053,2245.433203440854) translate(18.916621093750003 56.1953125)"/><use xlink:href="#R" transform="matrix(1,0,0,1,2330.23402526053,2245.433203440854) translate(69.42736328125 56.1953125)"/><use xlink:href="#S" transform="matrix(1,0,0,1,2330.23402526053,2245.433203440854) translate(119.57775390625 56.1953125)"/><use xlink:href="#T" transform="matrix(1,0,0,1,2330.23402526053,2245.433203440854) translate(24.137324218749995 77.974609375)"/><path d="M2410.7 3278.25l-.14 1.93-.46 1.9-.75 1.8-1.02 1.68-1.27 1.5-1.5 1.26-1.66 1.02-1.8.75-1.9.45-1.95.15H928.62v-.95h1469.6l1.82-.14 1.76-.4 1.67-.7 1.54-.95 1.38-1.17 1.18-1.38.94-1.54.7-1.67.42-1.77.14-1.82v-910.7h.95z" stroke="#333" stroke-width=".05" fill="#333"/><path d="M2410.7 2367.5h-.94v-.5h.95z" fill="#333"/><path stroke="#333" stroke-width=".05" fill="#333"/><path d="M928.12 3294.86l-14.27-4.63 14.27-4.64z" fill="#333"/><path d="M928.6 3295.52l-16.28-5.3 16.27-5.28zm-13.2-5.3l12.24 4v-7.97z" stroke="#333" stroke-width=".05" fill="#333"/><path d="M1477.22 2025.84h220v80.37h-220z" stroke="#000" stroke-width="2" fill="#fff"/><use xlink:href="#l" transform="matrix(1,0,0,1,1477.220703125,2025.8395409757372) translate(25.704707031250003 33.890625)"/><use xlink:href="#U" transform="matrix(1,0,0,1,1477.220703125,2025.8395409757372) translate(93.38048828125001 33.890625)"/><use xlink:href="#V" transform="matrix(1,0,0,1,1477.220703125,2025.8395409757372) translate(47.25548828125 60.025781249999994)"/><use xlink:href="#W" transform="matrix(1,0,0,1,1477.220703125,2025.8395409757372) translate(100.60509765625 60.025781249999994)"/><path d="M817.22 2031.95h220v80.37h-220z" stroke="#000" stroke-width="2" fill="#fff"/><use xlink:href="#l" transform="matrix(1,0,0,1,817.220703125,2031.9533883333302) translate(39.31017578125 33.890625)"/><use xlink:href="#X" transform="matrix(1,0,0,1,817.220703125,2031.9533883333302) translate(106.98595703125001 33.890625)"/><use xlink:href="#z" transform="matrix(1,0,0,1,817.220703125,2031.9533883333302) translate(159.18419921875 33.890625)"/><use xlink:href="#Y" transform="matrix(1,0,0,1,817.220703125,2031.9533883333302) translate(34.13341796875 60.025781249999994)"/><use xlink:href="#m" transform="matrix(1,0,0,1,817.220703125,2031.9533883333302) translate(121.97130859375001 60.025781249999994)"/><use xlink:href="#Z" transform="matrix(1,0,0,1,817.220703125,2031.9533883333302) translate(137.14123046875 60.025781249999994)"/><path d="M-421.27 1958.53v777.2a12 12 0 0 0 12 12H33.85" stroke="#333" fill="none"/><path d="M-420.8 1958.54h-.94v-1l.47.5.48-.5z" stroke="#333" stroke-width=".05" fill="#333"/><path d="M48.62 2747.74l-14.27 4.63v-9.27z" stroke="#333" fill="#333"/><use xlink:href="#aa" transform="matrix(1,0,0,1,-390.75353309910713,2751.7386507526776) translate(0.0049999999999954525 17.4375)"/><use xlink:href="#t" transform="matrix(1,0,0,1,-390.75353309910713,2751.7386507526776) translate(71.9258984375 17.4375)"/><path d="M-128.77 3008.94h160v100.46h-160z" stroke="#000" stroke-width="2" fill="#fff"/><use xlink:href="#ab" transform="matrix(1,0,0,1,-128.76597473947004,3008.937483354826) translate(22.937617187500003 30.8515625)"/><use xlink:href="#ac" transform="matrix(1,0,0,1,-128.76597473947004,3008.937483354826) translate(76.190546875 30.8515625)"/><use xlink:href="#z" transform="matrix(1,0,0,1,-128.76597473947004,3008.937483354826) translate(115.5567578125 30.8515625)"/><use xlink:href="#ad" transform="matrix(1,0,0,1,-128.76597473947004,3008.937483354826) translate(31.150996093749995 56.986718749999994)"/><use xlink:href="#ae" transform="matrix(1,0,0,1,-128.76597473947004,3008.937483354826) translate(36.841914062499995 83.12187499999999)"/><path d="M51.23 2687.46h250V2808h-250z" stroke="#000" stroke-width="2" fill="#fff"/><use xlink:href="#x" transform="matrix(1,0,0,1,51.23402526052996,2687.4619970752588) translate(31.058710937500003 53.83203125)"/><use xlink:href="#y" transform="matrix(1,0,0,1,51.23402526052996,2687.4619970752588) translate(105.29992187500001 53.83203125)"/><use xlink:href="#z" transform="matrix(1,0,0,1,51.23402526052996,2687.4619970752588) translate(197.4356640625 53.83203125)"/><use xlink:href="#af" transform="matrix(1,0,0,1,51.23402526052996,2687.4619970752588) translate(12.254511718750004 79.9671875)"/><use xlink:href="#ag" transform="matrix(1,0,0,1,51.23402526052996,2687.4619970752588) translate(113.46935546875001 79.9671875)"/><use xlink:href="#o" transform="matrix(1,0,0,1,51.23402526052996,2687.4619970752588) translate(140.04748046875 79.9671875)"/><path d="M231.23 2030.7h220v80.37h-220z" stroke="#000" stroke-width="2" fill="#fff"/><use xlink:href="#l" transform="matrix(1,0,0,1,231.23402526052996,2030.69762471505) translate(6.214960937500004 33.890625)"/><use xlink:href="#ah" transform="matrix(1,0,0,1,231.23402526052996,2030.69762471505) translate(73.89074218750001 33.890625)"/><use xlink:href="#ag" transform="matrix(1,0,0,1,231.23402526052996,2030.69762471505) translate(94.33410156250001 33.890625)"/><use xlink:href="#ai" transform="matrix(1,0,0,1,231.23402526052996,2030.69762471505) translate(120.91222656250001 33.890625)"/><use xlink:href="#aj" transform="matrix(1,0,0,1,231.23402526052996,2030.69762471505) translate(203.6876171875 33.890625)"/><use xlink:href="#ak" transform="matrix(1,0,0,1,231.23402526052996,2030.69762471505) translate(76.57580078125001 60.025781249999994)"/><path d="M1198.27 2896.9H548.14v-.94h650.13zm951.44-12.45l-.14 1.94-.46 1.9-.75 1.8-1.02 1.67-1.27 1.5-1.5 1.26-1.66 1.02-1.8.75-1.9.46-1.95.15h-760.9v-.94h760.87l1.82-.14 1.76-.43 1.67-.7 1.54-.94 1.38-1.18 1.18-1.37.94-1.53.7-1.67.42-1.76.14-1.82v-501.05h.95z" stroke="#333" stroke-width=".05" fill="#333"/><path d="M548.16 2896.9h-1l.5-.46-.5-.48h1z" fill="#333"/><path stroke="#333" stroke-width=".05" fill="#333"/><path d="M2153.87 2382.87h-9.27l4.63-14.26z" fill="#333"/><path d="M2154.52 2383.34h-10.57l5.28-16.27zm-9.27-.95h7.97l-4-12.26z" stroke="#333" stroke-width=".05" fill="#333"/><use xlink:href="#al" transform="matrix(1,0,0,1,1198.2695345167313,2885.54620121127) translate(0.0049999999999954525 17.4375)"/><use xlink:href="#X" transform="matrix(1,0,0,1,1198.2695345167313,2885.54620121127) translate(29.720820312499995 17.4375)"/><use xlink:href="#am" transform="matrix(1,0,0,1,1198.2695345167313,2885.54620121127) translate(81.9190625 17.4375)"/><use xlink:href="#an" transform="matrix(1,0,0,1,1198.2695345167313,2885.54620121127) translate(117.9102734375 17.4375)"/><path d="M588.74 2454.9h220v100.46h-220z" stroke="#000" stroke-width="2" fill="#fff"/><use xlink:href="#x" transform="matrix(1,0,0,1,588.7406863282949,2454.901968215781) translate(16.058710937500003 30.8515625)"/><use xlink:href="#y" transform="matrix(1,0,0,1,588.7406863282949,2454.901968215781) translate(90.29992187500001 30.8515625)"/><use xlink:href="#z" transform="matrix(1,0,0,1,588.7406863282949,2454.901968215781) translate(182.4356640625 30.8515625)"/><use xlink:href="#ao" transform="matrix(1,0,0,1,588.7406863282949,2454.901968215781) translate(40.78234375 56.986718749999994)"/><use xlink:href="#z" transform="matrix(1,0,0,1,588.7406863282949,2454.901968215781) translate(157.71203125 56.986718749999994)"/><use xlink:href="#o" transform="matrix(1,0,0,1,588.7406863282949,2454.901968215781) translate(61.150996093749995 83.12187499999999)"/><path d="M1518.92 2680.8h-364.8v-.94h364.8zm630.8-12.44l-.16 1.93-.46 1.9-.75 1.8-1.02 1.67-1.27 1.5-1.5 1.26-1.66 1.03-1.8.74-1.9.46-1.95.16H1697v-.96h440.22l1.82-.14 1.76-.42 1.67-.7 1.54-.94 1.38-1.17 1.18-1.4.94-1.53.7-1.67.42-1.76.14-1.82v-284.95h.95z" stroke="#333" stroke-width=".05" fill="#333"/><path d="M1154.14 2680.8h-.98l.47-.46-.47-.48h.98z" fill="#333"/><path stroke="#333" stroke-width=".05" fill="#333"/><path d="M2153.87 2382.87h-9.27l4.63-14.26z" fill="#333"/><path d="M2154.52 2383.34h-10.57l5.28-16.27zm-9.27-.95h7.97l-4-12.26z" stroke="#333" stroke-width=".05" fill="#333"/><use xlink:href="#al" transform="matrix(1,0,0,1,1518.9194295022899,2669.449926777553) translate(0.0049999999999954525 17.4375)"/><use xlink:href="#X" transform="matrix(1,0,0,1,1518.9194295022899,2669.449926777553) translate(29.720820312499995 17.4375)"/><use xlink:href="#am" transform="matrix(1,0,0,1,1518.9194295022899,2669.449926777553) translate(81.9190625 17.4375)"/><use xlink:href="#an" transform="matrix(1,0,0,1,1518.9194295022899,2669.449926777553) translate(117.9102734375 17.4375)"/><path d="M1677.22 2543.3l37.5-37.67 37.5 37.67-37.5 37.68z" stroke="#000" stroke-width="2" fill="#fff"/><use xlink:href="#ap" transform="matrix(1,0,0,1,1677.220703125,2580.9778527096673) translate(12.50830078125 17.4375)"/><path d="M1327.22 2283.12v-205.1a12 12 0 0 1 12-12h120.62" stroke="#333" fill="none"/><path d="M1327.7 2283.62h-.95v-.5h.95z" stroke="#333" stroke-width=".05" fill="#333"/><path d="M1474.6 2066.02l-14.26 4.64v-9.27z" stroke="#333" fill="#333"/><path d="M1371.23 2425.26h160v80.37h-160z" stroke="#000" stroke-width="2" fill="#fff"/><use xlink:href="#aq" transform="matrix(1,0,0,1,1371.23402526053,2425.2631640430022) translate(7.205195312500004 33.890625)"/><use xlink:href="#ar" transform="matrix(1,0,0,1,1371.23402526053,2425.2631640430022) translate(81.44640625000001 33.890625)"/><use xlink:href="#b" transform="matrix(1,0,0,1,1371.23402526053,2425.2631640430022) translate(45.91662109375 60.025781249999994)"/><use xlink:href="#as" transform="matrix(1,0,0,1,1371.23402526053,2425.2631640430022) translate(72.49474609375 60.025781249999994)"/><path d="M1077.22 2680.34l37.5-37.67 37.5 37.67-37.5 37.67z" stroke="#000" stroke-width="2" fill="#fff"/><g><use xlink:href="#ap" transform="matrix(1,0,0,1,1077.220703125,2718.01248376344) translate(12.50830078125 17.4375)"/></g><path d="M728.74 2600.8h160v80.38h-160z" stroke="#000" stroke-width="2" fill="#fff"/><g><use xlink:href="#aq" transform="matrix(1,0,0,1,728.7406863282949,2600.8143074139693) translate(7.205195312500004 33.890625)"/><use xlink:href="#ar" transform="matrix(1,0,0,1,728.7406863282949,2600.8143074139693) translate(81.44640625000001 33.890625)"/><use xlink:href="#b" transform="matrix(1,0,0,1,728.7406863282949,2600.8143074139693) translate(45.91662109375 60.025781249999994)"/><use xlink:href="#as" transform="matrix(1,0,0,1,728.7406863282949,2600.8143074139693) translate(72.49474609375 60.025781249999994)"/></g><path d="M803.4 2747.4l.14 1.83.43 1.76.7 1.66.93 1.54 1.18 1.38 1.37 1.17 1.55.95 1.67.7 1.75.4 1.83.15h287.75l1.82-.14 1.76-.4 1.67-.7 1.54-.95 1.37-1.17 1.17-1.38.95-1.54.68-1.67.42-1.77.15-1.82v-27.47h.95v27.52l-.16 1.93-.45 1.9-.76 1.8-1.03 1.68-1.26 1.5-1.5 1.26-1.65 1.03-1.82.75-1.9.45-1.94.16H814.9l-1.92-.15-1.9-.45-1.82-.75-1.67-1.03-1.5-1.27-1.27-1.5-1.02-1.66-.74-1.82-.46-1.9-.15-1.93v-48.88h.95z" stroke="#333" stroke-width=".05" fill="#333"/><path d="M1115.2 2719.94h-.95v-1l.47.5.48-.5z" fill="#333"/><path stroke="#333" stroke-width=".05" fill="#333"/><path d="M807.56 2698.07h-9.27l4.63-14.27z" fill="#333"/><path d="M808.22 2698.54h-10.58l5.3-16.28zm-9.27-.95h7.96l-3.97-12.26z" stroke="#333" stroke-width=".05" fill="#333"/><g><use xlink:href="#B" transform="matrix(1,0,0,1,902.7502670223636,2763.4299613632156) translate(13.887324218750003 17.4375)"/><use xlink:href="#at" transform="matrix(1,0,0,1,902.7502670223636,2763.4299613632156) translate(0.005000000000002558 43.572656249999994)"/></g><path d="M471.23 2896.44l37.5-37.68 37.5 37.68-37.5 37.67z" stroke="#000" stroke-width="2" fill="#fff"/><g><use xlink:href="#ap" transform="matrix(1,0,0,1,471.23402526052996,2934.1087581971565) translate(12.50830078125 17.4375)"/></g><path d="M96.23 2856.25h160v80.37h-160z" stroke="#000" stroke-width="2" fill="#fff"/><g><use xlink:href="#aq" transform="matrix(1,0,0,1,96.23402526052996,2856.251413863824) translate(7.205195312500004 33.890625)"/><use xlink:href="#ar" transform="matrix(1,0,0,1,96.23402526052996,2856.251413863824) translate(81.44640625000001 33.890625)"/><use xlink:href="#b" transform="matrix(1,0,0,1,96.23402526052996,2856.251413863824) translate(45.91662109375 60.025781249999994)"/><use xlink:href="#as" transform="matrix(1,0,0,1,96.23402526052996,2856.251413863824) translate(72.49474609375 60.025781249999994)"/></g><path d="M326.08 2896.9h-52.46v-.94h52.46zm143.24 0h-68.34v-.94h68.34z" stroke="#333" stroke-width=".05" fill="#333"/><path d="M469.82 2896.44l.48.47h-1v-.94h1z" fill="#333"/><path stroke="#333" stroke-width=".05" fill="#333"/><path d="M273.12 2901.07l-14.27-4.63 14.27-4.64z" fill="#333"/><path d="M273.6 2901.72l-16.3-5.28 16.3-5.3zm-13.2-5.28l12.24 3.98v-7.97z" stroke="#333" stroke-width=".05" fill="#333"/><g><use xlink:href="#B" transform="matrix(1,0,0,1,326.0783442448443,2872.4786230862696) translate(13.887324218750003 17.4375)"/><use xlink:href="#at" transform="matrix(1,0,0,1,326.0783442448443,2872.4786230862696) translate(0.005000000000002558 43.572656249999994)"/></g><path d="M452.73 2070.88h44a12 12 0 0 1 12 12v758.08" stroke="#333" fill="none"/><path d="M452.75 2071.36h-.52v-.95h.52z" stroke="#333" stroke-width=".05" fill="#333"/><path d="M508.73 2855.73l-4.63-14.27h9.27z" stroke="#333" fill="#333"/><path d="M176.23 2854.75v-29.35" stroke="#333" fill="none"/><path d="M176.7 2855.25h-.94v-.5h.95z" stroke="#333" stroke-width=".05" fill="#333"/><path d="M176.23 2810.63l4.64 14.27h-9.27z" stroke="#333" fill="#333"/><path d="M1038.72 2072.14h59.02a12 12 0 0 1 12 12v514.62a2.5 2.5 0 0 0 2.5 2.5 2.5 2.5 0 0 1 2.48 2.48v21.13" stroke="#333" fill="none"/><path d="M1038.73 2072.6h-.5v-.94h.5z" stroke="#333" stroke-width=".05" fill="#333"/><path d="M1114.72 2639.63l-4.63-14.27h9.26z" stroke="#333" fill="#333"/><path d="M1369.73 2465.45h-48.83a12 12 0 0 1-12-12v-71.08" stroke="#333" fill="none"/><path d="M1370.23 2465.92h-.5v-.95h.5z" stroke="#333" stroke-width=".05" fill="#333"/><path d="M1308.9 2367.6l4.64 14.27h-9.27z" stroke="#333" fill="#333"/><path d="M1587.7 2293.7l.14 1.8.42 1.77.7 1.67.94 1.55 1.17 1.36 1.38 1.17 1.54.95 1.66.7 1.76.4 1.82.16h103.5l1.93.15 1.9.45 1.82.74 1.65 1.02 1.5 1.27 1.26 1.48 1.04 1.67.75 1.8.44 1.9.16 1.94v170.13h-.95v-170.1l-.15-1.82-.42-1.75-.7-1.67-.94-1.54-1.17-1.38-1.38-1.17-1.55-.96-1.67-.7-1.76-.4-1.82-.15h-103.5l-1.93-.17-1.9-.45-1.8-.75-1.68-1.03-1.5-1.27-1.27-1.5-1.03-1.65-.74-1.8-.46-1.92-.15-1.93V2107.7h.95z" stroke="#333" stroke-width=".05" fill="#333"/><path d="M1587.7 2107.72h-.95v-.5h.95z" fill="#333"/><path stroke="#333" stroke-width=".05" fill="#333"/><path d="M1714.72 2502.6l-4.63-14.27h9.26z" fill="#333"/><path d="M1714.72 2504.13l-5.3-16.27h10.6zm-3.98-15.32l3.98 12.26 3.98-12.25z" stroke="#333" stroke-width=".05" fill="#333"/><path d="M727.24 2641h-34.5a12 12 0 0 1-12-12v-56.25" stroke="#333" fill="none"/><path d="M727.74 2641.47h-.5v-.95h.5z" stroke="#333" stroke-width=".05" fill="#333"/><path d="M680.74 2557.98l4.64 14.27h-9.27z" stroke="#333" fill="#333"/><path d="M176.23 2685.96v-603.08a12 12 0 0 1 12-12h25.62" stroke="#333" fill="none"/><path d="M176.7 2686.46h-.94v-.5h.95z" stroke="#333" stroke-width=".05" fill="#333"/><path d="M228.62 2070.88l-14.27 4.64v-9.27z" stroke="#333" fill="#333"/><path d="M-420.8 3047.15l.15 1.82.42 1.76.7 1.67.94 1.54 1.2 1.38 1.36 1.17 1.54.94 1.67.7 1.76.4 1.82.15h31.95v.94h-32l-1.92-.15-1.9-.47-1.8-.75-1.68-1.02-1.5-1.27-1.26-1.5-1.02-1.67-.75-1.8-.46-1.9-.14-1.94V1958.52h.95zm274.65 11.54v.94h-75.8v-.95z" stroke="#333" stroke-width=".05" fill="#333"/><path d="M-420.8 1958.54h-.94v-1l.47.5.48-.5z" fill="#333"/><path stroke="#333" stroke-width=".05" fill="#333"/><path d="M-131.38 3059.17l-14.27 4.63v-9.27z" fill="#333"/><path d="M-129.85 3059.17l-16.28 5.3v-10.6zm-15.33 3.98l12.26-3.98-12.26-3.98z" stroke="#333" stroke-width=".05" fill="#333"/><g><use xlink:href="#au" transform="matrix(1,0,0,1,-377.29918817890234,3048.2783796485082) translate(0.0049999999999954525 17.4375)"/><use xlink:href="#t" transform="matrix(1,0,0,1,-377.29918817890234,3048.2783796485082) translate(77.63 17.4375)"/></g><path d="M-599.47 3138.38l.15 1.82.42 1.76.7 1.67.94 1.54 1.17 1.38 1.4 1.17 1.53.95 1.67.7 1.76.4 1.82.15H-60.8l1.84-.14 1.76-.42 1.67-.7 1.54-.94 1.38-1.17 1.18-1.38.94-1.54.7-1.67.42-1.76.14-1.82v-27.48h.95v27.52l-.14 1.93-.46 1.9-.75 1.8-1.02 1.68-1.27 1.5-1.5 1.26-1.66 1-1.8.76-1.9.46-1.95.15h-527.2l-1.94-.15-1.9-.46-1.8-.75-1.67-1-1.5-1.28-1.26-1.5-1.03-1.66-.75-1.8-.46-1.9-.15-1.94v-698.54h.93z" stroke="#333" stroke-width=".05" fill="#333"/><path d="M-48.3 3110.9h-.94v-.5h.95z" fill="#333"/><path stroke="#333" stroke-width=".05" fill="#333"/><path d="M-595.3 2439.38h-9.28l4.64-14.27z" fill="#333"/><path d="M-594.65 2439.86h-10.58l5.3-16.28zm-9.27-.95h7.96l-3.98-12.25z" stroke="#333" stroke-width=".05" fill="#333"/><path d="M-658.77 1960.62v364.12" stroke="#333" fill="none"/><path d="M-658.3 1960.63h-.94v-.5h.95z" stroke="#333" stroke-width=".05" fill="#333"/><path d="M-658.77 2339.5l-4.63-14.26h9.27z" stroke="#333" fill="#333"/><path d="M1817.22 2245.43h160V2366h-160z" stroke="#000" stroke-width="2" fill="#fff"/><g><use xlink:href="#av" transform="matrix(1,0,0,1,1817.220703125,2245.433203440854) translate(14.218867187500004 41.0703125)"/><use xlink:href="#aw" transform="matrix(1,0,0,1,1817.220703125,2245.433203440854) translate(79.60070312500001 41.0703125)"/><use xlink:href="#S" transform="matrix(1,0,0,1,1817.220703125,2245.433203440854) translate(124.27550781250001 41.0703125)"/><use xlink:href="#ax" transform="matrix(1,0,0,1,1817.220703125,2245.433203440854) translate(12.461054687500004 67.20546875)"/><use xlink:href="#ay" transform="matrix(1,0,0,1,1817.220703125,2245.433203440854) translate(95.23644531250001 67.20546875)"/><use xlink:href="#az" transform="matrix(1,0,0,1,1817.220703125,2245.433203440854) translate(12.588496093750004 93.34062499999999)"/><use xlink:href="#b" transform="matrix(1,0,0,1,1817.220703125,2245.433203440854) translate(76.50255859375001 93.34062499999999)"/><use xlink:href="#aA" transform="matrix(1,0,0,1,1817.220703125,2245.433203440854) translate(103.08068359375001 93.34062499999999)"/></g><path d="M1075.3 2679.86v.95h-41.14v-.94zm-169.17-38.4v-.94h25.26v.95z" stroke="#333" stroke-width=".05" fill="#333"/><path d="M1075.8 2680.34l.48.47h-.98v-.94h.98z" fill="#333"/><path stroke="#333" stroke-width=".05" fill="#333"/><path d="M905.63 2645.63l-14.27-4.63 14.26-4.64z" fill="#333"/><path d="M906.1 2646.3l-16.28-5.3 16.28-5.3zm-13.2-5.3l12.25 3.98v-7.96z" stroke="#333" stroke-width=".05" fill="#333"/><g><use xlink:href="#aB" transform="matrix(1,0,0,1,931.3899551172118,2636.711932644484) translate(0.005000000000002558 17.4375)"/><use xlink:href="#aC" transform="matrix(1,0,0,1,931.3899551172118,2636.711932644484) translate(25.062617187500003 17.4375)"/><use xlink:href="#aD" transform="matrix(1,0,0,1,931.3899551172118,2636.711932644484) translate(4.417109375000003 43.572656249999994)"/></g><path d="M176.7 3010.65l.15 1.82.42 1.76.7 1.67.94 1.54 1.2 1.38 1.36 1.17 1.54.93 1.67.7 1.76.42 1.82.14h54.4v.94H188.2l-1.92-.15-1.9-.47-1.8-.75-1.68-1.02-1.5-1.27-1.26-1.5-1.02-1.67-.75-1.8-.46-1.9-.14-1.95V2954h.95zm332.5.03l-.14 1.94-.46 1.9-.75 1.8-1.02 1.68-1.27 1.5-1.5 1.26-1.66 1.02-1.8.75-1.9.46-1.95.14h-52.33v-.95h52.3l1.82-.15 1.75-.42 1.67-.7 1.54-.94 1.38-1.18 1.18-1.38.94-1.54.7-1.67.42-1.76.14-1.82v-74.62h.95z" stroke="#333" stroke-width=".05" fill="#333"/><path d="M509.2 2936.04h-.94v-1l.47.5.48-.5z" fill="#333"/><path stroke="#333" stroke-width=".05" fill="#333"/><path d="M180.87 2953.5h-9.27l4.63-14.26z" fill="#333"/><path d="M181.52 2953.98h-10.58l5.3-16.28zm-9.27-.95h7.97l-4-12.26z" stroke="#333" stroke-width=".05" fill="#333"/><g><use xlink:href="#aB" transform="matrix(1,0,0,1,242.6414018564758,3011.777018229166) translate(0.0049999999999954525 17.4375)"/><use xlink:href="#ai" transform="matrix(1,0,0,1,242.6414018564758,3011.777018229166) translate(25.062617187499995 17.4375)"/><use xlink:href="#aE" transform="matrix(1,0,0,1,242.6414018564758,3011.777018229166) translate(107.8380078125 17.4375)"/></g><defs><path d="M789 20c-398 0-667-293-667-764 0-473 273-766 655-766 315 0 558 198 612 487h-196c-61-191-204-311-415-311-262 0-471 207-471 590 0 380 208 588 482 588 249 0 420-165 425-427H828v-166h572v163c0 370-256 606-611 606" id="aF"/><path d="M628 24c-324 0-524-230-524-574 0-343 198-582 503-582 237 0 487 146 487 559v75H286c9 234 145 362 343 362 132 0 231-58 273-172l174 48C1024-91 857 24 628 24zM287-650h624c-17-190-120-322-304-322-192 0-309 151-320 322" id="aG"/><path d="M538 24C308 24 148-78 108-271l171-41c32 123 123 178 257 178 156 0 256-77 256-169 0-77-54-128-164-154l-186-44c-203-48-300-148-300-305 0-192 176-326 414-326 230 0 351 112 402 269l-163 42c-31-80-94-158-238-158-133 0-233 69-233 162 0 83 57 129 188 160l169 40c203 48 298 149 298 302 0 196-179 339-441 339" id="aH"/><path d="M598-1118v154H368v674c0 100 37 144 132 144 23 0 62-6 92-12L629-6c-37 13-88 20-134 20-193 0-307-107-307-290v-688H20v-154h168v-266h180v266h230" id="aI"/><path d="M158 0v-1118h180V0H158zm91-1301c-68 0-125-53-125-119s57-119 125-119c69 0 126 53 126 119s-57 119-126 119" id="aJ"/><path d="M613 24c-304 0-509-231-509-576 0-350 205-580 509-580 305 0 511 230 511 580 0 345-206 576-511 576zm0-161c226 0 329-195 329-415 0-222-103-419-329-419-223 0-326 196-326 419 0 220 103 415 326 415zm-79-1127l140-294h201l-194 294H534" id="aK"/><path d="M338-670V0H158v-1118h173l1 207c72-158 192-221 342-221 226 0 378 139 378 422V0H872v-695c0-172-96-275-252-275-161 0-282 109-282 300" id="aL"/><g id="a"><use transform="matrix(0.0087890625,0,0,0.0087890625,0,0)" xlink:href="#aF"/><use transform="matrix(0.0087890625,0,0,0.0087890625,13.4296875,0)" xlink:href="#aG"/><use transform="matrix(0.0087890625,0,0,0.0087890625,23.923828125,0)" xlink:href="#aH"/><use transform="matrix(0.0087890625,0,0,0.0087890625,33.4248046875,0)" xlink:href="#aI"/><use transform="matrix(0.0087890625,0,0,0.0087890625,39.3134765625,0)" xlink:href="#aJ"/><use transform="matrix(0.0087890625,0,0,0.0087890625,43.6728515625,0)" xlink:href="#aK"/><use transform="matrix(0.0087890625,0,0,0.0087890625,54.4658203125,0)" xlink:href="#aL"/></g><path d="M577 24c-279 0-473-224-473-580 0-354 195-576 474-576 218 0 287 134 324 193h14v-551h180V0H922v-173h-20C865-111 790 24 577 24zm27-161c203 0 314-172 314-421 0-247-108-413-314-413-212 0-317 181-317 413 0 235 108 421 317 421" id="aM"/><g id="b"><use transform="matrix(0.0087890625,0,0,0.0087890625,0,0)" xlink:href="#aM"/><use transform="matrix(0.0087890625,0,0,0.0087890625,11.021484375,0)" xlink:href="#aG"/></g><path d="M158 0v-1118h175l1 205c55-151 181-225 313-225 147 0 245 90 285 228 53-141 190-228 352-228 194 0 352 125 352 384V0h-181v-749c0-161-105-225-225-225-151 0-243 103-243 244V0H807v-767c0-124-93-207-219-207-131 0-250 92-250 270V0H158" id="aN"/><path d="M613 24c-304 0-509-231-509-576 0-350 205-580 509-580 216 0 392 114 453 309l-173 49c-33-115-133-197-280-197-223 0-326 196-326 419 0 220 103 415 326 415 150 0 252-85 285-206l172 49C1010-95 832 24 613 24" id="aO"/><path d="M613 24c-304 0-509-231-509-576 0-350 205-580 509-580 305 0 511 230 511 580 0 345-206 576-511 576zm0-161c226 0 329-195 329-415 0-222-103-419-329-419-223 0-326 196-326 419 0 220 103 415 326 415" id="aP"/><g id="c"><use transform="matrix(0.0087890625,0,0,0.0087890625,0,0)" xlink:href="#aN"/><use transform="matrix(0.0087890625,0,0,0.0087890625,15.767578125,0)" xlink:href="#aG"/><use transform="matrix(0.0087890625,0,0,0.0087890625,26.26171875,0)" xlink:href="#aM"/><use transform="matrix(0.0087890625,0,0,0.0087890625,37.283203125,0)" xlink:href="#aJ"/><use transform="matrix(0.0087890625,0,0,0.0087890625,41.642578125,0)" xlink:href="#aO"/><use transform="matrix(0.0087890625,0,0,0.0087890625,51.92578125,0)" xlink:href="#aJ"/><use transform="matrix(0.0087890625,0,0,0.0087890625,56.28515625,0)" xlink:href="#aP"/><use transform="matrix(0.0087890625,0,0,0.0087890625,67.078125,0)" xlink:href="#aL"/><use transform="matrix(0.0087890625,0,0,0.0087890625,77.712890625,0)" xlink:href="#aG"/><use transform="matrix(0.0087890625,0,0,0.0087890625,88.20703125,0)" xlink:href="#aH"/></g><path d="M158 418v-1536h174v179h20c37-59 106-193 324-193 279 0 474 222 474 576 0 356-194 580-473 580-213 0-288-135-325-197h-14v591H158zm492-555c209 0 317-186 317-421 0-232-105-413-317-413-206 0-314 166-314 413 0 249 111 421 314 421" id="aQ"/><path d="M158 0v-1118h174v172h12c41-113 157-188 290-188 26 0 70 2 91 3v181c-11-2-60-10-108-10-161 0-279 109-279 260V0H158" id="aR"/><g id="d"><use transform="matrix(0.0087890625,0,0,0.0087890625,0,0)" xlink:href="#aQ"/><use transform="matrix(0.0087890625,0,0,0.0087890625,11.021484375,0)" xlink:href="#aP"/><use transform="matrix(0.0087890625,0,0,0.0087890625,21.814453125,0)" xlink:href="#aR"/></g><path d="M471 26C259 26 90-98 90-318c0-256 228-303 435-329 202-27 287-16 287-108 0-139-79-219-234-219-161 0-248 86-283 164l-173-57c86-203 278-265 451-265 150 0 419 46 419 395V0H815v-152h-12C765-73 660 26 471 26zm31-159c199 0 310-134 310-271v-155c-30 35-226 55-295 64-131 17-246 59-246 186 0 116 97 176 231 176" id="aS"/><g id="e"><use transform="matrix(0.0087890625,0,0,0.0087890625,0,0)" xlink:href="#aQ"/><use transform="matrix(0.0087890625,0,0,0.0087890625,11.197265625,0)" xlink:href="#aS"/><use transform="matrix(0.0087890625,0,0,0.0087890625,21.3046875,0)" xlink:href="#aR"/><use transform="matrix(0.0087890625,0,0,0.0087890625,28.3623046875,0)" xlink:href="#aI"/><use transform="matrix(0.0087890625,0,0,0.0087890625,34.0751953125,0)" xlink:href="#aG"/></g><path d="M537 14c-226 0-379-139-379-422v-710h180v695c0 172 97 275 253 275 160 0 281-109 281-300v-670h181V0H879v-209C806-46 684 14 537 14" id="aT"/><g id="f"><use transform="matrix(0.0087890625,0,0,0.0087890625,0,0)" xlink:href="#aT"/><use transform="matrix(0.0087890625,0,0,0.0087890625,10.6435546875,0)" xlink:href="#aH"/><use transform="matrix(0.0087890625,0,0,0.0087890625,20.14453125,0)" xlink:href="#aT"/><use transform="matrix(0.0087890625,0,0,0.0087890625,30.7880859375,0)" xlink:href="#aS"/><use transform="matrix(0.0087890625,0,0,0.0087890625,40.8955078125,0)" xlink:href="#aR"/><use transform="matrix(0.0087890625,0,0,0.0087890625,47.953125,0)" xlink:href="#aJ"/><use transform="matrix(0.0087890625,0,0,0.0087890625,52.3125,0)" xlink:href="#aP"/></g><path d="M338-1490V0H158v-1490h180" id="aU"/><g id="g"><use transform="matrix(0.0087890625,0,0,0.0087890625,0,0)" xlink:href="#aG"/><use transform="matrix(0.0087890625,0,0,0.0087890625,10.494140625,0)" xlink:href="#aN"/><use transform="matrix(0.0087890625,0,0,0.0087890625,26.26171875,0)" xlink:href="#aQ"/><use transform="matrix(0.0087890625,0,0,0.0087890625,37.283203125,0)" xlink:href="#aU"/><use transform="matrix(0.0087890625,0,0,0.0087890625,41.642578125,0)" xlink:href="#aG"/><use transform="matrix(0.0087890625,0,0,0.0087890625,52.3125,0)" xlink:href="#aS"/><use transform="matrix(0.0087890625,0,0,0.0087890625,62.419921875,0)" xlink:href="#aM"/><use transform="matrix(0.0087890625,0,0,0.0087890625,73.44140625,0)" xlink:href="#aP"/></g><path d="M934 0v166H0V0h934" id="aV"/><g id="h"><use transform="matrix(0.0087890625,0,0,0.0087890625,0,0)" xlink:href="#aT"/><use transform="matrix(0.0087890625,0,0,0.0087890625,10.6435546875,0)" xlink:href="#aH"/><use transform="matrix(0.0087890625,0,0,0.0087890625,20.14453125,0)" xlink:href="#aT"/><use transform="matrix(0.0087890625,0,0,0.0087890625,30.7880859375,0)" xlink:href="#aS"/><use transform="matrix(0.0087890625,0,0,0.0087890625,40.8955078125,0)" xlink:href="#aR"/><use transform="matrix(0.0087890625,0,0,0.0087890625,47.953125,0)" xlink:href="#aJ"/><use transform="matrix(0.0087890625,0,0,0.0087890625,52.3125,0)" xlink:href="#aP"/><use transform="matrix(0.0087890625,0,0,0.0087890625,63.10546875,0)" xlink:href="#aV"/><use transform="matrix(0.0087890625,0,0,0.0087890625,71.314453125,0)" xlink:href="#aG"/><use transform="matrix(0.0087890625,0,0,0.0087890625,81.80859375,0)" xlink:href="#aN"/><use transform="matrix(0.0087890625,0,0,0.0087890625,97.576171875,0)" xlink:href="#aQ"/><use transform="matrix(0.0087890625,0,0,0.0087890625,108.59765625,0)" xlink:href="#aU"/><use transform="matrix(0.0087890625,0,0,0.0087890625,112.95703125,0)" xlink:href="#aG"/><use transform="matrix(0.0087890625,0,0,0.0087890625,123.626953125,0)" xlink:href="#aS"/><use transform="matrix(0.0087890625,0,0,0.0087890625,133.734375,0)" xlink:href="#aM"/><use transform="matrix(0.0087890625,0,0,0.0087890625,144.755859375,0)" xlink:href="#aP"/></g><g id="i"><use transform="matrix(0.0087890625,0,0,0.0087890625,0,0)" xlink:href="#aH"/><use transform="matrix(0.0087890625,0,0,0.0087890625,9.5009765625,0)" xlink:href="#aJ"/><use transform="matrix(0.0087890625,0,0,0.0087890625,13.8603515625,0)" xlink:href="#aH"/><use transform="matrix(0.0087890625,0,0,0.0087890625,23.361328125,0)" xlink:href="#aI"/><use transform="matrix(0.0087890625,0,0,0.0087890625,29.07421875,0)" xlink:href="#aG"/><use transform="matrix(0.0087890625,0,0,0.0087890625,39.568359375,0)" xlink:href="#aN"/><use transform="matrix(0.0087890625,0,0,0.0087890625,55.3359375,0)" xlink:href="#aS"/></g><path d="M180 0v-1490h270l367 940c28 72 75 218 110 339 35-117 81-264 110-339l362-940h271V0h-187c2-448-5-837 7-1287-157 497-311 829-483 1287H842C666-458 514-784 354-1284c12 438 5 843 7 1284H180" id="aW"/><g id="j"><use transform="matrix(0.0087890625,0,0,0.0087890625,0,0)" xlink:href="#aW"/><use transform="matrix(0.0087890625,0,0,0.0087890625,16.259765625,0)" xlink:href="#aG"/><use transform="matrix(0.0087890625,0,0,0.0087890625,26.75390625,0)" xlink:href="#aL"/><use transform="matrix(0.0087890625,0,0,0.0087890625,37.388671875,0)" xlink:href="#aT"/></g><g id="k"><use transform="matrix(0.0087890625,0,0,0.0087890625,0,0)" xlink:href="#aQ"/><use transform="matrix(0.0087890625,0,0,0.0087890625,11.021484375,0)" xlink:href="#aR"/><use transform="matrix(0.0087890625,0,0,0.0087890625,18.0791015625,0)" xlink:href="#aJ"/><use transform="matrix(0.0087890625,0,0,0.0087890625,22.4384765625,0)" xlink:href="#aL"/><use transform="matrix(0.0087890625,0,0,0.0087890625,33.0732421875,0)" xlink:href="#aO"/><use transform="matrix(0.0087890625,0,0,0.0087890625,43.3564453125,0)" xlink:href="#aJ"/><use transform="matrix(0.0087890625,0,0,0.0087890625,47.7158203125,0)" xlink:href="#aQ"/><use transform="matrix(0.0087890625,0,0,0.0087890625,58.9130859375,0)" xlink:href="#aS"/><use transform="matrix(0.0087890625,0,0,0.0087890625,69.0205078125,0)" xlink:href="#aU"/></g><path d="M611 442c-248 0-391-105-460-228l146-94c47 65 117 165 314 165 178 0 307-82 307-266v-224h-17C863-141 792-18 576-18c-268 0-472-195-472-546 0-346 197-568 476-568 216 0 288 133 326 193h17v-179h175V29c0 289-215 413-487 413zm-5-620c203 0 314-146 314-390 0-237-108-403-314-403-213 0-319 180-319 403 0 230 109 390 319 390" id="aX"/><g id="l"><use transform="matrix(0.0087890625,0,0,0.0087890625,0,0)" xlink:href="#aJ"/><use transform="matrix(0.0087890625,0,0,0.0087890625,4.359375,0)" xlink:href="#aL"/><use transform="matrix(0.0087890625,0,0,0.0087890625,14.994140625,0)" xlink:href="#aX"/><use transform="matrix(0.0087890625,0,0,0.0087890625,26.033203125,0)" xlink:href="#aR"/><use transform="matrix(0.0087890625,0,0,0.0087890625,32.5107421875,0)" xlink:href="#aG"/><use transform="matrix(0.0087890625,0,0,0.0087890625,43.0048828125,0)" xlink:href="#aH"/><use transform="matrix(0.0087890625,0,0,0.0087890625,52.505859375,0)" xlink:href="#aS"/></g><use transform="matrix(0.0087890625,0,0,0.0087890625,0,0)" xlink:href="#aS" id="m"/><g id="n"><use transform="matrix(0.0087890625,0,0,0.0087890625,0,0)" xlink:href="#aN"/><use transform="matrix(0.0087890625,0,0,0.0087890625,15.767578125,0)" xlink:href="#aP"/><use transform="matrix(0.0087890625,0,0,0.0087890625,26.560546875,0)" xlink:href="#aM"/><use transform="matrix(0.0087890625,0,0,0.0087890625,37.58203125,0)" xlink:href="#aT"/><use transform="matrix(0.0087890625,0,0,0.0087890625,48.2255859375,0)" xlink:href="#aU"/><use transform="matrix(0.0087890625,0,0,0.0087890625,52.5849609375,0)" xlink:href="#aP"/></g><g id="o"><use transform="matrix(0.0087890625,0,0,0.0087890625,0,0)" xlink:href="#aN"/><use transform="matrix(0.0087890625,0,0,0.0087890625,15.767578125,0)" xlink:href="#aG"/><use transform="matrix(0.0087890625,0,0,0.0087890625,26.26171875,0)" xlink:href="#aM"/><use transform="matrix(0.0087890625,0,0,0.0087890625,37.283203125,0)" xlink:href="#aJ"/><use transform="matrix(0.0087890625,0,0,0.0087890625,41.642578125,0)" xlink:href="#aO"/><use transform="matrix(0.0087890625,0,0,0.0087890625,51.92578125,0)" xlink:href="#aJ"/><use transform="matrix(0.0087890625,0,0,0.0087890625,56.28515625,0)" xlink:href="#aP"/><use transform="matrix(0.0087890625,0,0,0.0087890625,67.078125,0)" xlink:href="#aL"/><use transform="matrix(0.0087890625,0,0,0.0087890625,77.712890625,0)" xlink:href="#aG"/><use transform="matrix(0.0087890625,0,0,0.0087890625,88.20703125,0)" xlink:href="#aH"/></g><g id="p"><use transform="matrix(0.0087890625,0,0,0.0087890625,0,0)" xlink:href="#aG"/><use transform="matrix(0.0087890625,0,0,0.0087890625,10.494140625,0)" xlink:href="#aU"/><use transform="matrix(0.0087890625,0,0,0.0087890625,14.853515625,0)" xlink:href="#aJ"/><use transform="matrix(0.0087890625,0,0,0.0087890625,19.212890625,0)" xlink:href="#aX"/><use transform="matrix(0.0087890625,0,0,0.0087890625,30.251953125,0)" xlink:href="#aG"/></g><g id="q"><use transform="matrix(0.0087890625,0,0,0.0087890625,0,0)" xlink:href="#aS"/><use transform="matrix(0.0087890625,0,0,0.0087890625,10.107421875,0)" xlink:href="#aO"/><use transform="matrix(0.0087890625,0,0,0.0087890625,20.390625,0)" xlink:href="#aO"/><use transform="matrix(0.0087890625,0,0,0.0087890625,30.673828125,0)" xlink:href="#aJ"/><use transform="matrix(0.0087890625,0,0,0.0087890625,35.033203125,0)" xlink:href="#aK"/><use transform="matrix(0.0087890625,0,0,0.0087890625,45.826171875,0)" xlink:href="#aL"/></g><path d="M338-670V0H158v-1118h173l1 207c72-158 192-221 342-221 226 0 378 139 378 422V0H872v-695c0-172-96-275-252-275-161 0-282 109-282 300zm398-643c-99 0-192-83-243-83-35 0-51 40-53 79H314c4-120 55-208 162-208 104 0 174 85 241 85 33 0 49-23 56-81h123c-4 126-62 208-160 208" id="aY"/><g id="s"><use transform="matrix(0.0087890625,0,0,0.0087890625,0,0)" xlink:href="#aS"/><use transform="matrix(0.0087890625,0,0,0.0087890625,10.107421875,0)" xlink:href="#aY"/><use transform="matrix(0.0087890625,0,0,0.0087890625,20.7421875,0)" xlink:href="#aS"/><use transform="matrix(0.0087890625,0,0,0.0087890625,30.849609375,0)" xlink:href="#aM"/><use transform="matrix(0.0087890625,0,0,0.0087890625,41.87109375,0)" xlink:href="#aJ"/><use transform="matrix(0.0087890625,0,0,0.0087890625,46.23046875,0)" xlink:href="#aR"/></g><g id="t"><use transform="matrix(0.0087890625,0,0,0.0087890625,0,0)" xlink:href="#aN"/><use transform="matrix(0.0087890625,0,0,0.0087890625,15.767578125,0)" xlink:href="#aG"/><use transform="matrix(0.0087890625,0,0,0.0087890625,26.26171875,0)" xlink:href="#aM"/><use transform="matrix(0.0087890625,0,0,0.0087890625,37.283203125,0)" xlink:href="#aJ"/><use transform="matrix(0.0087890625,0,0,0.0087890625,41.642578125,0)" xlink:href="#aO"/><use transform="matrix(0.0087890625,0,0,0.0087890625,51.92578125,0)" xlink:href="#aJ"/><use transform="matrix(0.0087890625,0,0,0.0087890625,56.28515625,0)" xlink:href="#aK"/><use transform="matrix(0.0087890625,0,0,0.0087890625,67.078125,0)" xlink:href="#aL"/></g><path d="M481 0L54-1118h197c107 314 236 620 325 951 87-331 217-637 324-951h197L670 0H481" id="aZ"/><g id="u"><use transform="matrix(0.0087890625,0,0,0.0087890625,0,0)" xlink:href="#aZ"/><use transform="matrix(0.0087890625,0,0,0.0087890625,9.7646484375,0)" xlink:href="#aP"/><use transform="matrix(0.0087890625,0,0,0.0087890625,20.5576171875,0)" xlink:href="#aU"/><use transform="matrix(0.0087890625,0,0,0.0087890625,25.0048828125,0)" xlink:href="#aZ"/><use transform="matrix(0.0087890625,0,0,0.0087890625,34.76953125,0)" xlink:href="#aG"/><use transform="matrix(0.0087890625,0,0,0.0087890625,45.263671875,0)" xlink:href="#aR"/></g><g id="v"><use transform="matrix(0.0087890625,0,0,0.0087890625,0,0)" xlink:href="#aN"/><use transform="matrix(0.0087890625,0,0,0.0087890625,15.767578125,0)" xlink:href="#aG"/><use transform="matrix(0.0087890625,0,0,0.0087890625,26.26171875,0)" xlink:href="#aL"/><use transform="matrix(0.0087890625,0,0,0.0087890625,36.896484375,0)" xlink:href="#aT"/></g><g id="w"><use transform="matrix(0.0087890625,0,0,0.0087890625,0,0)" xlink:href="#aQ"/><use transform="matrix(0.0087890625,0,0,0.0087890625,11.021484375,0)" xlink:href="#aR"/><use transform="matrix(0.0087890625,0,0,0.0087890625,18.0791015625,0)" xlink:href="#aJ"/><use transform="matrix(0.0087890625,0,0,0.0087890625,22.4384765625,0)" xlink:href="#aL"/><use transform="matrix(0.0087890625,0,0,0.0087890625,33.0732421875,0)" xlink:href="#aO"/><use transform="matrix(0.0087890625,0,0,0.0087890625,43.3564453125,0)" xlink:href="#aJ"/><use transform="matrix(0.0087890625,0,0,0.0087890625,47.7158203125,0)" xlink:href="#aQ"/><use transform="matrix(0.0087890625,0,0,0.0087890625,58.9130859375,0)" xlink:href="#aS"/><use transform="matrix(0.0087890625,0,0,0.0087890625,69.0205078125,0)" xlink:href="#aU"/></g><g id="x"><use transform="matrix(0.0087890625,0,0,0.0087890625,0,0)" xlink:href="#aN"/><use transform="matrix(0.0087890625,0,0,0.0087890625,15.767578125,0)" xlink:href="#aT"/><use transform="matrix(0.0087890625,0,0,0.0087890625,26.4111328125,0)" xlink:href="#aG"/><use transform="matrix(0.0087890625,0,0,0.0087890625,36.9052734375,0)" xlink:href="#aH"/><use transform="matrix(0.0087890625,0,0,0.0087890625,46.40625,0)" xlink:href="#aI"/><use transform="matrix(0.0087890625,0,0,0.0087890625,52.294921875,0)" xlink:href="#aR"/><use transform="matrix(0.0087890625,0,0,0.0087890625,59.0712890625,0)" xlink:href="#aS"/></g><path d="M678-1118v154H420V0H240v-964H20v-154h220v-149c0-194 155-293 318-293 85 0 141 18 168 30l-50 154c-19-6-47-17-97-17-111 0-159 58-159 166v109h258" id="ba"/><g id="y"><use transform="matrix(0.0087890625,0,0,0.0087890625,0,0)" xlink:href="#ba"/><use transform="matrix(0.0087890625,0,0,0.0087890625,6.134765625,0)" xlink:href="#aP"/><use transform="matrix(0.0087890625,0,0,0.0087890625,16.927734375,0)" xlink:href="#aR"/><use transform="matrix(0.0087890625,0,0,0.0087890625,23.9853515625,0)" xlink:href="#aN"/><use transform="matrix(0.0087890625,0,0,0.0087890625,39.7529296875,0)" xlink:href="#aT"/><use transform="matrix(0.0087890625,0,0,0.0087890625,50.396484375,0)" xlink:href="#aU"/><use transform="matrix(0.0087890625,0,0,0.0087890625,54.755859375,0)" xlink:href="#aS"/><use transform="matrix(0.0087890625,0,0,0.0087890625,64.86328125,0)" xlink:href="#aR"/><use transform="matrix(0.0087890625,0,0,0.0087890625,71.9208984375,0)" xlink:href="#aJ"/><use transform="matrix(0.0087890625,0,0,0.0087890625,76.2802734375,0)" xlink:href="#aP"/></g><g id="z"><use transform="matrix(0.0087890625,0,0,0.0087890625,0,0)" xlink:href="#aM"/><use transform="matrix(0.0087890625,0,0,0.0087890625,11.021484375,0)" xlink:href="#aG"/></g><g id="A"><use transform="matrix(0.0087890625,0,0,0.0087890625,0,0)" xlink:href="#aR"/><use transform="matrix(0.0087890625,0,0,0.0087890625,6.4775390625,0)" xlink:href="#aG"/><use transform="matrix(0.0087890625,0,0,0.0087890625,16.9716796875,0)" xlink:href="#aX"/><use transform="matrix(0.0087890625,0,0,0.0087890625,28.0107421875,0)" xlink:href="#aJ"/><use transform="matrix(0.0087890625,0,0,0.0087890625,32.3701171875,0)" xlink:href="#aH"/><use transform="matrix(0.0087890625,0,0,0.0087890625,41.87109375,0)" xlink:href="#aI"/><use transform="matrix(0.0087890625,0,0,0.0087890625,47.759765625,0)" xlink:href="#aR"/><use transform="matrix(0.0087890625,0,0,0.0087890625,54.2373046875,0)" xlink:href="#aP"/></g><g id="B"><use transform="matrix(0.0087890625,0,0,0.0087890625,0,0)" xlink:href="#aM"/><use transform="matrix(0.0087890625,0,0,0.0087890625,11.021484375,0)" xlink:href="#aS"/><use transform="matrix(0.0087890625,0,0,0.0087890625,21.12890625,0)" xlink:href="#aI"/><use transform="matrix(0.0087890625,0,0,0.0087890625,26.841796875,0)" xlink:href="#aP"/><use transform="matrix(0.0087890625,0,0,0.0087890625,37.634765625,0)" xlink:href="#aH"/></g><g id="C"><use transform="matrix(0.0087890625,0,0,0.0087890625,0,0)" xlink:href="#aZ"/><use transform="matrix(0.0087890625,0,0,0.0087890625,10.0283203125,0)" xlink:href="#aS"/><use transform="matrix(0.0087890625,0,0,0.0087890625,20.1357421875,0)" xlink:href="#aU"/><use transform="matrix(0.0087890625,0,0,0.0087890625,24.4951171875,0)" xlink:href="#aJ"/><use transform="matrix(0.0087890625,0,0,0.0087890625,28.8544921875,0)" xlink:href="#aM"/><use transform="matrix(0.0087890625,0,0,0.0087890625,39.8759765625,0)" xlink:href="#aP"/><use transform="matrix(0.0087890625,0,0,0.0087890625,50.6689453125,0)" xlink:href="#aH"/></g><g id="D"><use transform="matrix(0.0087890625,0,0,0.0087890625,0,0)" xlink:href="#aX"/><use transform="matrix(0.0087890625,0,0,0.0087890625,11.0390625,0)" xlink:href="#aT"/><use transform="matrix(0.0087890625,0,0,0.0087890625,21.6826171875,0)" xlink:href="#aS"/><use transform="matrix(0.0087890625,0,0,0.0087890625,31.7900390625,0)" xlink:href="#aR"/><use transform="matrix(0.0087890625,0,0,0.0087890625,38.267578125,0)" xlink:href="#aM"/><use transform="matrix(0.0087890625,0,0,0.0087890625,49.2890625,0)" xlink:href="#aS"/></g><g id="E"><use transform="matrix(0.0087890625,0,0,0.0087890625,0,0)" xlink:href="#aJ"/><use transform="matrix(0.0087890625,0,0,0.0087890625,4.359375,0)" xlink:href="#aL"/><use transform="matrix(0.0087890625,0,0,0.0087890625,14.994140625,0)" xlink:href="#ba"/><use transform="matrix(0.0087890625,0,0,0.0087890625,21.12890625,0)" xlink:href="#aP"/><use transform="matrix(0.0087890625,0,0,0.0087890625,31.921875,0)" xlink:href="#aR"/><use transform="matrix(0.0087890625,0,0,0.0087890625,38.9794921875,0)" xlink:href="#aN"/><use transform="matrix(0.0087890625,0,0,0.0087890625,54.7470703125,0)" xlink:href="#aS"/><use transform="matrix(0.0087890625,0,0,0.0087890625,64.8544921875,0)" xlink:href="#aO"/><use transform="matrix(0.0087890625,0,0,0.0087890625,75.1376953125,0)" xlink:href="#aJ"/><use transform="matrix(0.0087890625,0,0,0.0087890625,79.4970703125,0)" xlink:href="#aK"/><use transform="matrix(0.0087890625,0,0,0.0087890625,90.2900390625,0)" xlink:href="#aL"/></g><g id="F"><use transform="matrix(0.0087890625,0,0,0.0087890625,0,0)" xlink:href="#aG"/><use transform="matrix(0.0087890625,0,0,0.0087890625,10.494140625,0)" xlink:href="#aL"/></g><path d="M677 24c-213 0-288-135-325-197h-20V0H158v-1490h180v551h14c37-59 106-193 324-193 279 0 474 222 474 576 0 356-194 580-473 580zm-27-161c209 0 317-186 317-421 0-232-105-413-317-413-206 0-314 166-314 413 0 249 111 421 314 421" id="bb"/><g id="G"><use transform="matrix(0.0087890625,0,0,0.0087890625,0,0)" xlink:href="#bb"/><use transform="matrix(0.0087890625,0,0,0.0087890625,11.197265625,0)" xlink:href="#aS"/><use transform="matrix(0.0087890625,0,0,0.0087890625,21.3046875,0)" xlink:href="#aH"/><use transform="matrix(0.0087890625,0,0,0.0087890625,30.8056640625,0)" xlink:href="#aG"/></g><g id="H"><use transform="matrix(0.0087890625,0,0,0.0087890625,0,0)" xlink:href="#aM"/><use transform="matrix(0.0087890625,0,0,0.0087890625,11.021484375,0)" xlink:href="#aS"/><use transform="matrix(0.0087890625,0,0,0.0087890625,21.12890625,0)" xlink:href="#aI"/><use transform="matrix(0.0087890625,0,0,0.0087890625,26.841796875,0)" xlink:href="#aP"/><use transform="matrix(0.0087890625,0,0,0.0087890625,37.634765625,0)" xlink:href="#aH"/></g><g id="I"><use transform="matrix(0.0087890625,0,0,0.0087890625,0,0)" xlink:href="#aM"/><use transform="matrix(0.0087890625,0,0,0.0087890625,11.021484375,0)" xlink:href="#aG"/><use transform="matrix(0.0087890625,0,0,0.0087890625,21.515625,0)" xlink:href="#aH"/><use transform="matrix(0.0087890625,0,0,0.0087890625,31.0166015625,0)" xlink:href="#aQ"/><use transform="matrix(0.0087890625,0,0,0.0087890625,42.0380859375,0)" xlink:href="#aU"/><use transform="matrix(0.0087890625,0,0,0.0087890625,46.3974609375,0)" xlink:href="#aJ"/><use transform="matrix(0.0087890625,0,0,0.0087890625,50.7568359375,0)" xlink:href="#aG"/><use transform="matrix(0.0087890625,0,0,0.0087890625,61.2509765625,0)" xlink:href="#aX"/><use transform="matrix(0.0087890625,0,0,0.0087890625,72.2900390625,0)" xlink:href="#aS"/></g><g id="J"><use transform="matrix(0.0087890625,0,0,0.0087890625,0,0)" xlink:href="#aH"/><use transform="matrix(0.0087890625,0,0,0.0087890625,9.5009765625,0)" xlink:href="#aT"/><use transform="matrix(0.0087890625,0,0,0.0087890625,20.14453125,0)" xlink:href="#bb"/><use transform="matrix(0.0087890625,0,0,0.0087890625,31.166015625,0)" xlink:href="#aN"/><use transform="matrix(0.0087890625,0,0,0.0087890625,46.93359375,0)" xlink:href="#aG"/><use transform="matrix(0.0087890625,0,0,0.0087890625,57.427734375,0)" xlink:href="#aL"/><use transform="matrix(0.0087890625,0,0,0.0087890625,68.0625,0)" xlink:href="#aT"/></g><g id="K"><use transform="matrix(0.0087890625,0,0,0.0087890625,0,0)" xlink:href="#aM"/><use transform="matrix(0.0087890625,0,0,0.0087890625,11.021484375,0)" xlink:href="#aS"/><use transform="matrix(0.0087890625,0,0,0.0087890625,21.12890625,0)" xlink:href="#aI"/><use transform="matrix(0.0087890625,0,0,0.0087890625,26.841796875,0)" xlink:href="#aP"/><use transform="matrix(0.0087890625,0,0,0.0087890625,37.634765625,0)" xlink:href="#aH"/></g><path d="M168-1264l140-294h201l-194 294H168" id="bc"/><g id="L"><use transform="matrix(0.0087890625,0,0,0.0087890625,0,0)" xlink:href="#aJ"/><use transform="matrix(0.0087890625,0,0,0.0087890625,4.359375,0)" xlink:href="#aL"/><use transform="matrix(0.0087890625,0,0,0.0087890625,14.73046875,0)" xlink:href="#aZ"/><use transform="matrix(0.0087890625,0,0,0.0087890625,24.8466796875,0)" xlink:href="#bc"/></g><path d="M157-1118h181V80c1 225-123 350-364 338V252c126 9 184-48 183-172v-1198zm91-183c-68 0-125-53-125-119s57-119 125-119c69 0 126 53 126 119s-57 119-126 119" id="bd"/><g id="M"><use transform="matrix(0.0087890625,0,0,0.0087890625,0,0)" xlink:href="#aN"/><use transform="matrix(0.0087890625,0,0,0.0087890625,15.767578125,0)" xlink:href="#aG"/><use transform="matrix(0.0087890625,0,0,0.0087890625,26.26171875,0)" xlink:href="#aL"/><use transform="matrix(0.0087890625,0,0,0.0087890625,36.896484375,0)" xlink:href="#aH"/><use transform="matrix(0.0087890625,0,0,0.0087890625,46.3974609375,0)" xlink:href="#aS"/><use transform="matrix(0.0087890625,0,0,0.0087890625,56.5048828125,0)" xlink:href="#bd"/><use transform="matrix(0.0087890625,0,0,0.0087890625,60.8642578125,0)" xlink:href="#aG"/></g><g id="N"><use transform="matrix(0.0087890625,0,0,0.0087890625,0,0)" xlink:href="#aP"/><use transform="matrix(0.0087890625,0,0,0.0087890625,10.79296875,0)" xlink:href="#aQ"/><use transform="matrix(0.0087890625,0,0,0.0087890625,21.814453125,0)" xlink:href="#aG"/><use transform="matrix(0.0087890625,0,0,0.0087890625,32.30859375,0)" xlink:href="#aR"/><use transform="matrix(0.0087890625,0,0,0.0087890625,39.0849609375,0)" xlink:href="#aS"/><use transform="matrix(0.0087890625,0,0,0.0087890625,49.1923828125,0)" xlink:href="#aO"/><use transform="matrix(0.0087890625,0,0,0.0087890625,59.4755859375,0)" xlink:href="#aJ"/><use transform="matrix(0.0087890625,0,0,0.0087890625,63.8349609375,0)" xlink:href="#aK"/><use transform="matrix(0.0087890625,0,0,0.0087890625,74.6279296875,0)" xlink:href="#aL"/></g><path d="M65 0l393-574-370-544h210c88 136 192 297 267 435 67-142 176-302 264-435h206L661-564 1053 0H844c-94-144-206-310-287-458C484-308 366-142 273 0H65" id="be"/><g id="O"><use transform="matrix(0.0087890625,0,0,0.0087890625,0,0)" xlink:href="#aG"/><use transform="matrix(0.0087890625,0,0,0.0087890625,10.08984375,0)" xlink:href="#be"/><use transform="matrix(0.0087890625,0,0,0.0087890625,19.916015625,0)" xlink:href="#aJ"/><use transform="matrix(0.0087890625,0,0,0.0087890625,24.275390625,0)" xlink:href="#aI"/><use transform="matrix(0.0087890625,0,0,0.0087890625,29.98828125,0)" xlink:href="#aP"/><use transform="matrix(0.0087890625,0,0,0.0087890625,40.78125,0)" xlink:href="#aH"/><use transform="matrix(0.0087890625,0,0,0.0087890625,50.2822265625,0)" xlink:href="#aS"/></g><path d="M126 0v-134l627-806v-11H146v-167h839v143L376-178v11h629V0H126" id="bf"/><g id="P"><use transform="matrix(0.0087890625,0,0,0.0087890625,0,0)" xlink:href="#aS"/><use transform="matrix(0.0087890625,0,0,0.0087890625,10.107421875,0)" xlink:href="#aO"/><use transform="matrix(0.0087890625,0,0,0.0087890625,20.390625,0)" xlink:href="#aI"/><use transform="matrix(0.0087890625,0,0,0.0087890625,26.279296875,0)" xlink:href="#aT"/><use transform="matrix(0.0087890625,0,0,0.0087890625,36.9228515625,0)" xlink:href="#aS"/><use transform="matrix(0.0087890625,0,0,0.0087890625,47.0302734375,0)" xlink:href="#aU"/><use transform="matrix(0.0087890625,0,0,0.0087890625,51.3896484375,0)" xlink:href="#aJ"/><use transform="matrix(0.0087890625,0,0,0.0087890625,55.7490234375,0)" xlink:href="#bf"/><use transform="matrix(0.0087890625,0,0,0.0087890625,65.689453125,0)" xlink:href="#aS"/><use transform="matrix(0.0087890625,0,0,0.0087890625,75.796875,0)" xlink:href="#aR"/></g><g id="Q"><use transform="matrix(0.0087890625,0,0,0.0087890625,0,0)" xlink:href="#aG"/><use transform="matrix(0.0087890625,0,0,0.0087890625,10.494140625,0)" xlink:href="#aL"/><use transform="matrix(0.0087890625,0,0,0.0087890625,20.865234375,0)" xlink:href="#aZ"/><use transform="matrix(0.0087890625,0,0,0.0087890625,30.9814453125,0)" xlink:href="#aJ"/><use transform="matrix(0.0087890625,0,0,0.0087890625,35.3408203125,0)" xlink:href="#aS"/></g><g id="R"><use transform="matrix(0.0087890625,0,0,0.0087890625,0,0)" xlink:href="#aG"/><use transform="matrix(0.0087890625,0,0,0.0087890625,10.494140625,0)" xlink:href="#aN"/><use transform="matrix(0.0087890625,0,0,0.0087890625,26.26171875,0)" xlink:href="#aS"/><use transform="matrix(0.0087890625,0,0,0.0087890625,36.369140625,0)" xlink:href="#aJ"/><use transform="matrix(0.0087890625,0,0,0.0087890625,40.728515625,0)" xlink:href="#aU"/></g><g id="S"><use transform="matrix(0.0087890625,0,0,0.0087890625,0,0)" xlink:href="#aM"/><use transform="matrix(0.0087890625,0,0,0.0087890625,11.021484375,0)" xlink:href="#aG"/></g><g id="T"><use transform="matrix(0.0087890625,0,0,0.0087890625,0,0)" xlink:href="#aO"/><use transform="matrix(0.0087890625,0,0,0.0087890625,10.283203125,0)" xlink:href="#aP"/><use transform="matrix(0.0087890625,0,0,0.0087890625,21.076171875,0)" xlink:href="#aL"/><use transform="matrix(0.0087890625,0,0,0.0087890625,31.7109375,0)" xlink:href="#ba"/><use transform="matrix(0.0087890625,0,0,0.0087890625,38.373046875,0)" xlink:href="#aJ"/><use transform="matrix(0.0087890625,0,0,0.0087890625,42.732421875,0)" xlink:href="#aR"/><use transform="matrix(0.0087890625,0,0,0.0087890625,49.7900390625,0)" xlink:href="#aN"/><use transform="matrix(0.0087890625,0,0,0.0087890625,65.5576171875,0)" xlink:href="#aS"/><use transform="matrix(0.0087890625,0,0,0.0087890625,75.6650390625,0)" xlink:href="#aO"/><use transform="matrix(0.0087890625,0,0,0.0087890625,85.9482421875,0)" xlink:href="#aJ"/><use transform="matrix(0.0087890625,0,0,0.0087890625,90.3076171875,0)" xlink:href="#aK"/><use transform="matrix(0.0087890625,0,0,0.0087890625,101.1005859375,0)" xlink:href="#aL"/></g><g id="U"><use transform="matrix(0.0087890625,0,0,0.0087890625,0,0)" xlink:href="#aJ"/><use transform="matrix(0.0087890625,0,0,0.0087890625,4.359375,0)" xlink:href="#aL"/><use transform="matrix(0.0087890625,0,0,0.0087890625,14.994140625,0)" xlink:href="#ba"/><use transform="matrix(0.0087890625,0,0,0.0087890625,21.12890625,0)" xlink:href="#aP"/><use transform="matrix(0.0087890625,0,0,0.0087890625,31.921875,0)" xlink:href="#aR"/><use transform="matrix(0.0087890625,0,0,0.0087890625,38.9794921875,0)" xlink:href="#aN"/><use transform="matrix(0.0087890625,0,0,0.0087890625,54.7470703125,0)" xlink:href="#aS"/><use transform="matrix(0.0087890625,0,0,0.0087890625,64.8544921875,0)" xlink:href="#aO"/><use transform="matrix(0.0087890625,0,0,0.0087890625,75.1376953125,0)" xlink:href="#aJ"/><use transform="matrix(0.0087890625,0,0,0.0087890625,79.4970703125,0)" xlink:href="#aK"/><use transform="matrix(0.0087890625,0,0,0.0087890625,90.2900390625,0)" xlink:href="#aL"/></g><g id="V"><use transform="matrix(0.0087890625,0,0,0.0087890625,0,0)" xlink:href="#aH"/><use transform="matrix(0.0087890625,0,0,0.0087890625,9.5009765625,0)" xlink:href="#aP"/><use transform="matrix(0.0087890625,0,0,0.0087890625,20.2939453125,0)" xlink:href="#bb"/><use transform="matrix(0.0087890625,0,0,0.0087890625,31.3154296875,0)" xlink:href="#aR"/><use transform="matrix(0.0087890625,0,0,0.0087890625,37.79296875,0)" xlink:href="#aG"/></g><g id="W"><use transform="matrix(0.0087890625,0,0,0.0087890625,0,0)" xlink:href="#aG"/><use transform="matrix(0.0087890625,0,0,0.0087890625,10.494140625,0)" xlink:href="#aH"/><use transform="matrix(0.0087890625,0,0,0.0087890625,19.9951171875,0)" xlink:href="#aI"/><use transform="matrix(0.0087890625,0,0,0.0087890625,25.9716796875,0)" xlink:href="#aS"/><use transform="matrix(0.0087890625,0,0,0.0087890625,36.0791015625,0)" xlink:href="#aO"/><use transform="matrix(0.0087890625,0,0,0.0087890625,46.3623046875,0)" xlink:href="#aJ"/><use transform="matrix(0.0087890625,0,0,0.0087890625,50.7216796875,0)" xlink:href="#aK"/><use transform="matrix(0.0087890625,0,0,0.0087890625,61.5146484375,0)" xlink:href="#aL"/></g><g id="X"><use transform="matrix(0.0087890625,0,0,0.0087890625,0,0)" xlink:href="#aM"/><use transform="matrix(0.0087890625,0,0,0.0087890625,11.021484375,0)" xlink:href="#aS"/><use transform="matrix(0.0087890625,0,0,0.0087890625,21.12890625,0)" xlink:href="#aI"/><use transform="matrix(0.0087890625,0,0,0.0087890625,26.841796875,0)" xlink:href="#aP"/><use transform="matrix(0.0087890625,0,0,0.0087890625,37.634765625,0)" xlink:href="#aH"/></g><g id="Y"><use transform="matrix(0.0087890625,0,0,0.0087890625,0,0)" xlink:href="#aN"/><use transform="matrix(0.0087890625,0,0,0.0087890625,15.767578125,0)" xlink:href="#aG"/><use transform="matrix(0.0087890625,0,0,0.0087890625,26.26171875,0)" xlink:href="#aM"/><use transform="matrix(0.0087890625,0,0,0.0087890625,37.283203125,0)" xlink:href="#aJ"/><use transform="matrix(0.0087890625,0,0,0.0087890625,41.642578125,0)" xlink:href="#aO"/><use transform="matrix(0.0087890625,0,0,0.0087890625,51.92578125,0)" xlink:href="#aJ"/><use transform="matrix(0.0087890625,0,0,0.0087890625,56.28515625,0)" xlink:href="#aK"/><use transform="matrix(0.0087890625,0,0,0.0087890625,67.078125,0)" xlink:href="#aL"/></g><g id="Z"><use transform="matrix(0.0087890625,0,0,0.0087890625,0,0)" xlink:href="#aG"/><use transform="matrix(0.0087890625,0,0,0.0087890625,10.494140625,0)" xlink:href="#aM"/><use transform="matrix(0.0087890625,0,0,0.0087890625,21.515625,0)" xlink:href="#aJ"/><use transform="matrix(0.0087890625,0,0,0.0087890625,25.875,0)" xlink:href="#aI"/><use transform="matrix(0.0087890625,0,0,0.0087890625,31.8515625,0)" xlink:href="#aS"/><use transform="matrix(0.0087890625,0,0,0.0087890625,41.958984375,0)" xlink:href="#aR"/></g><g id="aa"><use transform="matrix(0.0087890625,0,0,0.0087890625,0,0)" xlink:href="#aG"/><use transform="matrix(0.0087890625,0,0,0.0087890625,10.494140625,0)" xlink:href="#aU"/><use transform="matrix(0.0087890625,0,0,0.0087890625,14.853515625,0)" xlink:href="#aJ"/><use transform="matrix(0.0087890625,0,0,0.0087890625,19.212890625,0)" xlink:href="#aN"/><use transform="matrix(0.0087890625,0,0,0.0087890625,34.98046875,0)" xlink:href="#aJ"/><use transform="matrix(0.0087890625,0,0,0.0087890625,39.33984375,0)" xlink:href="#aL"/><use transform="matrix(0.0087890625,0,0,0.0087890625,49.974609375,0)" xlink:href="#aS"/><use transform="matrix(0.0087890625,0,0,0.0087890625,60.08203125,0)" xlink:href="#aR"/></g><g id="ab"><use transform="matrix(0.0087890625,0,0,0.0087890625,0,0)" xlink:href="#aO"/><use transform="matrix(0.0087890625,0,0,0.0087890625,10.458984375,0)" xlink:href="#aS"/><use transform="matrix(0.0087890625,0,0,0.0087890625,20.56640625,0)" xlink:href="#aR"/><use transform="matrix(0.0087890625,0,0,0.0087890625,27.0439453125,0)" xlink:href="#aX"/><use transform="matrix(0.0087890625,0,0,0.0087890625,38.0830078125,0)" xlink:href="#aS"/></g><g id="ac"><use transform="matrix(0.0087890625,0,0,0.0087890625,0,0)" xlink:href="#aU"/><use transform="matrix(0.0087890625,0,0,0.0087890625,4.359375,0)" xlink:href="#aJ"/><use transform="matrix(0.0087890625,0,0,0.0087890625,8.71875,0)" xlink:href="#aH"/><use transform="matrix(0.0087890625,0,0,0.0087890625,18.2197265625,0)" xlink:href="#aI"/><use transform="matrix(0.0087890625,0,0,0.0087890625,24.1962890625,0)" xlink:href="#aS"/></g><g id="ad"><use transform="matrix(0.0087890625,0,0,0.0087890625,0,0)" xlink:href="#aN"/><use transform="matrix(0.0087890625,0,0,0.0087890625,15.767578125,0)" xlink:href="#aG"/><use transform="matrix(0.0087890625,0,0,0.0087890625,26.26171875,0)" xlink:href="#aM"/><use transform="matrix(0.0087890625,0,0,0.0087890625,37.283203125,0)" xlink:href="#aJ"/><use transform="matrix(0.0087890625,0,0,0.0087890625,41.642578125,0)" xlink:href="#aO"/><use transform="matrix(0.0087890625,0,0,0.0087890625,51.92578125,0)" xlink:href="#aJ"/><use transform="matrix(0.0087890625,0,0,0.0087890625,56.28515625,0)" xlink:href="#aP"/><use transform="matrix(0.0087890625,0,0,0.0087890625,67.078125,0)" xlink:href="#aL"/><use transform="matrix(0.0087890625,0,0,0.0087890625,77.712890625,0)" xlink:href="#aG"/><use transform="matrix(0.0087890625,0,0,0.0087890625,88.20703125,0)" xlink:href="#aH"/></g><g id="ae"><use transform="matrix(0.0087890625,0,0,0.0087890625,0,0)" xlink:href="#aG"/><use transform="matrix(0.0087890625,0,0,0.0087890625,10.08984375,0)" xlink:href="#be"/><use transform="matrix(0.0087890625,0,0,0.0087890625,19.916015625,0)" xlink:href="#aJ"/><use transform="matrix(0.0087890625,0,0,0.0087890625,24.275390625,0)" xlink:href="#aH"/><use transform="matrix(0.0087890625,0,0,0.0087890625,33.7763671875,0)" xlink:href="#aI"/><use transform="matrix(0.0087890625,0,0,0.0087890625,39.4892578125,0)" xlink:href="#aG"/><use transform="matrix(0.0087890625,0,0,0.0087890625,49.9833984375,0)" xlink:href="#aL"/><use transform="matrix(0.0087890625,0,0,0.0087890625,60.6181640625,0)" xlink:href="#aI"/><use transform="matrix(0.0087890625,0,0,0.0087890625,66.3310546875,0)" xlink:href="#aG"/><use transform="matrix(0.0087890625,0,0,0.0087890625,76.8251953125,0)" xlink:href="#aH"/></g><g id="af"><use transform="matrix(0.0087890625,0,0,0.0087890625,0,0)" xlink:href="#aG"/><use transform="matrix(0.0087890625,0,0,0.0087890625,10.494140625,0)" xlink:href="#aU"/><use transform="matrix(0.0087890625,0,0,0.0087890625,14.853515625,0)" xlink:href="#aJ"/><use transform="matrix(0.0087890625,0,0,0.0087890625,19.212890625,0)" xlink:href="#aN"/><use transform="matrix(0.0087890625,0,0,0.0087890625,34.98046875,0)" xlink:href="#aJ"/><use transform="matrix(0.0087890625,0,0,0.0087890625,39.33984375,0)" xlink:href="#aL"/><use transform="matrix(0.0087890625,0,0,0.0087890625,49.974609375,0)" xlink:href="#aS"/><use transform="matrix(0.0087890625,0,0,0.0087890625,60.08203125,0)" xlink:href="#aO"/><use transform="matrix(0.0087890625,0,0,0.0087890625,70.365234375,0)" xlink:href="#aJ"/><use transform="matrix(0.0087890625,0,0,0.0087890625,74.724609375,0)" xlink:href="#aK"/><use transform="matrix(0.0087890625,0,0,0.0087890625,85.517578125,0)" xlink:href="#aL"/></g><g id="ag"><use transform="matrix(0.0087890625,0,0,0.0087890625,0,0)" xlink:href="#aM"/><use transform="matrix(0.0087890625,0,0,0.0087890625,11.021484375,0)" xlink:href="#aG"/></g><g id="ah"><use transform="matrix(0.0087890625,0,0,0.0087890625,0,0)" xlink:href="#aJ"/><use transform="matrix(0.0087890625,0,0,0.0087890625,4.359375,0)" xlink:href="#aM"/></g><g id="ai"><use transform="matrix(0.0087890625,0,0,0.0087890625,0,0)" xlink:href="#aN"/><use transform="matrix(0.0087890625,0,0,0.0087890625,15.767578125,0)" xlink:href="#aG"/><use transform="matrix(0.0087890625,0,0,0.0087890625,26.26171875,0)" xlink:href="#aM"/><use transform="matrix(0.0087890625,0,0,0.0087890625,37.283203125,0)" xlink:href="#aJ"/><use transform="matrix(0.0087890625,0,0,0.0087890625,41.642578125,0)" xlink:href="#aO"/><use transform="matrix(0.0087890625,0,0,0.0087890625,51.92578125,0)" xlink:href="#aJ"/><use transform="matrix(0.0087890625,0,0,0.0087890625,56.28515625,0)" xlink:href="#aK"/><use transform="matrix(0.0087890625,0,0,0.0087890625,67.078125,0)" xlink:href="#aL"/></g><use transform="matrix(0.0087890625,0,0,0.0087890625,0,0)" xlink:href="#aS" id="aj"/><g id="ak"><use transform="matrix(0.0087890625,0,0,0.0087890625,0,0)" xlink:href="#aG"/><use transform="matrix(0.0087890625,0,0,0.0087890625,10.494140625,0)" xlink:href="#aU"/><use transform="matrix(0.0087890625,0,0,0.0087890625,14.853515625,0)" xlink:href="#aJ"/><use transform="matrix(0.0087890625,0,0,0.0087890625,19.212890625,0)" xlink:href="#aN"/><use transform="matrix(0.0087890625,0,0,0.0087890625,34.98046875,0)" xlink:href="#aJ"/><use transform="matrix(0.0087890625,0,0,0.0087890625,39.33984375,0)" xlink:href="#aL"/><use transform="matrix(0.0087890625,0,0,0.0087890625,49.974609375,0)" xlink:href="#aS"/><use transform="matrix(0.0087890625,0,0,0.0087890625,60.08203125,0)" xlink:href="#aR"/></g><g id="al"><use transform="matrix(0.0087890625,0,0,0.0087890625,0,0)" xlink:href="#aU"/><use transform="matrix(0.0087890625,0,0,0.0087890625,4.359375,0)" xlink:href="#aP"/><use transform="matrix(0.0087890625,0,0,0.0087890625,15.15234375,0)" xlink:href="#aH"/></g><g id="am"><use transform="matrix(0.0087890625,0,0,0.0087890625,0,0)" xlink:href="#aH"/><use transform="matrix(0.0087890625,0,0,0.0087890625,9.5009765625,0)" xlink:href="#aP"/><use transform="matrix(0.0087890625,0,0,0.0087890625,20.2939453125,0)" xlink:href="#aL"/></g><path d="M471 26C259 26 90-98 90-318c0-256 228-303 435-329 202-27 287-16 287-108 0-139-79-219-234-219-161 0-248 86-283 164l-173-57c86-203 278-265 451-265 150 0 419 46 419 395V0H815v-152h-12C765-73 660 26 471 26zm31-159c199 0 310-134 310-271v-155c-30 35-226 55-295 64-131 17-246 59-246 186 0 116 97 176 231 176zm-23-1131l140-294h201l-194 294H479" id="bg"/><g id="an"><use transform="matrix(0.0087890625,0,0,0.0087890625,0,0)" xlink:href="#aZ"/><use transform="matrix(0.0087890625,0,0,0.0087890625,10.0283203125,0)" xlink:href="#bg"/><use transform="matrix(0.0087890625,0,0,0.0087890625,20.1357421875,0)" xlink:href="#aU"/><use transform="matrix(0.0087890625,0,0,0.0087890625,24.4951171875,0)" xlink:href="#aJ"/><use transform="matrix(0.0087890625,0,0,0.0087890625,28.8544921875,0)" xlink:href="#aM"/><use transform="matrix(0.0087890625,0,0,0.0087890625,39.8759765625,0)" xlink:href="#aP"/><use transform="matrix(0.0087890625,0,0,0.0087890625,50.6689453125,0)" xlink:href="#aH"/></g><g id="ao"><use transform="matrix(0.0087890625,0,0,0.0087890625,0,0)" xlink:href="#aS"/><use transform="matrix(0.0087890625,0,0,0.0087890625,10.107421875,0)" xlink:href="#aO"/><use transform="matrix(0.0087890625,0,0,0.0087890625,20.390625,0)" xlink:href="#aI"/><use transform="matrix(0.0087890625,0,0,0.0087890625,26.279296875,0)" xlink:href="#aT"/><use transform="matrix(0.0087890625,0,0,0.0087890625,36.9228515625,0)" xlink:href="#aS"/><use transform="matrix(0.0087890625,0,0,0.0087890625,47.0302734375,0)" xlink:href="#aU"/><use transform="matrix(0.0087890625,0,0,0.0087890625,51.3896484375,0)" xlink:href="#aJ"/><use transform="matrix(0.0087890625,0,0,0.0087890625,55.7490234375,0)" xlink:href="#bf"/><use transform="matrix(0.0087890625,0,0,0.0087890625,65.689453125,0)" xlink:href="#aS"/><use transform="matrix(0.0087890625,0,0,0.0087890625,75.796875,0)" xlink:href="#aO"/><use transform="matrix(0.0087890625,0,0,0.0087890625,86.080078125,0)" xlink:href="#aJ"/><use transform="matrix(0.0087890625,0,0,0.0087890625,90.439453125,0)" xlink:href="#aK"/><use transform="matrix(0.0087890625,0,0,0.0087890625,101.232421875,0)" xlink:href="#aL"/></g><g id="ap"><use transform="matrix(0.0087890625,0,0,0.0087890625,0,0)" xlink:href="#aZ"/><use transform="matrix(0.0087890625,0,0,0.0087890625,10.0283203125,0)" xlink:href="#aS"/><use transform="matrix(0.0087890625,0,0,0.0087890625,20.1357421875,0)" xlink:href="#aU"/><use transform="matrix(0.0087890625,0,0,0.0087890625,24.4951171875,0)" xlink:href="#aJ"/><use transform="matrix(0.0087890625,0,0,0.0087890625,28.8544921875,0)" xlink:href="#aM"/><use transform="matrix(0.0087890625,0,0,0.0087890625,39.8759765625,0)" xlink:href="#aS"/></g><g id="aq"><use transform="matrix(0.0087890625,0,0,0.0087890625,0,0)" xlink:href="#aN"/><use transform="matrix(0.0087890625,0,0,0.0087890625,15.767578125,0)" xlink:href="#aT"/><use transform="matrix(0.0087890625,0,0,0.0087890625,26.4111328125,0)" xlink:href="#aG"/><use transform="matrix(0.0087890625,0,0,0.0087890625,36.9052734375,0)" xlink:href="#aH"/><use transform="matrix(0.0087890625,0,0,0.0087890625,46.40625,0)" xlink:href="#aI"/><use transform="matrix(0.0087890625,0,0,0.0087890625,52.294921875,0)" xlink:href="#aR"/><use transform="matrix(0.0087890625,0,0,0.0087890625,59.0712890625,0)" xlink:href="#aS"/></g><g id="ar"><use transform="matrix(0.0087890625,0,0,0.0087890625,0,0)" xlink:href="#aN"/><use transform="matrix(0.0087890625,0,0,0.0087890625,15.767578125,0)" xlink:href="#aG"/><use transform="matrix(0.0087890625,0,0,0.0087890625,26.26171875,0)" xlink:href="#aL"/><use transform="matrix(0.0087890625,0,0,0.0087890625,36.896484375,0)" xlink:href="#aH"/><use transform="matrix(0.0087890625,0,0,0.0087890625,46.3974609375,0)" xlink:href="#aS"/><use transform="matrix(0.0087890625,0,0,0.0087890625,56.5048828125,0)" xlink:href="#bd"/><use transform="matrix(0.0087890625,0,0,0.0087890625,60.8642578125,0)" xlink:href="#aG"/></g><g id="as"><use transform="matrix(0.0087890625,0,0,0.0087890625,0,0)" xlink:href="#aG"/><use transform="matrix(0.0087890625,0,0,0.0087890625,10.494140625,0)" xlink:href="#aR"/><use transform="matrix(0.0087890625,0,0,0.0087890625,17.5517578125,0)" xlink:href="#aR"/><use transform="matrix(0.0087890625,0,0,0.0087890625,24.029296875,0)" xlink:href="#aP"/><use transform="matrix(0.0087890625,0,0,0.0087890625,34.822265625,0)" xlink:href="#aR"/></g><g id="at"><use transform="matrix(0.0087890625,0,0,0.0087890625,0,0)" xlink:href="#aJ"/><use transform="matrix(0.0087890625,0,0,0.0087890625,4.359375,0)" xlink:href="#aL"/><use transform="matrix(0.0087890625,0,0,0.0087890625,14.73046875,0)" xlink:href="#aZ"/><use transform="matrix(0.0087890625,0,0,0.0087890625,24.7587890625,0)" xlink:href="#aS"/><use transform="matrix(0.0087890625,0,0,0.0087890625,34.8662109375,0)" xlink:href="#aU"/><use transform="matrix(0.0087890625,0,0,0.0087890625,39.2255859375,0)" xlink:href="#aJ"/><use transform="matrix(0.0087890625,0,0,0.0087890625,43.5849609375,0)" xlink:href="#aM"/><use transform="matrix(0.0087890625,0,0,0.0087890625,54.6064453125,0)" xlink:href="#aP"/><use transform="matrix(0.0087890625,0,0,0.0087890625,65.3994140625,0)" xlink:href="#aH"/></g><g id="au"><use transform="matrix(0.0087890625,0,0,0.0087890625,0,0)" xlink:href="#aO"/><use transform="matrix(0.0087890625,0,0,0.0087890625,10.283203125,0)" xlink:href="#aP"/><use transform="matrix(0.0087890625,0,0,0.0087890625,21.076171875,0)" xlink:href="#aL"/><use transform="matrix(0.0087890625,0,0,0.0087890625,31.7109375,0)" xlink:href="#aH"/><use transform="matrix(0.0087890625,0,0,0.0087890625,41.2119140625,0)" xlink:href="#aT"/><use transform="matrix(0.0087890625,0,0,0.0087890625,51.85546875,0)" xlink:href="#aU"/><use transform="matrix(0.0087890625,0,0,0.0087890625,56.478515625,0)" xlink:href="#aI"/><use transform="matrix(0.0087890625,0,0,0.0087890625,62.455078125,0)" xlink:href="#aS"/></g><g id="av"><use transform="matrix(0.0087890625,0,0,0.0087890625,0,0)" xlink:href="#aO"/><use transform="matrix(0.0087890625,0,0,0.0087890625,10.458984375,0)" xlink:href="#aS"/><use transform="matrix(0.0087890625,0,0,0.0087890625,20.56640625,0)" xlink:href="#aU"/><use transform="matrix(0.0087890625,0,0,0.0087890625,24.92578125,0)" xlink:href="#aO"/><use transform="matrix(0.0087890625,0,0,0.0087890625,35.208984375,0)" xlink:href="#aT"/><use transform="matrix(0.0087890625,0,0,0.0087890625,45.8525390625,0)" xlink:href="#aU"/><use transform="matrix(0.0087890625,0,0,0.0087890625,50.2119140625,0)" xlink:href="#aS"/></g><g id="aw"><use transform="matrix(0.0087890625,0,0,0.0087890625,0,0)" xlink:href="#aL"/><use transform="matrix(0.0087890625,0,0,0.0087890625,10.634765625,0)" xlink:href="#aJ"/><use transform="matrix(0.0087890625,0,0,0.0087890625,14.994140625,0)" xlink:href="#aZ"/><use transform="matrix(0.0087890625,0,0,0.0087890625,24.7587890625,0)" xlink:href="#aG"/><use transform="matrix(0.0087890625,0,0,0.0087890625,35.2529296875,0)" xlink:href="#aU"/></g><g id="ax"><use transform="matrix(0.0087890625,0,0,0.0087890625,0,0)" xlink:href="#aN"/><use transform="matrix(0.0087890625,0,0,0.0087890625,15.767578125,0)" xlink:href="#aG"/><use transform="matrix(0.0087890625,0,0,0.0087890625,26.26171875,0)" xlink:href="#aM"/><use transform="matrix(0.0087890625,0,0,0.0087890625,37.283203125,0)" xlink:href="#aJ"/><use transform="matrix(0.0087890625,0,0,0.0087890625,41.642578125,0)" xlink:href="#aO"/><use transform="matrix(0.0087890625,0,0,0.0087890625,51.92578125,0)" xlink:href="#aJ"/><use transform="matrix(0.0087890625,0,0,0.0087890625,56.28515625,0)" xlink:href="#aK"/><use transform="matrix(0.0087890625,0,0,0.0087890625,67.078125,0)" xlink:href="#aL"/></g><g id="ay"><use transform="matrix(0.0087890625,0,0,0.0087890625,0,0)" xlink:href="#aH"/><use transform="matrix(0.0087890625,0,0,0.0087890625,9.5009765625,0)" xlink:href="#aG"/><use transform="matrix(0.0087890625,0,0,0.0087890625,19.9951171875,0)" xlink:href="#aX"/><use transform="matrix(0.0087890625,0,0,0.0087890625,31.0341796875,0)" xlink:href="#aT"/><use transform="matrix(0.0087890625,0,0,0.0087890625,41.677734375,0)" xlink:href="#aL"/></g><g id="az"><use transform="matrix(0.0087890625,0,0,0.0087890625,0,0)" xlink:href="#aR"/><use transform="matrix(0.0087890625,0,0,0.0087890625,6.7763671875,0)" xlink:href="#aS"/><use transform="matrix(0.0087890625,0,0,0.0087890625,16.8837890625,0)" xlink:href="#aL"/><use transform="matrix(0.0087890625,0,0,0.0087890625,27.5185546875,0)" xlink:href="#aX"/><use transform="matrix(0.0087890625,0,0,0.0087890625,38.5576171875,0)" xlink:href="#aP"/><use transform="matrix(0.0087890625,0,0,0.0087890625,49.3505859375,0)" xlink:href="#aH"/></g><g id="aA"><use transform="matrix(0.0087890625,0,0,0.0087890625,0,0)" xlink:href="#aO"/><use transform="matrix(0.0087890625,0,0,0.0087890625,10.283203125,0)" xlink:href="#aP"/><use transform="matrix(0.0087890625,0,0,0.0087890625,21.076171875,0)" xlink:href="#aR"/><use transform="matrix(0.0087890625,0,0,0.0087890625,28.1337890625,0)" xlink:href="#aI"/><use transform="matrix(0.0087890625,0,0,0.0087890625,33.8466796875,0)" xlink:href="#aG"/></g><g id="aB"><use transform="matrix(0.0087890625,0,0,0.0087890625,0,0)" xlink:href="#aG"/><use transform="matrix(0.0087890625,0,0,0.0087890625,10.494140625,0)" xlink:href="#aH"/></g><g id="aC"><use transform="matrix(0.0087890625,0,0,0.0087890625,0,0)" xlink:href="#aN"/><use transform="matrix(0.0087890625,0,0,0.0087890625,15.767578125,0)" xlink:href="#aG"/><use transform="matrix(0.0087890625,0,0,0.0087890625,26.26171875,0)" xlink:href="#aM"/><use transform="matrix(0.0087890625,0,0,0.0087890625,37.283203125,0)" xlink:href="#aJ"/><use transform="matrix(0.0087890625,0,0,0.0087890625,41.642578125,0)" xlink:href="#aO"/><use transform="matrix(0.0087890625,0,0,0.0087890625,51.92578125,0)" xlink:href="#aJ"/><use transform="matrix(0.0087890625,0,0,0.0087890625,56.28515625,0)" xlink:href="#aP"/><use transform="matrix(0.0087890625,0,0,0.0087890625,67.078125,0)" xlink:href="#aL"/></g><g id="aD"><use transform="matrix(0.0087890625,0,0,0.0087890625,0,0)" xlink:href="#aS"/><use transform="matrix(0.0087890625,0,0,0.0087890625,10.107421875,0)" xlink:href="#aT"/><use transform="matrix(0.0087890625,0,0,0.0087890625,20.7509765625,0)" xlink:href="#aI"/><use transform="matrix(0.0087890625,0,0,0.0087890625,26.4638671875,0)" xlink:href="#aP"/><use transform="matrix(0.0087890625,0,0,0.0087890625,37.2568359375,0)" xlink:href="#aN"/><use transform="matrix(0.0087890625,0,0,0.0087890625,53.0244140625,0)" xlink:href="#aS"/><use transform="matrix(0.0087890625,0,0,0.0087890625,63.1318359375,0)" xlink:href="#aI"/><use transform="matrix(0.0087890625,0,0,0.0087890625,69.0205078125,0)" xlink:href="#aJ"/><use transform="matrix(0.0087890625,0,0,0.0087890625,73.3798828125,0)" xlink:href="#aO"/><use transform="matrix(0.0087890625,0,0,0.0087890625,83.8388671875,0)" xlink:href="#aS"/></g><g id="aE"><use transform="matrix(0.0087890625,0,0,0.0087890625,0,0)" xlink:href="#aS"/><use transform="matrix(0.0087890625,0,0,0.0087890625,10.107421875,0)" xlink:href="#aT"/><use transform="matrix(0.0087890625,0,0,0.0087890625,20.7509765625,0)" xlink:href="#aI"/><use transform="matrix(0.0087890625,0,0,0.0087890625,26.4638671875,0)" xlink:href="#aP"/><use transform="matrix(0.0087890625,0,0,0.0087890625,37.2568359375,0)" xlink:href="#aN"/><use transform="matrix(0.0087890625,0,0,0.0087890625,53.0244140625,0)" xlink:href="#aS"/><use transform="matrix(0.0087890625,0,0,0.0087890625,63.1318359375,0)" xlink:href="#aI"/><use transform="matrix(0.0087890625,0,0,0.0087890625,69.0205078125,0)" xlink:href="#aJ"/><use transform="matrix(0.0087890625,0,0,0.0087890625,73.3798828125,0)" xlink:href="#aO"/><use transform="matrix(0.0087890625,0,0,0.0087890625,83.8388671875,0)" xlink:href="#aS"/></g></defs></g></svg>