<svg xmlns="http://www.w3.org/2000/svg" xmlns:xlink="http://www.w3.org/1999/xlink" xmlns:lucid="lucid" width="3743" height="1889"><g transform="translate(-2555 839)" lucid:page-tab-id="0_0"><path d="M-1500-6500h8000v7500h-8000z" fill="#fff"/><path d="M2620-780h36.78V980H2620zM2657.78-780h35.78v540h-35.78M2657.78-240h35.78V980h-35.78" stroke="#000" stroke-width="2" fill="#fff"/><path d="M2693.56-780h3540v540h-3540zM2693.56-240h3540V980h-3540z" stroke="#000" stroke-width="2" fill="none"/><use xlink:href="#a" transform="matrix(-1.8369701987210297e-16,-1,1,-1.8369701987210297e-16,2620,980) translate(669.16357421875 25.0478515625)"/><use xlink:href="#b" transform="matrix(-1.8369701987210297e-16,-1,1,-1.8369701987210297e-16,2620,980) translate(739.32666015625 25.0478515625)"/><use xlink:href="#c" transform="matrix(-1.8369701987210297e-16,-1,1,-1.8369701987210297e-16,2620,980) translate(765.90478515625 25.0478515625)"/><use xlink:href="#d" transform="matrix(-1.8369701987210297e-16,-1,1,-1.8369701987210297e-16,2620,980) translate(828.57080078125 25.0478515625)"/><use xlink:href="#e" transform="matrix(-1.8369701987210297e-16,-1,1,-1.8369701987210297e-16,2620,980) translate(862.22412109375 25.0478515625)"/><use xlink:href="#b" transform="matrix(-1.8369701987210297e-16,-1,1,-1.8369701987210297e-16,2620,980) translate(911.85595703125 25.0478515625)"/><use xlink:href="#f" transform="matrix(-1.8369701987210297e-16,-1,1,-1.8369701987210297e-16,2620,980) translate(938.43408203125 25.0478515625)"/><use xlink:href="#g" transform="matrix(-1.8369701987210297e-16,-1,1,-1.8369701987210297e-16,2620,980) translate(1006.60205078125 25.0478515625)"/><use xlink:href="#h" transform="matrix(-1.8369701987210297e-16,-1,1,-1.8369701987210297e-16,2656.779296875,-240) translate(192.2255859375 25.0478515625)"/><use xlink:href="#i" transform="matrix(-1.8369701987210297e-16,-1,1,-1.8369701987210297e-16,2656.779296875,980) translate(577.2783203125 25.0478515625)"/><path d="M2814-515c0 16.57-13.42 30-30 30-16.55 0-30-13.43-30-30s13.45-30 30-30c16.58 0 30 13.43 30 30z" stroke="#000" stroke-width="2" fill="#fff"/><path d="M2811-515c0 14.9-12.07 27-27 27-14.9 0-27-12.1-27-27s12.1-27 27-27c14.93 0 27 12.1 27 27z" stroke="#000" stroke-width="2" fill="#fff"/><path d="M2764-522.5h28v-7.5l12 15-12 15v-7.5h-28z" stroke="#000" stroke-width="2" fill="#fff"/><use xlink:href="#j" transform="matrix(1,0,0,1,2754.01332213553,-483) translate(11.9677734375 17.4375)"/><use xlink:href="#k" transform="matrix(1,0,0,1,2754.01332213553,-483) translate(-6.68994140625 43.572656249999994)"/><path d="M2954-545h220v80h-220z" stroke="#000" stroke-width="2" fill="#fff"/><use xlink:href="#l" transform="matrix(1,0,0,1,2954.01332213553,-545) translate(36.89318359375 33.375)"/><use xlink:href="#m" transform="matrix(1,0,0,1,2954.01332213553,-545) translate(104.56896484375001 33.375)"/><use xlink:href="#n" transform="matrix(1,0,0,1,2954.01332213553,-545) translate(119.73888671875001 33.375)"/><use xlink:href="#o" transform="matrix(1,0,0,1,2954.01332213553,-545) translate(81.20324218750001 59.510156249999994)"/><path d="M3264-505l37.5-37.5L3339-505l-37.5 37.5z" stroke="#000" stroke-width="2" fill="#fff"/><use xlink:href="#p" transform="matrix(1,0,0,1,3264.01332213553,-467.5) translate(17.126953125 17.4375)"/><use xlink:href="#q" transform="matrix(1,0,0,1,3264.01332213553,-467.5) translate(9.26953125 43.572656249999994)"/><path d="M2815.5-515h121.13" stroke="#333" fill="none"/><path d="M2815.53-514.52h-.55l.03-.46v-.5h.53z" stroke="#333" stroke-width=".05" fill="#333"/><path d="M2951.4-515l-14.27 4.63v-9.26z" stroke="#333" fill="#333"/><path d="M3301.5-465.6V-112a12 12 0 0 0 12 12h1737.14" stroke="#333" fill="none"/><path d="M3301.5-466.1l.5-.46v1h-.96v-1z" stroke="#333" stroke-width=".05" fill="#333"/><path d="M5065.4-100l-14.26 4.64v-9.28z" stroke="#333" fill="#333"/><use xlink:href="#r" transform="matrix(1,0,0,1,3372.1753895463025,-96) translate(0.005000000000002558 17.4375)"/><use xlink:href="#s" transform="matrix(1,0,0,1,3372.1753895463025,-96) translate(63.1368359375 17.4375)"/><path d="M3301.5-544.4V-618a12 12 0 0 1 12-12h563.13" stroke="#333" fill="none"/><path d="M3302-543.44l-.5-.47-.46.46v-1h.95z" stroke="#333" stroke-width=".05" fill="#333"/><path d="M3891.4-630l-14.27 4.63v-9.26z" stroke="#333" fill="#333"/><use xlink:href="#t" transform="matrix(1,0,0,1,3496.9939570241904,-655.779296875) translate(0.009999999999990905 17.4375)"/><use xlink:href="#m" transform="matrix(1,0,0,1,3496.9939570241904,-655.779296875) translate(57.11253906249999 17.4375)"/><use xlink:href="#u" transform="matrix(1,0,0,1,3496.9939570241904,-655.779296875) translate(72.28246093749999 17.4375)"/><use xlink:href="#v" transform="matrix(1,0,0,1,3496.9939570241904,-655.779296875) translate(124.88499999999999 17.4375)"/><path d="M3954-630c0 16.57-13.42 30-30 30-16.55 0-30-13.43-30-30s13.45-30 30-30c16.58 0 30 13.43 30 30z" stroke="#000" stroke-width="2" fill="#fff"/><path d="M3951-630c0 14.9-12.07 27-27 27-14.9 0-27-12.1-27-27s12.1-27 27-27c14.93 0 27 12.1 27 27z" stroke="#000" stroke-width="2" fill="#fff"/><path d="M3904-637.5h28v-7.5l12 15-12 15v-7.5h-28z" stroke="#000" stroke-width="2" fill="#fff"/><use xlink:href="#j" transform="matrix(1,0,0,1,3894.01332213553,-598) translate(11.9677734375 17.4375)"/><use xlink:href="#k" transform="matrix(1,0,0,1,3894.01332213553,-598) translate(-6.68994140625 43.572656249999994)"/><path d="M5068.03-140h220v80h-220z" stroke="#000" stroke-width="2" fill="#fff"/><use xlink:href="#w" transform="matrix(1,0,0,1,5068.02664427106,-140) translate(16.058710937500003 33.375)"/><use xlink:href="#x" transform="matrix(1,0,0,1,5068.02664427106,-140) translate(90.29992187500001 33.375)"/><use xlink:href="#y" transform="matrix(1,0,0,1,5068.02664427106,-140) translate(182.4356640625 33.375)"/><use xlink:href="#z" transform="matrix(1,0,0,1,5068.02664427106,-140) translate(77.48986328125001 59.510156249999994)"/><path d="M5698.2 105.52l-.15 1.93-.46 1.9-.76 1.8-1.02 1.68-1.27 1.5-1.5 1.26-1.66 1.02-1.82.75-1.9.45-1.93.16h-80.8v-.95h80.76l1.83-.15 1.76-.42 1.66-.7 1.54-.94 1.38-1.17 1.17-1.38.94-1.54.7-1.67.4-1.76.15-1.82V22.7h.95zm76.43-225.05h-64.88l-1.83.15-1.75.42-1.67.7-1.55.94-1.37 1.17-1.18 1.38-.94 1.54-.7 1.67-.4 1.76-.16 1.82v82.77h-.95v-82.82l.15-1.93.46-1.9.75-1.8 1.03-1.68 1.27-1.5 1.5-1.26 1.66-1.02 1.8-.75 1.9-.45 1.95-.16h64.93z" stroke="#333" stroke-width=".05" fill="#333"/><path d="M5604.95 117.97h-.98l.47-.47-.47-.47h.98z" fill="#333"/><path stroke="#333" stroke-width=".05" fill="#333"/><path d="M5789.4-120l-14.27 4.64v-9.28z" fill="#333"/><path d="M5790.93-120l-16.28 5.3v-10.6zm-15.33 3.98l12.26-3.98-12.26-3.98z" stroke="#333" stroke-width=".05" fill="#333"/><use xlink:href="#A" transform="matrix(1,0,0,1,5667.642129046982,-25.207226562500054) translate(6.522089843749999 17.4375)"/><use xlink:href="#B" transform="matrix(1,0,0,1,5667.642129046982,-25.207226562500054) translate(0.004999999999999005 43.572656249999994)"/><path d="M3064.5 847.98l.13 1.82.42 1.76.7 1.67.94 1.54 1.16 1.38 1.38 1.17 1.54.95 1.67.7 1.76.4 1.83.15H4412.5v.96H3076l-1.94-.16-1.9-.45-1.8-.75-1.68-1.03-1.5-1.28-1.26-1.5-1.02-1.66-.75-1.8-.46-1.9-.16-1.94V13.62h.95z" stroke="#333" stroke-width=".05" fill="#333"/><path d="M4413 860.48h-.5v-.96h.5z" fill="#333"/><path stroke="#333" stroke-width=".05" fill="#333"/><path d="M3068.65 13.13h-9.27L3064-1.13z" fill="#333"/><path d="M3069.3 13.6h-10.58l5.3-16.27zm-9.27-.94h7.96L3064 .4z" stroke="#333" stroke-width=".05" fill="#333"/><path d="M5792-180h160v120h-160z" stroke="#000" stroke-width="2" fill="#fff"/><use xlink:href="#C" transform="matrix(1,0,0,1,5792.01332213553,-180) translate(50.306757812499995 40.40625)"/><use xlink:href="#D" transform="matrix(1,0,0,1,5792.01332213553,-180) translate(16.446894531250003 66.54140625)"/><use xlink:href="#E" transform="matrix(1,0,0,1,5792.01332213553,-180) translate(122.43419921875001 66.54140625)"/><use xlink:href="#F" transform="matrix(1,0,0,1,5792.01332213553,-180) translate(19.966914062500003 92.67656249999999)"/><use xlink:href="#b" transform="matrix(1,0,0,1,5792.01332213553,-180) translate(66.32921875 92.67656249999999)"/><use xlink:href="#G" transform="matrix(1,0,0,1,5792.01332213553,-180) translate(92.90734375 92.67656249999999)"/><path d="M2954-83.75h220v80h-220z" stroke="#000" stroke-width="2" fill="#fff"/><use xlink:href="#H" transform="matrix(1,0,0,1,2954.01332213553,-83.75) translate(26.921992187500003 33.375)"/><use xlink:href="#I" transform="matrix(1,0,0,1,2954.01332213553,-83.75) translate(114.38195312500001 33.375)"/><use xlink:href="#J" transform="matrix(1,0,0,1,2954.01332213553,-83.75) translate(81.20324218750001 59.510156249999994)"/><path d="M5455.3 105.48l.14 1.82.43 1.76.7 1.67.93 1.54 1.18 1.38 1.37 1.17 1.55.95 1.66.7 1.76.4 1.82.16h59.27v.94h-59.3l-1.93-.15-1.9-.45-1.8-.75-1.68-1.03-1.5-1.28-1.27-1.5-1.02-1.66-.74-1.8-.46-1.9-.15-1.94V83h.95zm-55.88-65v-.95h31.84v.95z" stroke="#333" stroke-width=".05" fill="#333"/><path d="M5526.6 117.5l.5.47h-1v-.94h1z" fill="#333"/><path stroke="#333" stroke-width=".05" fill="#333"/><path d="M5398.92 44.63L5384.66 40l14.26-4.63z" fill="#333"/><path d="M5399.4 45.3l-16.28-5.3 16.28-5.3zm-13.2-5.3l12.25 3.98v-7.96z" stroke="#333" stroke-width=".05" fill="#333"/><use xlink:href="#K" transform="matrix(1,0,0,1,5431.258327463888,35.09003754735271) translate(0.004999999999999005 17.4375)"/><use xlink:href="#L" transform="matrix(1,0,0,1,5431.258327463888,35.09003754735271) translate(8.244746093749999 43.572656249999994)"/><path d="M4414 820h220v80h-220z" stroke="#000" stroke-width="2" fill="#fff"/><use xlink:href="#w" transform="matrix(1,0,0,1,4414.01332213553,820) translate(23.916132812500003 33.375)"/><use xlink:href="#M" transform="matrix(1,0,0,1,4414.01332213553,820) translate(98.15734375000001 33.375)"/><use xlink:href="#y" transform="matrix(1,0,0,1,4414.01332213553,820) translate(174.5782421875 33.375)"/><use xlink:href="#N" transform="matrix(1,0,0,1,4414.01332213553,820) translate(34.647578125 59.510156249999994)"/><use xlink:href="#O" transform="matrix(1,0,0,1,4414.01332213553,820) translate(124.97277343750001 59.510156249999994)"/><path d="M3301.5-465.6V66.5a12 12 0 0 0 12 12h980.64" stroke="#333" fill="none"/><path d="M3301.5-466.1l.5-.46v1h-.96v-1z" stroke="#333" stroke-width=".05" fill="#333"/><path d="M4308.9 78.5l-14.26 4.64v-9.27z" stroke="#333" fill="#333"/><use xlink:href="#P" transform="matrix(1,0,0,1,3357.395810849448,82.50735931288) translate(0.0049999999999954525 17.4375)"/><use xlink:href="#s" transform="matrix(1,0,0,1,3357.395810849448,82.50735931288) translate(92.7032421875 17.4375)"/><path d="M4421.52 27v-373.6a12 12 0 0 1 12-12h160.62" stroke="#333" fill="none"/><path d="M4422 27.5h-.95V27h.94z" stroke="#333" stroke-width=".05" fill="#333"/><path d="M4608.9-358.6l-14.26 4.65v-9.27z" stroke="#333" fill="#333"/><path d="M3175.5-505h70.72" stroke="#333" fill="none"/><path d="M3175.53-504.52h-.52v-.96h.53z" stroke="#333" stroke-width=".05" fill="#333"/><path d="M3260.98-505l-14.26 4.63v-9.26z" stroke="#333" fill="#333"/><path d="M3064-85.25v-362.37" stroke="#333" fill="none"/><path d="M3064.5-84.75h-.96v-.5h.95z" stroke="#333" stroke-width=".05" fill="#333"/><path d="M3064-462.38l4.65 14.26h-9.27z" stroke="#333" fill="#333"/><path d="M5953.5-120h82.13" stroke="#333" fill="none"/><path d="M5953.53-119.53h-.52v-.94h.53z" stroke="#333" stroke-width=".05" fill="#333"/><path d="M6050.4-120l-14.27 4.64v-9.28z" stroke="#333" fill="#333"/><path d="M6053-180h160v120h-160z" stroke="#000" stroke-width="2" fill="#fff"/><use xlink:href="#Q" transform="matrix(1,0,0,1,6053.01332213553,-180) translate(18.916621093750003 55.875)"/><use xlink:href="#R" transform="matrix(1,0,0,1,6053.01332213553,-180) translate(69.42736328125 55.875)"/><use xlink:href="#S" transform="matrix(1,0,0,1,6053.01332213553,-180) translate(119.57775390625 55.875)"/><use xlink:href="#T" transform="matrix(1,0,0,1,6053.01332213553,-180) translate(24.137324218749995 77.654296875)"/><path d="M6133.5 848.02l-.16 1.93-.46 1.9-.75 1.8-1.02 1.68-1.26 1.5-1.5 1.26-1.66 1.02-1.8.75-1.9.45-1.95.15H4651.4v-.95H6121l1.82-.14 1.75-.42 1.68-.7 1.54-.94 1.36-1.17 1.18-1.38.94-1.54.7-1.67.42-1.76.14-1.82V-58.5h.95z" stroke="#333" stroke-width=".05" fill="#333"/><path d="M6133.5-58.5h-.96v-.5h.95z" fill="#333"/><path stroke="#333" stroke-width=".05" fill="#333"/><path d="M4650.9 864.63l-14.27-4.63 14.27-4.63z" fill="#333"/><path d="M4651.37 865.3l-16.28-5.3 16.27-5.3zm-13.2-5.3l12.25 3.98v-7.96z" stroke="#333" stroke-width=".05" fill="#333"/><path d="M5455.53-412.34h220v80h-220z" stroke="#000" stroke-width="2" fill="#fff"/><use xlink:href="#l" transform="matrix(1,0,0,1,5455.52664427106,-412.33578643762667) translate(25.704707031250003 33.375)"/><use xlink:href="#U" transform="matrix(1,0,0,1,5455.52664427106,-412.33578643762667) translate(93.38048828125001 33.375)"/><use xlink:href="#V" transform="matrix(1,0,0,1,5455.52664427106,-412.33578643762667) translate(59.27892578125 59.510156249999994)"/><use xlink:href="#s" transform="matrix(1,0,0,1,5455.52664427106,-412.33578643762667) translate(112.62853515625 59.510156249999994)"/><path d="M4611.52-398.6h220v80h-220z" stroke="#000" stroke-width="2" fill="#fff"/><use xlink:href="#l" transform="matrix(1,0,0,1,4611.519983203295,-398.58578643762667) translate(39.31017578125 33.375)"/><use xlink:href="#W" transform="matrix(1,0,0,1,4611.519983203295,-398.58578643762667) translate(106.98595703125001 33.375)"/><use xlink:href="#X" transform="matrix(1,0,0,1,4611.519983203295,-398.58578643762667) translate(159.18419921875 33.375)"/><use xlink:href="#Y" transform="matrix(1,0,0,1,4611.519983203295,-398.58578643762667) translate(48.93859375 59.510156249999994)"/><use xlink:href="#m" transform="matrix(1,0,0,1,4611.519983203295,-398.58578643762667) translate(107.1661328125 59.510156249999994)"/><use xlink:href="#Z" transform="matrix(1,0,0,1,4611.519983203295,-398.58578643762667) translate(122.3360546875 59.510156249999994)"/><path d="M3301.5-465.6V308a12 12 0 0 0 12 12h443.13" stroke="#333" fill="none"/><path d="M3301.5-466.1l.5-.46v1h-.96v-1z" stroke="#333" stroke-width=".05" fill="#333"/><path d="M3771.4 320l-14.27 4.63v-9.26z" stroke="#333" fill="#333"/><use xlink:href="#aa" transform="matrix(1,0,0,1,3351.719008392144,324) translate(0.005000000000002558 17.4375)"/><use xlink:href="#s" transform="matrix(1,0,0,1,3351.719008392144,324) translate(71.9258984375 17.4375)"/><path d="M3594 580h160v100h-160z" stroke="#000" stroke-width="2" fill="#fff"/><use xlink:href="#ab" transform="matrix(1,0,0,1,3594.01332213553,580) translate(22.937617187500003 43.609375)"/><use xlink:href="#ac" transform="matrix(1,0,0,1,3594.01332213553,580) translate(76.190546875 43.609375)"/><use xlink:href="#y" transform="matrix(1,0,0,1,3594.01332213553,580) translate(115.5567578125 43.609375)"/><use xlink:href="#ad" transform="matrix(1,0,0,1,3594.01332213553,580) translate(5.508906250000004 69.74453125)"/><use xlink:href="#ae" transform="matrix(1,0,0,1,3594.01332213553,580) translate(68.17492187500001 69.74453125)"/><path d="M3774 260h250v120h-250z" stroke="#000" stroke-width="2" fill="#fff"/><use xlink:href="#w" transform="matrix(1,0,0,1,3774.01332213553,260) translate(50.8253125 53.53125)"/><use xlink:href="#u" transform="matrix(1,0,0,1,3774.01332213553,260) translate(125.06652343750001 53.53125)"/><use xlink:href="#y" transform="matrix(1,0,0,1,3774.01332213553,260) translate(177.6690625 53.53125)"/><use xlink:href="#af" transform="matrix(1,0,0,1,3774.01332213553,260) translate(37.05724609375 79.66640625)"/><use xlink:href="#ag" transform="matrix(1,0,0,1,3774.01332213553,260) translate(138.27208984375 79.66640625)"/><use xlink:href="#s" transform="matrix(1,0,0,1,3774.01332213553,260) translate(164.85021484375 79.66640625)"/><path d="M3954-393.75h220v80h-220z" stroke="#000" stroke-width="2" fill="#fff"/><use xlink:href="#l" transform="matrix(1,0,0,1,3954.01332213553,-393.75) translate(21.020136718750003 33.375)"/><use xlink:href="#ah" transform="matrix(1,0,0,1,3954.01332213553,-393.75) translate(88.69591796875001 33.375)"/><use xlink:href="#ag" transform="matrix(1,0,0,1,3954.01332213553,-393.75) translate(109.13927734375001 33.375)"/><use xlink:href="#ai" transform="matrix(1,0,0,1,3954.01332213553,-393.75) translate(135.71740234375 33.375)"/><use xlink:href="#aj" transform="matrix(1,0,0,1,3954.01332213553,-393.75) translate(188.88244140625 33.375)"/><use xlink:href="#ak" transform="matrix(1,0,0,1,3954.01332213553,-393.75) translate(76.57580078125001 59.510156249999994)"/><path d="M4920.2 468.5h-649.27v-.96h649.28zm952.3-12.47l-.16 1.94-.46 1.9-.75 1.8-1.02 1.68-1.26 1.5-1.5 1.26-1.66 1.03-1.8.75-1.9.46-1.95.15h-761.75v-.96H5860l1.82-.14 1.75-.43 1.68-.7 1.54-.93 1.36-1.18 1.18-1.37.94-1.55.7-1.67.42-1.76.14-1.82V-42.62h.95z" stroke="#333" stroke-width=".05" fill="#333"/><path d="M4270.94 468.5h-1l.5-.5-.5-.46h1z" fill="#333"/><path stroke="#333" stroke-width=".05" fill="#333"/><path d="M5876.65-43.12h-9.27l4.63-14.26z" fill="#333"/><path d="M5877.3-42.64h-10.58l5.3-16.28zm-9.27-.95h7.97l-4-12.24z" stroke="#333" stroke-width=".05" fill="#333"/><use xlink:href="#al" transform="matrix(1,0,0,1,4920.205915737428,457.12507018826) translate(0.0049999999999954525 17.4375)"/><use xlink:href="#W" transform="matrix(1,0,0,1,4920.205915737428,457.12507018826) translate(29.720820312499995 17.4375)"/><use xlink:href="#am" transform="matrix(1,0,0,1,4920.205915737428,457.12507018826) translate(81.9190625 17.4375)"/><use xlink:href="#an" transform="matrix(1,0,0,1,4920.205915737428,457.12507018826) translate(117.9102734375 17.4375)"/><path d="M4311.52 28.5h220v100h-220z" stroke="#000" stroke-width="2" fill="#fff"/><use xlink:href="#w" transform="matrix(1,0,0,1,4311.519983203295,28.50735931288) translate(16.058710937500003 30.328125)"/><use xlink:href="#x" transform="matrix(1,0,0,1,4311.519983203295,28.50735931288) translate(90.29992187500001 30.328125)"/><use xlink:href="#y" transform="matrix(1,0,0,1,4311.519983203295,28.50735931288) translate(182.4356640625 30.328125)"/><use xlink:href="#ao" transform="matrix(1,0,0,1,4311.519983203295,28.50735931288) translate(40.78234375 56.463281249999994)"/><use xlink:href="#y" transform="matrix(1,0,0,1,4311.519983203295,28.50735931288) translate(157.71203125 56.463281249999994)"/><use xlink:href="#ap" transform="matrix(1,0,0,1,4311.519983203295,28.50735931288) translate(73.93029296875001 82.59843749999999)"/><path d="M5182.85 251.72h-394.42v-.94h394.42zm689.64-12.45l-.16 1.93-.46 1.9-.75 1.8-1.02 1.68-1.26 1.5-1.5 1.26-1.66 1.03-1.8.75-1.9.45-1.95.16h-499.1v-.95H5860l1.82-.15 1.75-.42 1.68-.68 1.54-.95 1.36-1.17 1.18-1.38.94-1.54.7-1.67.42-1.75.14-1.82V-42.62h.95z" stroke="#333" stroke-width=".05" fill="#333"/><path d="M4788.45 251.72h-1l.48-.47-.47-.47h1z" fill="#333"/><path stroke="#333" stroke-width=".05" fill="#333"/><path d="M5876.65-43.12h-9.27l4.63-14.26z" fill="#333"/><path d="M5877.3-42.64h-10.58l5.3-16.28zm-9.27-.95h7.97l-4-12.24z" stroke="#333" stroke-width=".05" fill="#333"/><g><use xlink:href="#al" transform="matrix(1,0,0,1,5182.854313832948,240.3603515625) translate(0.0049999999999954525 17.4375)"/><use xlink:href="#W" transform="matrix(1,0,0,1,5182.854313832948,240.3603515625) translate(29.720820312499995 17.4375)"/><use xlink:href="#am" transform="matrix(1,0,0,1,5182.854313832948,240.3603515625) translate(81.9190625 17.4375)"/><use xlink:href="#an" transform="matrix(1,0,0,1,5182.854313832948,240.3603515625) translate(117.9102734375 17.4375)"/></g><path d="M5528.03 117.5l37.5-37.5 37.5 37.5-37.5 37.5z" stroke="#000" stroke-width="2" fill="#fff"/><g><use xlink:href="#aq" transform="matrix(1,0,0,1,5528.02664427106,154.9999999999999) translate(12.50830078125 17.4375)"/></g><path d="M5178.03-141.5v-218.84a12 12 0 0 1 12-12h248.1" stroke="#333" fill="none"/><path d="M5178.5-141h-.95v-.5h.95z" stroke="#333" stroke-width=".05" fill="#333"/><path d="M5452.9-372.34l-14.26 4.64v-9.27z" stroke="#333" fill="#333"/><path d="M5222.04 0h160v80h-160z" stroke="#000" stroke-width="2" fill="#fff"/><g><use xlink:href="#ar" transform="matrix(1,0,0,1,5222.03996640659,0) translate(7.205195312500004 33.375)"/><use xlink:href="#as" transform="matrix(1,0,0,1,5222.03996640659,0) translate(81.44640625000001 33.375)"/><use xlink:href="#b" transform="matrix(1,0,0,1,5222.03996640659,0) translate(45.91662109375 59.510156249999994)"/><use xlink:href="#at" transform="matrix(1,0,0,1,5222.03996640659,0) translate(72.49474609375 59.510156249999994)"/></g><path d="M4711.52 251.25l37.5-37.5 37.5 37.5-37.5 37.5z" stroke="#000" stroke-width="2" fill="#fff"/><g><use xlink:href="#aq" transform="matrix(1,0,0,1,4711.519983203295,288.75) translate(12.50830078125 17.4375)"/></g><path d="M4451.52 173.75h160v80h-160z" stroke="#000" stroke-width="2" fill="#fff"/><g><use xlink:href="#ar" transform="matrix(1,0,0,1,4451.519983203295,173.7499999999999) translate(7.205195312500004 33.375)"/><use xlink:href="#as" transform="matrix(1,0,0,1,4451.519983203295,173.7499999999999) translate(81.44640625000001 33.375)"/><use xlink:href="#b" transform="matrix(1,0,0,1,4451.519983203295,173.7499999999999) translate(45.91662109375 59.510156249999994)"/><use xlink:href="#at" transform="matrix(1,0,0,1,4451.519983203295,173.7499999999999) translate(72.49474609375 59.510156249999994)"/></g><path d="M4749.02 290.66v27.5a12 12 0 0 1-12 12h-199.3a12 12 0 0 1-12-12v-47.03" stroke="#333" fill="none"/><path d="M4749.02 290.16l.47-.47v.98h-.95v-1z" stroke="#333" stroke-width=".05" fill="#333"/><path d="M4525.7 256.37l4.64 14.26h-9.27z" stroke="#333" fill="#333"/><g><use xlink:href="#A" transform="matrix(1,0,0,1,4582.205514280946,334.1642135623731) translate(13.887324218750003 17.4375)"/><use xlink:href="#au" transform="matrix(1,0,0,1,4582.205514280946,334.1642135623731) translate(0.005000000000002558 43.572656249999994)"/></g><path d="M4194 468l37.5-37.5L4269 468l-37.5 37.5z" stroke="#000" stroke-width="2" fill="#fff"/><g><use xlink:href="#aq" transform="matrix(1,0,0,1,4194.01332213553,505.51471862576) translate(12.50830078125 17.4375)"/></g><path d="M3819 428h160v80h-160z" stroke="#000" stroke-width="2" fill="#fff"/><g><use xlink:href="#ar" transform="matrix(1,0,0,1,3819.01332213553,428.01471862576) translate(7.205195312500004 33.375)"/><use xlink:href="#as" transform="matrix(1,0,0,1,3819.01332213553,428.01471862576) translate(81.44640625000001 33.375)"/><use xlink:href="#b" transform="matrix(1,0,0,1,3819.01332213553,428.01471862576) translate(45.91662109375 59.510156249999994)"/><use xlink:href="#at" transform="matrix(1,0,0,1,3819.01332213553,428.01471862576) translate(72.49474609375 59.510156249999994)"/></g><path d="M4048.86 468.5h-52.46v-.96h52.46zm143.24 0h-68.34v-.96h68.34z" stroke="#333" stroke-width=".05" fill="#333"/><path d="M4192.6 468l.47.5h-.98v-.96h.97z" fill="#333"/><path stroke="#333" stroke-width=".05" fill="#333"/><path d="M3995.9 472.65l-14.27-4.63 14.27-4.64z" fill="#333"/><path d="M3996.37 473.3l-16.28-5.3 16.27-5.27zm-13.2-5.3l12.25 4v-7.97z" stroke="#333" stroke-width=".05" fill="#333"/><g><use xlink:href="#A" transform="matrix(1,0,0,1,4048.8560200418433,444.05749206326) translate(13.887324218750003 17.4375)"/><use xlink:href="#au" transform="matrix(1,0,0,1,4048.8560200418433,444.05749206326) translate(0.005000000000002558 43.572656249999994)"/></g><path d="M4175.5-353.75h44a12 12 0 0 1 12 12v754.47" stroke="#333" fill="none"/><path d="M4175.53-353.27h-.52v-.96h.53z" stroke="#333" stroke-width=".05" fill="#333"/><path d="M4231.5 427.48l-4.62-14.26h9.27z" stroke="#333" fill="#333"/><path d="M3899 426.5V397.4" stroke="#333" fill="none"/><path d="M3899.5 427h-.96v-.5h.95z" stroke="#333" stroke-width=".05" fill="#333"/><path d="M3899 382.62l4.65 14.26h-9.27z" stroke="#333" fill="#333"/><path d="M4833.02-358.6h49a12 12 0 0 1 12 12v506.94a12 12 0 0 1-12 12h-121a12 12 0 0 0-12 12v11.6" stroke="#333" fill="none"/><path d="M4833.03-358.1h-.5v-.96h.5z" stroke="#333" stroke-width=".05" fill="#333"/><path d="M4749.02 210.72l-4.64-14.27h9.27z" stroke="#333" fill="#333"/><path d="M5220.54 40h-48.83a12 12 0 0 1-12-12v-70.62" stroke="#333" fill="none"/><path d="M5221.04 40.48h-.5v-.95h.5z" stroke="#333" stroke-width=".05" fill="#333"/><path d="M5159.7-57.38l4.64 14.26h-9.27z" stroke="#333" fill="#333"/><path d="M5565.53-330.84V62.2" stroke="#333" fill="none"/><path d="M5566-330.82h-.95v-.52h.95z" stroke="#333" stroke-width=".05" fill="#333"/><path d="M5565.53 76.97l-4.64-14.27h9.26z" stroke="#333" fill="#333"/><path d="M4450.02 213.75h-34.5a12 12 0 0 1-12-12V145.9" stroke="#333" fill="none"/><path d="M4450.52 214.22h-.5v-.94h.5z" stroke="#333" stroke-width=".05" fill="#333"/><path d="M4403.52 131.13l4.63 14.26h-9.26z" stroke="#333" fill="#333"/><path d="M3899 258.5v-600.25a12 12 0 0 1 12-12h25.63" stroke="#333" fill="none"/><path d="M3899.5 259h-.96v-.5h.95z" stroke="#333" stroke-width=".05" fill="#333"/><path d="M3951.4-353.75l-14.27 4.63v-9.26z" stroke="#333" fill="#333"/><path d="M3302 617.98l.13 1.82.42 1.76.7 1.67.94 1.54 1.16 1.38 1.38 1.17 1.54.95 1.67.7 1.76.4 1.83.15h42.62v.96h-42.66l-1.94-.16-1.9-.45-1.8-.75-1.68-1.03-1.5-1.28-1.26-1.5-1.02-1.66-.75-1.8-.46-1.9-.16-1.94v-1083.6h.95zm274.63 11.54v.96h-85.25v-.96z" stroke="#333" stroke-width=".05" fill="#333"/><path d="M3302-465.57h-.96v-1l.47.48.5-.46z" fill="#333"/><path stroke="#333" stroke-width=".05" fill="#333"/><path d="M3591.4 630l-14.27 4.63v-9.26z" fill="#333"/><path d="M3592.93 630l-16.28 5.3v-10.6zm-15.33 3.98l12.26-3.98-12.26-3.98z" stroke="#333" stroke-width=".05" fill="#333"/><g><use xlink:href="#av" transform="matrix(1,0,0,1,3356.1516350906277,619.1103515625) translate(0.0049999999999954525 17.4375)"/><use xlink:href="#J" transform="matrix(1,0,0,1,3356.1516350906277,619.1103515625) translate(77.63 17.4375)"/></g><path d="M3123.32 708.98l.14 1.82.43 1.76.68 1.67.94 1.54 1.18 1.38 1.37 1.17 1.54.95 1.68.7 1.76.4 1.82.15H3662l1.82-.14 1.75-.42 1.67-.7 1.55-.94 1.36-1.17 1.18-1.38.94-1.54.7-1.67.4-1.76.16-1.82V681.5h.95v27.52l-.16 1.93-.46 1.9-.75 1.8-1.02 1.68-1.26 1.5-1.5 1.26-1.66 1.02-1.8.75-1.9.45-1.95.15h-527.2l-1.93-.15-1.9-.45-1.82-.75-1.67-1.03-1.48-1.28-1.27-1.5-1.02-1.66-.75-1.8-.46-1.9-.15-1.94V13.62h.95z" stroke="#333" stroke-width=".05" fill="#333"/><path d="M3674.5 681.5h-.96v-.5h.95z" fill="#333"/><path stroke="#333" stroke-width=".05" fill="#333"/><path d="M3127.48 13.13h-9.27l4.65-14.26z" fill="#333"/><path d="M3128.14 13.6h-10.58l5.3-16.27zm-9.28-.94h7.97L3122.85.4z" stroke="#333" stroke-width=".05" fill="#333"/><path d="M3064-463.5v362.37" stroke="#333" fill="none"/><path d="M3064.5-463.5h-.96v-.5h.95z" stroke="#333" stroke-width=".05" fill="#333"/><path d="M3064-86.37l-4.62-14.26h9.27z" stroke="#333" fill="#333"/><defs><path d="M789 20c-398 0-667-293-667-764 0-473 273-766 655-766 315 0 558 198 612 487h-196c-61-191-204-311-415-311-262 0-471 207-471 590 0 380 208 588 482 588 249 0 420-165 425-427H828v-166h572v163c0 370-256 606-611 606" id="aw"/><path d="M628 24c-324 0-524-230-524-574 0-343 198-582 503-582 237 0 487 146 487 559v75H286c9 234 145 362 343 362 132 0 231-58 273-172l174 48C1024-91 857 24 628 24zM287-650h624c-17-190-120-322-304-322-192 0-309 151-320 322" id="ax"/><path d="M538 24C308 24 148-78 108-271l171-41c32 123 123 178 257 178 156 0 256-77 256-169 0-77-54-128-164-154l-186-44c-203-48-300-148-300-305 0-192 176-326 414-326 230 0 351 112 402 269l-163 42c-31-80-94-158-238-158-133 0-233 69-233 162 0 83 57 129 188 160l169 40c203 48 298 149 298 302 0 196-179 339-441 339" id="ay"/><path d="M598-1118v154H368v674c0 100 37 144 132 144 23 0 62-6 92-12L629-6c-37 13-88 20-134 20-193 0-307-107-307-290v-688H20v-154h168v-266h180v266h230" id="az"/><path d="M158 0v-1118h180V0H158zm91-1301c-68 0-125-53-125-119s57-119 125-119c69 0 126 53 126 119s-57 119-126 119" id="aA"/><path d="M613 24c-304 0-509-231-509-576 0-350 205-580 509-580 305 0 511 230 511 580 0 345-206 576-511 576zm0-161c226 0 329-195 329-415 0-222-103-419-329-419-223 0-326 196-326 419 0 220 103 415 326 415zm-79-1127l140-294h201l-194 294H534" id="aB"/><path d="M338-670V0H158v-1118h173l1 207c72-158 192-221 342-221 226 0 378 139 378 422V0H872v-695c0-172-96-275-252-275-161 0-282 109-282 300" id="aC"/><g id="a"><use transform="matrix(0.0087890625,0,0,0.0087890625,0,0)" xlink:href="#aw"/><use transform="matrix(0.0087890625,0,0,0.0087890625,13.4296875,0)" xlink:href="#ax"/><use transform="matrix(0.0087890625,0,0,0.0087890625,23.923828125,0)" xlink:href="#ay"/><use transform="matrix(0.0087890625,0,0,0.0087890625,33.4248046875,0)" xlink:href="#az"/><use transform="matrix(0.0087890625,0,0,0.0087890625,39.3134765625,0)" xlink:href="#aA"/><use transform="matrix(0.0087890625,0,0,0.0087890625,43.6728515625,0)" xlink:href="#aB"/><use transform="matrix(0.0087890625,0,0,0.0087890625,54.4658203125,0)" xlink:href="#aC"/></g><path d="M577 24c-279 0-473-224-473-580 0-354 195-576 474-576 218 0 287 134 324 193h14v-551h180V0H922v-173h-20C865-111 790 24 577 24zm27-161c203 0 314-172 314-421 0-247-108-413-314-413-212 0-317 181-317 413 0 235 108 421 317 421" id="aD"/><g id="b"><use transform="matrix(0.0087890625,0,0,0.0087890625,0,0)" xlink:href="#aD"/><use transform="matrix(0.0087890625,0,0,0.0087890625,11.021484375,0)" xlink:href="#ax"/></g><path d="M471 26C259 26 90-98 90-318c0-256 228-303 435-329 202-27 287-16 287-108 0-139-79-219-234-219-161 0-248 86-283 164l-173-57c86-203 278-265 451-265 150 0 419 46 419 395V0H815v-152h-12C765-73 660 26 471 26zm31-159c199 0 310-134 310-271v-155c-30 35-226 55-295 64-131 17-246 59-246 186 0 116 97 176 231 176" id="aE"/><path d="M338-1490V0H158v-1490h180" id="aF"/><path d="M158 0v-1118h174v172h12c41-113 157-188 290-188 26 0 70 2 91 3v181c-11-2-60-10-108-10-161 0-279 109-279 260V0H158" id="aG"/><g id="c"><use transform="matrix(0.0087890625,0,0,0.0087890625,0,0)" xlink:href="#aE"/><use transform="matrix(0.0087890625,0,0,0.0087890625,10.107421875,0)" xlink:href="#aF"/><use transform="matrix(0.0087890625,0,0,0.0087890625,14.466796875,0)" xlink:href="#ax"/><use transform="matrix(0.0087890625,0,0,0.0087890625,24.9609375,0)" xlink:href="#aG"/><use transform="matrix(0.0087890625,0,0,0.0087890625,32.0185546875,0)" xlink:href="#az"/><use transform="matrix(0.0087890625,0,0,0.0087890625,37.9951171875,0)" xlink:href="#aE"/><use transform="matrix(0.0087890625,0,0,0.0087890625,48.1025390625,0)" xlink:href="#ay"/></g><path d="M158 418v-1536h174v179h20c37-59 106-193 324-193 279 0 474 222 474 576 0 356-194 580-473 580-213 0-288-135-325-197h-14v591H158zm492-555c209 0 317-186 317-421 0-232-105-413-317-413-206 0-314 166-314 413 0 249 111 421 314 421" id="aH"/><path d="M613 24c-304 0-509-231-509-576 0-350 205-580 509-580 305 0 511 230 511 580 0 345-206 576-511 576zm0-161c226 0 329-195 329-415 0-222-103-419-329-419-223 0-326 196-326 419 0 220 103 415 326 415" id="aI"/><g id="d"><use transform="matrix(0.0087890625,0,0,0.0087890625,0,0)" xlink:href="#aH"/><use transform="matrix(0.0087890625,0,0,0.0087890625,11.021484375,0)" xlink:href="#aI"/><use transform="matrix(0.0087890625,0,0,0.0087890625,21.814453125,0)" xlink:href="#aG"/></g><g id="e"><use transform="matrix(0.0087890625,0,0,0.0087890625,0,0)" xlink:href="#aH"/><use transform="matrix(0.0087890625,0,0,0.0087890625,11.197265625,0)" xlink:href="#aE"/><use transform="matrix(0.0087890625,0,0,0.0087890625,21.3046875,0)" xlink:href="#aG"/><use transform="matrix(0.0087890625,0,0,0.0087890625,28.3623046875,0)" xlink:href="#az"/><use transform="matrix(0.0087890625,0,0,0.0087890625,34.0751953125,0)" xlink:href="#ax"/></g><path d="M537 14c-226 0-379-139-379-422v-710h180v695c0 172 97 275 253 275 160 0 281-109 281-300v-670h181V0H879v-209C806-46 684 14 537 14" id="aJ"/><g id="f"><use transform="matrix(0.0087890625,0,0,0.0087890625,0,0)" xlink:href="#aJ"/><use transform="matrix(0.0087890625,0,0,0.0087890625,10.6435546875,0)" xlink:href="#ay"/><use transform="matrix(0.0087890625,0,0,0.0087890625,20.14453125,0)" xlink:href="#aJ"/><use transform="matrix(0.0087890625,0,0,0.0087890625,30.7880859375,0)" xlink:href="#aE"/><use transform="matrix(0.0087890625,0,0,0.0087890625,40.8955078125,0)" xlink:href="#aG"/><use transform="matrix(0.0087890625,0,0,0.0087890625,47.953125,0)" xlink:href="#aA"/><use transform="matrix(0.0087890625,0,0,0.0087890625,52.3125,0)" xlink:href="#aI"/></g><path d="M158 0v-1118h175l1 205c55-151 181-225 313-225 147 0 245 90 285 228 53-141 190-228 352-228 194 0 352 125 352 384V0h-181v-749c0-161-105-225-225-225-151 0-243 103-243 244V0H807v-767c0-124-93-207-219-207-131 0-250 92-250 270V0H158" id="aK"/><g id="g"><use transform="matrix(0.0087890625,0,0,0.0087890625,0,0)" xlink:href="#ax"/><use transform="matrix(0.0087890625,0,0,0.0087890625,10.494140625,0)" xlink:href="#aK"/><use transform="matrix(0.0087890625,0,0,0.0087890625,26.26171875,0)" xlink:href="#aH"/><use transform="matrix(0.0087890625,0,0,0.0087890625,37.283203125,0)" xlink:href="#aF"/><use transform="matrix(0.0087890625,0,0,0.0087890625,41.642578125,0)" xlink:href="#ax"/><use transform="matrix(0.0087890625,0,0,0.0087890625,52.3125,0)" xlink:href="#aE"/><use transform="matrix(0.0087890625,0,0,0.0087890625,62.419921875,0)" xlink:href="#aD"/><use transform="matrix(0.0087890625,0,0,0.0087890625,73.44140625,0)" xlink:href="#aI"/></g><path d="M934 0v166H0V0h934" id="aL"/><g id="h"><use transform="matrix(0.0087890625,0,0,0.0087890625,0,0)" xlink:href="#aJ"/><use transform="matrix(0.0087890625,0,0,0.0087890625,10.6435546875,0)" xlink:href="#ay"/><use transform="matrix(0.0087890625,0,0,0.0087890625,20.14453125,0)" xlink:href="#aJ"/><use transform="matrix(0.0087890625,0,0,0.0087890625,30.7880859375,0)" xlink:href="#aE"/><use transform="matrix(0.0087890625,0,0,0.0087890625,40.8955078125,0)" xlink:href="#aG"/><use transform="matrix(0.0087890625,0,0,0.0087890625,47.953125,0)" xlink:href="#aA"/><use transform="matrix(0.0087890625,0,0,0.0087890625,52.3125,0)" xlink:href="#aI"/><use transform="matrix(0.0087890625,0,0,0.0087890625,63.10546875,0)" xlink:href="#aL"/><use transform="matrix(0.0087890625,0,0,0.0087890625,71.314453125,0)" xlink:href="#ax"/><use transform="matrix(0.0087890625,0,0,0.0087890625,81.80859375,0)" xlink:href="#aK"/><use transform="matrix(0.0087890625,0,0,0.0087890625,97.576171875,0)" xlink:href="#aH"/><use transform="matrix(0.0087890625,0,0,0.0087890625,108.59765625,0)" xlink:href="#aF"/><use transform="matrix(0.0087890625,0,0,0.0087890625,112.95703125,0)" xlink:href="#ax"/><use transform="matrix(0.0087890625,0,0,0.0087890625,123.626953125,0)" xlink:href="#aE"/><use transform="matrix(0.0087890625,0,0,0.0087890625,133.734375,0)" xlink:href="#aD"/><use transform="matrix(0.0087890625,0,0,0.0087890625,144.755859375,0)" xlink:href="#aI"/></g><g id="i"><use transform="matrix(0.0087890625,0,0,0.0087890625,0,0)" xlink:href="#ay"/><use transform="matrix(0.0087890625,0,0,0.0087890625,9.5009765625,0)" xlink:href="#aA"/><use transform="matrix(0.0087890625,0,0,0.0087890625,13.8603515625,0)" xlink:href="#ay"/><use transform="matrix(0.0087890625,0,0,0.0087890625,23.361328125,0)" xlink:href="#az"/><use transform="matrix(0.0087890625,0,0,0.0087890625,29.07421875,0)" xlink:href="#ax"/><use transform="matrix(0.0087890625,0,0,0.0087890625,39.568359375,0)" xlink:href="#aK"/><use transform="matrix(0.0087890625,0,0,0.0087890625,55.3359375,0)" xlink:href="#aE"/></g><path d="M180 0v-1490h270l367 940c28 72 75 218 110 339 35-117 81-264 110-339l362-940h271V0h-187c2-448-5-837 7-1287-157 497-311 829-483 1287H842C666-458 514-784 354-1284c12 438 5 843 7 1284H180" id="aM"/><g id="j"><use transform="matrix(0.0087890625,0,0,0.0087890625,0,0)" xlink:href="#aM"/><use transform="matrix(0.0087890625,0,0,0.0087890625,16.259765625,0)" xlink:href="#ax"/><use transform="matrix(0.0087890625,0,0,0.0087890625,26.75390625,0)" xlink:href="#aC"/><use transform="matrix(0.0087890625,0,0,0.0087890625,37.388671875,0)" xlink:href="#aJ"/></g><path d="M613 24c-304 0-509-231-509-576 0-350 205-580 509-580 216 0 392 114 453 309l-173 49c-33-115-133-197-280-197-223 0-326 196-326 419 0 220 103 415 326 415 150 0 252-85 285-206l172 49C1010-95 832 24 613 24" id="aN"/><g id="k"><use transform="matrix(0.0087890625,0,0,0.0087890625,0,0)" xlink:href="#aH"/><use transform="matrix(0.0087890625,0,0,0.0087890625,11.021484375,0)" xlink:href="#aG"/><use transform="matrix(0.0087890625,0,0,0.0087890625,18.0791015625,0)" xlink:href="#aA"/><use transform="matrix(0.0087890625,0,0,0.0087890625,22.4384765625,0)" xlink:href="#aC"/><use transform="matrix(0.0087890625,0,0,0.0087890625,33.0732421875,0)" xlink:href="#aN"/><use transform="matrix(0.0087890625,0,0,0.0087890625,43.3564453125,0)" xlink:href="#aA"/><use transform="matrix(0.0087890625,0,0,0.0087890625,47.7158203125,0)" xlink:href="#aH"/><use transform="matrix(0.0087890625,0,0,0.0087890625,58.9130859375,0)" xlink:href="#aE"/><use transform="matrix(0.0087890625,0,0,0.0087890625,69.0205078125,0)" xlink:href="#aF"/></g><path d="M611 442c-248 0-391-105-460-228l146-94c47 65 117 165 314 165 178 0 307-82 307-266v-224h-17C863-141 792-18 576-18c-268 0-472-195-472-546 0-346 197-568 476-568 216 0 288 133 326 193h17v-179h175V29c0 289-215 413-487 413zm-5-620c203 0 314-146 314-390 0-237-108-403-314-403-213 0-319 180-319 403 0 230 109 390 319 390" id="aO"/><g id="l"><use transform="matrix(0.0087890625,0,0,0.0087890625,0,0)" xlink:href="#aA"/><use transform="matrix(0.0087890625,0,0,0.0087890625,4.359375,0)" xlink:href="#aC"/><use transform="matrix(0.0087890625,0,0,0.0087890625,14.994140625,0)" xlink:href="#aO"/><use transform="matrix(0.0087890625,0,0,0.0087890625,26.033203125,0)" xlink:href="#aG"/><use transform="matrix(0.0087890625,0,0,0.0087890625,32.5107421875,0)" xlink:href="#ax"/><use transform="matrix(0.0087890625,0,0,0.0087890625,43.0048828125,0)" xlink:href="#ay"/><use transform="matrix(0.0087890625,0,0,0.0087890625,52.505859375,0)" xlink:href="#aE"/></g><use transform="matrix(0.0087890625,0,0,0.0087890625,0,0)" xlink:href="#aE" id="m"/><g id="n"><use transform="matrix(0.0087890625,0,0,0.0087890625,0,0)" xlink:href="#aK"/><use transform="matrix(0.0087890625,0,0,0.0087890625,15.767578125,0)" xlink:href="#aI"/><use transform="matrix(0.0087890625,0,0,0.0087890625,26.560546875,0)" xlink:href="#aD"/><use transform="matrix(0.0087890625,0,0,0.0087890625,37.58203125,0)" xlink:href="#aJ"/><use transform="matrix(0.0087890625,0,0,0.0087890625,48.2255859375,0)" xlink:href="#aF"/><use transform="matrix(0.0087890625,0,0,0.0087890625,52.5849609375,0)" xlink:href="#aI"/></g><g id="o"><use transform="matrix(0.0087890625,0,0,0.0087890625,0,0)" xlink:href="#aE"/><use transform="matrix(0.0087890625,0,0,0.0087890625,10.107421875,0)" xlink:href="#aF"/><use transform="matrix(0.0087890625,0,0,0.0087890625,14.466796875,0)" xlink:href="#ax"/><use transform="matrix(0.0087890625,0,0,0.0087890625,24.9609375,0)" xlink:href="#aG"/><use transform="matrix(0.0087890625,0,0,0.0087890625,32.0185546875,0)" xlink:href="#az"/><use transform="matrix(0.0087890625,0,0,0.0087890625,37.9951171875,0)" xlink:href="#aE"/><use transform="matrix(0.0087890625,0,0,0.0087890625,48.1025390625,0)" xlink:href="#ay"/></g><g id="p"><use transform="matrix(0.0087890625,0,0,0.0087890625,0,0)" xlink:href="#ax"/><use transform="matrix(0.0087890625,0,0,0.0087890625,10.494140625,0)" xlink:href="#aF"/><use transform="matrix(0.0087890625,0,0,0.0087890625,14.853515625,0)" xlink:href="#aA"/><use transform="matrix(0.0087890625,0,0,0.0087890625,19.212890625,0)" xlink:href="#aO"/><use transform="matrix(0.0087890625,0,0,0.0087890625,30.251953125,0)" xlink:href="#ax"/></g><g id="q"><use transform="matrix(0.0087890625,0,0,0.0087890625,0,0)" xlink:href="#aE"/><use transform="matrix(0.0087890625,0,0,0.0087890625,10.107421875,0)" xlink:href="#aN"/><use transform="matrix(0.0087890625,0,0,0.0087890625,20.390625,0)" xlink:href="#aN"/><use transform="matrix(0.0087890625,0,0,0.0087890625,30.673828125,0)" xlink:href="#aA"/><use transform="matrix(0.0087890625,0,0,0.0087890625,35.033203125,0)" xlink:href="#aB"/><use transform="matrix(0.0087890625,0,0,0.0087890625,45.826171875,0)" xlink:href="#aC"/></g><path d="M338-670V0H158v-1118h173l1 207c72-158 192-221 342-221 226 0 378 139 378 422V0H872v-695c0-172-96-275-252-275-161 0-282 109-282 300zm398-643c-99 0-192-83-243-83-35 0-51 40-53 79H314c4-120 55-208 162-208 104 0 174 85 241 85 33 0 49-23 56-81h123c-4 126-62 208-160 208" id="aP"/><g id="r"><use transform="matrix(0.0087890625,0,0,0.0087890625,0,0)" xlink:href="#aE"/><use transform="matrix(0.0087890625,0,0,0.0087890625,10.107421875,0)" xlink:href="#aP"/><use transform="matrix(0.0087890625,0,0,0.0087890625,20.7421875,0)" xlink:href="#aE"/><use transform="matrix(0.0087890625,0,0,0.0087890625,30.849609375,0)" xlink:href="#aD"/><use transform="matrix(0.0087890625,0,0,0.0087890625,41.87109375,0)" xlink:href="#aA"/><use transform="matrix(0.0087890625,0,0,0.0087890625,46.23046875,0)" xlink:href="#aG"/></g><g id="s"><use transform="matrix(0.0087890625,0,0,0.0087890625,0,0)" xlink:href="#aE"/><use transform="matrix(0.0087890625,0,0,0.0087890625,10.107421875,0)" xlink:href="#aF"/><use transform="matrix(0.0087890625,0,0,0.0087890625,14.466796875,0)" xlink:href="#ax"/><use transform="matrix(0.0087890625,0,0,0.0087890625,24.9609375,0)" xlink:href="#aG"/><use transform="matrix(0.0087890625,0,0,0.0087890625,32.0185546875,0)" xlink:href="#az"/><use transform="matrix(0.0087890625,0,0,0.0087890625,37.9951171875,0)" xlink:href="#aE"/></g><path d="M481 0L54-1118h197c107 314 236 620 325 951 87-331 217-637 324-951h197L670 0H481" id="aQ"/><g id="t"><use transform="matrix(0.0087890625,0,0,0.0087890625,0,0)" xlink:href="#aQ"/><use transform="matrix(0.0087890625,0,0,0.0087890625,9.7646484375,0)" xlink:href="#aI"/><use transform="matrix(0.0087890625,0,0,0.0087890625,20.5576171875,0)" xlink:href="#aF"/><use transform="matrix(0.0087890625,0,0,0.0087890625,25.0048828125,0)" xlink:href="#aQ"/><use transform="matrix(0.0087890625,0,0,0.0087890625,34.76953125,0)" xlink:href="#ax"/><use transform="matrix(0.0087890625,0,0,0.0087890625,45.263671875,0)" xlink:href="#aG"/></g><g id="u"><use transform="matrix(0.0087890625,0,0,0.0087890625,0,0)" xlink:href="#aK"/><use transform="matrix(0.0087890625,0,0,0.0087890625,15.767578125,0)" xlink:href="#ax"/><use transform="matrix(0.0087890625,0,0,0.0087890625,26.26171875,0)" xlink:href="#aC"/><use transform="matrix(0.0087890625,0,0,0.0087890625,36.896484375,0)" xlink:href="#aJ"/></g><g id="v"><use transform="matrix(0.0087890625,0,0,0.0087890625,0,0)" xlink:href="#aH"/><use transform="matrix(0.0087890625,0,0,0.0087890625,11.021484375,0)" xlink:href="#aG"/><use transform="matrix(0.0087890625,0,0,0.0087890625,18.0791015625,0)" xlink:href="#aA"/><use transform="matrix(0.0087890625,0,0,0.0087890625,22.4384765625,0)" xlink:href="#aC"/><use transform="matrix(0.0087890625,0,0,0.0087890625,33.0732421875,0)" xlink:href="#aN"/><use transform="matrix(0.0087890625,0,0,0.0087890625,43.3564453125,0)" xlink:href="#aA"/><use transform="matrix(0.0087890625,0,0,0.0087890625,47.7158203125,0)" xlink:href="#aH"/><use transform="matrix(0.0087890625,0,0,0.0087890625,58.9130859375,0)" xlink:href="#aE"/><use transform="matrix(0.0087890625,0,0,0.0087890625,69.0205078125,0)" xlink:href="#aF"/></g><g id="w"><use transform="matrix(0.0087890625,0,0,0.0087890625,0,0)" xlink:href="#aK"/><use transform="matrix(0.0087890625,0,0,0.0087890625,15.767578125,0)" xlink:href="#aJ"/><use transform="matrix(0.0087890625,0,0,0.0087890625,26.4111328125,0)" xlink:href="#ax"/><use transform="matrix(0.0087890625,0,0,0.0087890625,36.9052734375,0)" xlink:href="#ay"/><use transform="matrix(0.0087890625,0,0,0.0087890625,46.40625,0)" xlink:href="#az"/><use transform="matrix(0.0087890625,0,0,0.0087890625,52.294921875,0)" xlink:href="#aG"/><use transform="matrix(0.0087890625,0,0,0.0087890625,59.0712890625,0)" xlink:href="#aE"/></g><path d="M678-1118v154H420V0H240v-964H20v-154h220v-149c0-194 155-293 318-293 85 0 141 18 168 30l-50 154c-19-6-47-17-97-17-111 0-159 58-159 166v109h258" id="aR"/><g id="x"><use transform="matrix(0.0087890625,0,0,0.0087890625,0,0)" xlink:href="#aR"/><use transform="matrix(0.0087890625,0,0,0.0087890625,6.134765625,0)" xlink:href="#aI"/><use transform="matrix(0.0087890625,0,0,0.0087890625,16.927734375,0)" xlink:href="#aG"/><use transform="matrix(0.0087890625,0,0,0.0087890625,23.9853515625,0)" xlink:href="#aK"/><use transform="matrix(0.0087890625,0,0,0.0087890625,39.7529296875,0)" xlink:href="#aJ"/><use transform="matrix(0.0087890625,0,0,0.0087890625,50.396484375,0)" xlink:href="#aF"/><use transform="matrix(0.0087890625,0,0,0.0087890625,54.755859375,0)" xlink:href="#aE"/><use transform="matrix(0.0087890625,0,0,0.0087890625,64.86328125,0)" xlink:href="#aG"/><use transform="matrix(0.0087890625,0,0,0.0087890625,71.9208984375,0)" xlink:href="#aA"/><use transform="matrix(0.0087890625,0,0,0.0087890625,76.2802734375,0)" xlink:href="#aI"/></g><g id="y"><use transform="matrix(0.0087890625,0,0,0.0087890625,0,0)" xlink:href="#aD"/><use transform="matrix(0.0087890625,0,0,0.0087890625,11.021484375,0)" xlink:href="#ax"/></g><g id="z"><use transform="matrix(0.0087890625,0,0,0.0087890625,0,0)" xlink:href="#aG"/><use transform="matrix(0.0087890625,0,0,0.0087890625,6.4775390625,0)" xlink:href="#ax"/><use transform="matrix(0.0087890625,0,0,0.0087890625,16.9716796875,0)" xlink:href="#aO"/><use transform="matrix(0.0087890625,0,0,0.0087890625,28.0107421875,0)" xlink:href="#aA"/><use transform="matrix(0.0087890625,0,0,0.0087890625,32.3701171875,0)" xlink:href="#ay"/><use transform="matrix(0.0087890625,0,0,0.0087890625,41.87109375,0)" xlink:href="#az"/><use transform="matrix(0.0087890625,0,0,0.0087890625,47.759765625,0)" xlink:href="#aG"/><use transform="matrix(0.0087890625,0,0,0.0087890625,54.2373046875,0)" xlink:href="#aI"/></g><g id="A"><use transform="matrix(0.0087890625,0,0,0.0087890625,0,0)" xlink:href="#aD"/><use transform="matrix(0.0087890625,0,0,0.0087890625,11.021484375,0)" xlink:href="#aE"/><use transform="matrix(0.0087890625,0,0,0.0087890625,21.12890625,0)" xlink:href="#az"/><use transform="matrix(0.0087890625,0,0,0.0087890625,26.841796875,0)" xlink:href="#aI"/><use transform="matrix(0.0087890625,0,0,0.0087890625,37.634765625,0)" xlink:href="#ay"/></g><g id="B"><use transform="matrix(0.0087890625,0,0,0.0087890625,0,0)" xlink:href="#aQ"/><use transform="matrix(0.0087890625,0,0,0.0087890625,10.0283203125,0)" xlink:href="#aE"/><use transform="matrix(0.0087890625,0,0,0.0087890625,20.1357421875,0)" xlink:href="#aF"/><use transform="matrix(0.0087890625,0,0,0.0087890625,24.4951171875,0)" xlink:href="#aA"/><use transform="matrix(0.0087890625,0,0,0.0087890625,28.8544921875,0)" xlink:href="#aD"/><use transform="matrix(0.0087890625,0,0,0.0087890625,39.8759765625,0)" xlink:href="#aI"/><use transform="matrix(0.0087890625,0,0,0.0087890625,50.6689453125,0)" xlink:href="#ay"/></g><g id="C"><use transform="matrix(0.0087890625,0,0,0.0087890625,0,0)" xlink:href="#aO"/><use transform="matrix(0.0087890625,0,0,0.0087890625,11.0390625,0)" xlink:href="#aJ"/><use transform="matrix(0.0087890625,0,0,0.0087890625,21.6826171875,0)" xlink:href="#aE"/><use transform="matrix(0.0087890625,0,0,0.0087890625,31.7900390625,0)" xlink:href="#aG"/><use transform="matrix(0.0087890625,0,0,0.0087890625,38.267578125,0)" xlink:href="#aD"/><use transform="matrix(0.0087890625,0,0,0.0087890625,49.2890625,0)" xlink:href="#aE"/></g><g id="D"><use transform="matrix(0.0087890625,0,0,0.0087890625,0,0)" xlink:href="#aA"/><use transform="matrix(0.0087890625,0,0,0.0087890625,4.359375,0)" xlink:href="#aC"/><use transform="matrix(0.0087890625,0,0,0.0087890625,14.994140625,0)" xlink:href="#aR"/><use transform="matrix(0.0087890625,0,0,0.0087890625,21.12890625,0)" xlink:href="#aI"/><use transform="matrix(0.0087890625,0,0,0.0087890625,31.921875,0)" xlink:href="#aG"/><use transform="matrix(0.0087890625,0,0,0.0087890625,38.9794921875,0)" xlink:href="#aK"/><use transform="matrix(0.0087890625,0,0,0.0087890625,54.7470703125,0)" xlink:href="#aE"/><use transform="matrix(0.0087890625,0,0,0.0087890625,64.8544921875,0)" xlink:href="#aN"/><use transform="matrix(0.0087890625,0,0,0.0087890625,75.1376953125,0)" xlink:href="#aA"/><use transform="matrix(0.0087890625,0,0,0.0087890625,79.4970703125,0)" xlink:href="#aB"/><use transform="matrix(0.0087890625,0,0,0.0087890625,90.2900390625,0)" xlink:href="#aC"/></g><g id="E"><use transform="matrix(0.0087890625,0,0,0.0087890625,0,0)" xlink:href="#ax"/><use transform="matrix(0.0087890625,0,0,0.0087890625,10.494140625,0)" xlink:href="#aC"/></g><path d="M677 24c-213 0-288-135-325-197h-20V0H158v-1490h180v551h14c37-59 106-193 324-193 279 0 474 222 474 576 0 356-194 580-473 580zm-27-161c209 0 317-186 317-421 0-232-105-413-317-413-206 0-314 166-314 413 0 249 111 421 314 421" id="aS"/><g id="F"><use transform="matrix(0.0087890625,0,0,0.0087890625,0,0)" xlink:href="#aS"/><use transform="matrix(0.0087890625,0,0,0.0087890625,11.197265625,0)" xlink:href="#aE"/><use transform="matrix(0.0087890625,0,0,0.0087890625,21.3046875,0)" xlink:href="#ay"/><use transform="matrix(0.0087890625,0,0,0.0087890625,30.8056640625,0)" xlink:href="#ax"/></g><g id="G"><use transform="matrix(0.0087890625,0,0,0.0087890625,0,0)" xlink:href="#aD"/><use transform="matrix(0.0087890625,0,0,0.0087890625,11.021484375,0)" xlink:href="#aE"/><use transform="matrix(0.0087890625,0,0,0.0087890625,21.12890625,0)" xlink:href="#az"/><use transform="matrix(0.0087890625,0,0,0.0087890625,26.841796875,0)" xlink:href="#aI"/><use transform="matrix(0.0087890625,0,0,0.0087890625,37.634765625,0)" xlink:href="#ay"/></g><g id="H"><use transform="matrix(0.0087890625,0,0,0.0087890625,0,0)" xlink:href="#aD"/><use transform="matrix(0.0087890625,0,0,0.0087890625,11.021484375,0)" xlink:href="#ax"/><use transform="matrix(0.0087890625,0,0,0.0087890625,21.515625,0)" xlink:href="#ay"/><use transform="matrix(0.0087890625,0,0,0.0087890625,31.0166015625,0)" xlink:href="#aH"/><use transform="matrix(0.0087890625,0,0,0.0087890625,42.0380859375,0)" xlink:href="#aF"/><use transform="matrix(0.0087890625,0,0,0.0087890625,46.3974609375,0)" xlink:href="#aA"/><use transform="matrix(0.0087890625,0,0,0.0087890625,50.7568359375,0)" xlink:href="#ax"/><use transform="matrix(0.0087890625,0,0,0.0087890625,61.2509765625,0)" xlink:href="#aO"/><use transform="matrix(0.0087890625,0,0,0.0087890625,72.2900390625,0)" xlink:href="#aE"/></g><g id="I"><use transform="matrix(0.0087890625,0,0,0.0087890625,0,0)" xlink:href="#ay"/><use transform="matrix(0.0087890625,0,0,0.0087890625,9.5009765625,0)" xlink:href="#aJ"/><use transform="matrix(0.0087890625,0,0,0.0087890625,20.14453125,0)" xlink:href="#aS"/><use transform="matrix(0.0087890625,0,0,0.0087890625,31.166015625,0)" xlink:href="#aK"/><use transform="matrix(0.0087890625,0,0,0.0087890625,46.93359375,0)" xlink:href="#ax"/><use transform="matrix(0.0087890625,0,0,0.0087890625,57.427734375,0)" xlink:href="#aC"/><use transform="matrix(0.0087890625,0,0,0.0087890625,68.0625,0)" xlink:href="#aJ"/></g><g id="J"><use transform="matrix(0.0087890625,0,0,0.0087890625,0,0)" xlink:href="#aE"/><use transform="matrix(0.0087890625,0,0,0.0087890625,10.107421875,0)" xlink:href="#aF"/><use transform="matrix(0.0087890625,0,0,0.0087890625,14.466796875,0)" xlink:href="#ax"/><use transform="matrix(0.0087890625,0,0,0.0087890625,24.9609375,0)" xlink:href="#aG"/><use transform="matrix(0.0087890625,0,0,0.0087890625,32.0185546875,0)" xlink:href="#az"/><use transform="matrix(0.0087890625,0,0,0.0087890625,37.9951171875,0)" xlink:href="#aE"/><use transform="matrix(0.0087890625,0,0,0.0087890625,48.1025390625,0)" xlink:href="#ay"/></g><g id="K"><use transform="matrix(0.0087890625,0,0,0.0087890625,0,0)" xlink:href="#aD"/><use transform="matrix(0.0087890625,0,0,0.0087890625,11.021484375,0)" xlink:href="#aE"/><use transform="matrix(0.0087890625,0,0,0.0087890625,21.12890625,0)" xlink:href="#az"/><use transform="matrix(0.0087890625,0,0,0.0087890625,26.841796875,0)" xlink:href="#aI"/><use transform="matrix(0.0087890625,0,0,0.0087890625,37.634765625,0)" xlink:href="#ay"/></g><path d="M168-1264l140-294h201l-194 294H168" id="aT"/><g id="L"><use transform="matrix(0.0087890625,0,0,0.0087890625,0,0)" xlink:href="#aA"/><use transform="matrix(0.0087890625,0,0,0.0087890625,4.359375,0)" xlink:href="#aC"/><use transform="matrix(0.0087890625,0,0,0.0087890625,14.73046875,0)" xlink:href="#aQ"/><use transform="matrix(0.0087890625,0,0,0.0087890625,24.8466796875,0)" xlink:href="#aT"/></g><path d="M157-1118h181V80c1 225-123 350-364 338V252c126 9 184-48 183-172v-1198zm91-183c-68 0-125-53-125-119s57-119 125-119c69 0 126 53 126 119s-57 119-126 119" id="aU"/><g id="M"><use transform="matrix(0.0087890625,0,0,0.0087890625,0,0)" xlink:href="#aK"/><use transform="matrix(0.0087890625,0,0,0.0087890625,15.767578125,0)" xlink:href="#ax"/><use transform="matrix(0.0087890625,0,0,0.0087890625,26.26171875,0)" xlink:href="#aC"/><use transform="matrix(0.0087890625,0,0,0.0087890625,36.896484375,0)" xlink:href="#ay"/><use transform="matrix(0.0087890625,0,0,0.0087890625,46.3974609375,0)" xlink:href="#aE"/><use transform="matrix(0.0087890625,0,0,0.0087890625,56.5048828125,0)" xlink:href="#aU"/><use transform="matrix(0.0087890625,0,0,0.0087890625,60.8642578125,0)" xlink:href="#ax"/></g><g id="N"><use transform="matrix(0.0087890625,0,0,0.0087890625,0,0)" xlink:href="#aI"/><use transform="matrix(0.0087890625,0,0,0.0087890625,10.79296875,0)" xlink:href="#aH"/><use transform="matrix(0.0087890625,0,0,0.0087890625,21.814453125,0)" xlink:href="#ax"/><use transform="matrix(0.0087890625,0,0,0.0087890625,32.30859375,0)" xlink:href="#aG"/><use transform="matrix(0.0087890625,0,0,0.0087890625,39.0849609375,0)" xlink:href="#aE"/><use transform="matrix(0.0087890625,0,0,0.0087890625,49.1923828125,0)" xlink:href="#aN"/><use transform="matrix(0.0087890625,0,0,0.0087890625,59.4755859375,0)" xlink:href="#aA"/><use transform="matrix(0.0087890625,0,0,0.0087890625,63.8349609375,0)" xlink:href="#aB"/><use transform="matrix(0.0087890625,0,0,0.0087890625,74.6279296875,0)" xlink:href="#aC"/></g><path d="M65 0l393-574-370-544h210c88 136 192 297 267 435 67-142 176-302 264-435h206L661-564 1053 0H844c-94-144-206-310-287-458C484-308 366-142 273 0H65" id="aV"/><g id="O"><use transform="matrix(0.0087890625,0,0,0.0087890625,0,0)" xlink:href="#ax"/><use transform="matrix(0.0087890625,0,0,0.0087890625,10.08984375,0)" xlink:href="#aV"/><use transform="matrix(0.0087890625,0,0,0.0087890625,19.916015625,0)" xlink:href="#aA"/><use transform="matrix(0.0087890625,0,0,0.0087890625,24.275390625,0)" xlink:href="#az"/><use transform="matrix(0.0087890625,0,0,0.0087890625,29.98828125,0)" xlink:href="#aI"/><use transform="matrix(0.0087890625,0,0,0.0087890625,40.78125,0)" xlink:href="#ay"/><use transform="matrix(0.0087890625,0,0,0.0087890625,50.2822265625,0)" xlink:href="#aE"/></g><path d="M126 0v-134l627-806v-11H146v-167h839v143L376-178v11h629V0H126" id="aW"/><g id="P"><use transform="matrix(0.0087890625,0,0,0.0087890625,0,0)" xlink:href="#aE"/><use transform="matrix(0.0087890625,0,0,0.0087890625,10.107421875,0)" xlink:href="#aN"/><use transform="matrix(0.0087890625,0,0,0.0087890625,20.390625,0)" xlink:href="#az"/><use transform="matrix(0.0087890625,0,0,0.0087890625,26.279296875,0)" xlink:href="#aJ"/><use transform="matrix(0.0087890625,0,0,0.0087890625,36.9228515625,0)" xlink:href="#aE"/><use transform="matrix(0.0087890625,0,0,0.0087890625,47.0302734375,0)" xlink:href="#aF"/><use transform="matrix(0.0087890625,0,0,0.0087890625,51.3896484375,0)" xlink:href="#aA"/><use transform="matrix(0.0087890625,0,0,0.0087890625,55.7490234375,0)" xlink:href="#aW"/><use transform="matrix(0.0087890625,0,0,0.0087890625,65.689453125,0)" xlink:href="#aE"/><use transform="matrix(0.0087890625,0,0,0.0087890625,75.796875,0)" xlink:href="#aG"/></g><g id="Q"><use transform="matrix(0.0087890625,0,0,0.0087890625,0,0)" xlink:href="#ax"/><use transform="matrix(0.0087890625,0,0,0.0087890625,10.494140625,0)" xlink:href="#aC"/><use transform="matrix(0.0087890625,0,0,0.0087890625,20.865234375,0)" xlink:href="#aQ"/><use transform="matrix(0.0087890625,0,0,0.0087890625,30.9814453125,0)" xlink:href="#aA"/><use transform="matrix(0.0087890625,0,0,0.0087890625,35.3408203125,0)" xlink:href="#aE"/></g><g id="R"><use transform="matrix(0.0087890625,0,0,0.0087890625,0,0)" xlink:href="#ax"/><use transform="matrix(0.0087890625,0,0,0.0087890625,10.494140625,0)" xlink:href="#aK"/><use transform="matrix(0.0087890625,0,0,0.0087890625,26.26171875,0)" xlink:href="#aE"/><use transform="matrix(0.0087890625,0,0,0.0087890625,36.369140625,0)" xlink:href="#aA"/><use transform="matrix(0.0087890625,0,0,0.0087890625,40.728515625,0)" xlink:href="#aF"/></g><g id="S"><use transform="matrix(0.0087890625,0,0,0.0087890625,0,0)" xlink:href="#aD"/><use transform="matrix(0.0087890625,0,0,0.0087890625,11.021484375,0)" xlink:href="#ax"/></g><g id="T"><use transform="matrix(0.0087890625,0,0,0.0087890625,0,0)" xlink:href="#aN"/><use transform="matrix(0.0087890625,0,0,0.0087890625,10.283203125,0)" xlink:href="#aI"/><use transform="matrix(0.0087890625,0,0,0.0087890625,21.076171875,0)" xlink:href="#aC"/><use transform="matrix(0.0087890625,0,0,0.0087890625,31.7109375,0)" xlink:href="#aR"/><use transform="matrix(0.0087890625,0,0,0.0087890625,38.373046875,0)" xlink:href="#aA"/><use transform="matrix(0.0087890625,0,0,0.0087890625,42.732421875,0)" xlink:href="#aG"/><use transform="matrix(0.0087890625,0,0,0.0087890625,49.7900390625,0)" xlink:href="#aK"/><use transform="matrix(0.0087890625,0,0,0.0087890625,65.5576171875,0)" xlink:href="#aE"/><use transform="matrix(0.0087890625,0,0,0.0087890625,75.6650390625,0)" xlink:href="#aN"/><use transform="matrix(0.0087890625,0,0,0.0087890625,85.9482421875,0)" xlink:href="#aA"/><use transform="matrix(0.0087890625,0,0,0.0087890625,90.3076171875,0)" xlink:href="#aB"/><use transform="matrix(0.0087890625,0,0,0.0087890625,101.1005859375,0)" xlink:href="#aC"/></g><g id="U"><use transform="matrix(0.0087890625,0,0,0.0087890625,0,0)" xlink:href="#aA"/><use transform="matrix(0.0087890625,0,0,0.0087890625,4.359375,0)" xlink:href="#aC"/><use transform="matrix(0.0087890625,0,0,0.0087890625,14.994140625,0)" xlink:href="#aR"/><use transform="matrix(0.0087890625,0,0,0.0087890625,21.12890625,0)" xlink:href="#aI"/><use transform="matrix(0.0087890625,0,0,0.0087890625,31.921875,0)" xlink:href="#aG"/><use transform="matrix(0.0087890625,0,0,0.0087890625,38.9794921875,0)" xlink:href="#aK"/><use transform="matrix(0.0087890625,0,0,0.0087890625,54.7470703125,0)" xlink:href="#aE"/><use transform="matrix(0.0087890625,0,0,0.0087890625,64.8544921875,0)" xlink:href="#aN"/><use transform="matrix(0.0087890625,0,0,0.0087890625,75.1376953125,0)" xlink:href="#aA"/><use transform="matrix(0.0087890625,0,0,0.0087890625,79.4970703125,0)" xlink:href="#aB"/><use transform="matrix(0.0087890625,0,0,0.0087890625,90.2900390625,0)" xlink:href="#aC"/></g><g id="V"><use transform="matrix(0.0087890625,0,0,0.0087890625,0,0)" xlink:href="#ay"/><use transform="matrix(0.0087890625,0,0,0.0087890625,9.5009765625,0)" xlink:href="#aI"/><use transform="matrix(0.0087890625,0,0,0.0087890625,20.2939453125,0)" xlink:href="#aS"/><use transform="matrix(0.0087890625,0,0,0.0087890625,31.3154296875,0)" xlink:href="#aG"/><use transform="matrix(0.0087890625,0,0,0.0087890625,37.79296875,0)" xlink:href="#ax"/></g><g id="W"><use transform="matrix(0.0087890625,0,0,0.0087890625,0,0)" xlink:href="#aD"/><use transform="matrix(0.0087890625,0,0,0.0087890625,11.021484375,0)" xlink:href="#aE"/><use transform="matrix(0.0087890625,0,0,0.0087890625,21.12890625,0)" xlink:href="#az"/><use transform="matrix(0.0087890625,0,0,0.0087890625,26.841796875,0)" xlink:href="#aI"/><use transform="matrix(0.0087890625,0,0,0.0087890625,37.634765625,0)" xlink:href="#ay"/></g><g id="X"><use transform="matrix(0.0087890625,0,0,0.0087890625,0,0)" xlink:href="#aD"/><use transform="matrix(0.0087890625,0,0,0.0087890625,11.021484375,0)" xlink:href="#ax"/></g><g id="Y"><use transform="matrix(0.0087890625,0,0,0.0087890625,0,0)" xlink:href="#aE"/><use transform="matrix(0.0087890625,0,0,0.0087890625,10.107421875,0)" xlink:href="#aF"/><use transform="matrix(0.0087890625,0,0,0.0087890625,14.466796875,0)" xlink:href="#ax"/><use transform="matrix(0.0087890625,0,0,0.0087890625,24.9609375,0)" xlink:href="#aG"/><use transform="matrix(0.0087890625,0,0,0.0087890625,32.0185546875,0)" xlink:href="#az"/><use transform="matrix(0.0087890625,0,0,0.0087890625,37.9951171875,0)" xlink:href="#aE"/></g><g id="Z"><use transform="matrix(0.0087890625,0,0,0.0087890625,0,0)" xlink:href="#ax"/><use transform="matrix(0.0087890625,0,0,0.0087890625,10.494140625,0)" xlink:href="#aD"/><use transform="matrix(0.0087890625,0,0,0.0087890625,21.515625,0)" xlink:href="#aA"/><use transform="matrix(0.0087890625,0,0,0.0087890625,25.875,0)" xlink:href="#az"/><use transform="matrix(0.0087890625,0,0,0.0087890625,31.8515625,0)" xlink:href="#aE"/><use transform="matrix(0.0087890625,0,0,0.0087890625,41.958984375,0)" xlink:href="#aG"/></g><g id="aa"><use transform="matrix(0.0087890625,0,0,0.0087890625,0,0)" xlink:href="#ax"/><use transform="matrix(0.0087890625,0,0,0.0087890625,10.494140625,0)" xlink:href="#aF"/><use transform="matrix(0.0087890625,0,0,0.0087890625,14.853515625,0)" xlink:href="#aA"/><use transform="matrix(0.0087890625,0,0,0.0087890625,19.212890625,0)" xlink:href="#aK"/><use transform="matrix(0.0087890625,0,0,0.0087890625,34.98046875,0)" xlink:href="#aA"/><use transform="matrix(0.0087890625,0,0,0.0087890625,39.33984375,0)" xlink:href="#aC"/><use transform="matrix(0.0087890625,0,0,0.0087890625,49.974609375,0)" xlink:href="#aE"/><use transform="matrix(0.0087890625,0,0,0.0087890625,60.08203125,0)" xlink:href="#aG"/></g><g id="ab"><use transform="matrix(0.0087890625,0,0,0.0087890625,0,0)" xlink:href="#aN"/><use transform="matrix(0.0087890625,0,0,0.0087890625,10.458984375,0)" xlink:href="#aE"/><use transform="matrix(0.0087890625,0,0,0.0087890625,20.56640625,0)" xlink:href="#aG"/><use transform="matrix(0.0087890625,0,0,0.0087890625,27.0439453125,0)" xlink:href="#aO"/><use transform="matrix(0.0087890625,0,0,0.0087890625,38.0830078125,0)" xlink:href="#aE"/></g><g id="ac"><use transform="matrix(0.0087890625,0,0,0.0087890625,0,0)" xlink:href="#aF"/><use transform="matrix(0.0087890625,0,0,0.0087890625,4.359375,0)" xlink:href="#aA"/><use transform="matrix(0.0087890625,0,0,0.0087890625,8.71875,0)" xlink:href="#ay"/><use transform="matrix(0.0087890625,0,0,0.0087890625,18.2197265625,0)" xlink:href="#az"/><use transform="matrix(0.0087890625,0,0,0.0087890625,24.1962890625,0)" xlink:href="#aE"/></g><g id="ad"><use transform="matrix(0.0087890625,0,0,0.0087890625,0,0)" xlink:href="#aE"/><use transform="matrix(0.0087890625,0,0,0.0087890625,10.107421875,0)" xlink:href="#aF"/><use transform="matrix(0.0087890625,0,0,0.0087890625,14.466796875,0)" xlink:href="#ax"/><use transform="matrix(0.0087890625,0,0,0.0087890625,24.9609375,0)" xlink:href="#aG"/><use transform="matrix(0.0087890625,0,0,0.0087890625,32.0185546875,0)" xlink:href="#az"/><use transform="matrix(0.0087890625,0,0,0.0087890625,37.9951171875,0)" xlink:href="#aE"/><use transform="matrix(0.0087890625,0,0,0.0087890625,48.1025390625,0)" xlink:href="#ay"/></g><g id="ae"><use transform="matrix(0.0087890625,0,0,0.0087890625,0,0)" xlink:href="#ax"/><use transform="matrix(0.0087890625,0,0,0.0087890625,10.08984375,0)" xlink:href="#aV"/><use transform="matrix(0.0087890625,0,0,0.0087890625,19.916015625,0)" xlink:href="#aA"/><use transform="matrix(0.0087890625,0,0,0.0087890625,24.275390625,0)" xlink:href="#ay"/><use transform="matrix(0.0087890625,0,0,0.0087890625,33.7763671875,0)" xlink:href="#az"/><use transform="matrix(0.0087890625,0,0,0.0087890625,39.4892578125,0)" xlink:href="#ax"/><use transform="matrix(0.0087890625,0,0,0.0087890625,49.9833984375,0)" xlink:href="#aC"/><use transform="matrix(0.0087890625,0,0,0.0087890625,60.6181640625,0)" xlink:href="#az"/><use transform="matrix(0.0087890625,0,0,0.0087890625,66.3310546875,0)" xlink:href="#ax"/><use transform="matrix(0.0087890625,0,0,0.0087890625,76.8251953125,0)" xlink:href="#ay"/></g><g id="af"><use transform="matrix(0.0087890625,0,0,0.0087890625,0,0)" xlink:href="#ax"/><use transform="matrix(0.0087890625,0,0,0.0087890625,10.494140625,0)" xlink:href="#aF"/><use transform="matrix(0.0087890625,0,0,0.0087890625,14.853515625,0)" xlink:href="#aA"/><use transform="matrix(0.0087890625,0,0,0.0087890625,19.212890625,0)" xlink:href="#aK"/><use transform="matrix(0.0087890625,0,0,0.0087890625,34.98046875,0)" xlink:href="#aA"/><use transform="matrix(0.0087890625,0,0,0.0087890625,39.33984375,0)" xlink:href="#aC"/><use transform="matrix(0.0087890625,0,0,0.0087890625,49.974609375,0)" xlink:href="#aE"/><use transform="matrix(0.0087890625,0,0,0.0087890625,60.08203125,0)" xlink:href="#aN"/><use transform="matrix(0.0087890625,0,0,0.0087890625,70.365234375,0)" xlink:href="#aA"/><use transform="matrix(0.0087890625,0,0,0.0087890625,74.724609375,0)" xlink:href="#aB"/><use transform="matrix(0.0087890625,0,0,0.0087890625,85.517578125,0)" xlink:href="#aC"/></g><g id="ag"><use transform="matrix(0.0087890625,0,0,0.0087890625,0,0)" xlink:href="#aD"/><use transform="matrix(0.0087890625,0,0,0.0087890625,11.021484375,0)" xlink:href="#ax"/></g><g id="ah"><use transform="matrix(0.0087890625,0,0,0.0087890625,0,0)" xlink:href="#aA"/><use transform="matrix(0.0087890625,0,0,0.0087890625,4.359375,0)" xlink:href="#aD"/></g><g id="ai"><use transform="matrix(0.0087890625,0,0,0.0087890625,0,0)" xlink:href="#aE"/><use transform="matrix(0.0087890625,0,0,0.0087890625,10.107421875,0)" xlink:href="#aF"/><use transform="matrix(0.0087890625,0,0,0.0087890625,14.466796875,0)" xlink:href="#ax"/><use transform="matrix(0.0087890625,0,0,0.0087890625,24.9609375,0)" xlink:href="#aG"/><use transform="matrix(0.0087890625,0,0,0.0087890625,32.0185546875,0)" xlink:href="#az"/><use transform="matrix(0.0087890625,0,0,0.0087890625,37.9951171875,0)" xlink:href="#aE"/></g><use transform="matrix(0.0087890625,0,0,0.0087890625,0,0)" xlink:href="#aE" id="aj"/><g id="ak"><use transform="matrix(0.0087890625,0,0,0.0087890625,0,0)" xlink:href="#ax"/><use transform="matrix(0.0087890625,0,0,0.0087890625,10.494140625,0)" xlink:href="#aF"/><use transform="matrix(0.0087890625,0,0,0.0087890625,14.853515625,0)" xlink:href="#aA"/><use transform="matrix(0.0087890625,0,0,0.0087890625,19.212890625,0)" xlink:href="#aK"/><use transform="matrix(0.0087890625,0,0,0.0087890625,34.98046875,0)" xlink:href="#aA"/><use transform="matrix(0.0087890625,0,0,0.0087890625,39.33984375,0)" xlink:href="#aC"/><use transform="matrix(0.0087890625,0,0,0.0087890625,49.974609375,0)" xlink:href="#aE"/><use transform="matrix(0.0087890625,0,0,0.0087890625,60.08203125,0)" xlink:href="#aG"/></g><g id="al"><use transform="matrix(0.0087890625,0,0,0.0087890625,0,0)" xlink:href="#aF"/><use transform="matrix(0.0087890625,0,0,0.0087890625,4.359375,0)" xlink:href="#aI"/><use transform="matrix(0.0087890625,0,0,0.0087890625,15.15234375,0)" xlink:href="#ay"/></g><g id="am"><use transform="matrix(0.0087890625,0,0,0.0087890625,0,0)" xlink:href="#ay"/><use transform="matrix(0.0087890625,0,0,0.0087890625,9.5009765625,0)" xlink:href="#aI"/><use transform="matrix(0.0087890625,0,0,0.0087890625,20.2939453125,0)" xlink:href="#aC"/></g><path d="M471 26C259 26 90-98 90-318c0-256 228-303 435-329 202-27 287-16 287-108 0-139-79-219-234-219-161 0-248 86-283 164l-173-57c86-203 278-265 451-265 150 0 419 46 419 395V0H815v-152h-12C765-73 660 26 471 26zm31-159c199 0 310-134 310-271v-155c-30 35-226 55-295 64-131 17-246 59-246 186 0 116 97 176 231 176zm-23-1131l140-294h201l-194 294H479" id="aX"/><g id="an"><use transform="matrix(0.0087890625,0,0,0.0087890625,0,0)" xlink:href="#aQ"/><use transform="matrix(0.0087890625,0,0,0.0087890625,10.0283203125,0)" xlink:href="#aX"/><use transform="matrix(0.0087890625,0,0,0.0087890625,20.1357421875,0)" xlink:href="#aF"/><use transform="matrix(0.0087890625,0,0,0.0087890625,24.4951171875,0)" xlink:href="#aA"/><use transform="matrix(0.0087890625,0,0,0.0087890625,28.8544921875,0)" xlink:href="#aD"/><use transform="matrix(0.0087890625,0,0,0.0087890625,39.8759765625,0)" xlink:href="#aI"/><use transform="matrix(0.0087890625,0,0,0.0087890625,50.6689453125,0)" xlink:href="#ay"/></g><g id="ao"><use transform="matrix(0.0087890625,0,0,0.0087890625,0,0)" xlink:href="#aE"/><use transform="matrix(0.0087890625,0,0,0.0087890625,10.107421875,0)" xlink:href="#aN"/><use transform="matrix(0.0087890625,0,0,0.0087890625,20.390625,0)" xlink:href="#az"/><use transform="matrix(0.0087890625,0,0,0.0087890625,26.279296875,0)" xlink:href="#aJ"/><use transform="matrix(0.0087890625,0,0,0.0087890625,36.9228515625,0)" xlink:href="#aE"/><use transform="matrix(0.0087890625,0,0,0.0087890625,47.0302734375,0)" xlink:href="#aF"/><use transform="matrix(0.0087890625,0,0,0.0087890625,51.3896484375,0)" xlink:href="#aA"/><use transform="matrix(0.0087890625,0,0,0.0087890625,55.7490234375,0)" xlink:href="#aW"/><use transform="matrix(0.0087890625,0,0,0.0087890625,65.689453125,0)" xlink:href="#aE"/><use transform="matrix(0.0087890625,0,0,0.0087890625,75.796875,0)" xlink:href="#aN"/><use transform="matrix(0.0087890625,0,0,0.0087890625,86.080078125,0)" xlink:href="#aA"/><use transform="matrix(0.0087890625,0,0,0.0087890625,90.439453125,0)" xlink:href="#aB"/><use transform="matrix(0.0087890625,0,0,0.0087890625,101.232421875,0)" xlink:href="#aC"/></g><g id="ap"><use transform="matrix(0.0087890625,0,0,0.0087890625,0,0)" xlink:href="#ax"/><use transform="matrix(0.0087890625,0,0,0.0087890625,10.494140625,0)" xlink:href="#ay"/><use transform="matrix(0.0087890625,0,0,0.0087890625,19.9951171875,0)" xlink:href="#az"/><use transform="matrix(0.0087890625,0,0,0.0087890625,25.9716796875,0)" xlink:href="#aE"/><use transform="matrix(0.0087890625,0,0,0.0087890625,36.0791015625,0)" xlink:href="#aN"/><use transform="matrix(0.0087890625,0,0,0.0087890625,46.3623046875,0)" xlink:href="#aA"/><use transform="matrix(0.0087890625,0,0,0.0087890625,50.7216796875,0)" xlink:href="#aB"/><use transform="matrix(0.0087890625,0,0,0.0087890625,61.5146484375,0)" xlink:href="#aC"/></g><g id="aq"><use transform="matrix(0.0087890625,0,0,0.0087890625,0,0)" xlink:href="#aQ"/><use transform="matrix(0.0087890625,0,0,0.0087890625,10.0283203125,0)" xlink:href="#aE"/><use transform="matrix(0.0087890625,0,0,0.0087890625,20.1357421875,0)" xlink:href="#aF"/><use transform="matrix(0.0087890625,0,0,0.0087890625,24.4951171875,0)" xlink:href="#aA"/><use transform="matrix(0.0087890625,0,0,0.0087890625,28.8544921875,0)" xlink:href="#aD"/><use transform="matrix(0.0087890625,0,0,0.0087890625,39.8759765625,0)" xlink:href="#aE"/></g><g id="ar"><use transform="matrix(0.0087890625,0,0,0.0087890625,0,0)" xlink:href="#aK"/><use transform="matrix(0.0087890625,0,0,0.0087890625,15.767578125,0)" xlink:href="#aJ"/><use transform="matrix(0.0087890625,0,0,0.0087890625,26.4111328125,0)" xlink:href="#ax"/><use transform="matrix(0.0087890625,0,0,0.0087890625,36.9052734375,0)" xlink:href="#ay"/><use transform="matrix(0.0087890625,0,0,0.0087890625,46.40625,0)" xlink:href="#az"/><use transform="matrix(0.0087890625,0,0,0.0087890625,52.294921875,0)" xlink:href="#aG"/><use transform="matrix(0.0087890625,0,0,0.0087890625,59.0712890625,0)" xlink:href="#aE"/></g><g id="as"><use transform="matrix(0.0087890625,0,0,0.0087890625,0,0)" xlink:href="#aK"/><use transform="matrix(0.0087890625,0,0,0.0087890625,15.767578125,0)" xlink:href="#ax"/><use transform="matrix(0.0087890625,0,0,0.0087890625,26.26171875,0)" xlink:href="#aC"/><use transform="matrix(0.0087890625,0,0,0.0087890625,36.896484375,0)" xlink:href="#ay"/><use transform="matrix(0.0087890625,0,0,0.0087890625,46.3974609375,0)" xlink:href="#aE"/><use transform="matrix(0.0087890625,0,0,0.0087890625,56.5048828125,0)" xlink:href="#aU"/><use transform="matrix(0.0087890625,0,0,0.0087890625,60.8642578125,0)" xlink:href="#ax"/></g><g id="at"><use transform="matrix(0.0087890625,0,0,0.0087890625,0,0)" xlink:href="#ax"/><use transform="matrix(0.0087890625,0,0,0.0087890625,10.494140625,0)" xlink:href="#aG"/><use transform="matrix(0.0087890625,0,0,0.0087890625,17.5517578125,0)" xlink:href="#aG"/><use transform="matrix(0.0087890625,0,0,0.0087890625,24.029296875,0)" xlink:href="#aI"/><use transform="matrix(0.0087890625,0,0,0.0087890625,34.822265625,0)" xlink:href="#aG"/></g><g id="au"><use transform="matrix(0.0087890625,0,0,0.0087890625,0,0)" xlink:href="#aA"/><use transform="matrix(0.0087890625,0,0,0.0087890625,4.359375,0)" xlink:href="#aC"/><use transform="matrix(0.0087890625,0,0,0.0087890625,14.73046875,0)" xlink:href="#aQ"/><use transform="matrix(0.0087890625,0,0,0.0087890625,24.7587890625,0)" xlink:href="#aE"/><use transform="matrix(0.0087890625,0,0,0.0087890625,34.8662109375,0)" xlink:href="#aF"/><use transform="matrix(0.0087890625,0,0,0.0087890625,39.2255859375,0)" xlink:href="#aA"/><use transform="matrix(0.0087890625,0,0,0.0087890625,43.5849609375,0)" xlink:href="#aD"/><use transform="matrix(0.0087890625,0,0,0.0087890625,54.6064453125,0)" xlink:href="#aI"/><use transform="matrix(0.0087890625,0,0,0.0087890625,65.3994140625,0)" xlink:href="#ay"/></g><g id="av"><use transform="matrix(0.0087890625,0,0,0.0087890625,0,0)" xlink:href="#aN"/><use transform="matrix(0.0087890625,0,0,0.0087890625,10.283203125,0)" xlink:href="#aI"/><use transform="matrix(0.0087890625,0,0,0.0087890625,21.076171875,0)" xlink:href="#aC"/><use transform="matrix(0.0087890625,0,0,0.0087890625,31.7109375,0)" xlink:href="#ay"/><use transform="matrix(0.0087890625,0,0,0.0087890625,41.2119140625,0)" xlink:href="#aJ"/><use transform="matrix(0.0087890625,0,0,0.0087890625,51.85546875,0)" xlink:href="#aF"/><use transform="matrix(0.0087890625,0,0,0.0087890625,56.478515625,0)" xlink:href="#az"/><use transform="matrix(0.0087890625,0,0,0.0087890625,62.455078125,0)" xlink:href="#aE"/></g></defs></g></svg>