<svg xmlns="http://www.w3.org/2000/svg" xmlns:xlink="http://www.w3.org/1999/xlink" xmlns:lucid="lucid" width="1046" height="823"><g transform="translate(-1168 3072)" lucid:page-tab-id="0_0"><path d="M-1500-4000h4500v9500h-4500z" fill="#fff"/><path d="M1197.22-3037.33h40v757.5h-40zM1238.22-3037.33H1274v380h-35.78M1238.22-2657.33H1274v377.5h-35.78" stroke="#000" stroke-width="2" fill="#fff"/><path d="M1274-3037.33h903.22v380H1274zM1274-2657.33h903.22v377.5H1274z" stroke="#000" stroke-width="2" fill="none"/><use xlink:href="#a" transform="matrix(-1.8369701987210297e-16,-1,1,-1.8369701987210297e-16,1197.2207031250005,-2279.8333333333335) translate(216.49462890625 26.5478515625)"/><use xlink:href="#b" transform="matrix(-1.8369701987210297e-16,-1,1,-1.8369701987210297e-16,1197.2207031250005,-2279.8333333333335) translate(271.01318359375 26.5478515625)"/><use xlink:href="#c" transform="matrix(-1.8369701987210297e-16,-1,1,-1.8369701987210297e-16,1197.2207031250005,-2279.8333333333335) translate(301.95068359375 26.5478515625)"/><use xlink:href="#d" transform="matrix(-1.8369701987210297e-16,-1,1,-1.8369701987210297e-16,1197.2207031250005,-2279.8333333333335) translate(389.10302734375 26.5478515625)"/><use xlink:href="#e" transform="matrix(-1.8369701987210297e-16,-1,1,-1.8369701987210297e-16,1197.2207031250005,-2279.8333333333335) translate(457.27099609375 26.5478515625)"/><use xlink:href="#f" transform="matrix(-1.8369701987210297e-16,-1,1,-1.8369701987210297e-16,1237.2207031250005,-2657.3333333333335) translate(112.2255859375 25.0478515625)"/><use xlink:href="#g" transform="matrix(-1.8369701987210297e-16,-1,1,-1.8369701987210297e-16,1237.2207031250005,-2279.8333333333335) translate(156.2783203125 25.0478515625)"/><path d="M1577.22-2877.33h200v60h-200z" stroke="#000" stroke-width="2" fill="#fff"/><use xlink:href="#h" transform="matrix(1,0,0,1,1577.220703125,-2877.3333333333335) translate(19.879511718750003 25.875)"/><use xlink:href="#i" transform="matrix(1,0,0,1,1577.220703125,-2877.3333333333335) translate(65.68810546875 25.875)"/><use xlink:href="#j" transform="matrix(1,0,0,1,1577.220703125,-2877.3333333333335) translate(128.63537109375 25.875)"/><use xlink:href="#k" transform="matrix(1,0,0,1,1577.220703125,-2877.3333333333335) translate(72.36339843750001 47.654296875)"/><path d="M1677.22-2815.83v253.6" stroke="#333" fill="none"/><path d="M1677.7-2815.82h-.95v-.5h.95z" stroke="#333" stroke-width=".05" fill="#333"/><path d="M1677.22-2547.45l-4.63-14.27h9.26z" stroke="#333" fill="#333"/><path d="M1577.22-2544.83h200v60h-200z" stroke="#000" stroke-width="2" fill="#fff"/><use xlink:href="#l" transform="matrix(1,0,0,1,1577.220703125,-2544.8333333333335) translate(40.2130078125 36.65625)"/><use xlink:href="#m" transform="matrix(1,0,0,1,1577.220703125,-2544.8333333333335) translate(94.3536328125 36.65625)"/><path d="M1942.22-2514.83c0 16.57-13.43 30-30 30s-30-13.43-30-30 13.43-30 30-30 30 13.43 30 30z" stroke="#000" stroke-width="6" fill="#fff"/><use xlink:href="#n" transform="matrix(1,0,0,1,1882.220703125,-2482.8333333333335) translate(5.27197265625 17.4375)"/><use xlink:href="#o" transform="matrix(1,0,0,1,1882.220703125,-2482.8333333333335) translate(17.0625 43.572656249999994)"/><use xlink:href="#p" transform="matrix(1,0,0,1,1882.220703125,-2482.8333333333335) translate(-11.044921875 69.70781249999999)"/><path d="M1778.72-2514.83h87.12" stroke="#333" fill="none"/><path d="M1778.73-2514.36h-.5v-.95h.5z" stroke="#333" stroke-width=".05" fill="#333"/><path d="M1880.6-2514.83l-14.26 4.63v-9.27z" stroke="#333" fill="#333"/><path d="M1397.22-2927.33c0 16.57-13.43 30-30 30s-30-13.43-30-30 13.43-30 30-30 30 13.43 30 30z" stroke="#000" stroke-width="2" fill="#fff"/><path d="M1394.22-2927.33c0 14.9-12.1 27-27 27s-27-12.1-27-27 12.1-27 27-27 27 12.1 27 27z" stroke="#000" stroke-width="2" fill="#fff"/><path d="M1347.22-2934.83h28v-7.5l12 15-12 15v-7.5h-28z" stroke="#000" stroke-width="2" fill="#fff"/><g><use xlink:href="#q" transform="matrix(1,0,0,1,1337.220703125,-2895.3333333333335) translate(11.9677734375 17.4375)"/><use xlink:href="#r" transform="matrix(1,0,0,1,1337.220703125,-2895.3333333333335) translate(-6.68994140625 43.572656249999994)"/></g><path d="M1398.72-2927.33h266.5a12 12 0 0 1 12 12v20.6" stroke="#333" fill="none"/><path d="M1398.73-2926.86h-.55l.04-.45-.02-.5h.53z" stroke="#333" stroke-width=".05" fill="#333"/><path d="M1677.22-2879.95l-4.63-14.27h9.26z" stroke="#333" fill="#333"/><defs><path d="M538 24C308 24 148-78 108-271l171-41c32 123 123 178 257 178 156 0 256-77 256-169 0-77-54-128-164-154l-186-44c-203-48-300-148-300-305 0-192 176-326 414-326 230 0 351 112 402 269l-163 42c-31-80-94-158-238-158-133 0-233 69-233 162 0 83 57 129 188 160l169 40c203 48 298 149 298 302 0 196-179 339-441 339" id="s"/><path d="M471 26C259 26 90-98 90-318c0-256 228-303 435-329 202-27 287-16 287-108 0-139-79-219-234-219-161 0-248 86-283 164l-173-57c86-203 278-265 451-265 150 0 419 46 419 395V0H815v-152h-12C765-73 660 26 471 26zm31-159c199 0 310-134 310-271v-155c-30 35-226 55-295 64-131 17-246 59-246 186 0 116 97 176 231 176" id="t"/><path d="M338-1490V0H158v-1490h180" id="u"/><path d="M158 0v-1118h180V0H158zm91-1301c-68 0-125-53-125-119s57-119 125-119c69 0 126 53 126 119s-57 119-126 119" id="v"/><path d="M577 24c-279 0-473-224-473-580 0-354 195-576 474-576 218 0 287 134 324 193h14v-551h180V0H922v-173h-20C865-111 790 24 577 24zm27-161c203 0 314-172 314-421 0-247-108-413-314-413-212 0-317 181-317 413 0 235 108 421 317 421" id="w"/><g id="a"><use transform="matrix(0.0087890625,0,0,0.0087890625,0,0)" xlink:href="#s"/><use transform="matrix(0.0087890625,0,0,0.0087890625,9.5009765625,0)" xlink:href="#t"/><use transform="matrix(0.0087890625,0,0,0.0087890625,19.6083984375,0)" xlink:href="#u"/><use transform="matrix(0.0087890625,0,0,0.0087890625,23.9677734375,0)" xlink:href="#v"/><use transform="matrix(0.0087890625,0,0,0.0087890625,28.3271484375,0)" xlink:href="#w"/><use transform="matrix(0.0087890625,0,0,0.0087890625,39.3486328125,0)" xlink:href="#t"/></g><path d="M628 24c-324 0-524-230-524-574 0-343 198-582 503-582 237 0 487 146 487 559v75H286c9 234 145 362 343 362 132 0 231-58 273-172l174 48C1024-91 857 24 628 24zM287-650h624c-17-190-120-322-304-322-192 0-309 151-320 322" id="x"/><g id="b"><use transform="matrix(0.0087890625,0,0,0.0087890625,0,0)" xlink:href="#w"/><use transform="matrix(0.0087890625,0,0,0.0087890625,11.021484375,0)" xlink:href="#x"/><use transform="matrix(0.0087890625,0,0,0.0087890625,21.515625,0)" xlink:href="#u"/></g><path d="M158 418v-1536h174v179h20c37-59 106-193 324-193 279 0 474 222 474 576 0 356-194 580-473 580-213 0-288-135-325-197h-14v591H158zm492-555c209 0 317-186 317-421 0-232-105-413-317-413-206 0-314 166-314 413 0 249 111 421 314 421" id="y"/><path d="M158 0v-1118h174v172h12c41-113 157-188 290-188 26 0 70 2 91 3v181c-11-2-60-10-108-10-161 0-279 109-279 260V0H158" id="z"/><path d="M613 24c-304 0-509-231-509-576 0-350 205-580 509-580 305 0 511 230 511 580 0 345-206 576-511 576zm0-161c226 0 329-195 329-415 0-222-103-419-329-419-223 0-326 196-326 419 0 220 103 415 326 415" id="A"/><path d="M611 442c-248 0-391-105-460-228l146-94c47 65 117 165 314 165 178 0 307-82 307-266v-224h-17C863-141 792-18 576-18c-268 0-472-195-472-546 0-346 197-568 476-568 216 0 288 133 326 193h17v-179h175V29c0 289-215 413-487 413zm-5-620c203 0 314-146 314-390 0-237-108-403-314-403-213 0-319 180-319 403 0 230 109 390 319 390" id="B"/><path d="M158 0v-1118h175l1 205c55-151 181-225 313-225 147 0 245 90 285 228 53-141 190-228 352-228 194 0 352 125 352 384V0h-181v-749c0-161-105-225-225-225-151 0-243 103-243 244V0H807v-767c0-124-93-207-219-207-131 0-250 92-250 270V0H158" id="C"/><g id="c"><use transform="matrix(0.0087890625,0,0,0.0087890625,0,0)" xlink:href="#y"/><use transform="matrix(0.0087890625,0,0,0.0087890625,11.021484375,0)" xlink:href="#z"/><use transform="matrix(0.0087890625,0,0,0.0087890625,17.4990234375,0)" xlink:href="#A"/><use transform="matrix(0.0087890625,0,0,0.0087890625,28.2919921875,0)" xlink:href="#B"/><use transform="matrix(0.0087890625,0,0,0.0087890625,39.3310546875,0)" xlink:href="#z"/><use transform="matrix(0.0087890625,0,0,0.0087890625,46.107421875,0)" xlink:href="#t"/><use transform="matrix(0.0087890625,0,0,0.0087890625,56.21484375,0)" xlink:href="#C"/><use transform="matrix(0.0087890625,0,0,0.0087890625,71.982421875,0)" xlink:href="#t"/></g><path d="M537 14c-226 0-379-139-379-422v-710h180v695c0 172 97 275 253 275 160 0 281-109 281-300v-670h181V0H879v-209C806-46 684 14 537 14" id="D"/><g id="d"><use transform="matrix(0.0087890625,0,0,0.0087890625,0,0)" xlink:href="#D"/><use transform="matrix(0.0087890625,0,0,0.0087890625,10.6435546875,0)" xlink:href="#s"/><use transform="matrix(0.0087890625,0,0,0.0087890625,20.14453125,0)" xlink:href="#D"/><use transform="matrix(0.0087890625,0,0,0.0087890625,30.7880859375,0)" xlink:href="#t"/><use transform="matrix(0.0087890625,0,0,0.0087890625,40.8955078125,0)" xlink:href="#z"/><use transform="matrix(0.0087890625,0,0,0.0087890625,47.953125,0)" xlink:href="#v"/><use transform="matrix(0.0087890625,0,0,0.0087890625,52.3125,0)" xlink:href="#A"/></g><g id="e"><use transform="matrix(0.0087890625,0,0,0.0087890625,0,0)" xlink:href="#x"/><use transform="matrix(0.0087890625,0,0,0.0087890625,10.494140625,0)" xlink:href="#C"/><use transform="matrix(0.0087890625,0,0,0.0087890625,26.26171875,0)" xlink:href="#y"/><use transform="matrix(0.0087890625,0,0,0.0087890625,37.283203125,0)" xlink:href="#u"/><use transform="matrix(0.0087890625,0,0,0.0087890625,41.642578125,0)" xlink:href="#x"/><use transform="matrix(0.0087890625,0,0,0.0087890625,52.3125,0)" xlink:href="#t"/><use transform="matrix(0.0087890625,0,0,0.0087890625,62.419921875,0)" xlink:href="#w"/><use transform="matrix(0.0087890625,0,0,0.0087890625,73.44140625,0)" xlink:href="#A"/></g><path d="M934 0v166H0V0h934" id="E"/><g id="f"><use transform="matrix(0.0087890625,0,0,0.0087890625,0,0)" xlink:href="#D"/><use transform="matrix(0.0087890625,0,0,0.0087890625,10.6435546875,0)" xlink:href="#s"/><use transform="matrix(0.0087890625,0,0,0.0087890625,20.14453125,0)" xlink:href="#D"/><use transform="matrix(0.0087890625,0,0,0.0087890625,30.7880859375,0)" xlink:href="#t"/><use transform="matrix(0.0087890625,0,0,0.0087890625,40.8955078125,0)" xlink:href="#z"/><use transform="matrix(0.0087890625,0,0,0.0087890625,47.953125,0)" xlink:href="#v"/><use transform="matrix(0.0087890625,0,0,0.0087890625,52.3125,0)" xlink:href="#A"/><use transform="matrix(0.0087890625,0,0,0.0087890625,63.10546875,0)" xlink:href="#E"/><use transform="matrix(0.0087890625,0,0,0.0087890625,71.314453125,0)" xlink:href="#x"/><use transform="matrix(0.0087890625,0,0,0.0087890625,81.80859375,0)" xlink:href="#C"/><use transform="matrix(0.0087890625,0,0,0.0087890625,97.576171875,0)" xlink:href="#y"/><use transform="matrix(0.0087890625,0,0,0.0087890625,108.59765625,0)" xlink:href="#u"/><use transform="matrix(0.0087890625,0,0,0.0087890625,112.95703125,0)" xlink:href="#x"/><use transform="matrix(0.0087890625,0,0,0.0087890625,123.626953125,0)" xlink:href="#t"/><use transform="matrix(0.0087890625,0,0,0.0087890625,133.734375,0)" xlink:href="#w"/><use transform="matrix(0.0087890625,0,0,0.0087890625,144.755859375,0)" xlink:href="#A"/></g><path d="M598-1118v154H368v674c0 100 37 144 132 144 23 0 62-6 92-12L629-6c-37 13-88 20-134 20-193 0-307-107-307-290v-688H20v-154h168v-266h180v266h230" id="F"/><g id="g"><use transform="matrix(0.0087890625,0,0,0.0087890625,0,0)" xlink:href="#s"/><use transform="matrix(0.0087890625,0,0,0.0087890625,9.5009765625,0)" xlink:href="#v"/><use transform="matrix(0.0087890625,0,0,0.0087890625,13.8603515625,0)" xlink:href="#s"/><use transform="matrix(0.0087890625,0,0,0.0087890625,23.361328125,0)" xlink:href="#F"/><use transform="matrix(0.0087890625,0,0,0.0087890625,29.07421875,0)" xlink:href="#x"/><use transform="matrix(0.0087890625,0,0,0.0087890625,39.568359375,0)" xlink:href="#C"/><use transform="matrix(0.0087890625,0,0,0.0087890625,55.3359375,0)" xlink:href="#t"/></g><g id="h"><use transform="matrix(0.0087890625,0,0,0.0087890625,0,0)" xlink:href="#x"/><use transform="matrix(0.0087890625,0,0,0.0087890625,10.494140625,0)" xlink:href="#u"/><use transform="matrix(0.0087890625,0,0,0.0087890625,14.853515625,0)" xlink:href="#v"/><use transform="matrix(0.0087890625,0,0,0.0087890625,19.212890625,0)" xlink:href="#B"/><use transform="matrix(0.0087890625,0,0,0.0087890625,30.251953125,0)" xlink:href="#x"/></g><path d="M613 24c-304 0-509-231-509-576 0-350 205-580 509-580 216 0 392 114 453 309l-173 49c-33-115-133-197-280-197-223 0-326 196-326 419 0 220 103 415 326 415 150 0 252-85 285-206l172 49C1010-95 832 24 613 24" id="G"/><path d="M613 24c-304 0-509-231-509-576 0-350 205-580 509-580 305 0 511 230 511 580 0 345-206 576-511 576zm0-161c226 0 329-195 329-415 0-222-103-419-329-419-223 0-326 196-326 419 0 220 103 415 326 415zm-79-1127l140-294h201l-194 294H534" id="H"/><path d="M338-670V0H158v-1118h173l1 207c72-158 192-221 342-221 226 0 378 139 378 422V0H872v-695c0-172-96-275-252-275-161 0-282 109-282 300" id="I"/><g id="i"><use transform="matrix(0.0087890625,0,0,0.0087890625,0,0)" xlink:href="#A"/><use transform="matrix(0.0087890625,0,0,0.0087890625,10.79296875,0)" xlink:href="#y"/><use transform="matrix(0.0087890625,0,0,0.0087890625,21.814453125,0)" xlink:href="#G"/><use transform="matrix(0.0087890625,0,0,0.0087890625,32.09765625,0)" xlink:href="#v"/><use transform="matrix(0.0087890625,0,0,0.0087890625,36.45703125,0)" xlink:href="#H"/><use transform="matrix(0.0087890625,0,0,0.0087890625,47.25,0)" xlink:href="#I"/></g><g id="j"><use transform="matrix(0.0087890625,0,0,0.0087890625,0,0)" xlink:href="#G"/><use transform="matrix(0.0087890625,0,0,0.0087890625,10.283203125,0)" xlink:href="#x"/><use transform="matrix(0.0087890625,0,0,0.0087890625,20.77734375,0)" xlink:href="#z"/><use transform="matrix(0.0087890625,0,0,0.0087890625,27.8349609375,0)" xlink:href="#z"/><use transform="matrix(0.0087890625,0,0,0.0087890625,34.611328125,0)" xlink:href="#t"/><use transform="matrix(0.0087890625,0,0,0.0087890625,44.71875,0)" xlink:href="#z"/></g><g id="k"><use transform="matrix(0.0087890625,0,0,0.0087890625,0,0)" xlink:href="#s"/><use transform="matrix(0.0087890625,0,0,0.0087890625,9.5009765625,0)" xlink:href="#x"/><use transform="matrix(0.0087890625,0,0,0.0087890625,19.9951171875,0)" xlink:href="#s"/><use transform="matrix(0.0087890625,0,0,0.0087890625,29.49609375,0)" xlink:href="#v"/><use transform="matrix(0.0087890625,0,0,0.0087890625,33.85546875,0)" xlink:href="#A"/><use transform="matrix(0.0087890625,0,0,0.0087890625,44.6484375,0)" xlink:href="#I"/></g><g id="l"><use transform="matrix(0.0087890625,0,0,0.0087890625,0,0)" xlink:href="#G"/><use transform="matrix(0.0087890625,0,0,0.0087890625,10.283203125,0)" xlink:href="#v"/><use transform="matrix(0.0087890625,0,0,0.0087890625,14.642578125,0)" xlink:href="#x"/><use transform="matrix(0.0087890625,0,0,0.0087890625,25.13671875,0)" xlink:href="#z"/><use transform="matrix(0.0087890625,0,0,0.0087890625,32.1943359375,0)" xlink:href="#z"/><use transform="matrix(0.0087890625,0,0,0.0087890625,38.970703125,0)" xlink:href="#t"/></g><g id="m"><use transform="matrix(0.0087890625,0,0,0.0087890625,0,0)" xlink:href="#s"/><use transform="matrix(0.0087890625,0,0,0.0087890625,9.5009765625,0)" xlink:href="#v"/><use transform="matrix(0.0087890625,0,0,0.0087890625,13.8603515625,0)" xlink:href="#s"/><use transform="matrix(0.0087890625,0,0,0.0087890625,23.361328125,0)" xlink:href="#F"/><use transform="matrix(0.0087890625,0,0,0.0087890625,29.07421875,0)" xlink:href="#x"/><use transform="matrix(0.0087890625,0,0,0.0087890625,39.568359375,0)" xlink:href="#C"/><use transform="matrix(0.0087890625,0,0,0.0087890625,55.3359375,0)" xlink:href="#t"/></g><g id="n"><use transform="matrix(0.0087890625,0,0,0.0087890625,0,0)" xlink:href="#s"/><use transform="matrix(0.0087890625,0,0,0.0087890625,9.5009765625,0)" xlink:href="#t"/><use transform="matrix(0.0087890625,0,0,0.0087890625,19.6083984375,0)" xlink:href="#u"/><use transform="matrix(0.0087890625,0,0,0.0087890625,23.9677734375,0)" xlink:href="#v"/><use transform="matrix(0.0087890625,0,0,0.0087890625,28.3271484375,0)" xlink:href="#w"/><use transform="matrix(0.0087890625,0,0,0.0087890625,39.3486328125,0)" xlink:href="#t"/></g><g id="o"><use transform="matrix(0.0087890625,0,0,0.0087890625,0,0)" xlink:href="#w"/><use transform="matrix(0.0087890625,0,0,0.0087890625,11.021484375,0)" xlink:href="#x"/><use transform="matrix(0.0087890625,0,0,0.0087890625,21.515625,0)" xlink:href="#u"/></g><g id="p"><use transform="matrix(0.0087890625,0,0,0.0087890625,0,0)" xlink:href="#y"/><use transform="matrix(0.0087890625,0,0,0.0087890625,11.021484375,0)" xlink:href="#z"/><use transform="matrix(0.0087890625,0,0,0.0087890625,17.4990234375,0)" xlink:href="#A"/><use transform="matrix(0.0087890625,0,0,0.0087890625,28.2919921875,0)" xlink:href="#B"/><use transform="matrix(0.0087890625,0,0,0.0087890625,39.3310546875,0)" xlink:href="#z"/><use transform="matrix(0.0087890625,0,0,0.0087890625,46.107421875,0)" xlink:href="#t"/><use transform="matrix(0.0087890625,0,0,0.0087890625,56.21484375,0)" xlink:href="#C"/><use transform="matrix(0.0087890625,0,0,0.0087890625,71.982421875,0)" xlink:href="#t"/></g><path d="M180 0v-1490h270l367 940c28 72 75 218 110 339 35-117 81-264 110-339l362-940h271V0h-187c2-448-5-837 7-1287-157 497-311 829-483 1287H842C666-458 514-784 354-1284c12 438 5 843 7 1284H180" id="J"/><g id="q"><use transform="matrix(0.0087890625,0,0,0.0087890625,0,0)" xlink:href="#J"/><use transform="matrix(0.0087890625,0,0,0.0087890625,16.259765625,0)" xlink:href="#x"/><use transform="matrix(0.0087890625,0,0,0.0087890625,26.75390625,0)" xlink:href="#I"/><use transform="matrix(0.0087890625,0,0,0.0087890625,37.388671875,0)" xlink:href="#D"/></g><g id="r"><use transform="matrix(0.0087890625,0,0,0.0087890625,0,0)" xlink:href="#y"/><use transform="matrix(0.0087890625,0,0,0.0087890625,11.021484375,0)" xlink:href="#z"/><use transform="matrix(0.0087890625,0,0,0.0087890625,18.0791015625,0)" xlink:href="#v"/><use transform="matrix(0.0087890625,0,0,0.0087890625,22.4384765625,0)" xlink:href="#I"/><use transform="matrix(0.0087890625,0,0,0.0087890625,33.0732421875,0)" xlink:href="#G"/><use transform="matrix(0.0087890625,0,0,0.0087890625,43.3564453125,0)" xlink:href="#v"/><use transform="matrix(0.0087890625,0,0,0.0087890625,47.7158203125,0)" xlink:href="#y"/><use transform="matrix(0.0087890625,0,0,0.0087890625,58.9130859375,0)" xlink:href="#t"/><use transform="matrix(0.0087890625,0,0,0.0087890625,69.0205078125,0)" xlink:href="#u"/></g></defs></g></svg>